<?xml version="1.0" standalone="yes"?>
<svg xmlns="http://www.w3.org/2000/svg" width="480" height="320">
<path style="fill:#393b3b; stroke:none;" d="M0 0L0 89L66 95.2593L115 97.0895L194 107.919L247 118.265L266 124L268 123L295 135L296 140L296 141L296 142L294 142C293.734 157.057 268.194 173.727 256 179.138C212.848 198.286 171.265 204.428 125 208.83C113.362 209.938 101.654 210.107 90 211.329C85.4353 211.808 77.9892 212.304 75 216C64.5832 215.592 52.8667 227.647 44 232.482C31.2344 239.443 14.1876 243.072 0 246L0 320L480 320L480 172C438.361 164.83 397.117 140.083 369.745 108.424C358.876 95.8522 349.968 81.8584 339.465 69C335.964 64.7148 333.824 58.8647 329 56C329.182 49.4328 324.115 44.5926 324.033 38C323.831 21.5929 333.09 13.7601 339 0L0 0z"/>
<path style="fill:#b38b36; stroke:none;" d="M329 56C339.311 65.2493 348.683 80.2567 356.159 91.9961C376.591 124.081 407.902 144.597 441.715 159.646C449.882 163.281 460.027 167.185 469 167.907C471.805 168.132 476.958 168.747 478.972 166.258C483.351 160.846 480 141.91 480 135C467.245 132.253 447.142 121.762 438.539 111.795C431.676 103.844 427.68 94.312 419.536 87.3696C412.627 81.4795 397.862 75.0137 395 66L391 66L384 56L386 57C383.576 52.7531 382.053 48.757 380.863 44.0146C372.225 9.58871 417.783 5 441 5C432.064 -0.908081 422.236 0 412 0L363 0C356.292 0 343.116 -2.5528 337.899 2.27853C327.921 11.5181 321.795 28.4679 324.264 41.9962C325.178 47.0039 328.794 50.7483 329 56z"/>
<path style="fill:#589f45; stroke:none;" d="M432 0L432 2L480 14C479.985 -5.09933 445.739 0 432 0z"/>
<path style="fill:#3b81ac; stroke:none;" d="M462 0L463 1L462 0M464 0L464 1L480 5L480 0L464 0z"/>
<path style="fill:#c2d08f; stroke:none;" d="M386 57L384 56L384 57L391 66L395 66C396.727 75.3085 412.824 82.1396 419.536 88.0895C427.55 95.1927 431.458 104.848 438.539 112.625C447.153 122.088 467.376 133.264 480 135L480 14C453.318 8.42209 428.014 -0.405731 401 9.89969C381.472 17.3495 372.518 39.3279 386 57z"/>
<path style="fill:#3b81ac; stroke:none;" d="M179 25L175 32L152 29L151 29L152 35L128 34L118 36L118 37L121 40L113 40L113 44L107 46L107 47C110.41 52.7338 106.955 58.4798 115 62L115 63L111 62L111 63L116 67L118 68L129.17 71.4398L148 74L148 75L146 75L146 76L221 83.4552L259 79L259 78L257 77L266 73C270.46 73.8246 273.654 74.4132 277 71L273 70L273 69L279 68L279 67L276 48L269 48L269 46L272 43L251 37C247.464 40.5129 238.461 36.126 234 34.6667C223.451 31.2155 210.955 24.6968 199 25.3333C192.119 25.6996 185.583 31.2261 179 25z"/>
<path style="fill:#b38b36; stroke:none;" d="M390 61L391 62L390 61z"/>
<path style="fill:#589f45; stroke:none;" d="M155 64L155 65L159 65L155 64z"/>
<path style="fill:#3b81ac; stroke:none;" d="M122 69L123 70L122 69z"/>
<path style="fill:#393b3b; stroke:none;" d="M128.667 70.3333L129.333 70.6667L128.667 70.3333z"/>
<path style="fill:#3b81ac; stroke:none;" d="M0 89L0 159C18.6688 155.402 32.2307 137.711 50.7145 132.956C81.3196 125.082 113.618 124.059 145 121.91C185.778 119.118 225.419 118.759 266 124L249 118.525L199 108.586L67 94.9691L0 89z"/>
<path style="fill:#589f45; stroke:none;" d="M0 159L0 198C6.85758 195.307 19.2066 187.115 22.9769 180.714C26.5646 174.623 25.9625 166.292 30.1304 160.269C35.5484 152.441 45.4514 146.208 54 142.438C99.9239 122.187 152.085 132.462 200 133.741C211.355 134.044 223.629 130.253 235 129.17C249.272 127.811 263.657 128 278 128C271.766 123.094 259.737 122.536 252 121.914C232.863 120.376 214.091 118.456 194.829 119.526C147.194 122.174 96.2375 120.031 49.8302 132.84C31.5608 137.883 17.9642 153.325 0 159z"/>
<path style="fill:#3b81ac; stroke:none;" d="M267 123L268 124L267 123z"/>
<path style="fill:#b38b36; stroke:none;" d="M202 134L206 138L210 138C209.678 142.393 212.327 147.087 211.712 151.192C210.633 158.394 196.414 166.18 190 167C182.804 174.816 166.091 177.85 156 180.373C123.954 188.387 91.8545 188.875 59 187.196C51.2804 186.801 43.3904 187.499 35.7539 186.001C31.394 185.146 27.2539 181.691 22.5756 182.546C16.7296 183.615 4.17413 193.384 1.02392 198.515C-1.24201 202.205 0 208.832 0 213L0 246C14.2195 244.085 32.3847 239.361 45 232.482C53.6453 227.768 64.9103 216.164 75 216C80.6084 211.409 90.9669 211.354 98 210.695C116.016 209.007 133.993 209.151 152 207.91C203.616 204.356 266.851 186.708 296 142L296 141L296 140L295 135C277.511 125.835 261.195 128.119 242 128.961C229.16 129.524 214.249 129.854 202 134z"/>
<path style="fill:#c2d08f; stroke:none;" d="M23 183C29.7678 182.742 36.0081 186.69 43 186.946C79.3814 188.277 116.403 190.526 152 181.627C161.829 179.169 184.471 176.071 190 167C196.86 166.726 210.21 159.205 211.868 151.819C212.81 147.623 210.04 142.382 210 138L206 138C205.375 133.4 196.93 133.26 193 132.593C179.431 130.289 165.689 130.694 152 129.944C122.863 128.348 86.5336 129.186 59 140C48.5798 144.092 36.5897 150.065 30.037 159.606C25.5463 166.146 24.4318 175.408 23 183z"/>
<path style="fill:#589f45; stroke:none;" d="M469 168L469 169L480 172L480 167L469 168M25 176L26 177L25 176M25 178L26 179L25 178z"/>
</svg>
