<?xml version="1.0" standalone="yes"?>
<svg xmlns="http://www.w3.org/2000/svg" width="320" height="480">
<path style="fill:#2d3b37; stroke:none;" d="M0 0L0 57L19 73C15.2875 81.5117 15.1124 85.2365 24 89L25 89C30.0257 86.5127 36.5188 88.468 42 87.8156C47.7136 87.1356 53.1497 84.2453 59 84.4606C62.5371 84.5908 66.9876 85.9295 67.4938 90.0154C68.6094 99.0205 58.7552 99.12 53.0147 99.6296C49.8496 99.9106 47.9106 102.592 44.9105 103.039C37.8636 104.09 24.8593 100.174 18 98L19 96C13.0343 89.2224 8.3087 91.9781 0 90L0 135L0.603395 153.606L12 160.074L42 176L41 160L38 161C37.2878 158.325 35.241 153.925 36.8627 151.318C42.6847 141.959 64.2264 152.575 68.0965 159.004C73.0362 167.209 63.4383 173.495 57 176.866C54.8072 178.014 49.6358 179.04 49.6358 182.221C49.6358 194.632 75.2901 190.963 80 186L81 186L82 186C87.3038 192.967 112.752 186.885 115 179L123 171C144.456 177.091 164.063 192.804 186 193L182 199L191 196L191 197L182 206L187 211L189 211L194 195C204.219 197.689 207.648 183.64 216.867 183.446C219.469 183.391 220.309 186.418 222.414 187.397C225.792 188.969 230.417 186.333 233.411 188.832C237.493 192.238 235.758 196.321 242 198L236 210L224 218L222 233L209 248C215.529 249.229 221.065 240.909 222 235L223 235L224 237L230 232C227.614 241.956 221.68 254.299 214.53 261.721C204.309 272.333 206.822 254.818 208 250C188.799 251.893 179.191 231.933 182 216C178.497 215.945 177.093 215.39 176 212L167 216C168.344 225.14 173.731 241.957 170.691 250.83C168.141 258.269 156.474 267.197 156.748 275C156.886 278.936 161.383 282.439 163.986 284.907C170.333 290.922 176.934 296.584 182.91 303C185.882 306.19 188.748 311.101 192.911 312.843C196.076 314.168 202.244 312.528 206 313L207 308L208 311C224.311 308.46 214.106 285.719 226 282L225 295C231.166 292.129 237.874 286.332 242.79 281.565C245.308 279.124 247.396 274.557 251.035 273.596C255.181 272.503 256.116 281.29 255.442 283.985C254.506 287.728 250.174 289.604 247 291L245 288C244.985 300.594 235.791 305.279 228.478 314.17C222.459 321.488 218.358 333.396 218.789 343C219.579 360.56 223.878 382.486 230.627 399C235.532 411.005 244.824 424.026 246.787 437C249.148 452.603 241.956 465.535 238 480L320 480L320 362L315 365C317.793 356.605 319.486 353.374 310 353C306.04 357.328 300.522 355.901 296.468 359.448C293.253 362.261 291.772 366.649 289.153 369.961C282.698 378.123 271.85 382.325 278.214 368C280.728 362.341 285.901 360.172 289.357 355.545C291.202 353.075 290.07 349.838 290.518 347C291.496 340.808 296.714 335.143 296 329L292 332C289.344 330.508 288.382 333.699 288 336L265 352C267.581 345.614 274.475 332.902 282 332L282 331L282 330L276 323L277 323L278 326L279 326L281 321L282 312C288.06 314.02 285.548 297.637 291 299L290 296L292 297C291.547 294.543 291.167 293 294 293C294.423 287.481 295.104 280.785 301 279L301 274C325.653 272.851 320 241.602 320 225L313 220C300.431 229.535 305.305 239.233 298.551 251.215C295.67 256.326 288.376 257.657 284.815 262.14C275.701 273.615 277.522 285.032 264 294L265 288L264 288L264 290L263 290L270 274L266 277L271 266L270 262C267.985 253.852 266.351 252.354 258 255C255.093 249.744 253.058 248.21 254 242L249 244C258.141 230.459 271.281 207.176 287 201L287 210C294.946 208.459 306.039 201.732 311 211C325.525 200.761 320 176.003 320 160L320 17C315.14 18.1289 311.568 21.2669 306.961 22.6211C301.8 24.1379 297.176 22.9223 292.131 25.5741C284.635 29.5146 283.189 35.1088 274 35L274 32L260 34L262 31L257 31L256 28L248 26L248 28L240 27L214 35C215.011 21.4689 230.896 12.073 236 0L0 0z"/>
<path style="fill:#506155; stroke:none;" d="M236 0C229.449 10.5189 214.418 22.0725 214 35L240 27L248 28L248 26L256 28L257 31L262 31L260 34L274 32L274 35C283.95 35.3374 285.624 29.0973 293.87 25.1597C300.878 21.8129 315.141 24.2746 319.397 15.581C321.369 11.5515 320 4.4209 320 0L281 0L263.17 0.6026L225 23L239 0L236 0z"/>
<path style="fill:#5c9291; stroke:none;" d="M225 23C235.597 22.2959 240.683 13.5873 249.116 8.72763C254.486 5.6326 258.696 6.21524 262 0C245.194 0 227.323 1.61133 225 23z"/>
<path style="fill:#506155; stroke:none;" d="M258 31L259 32L258 31M0 57L0 90L19 96L18 98C24.3202 100.668 38.1443 104.15 44.9105 103.478C47.9152 103.179 49.972 100.461 53.0147 99.9962C59.2524 99.0431 69.858 99.1162 67.642 89.0579C65.3138 78.4901 44.3527 88.0245 38 87.9105C34.2092 87.8425 27.8011 86.2645 25 89L24 89C15.981 83.5107 15.9382 82.7143 19 73C12.8118 66.5993 9.40314 59.3674 0 57z"/>
<path style="fill:#2d3b37; stroke:none;" d="M0 88L1 89L0 88z"/>
<path style="fill:#506155; stroke:none;" d="M272 159L288 147C284.171 152.661 285.767 158.448 293 159C285.759 164.84 278.536 162.419 270 164L272 160L268 166C273.325 165.24 278.751 166.735 284 165.39C289.926 163.872 298.461 155.229 304 159L305 159L303 153C300.932 153.49 299.002 154.105 296.995 154.806C280.404 160.608 299.653 140.594 300 136C291.68 137.406 276.939 152.04 272 159z"/>
<path style="fill:#5c9291; stroke:none;" d="M288 146L289 147L288 146M272 160C273.563 158.973 286.781 153.298 281.338 159.403C278.288 162.824 272.824 159.996 270 164C278.063 163.002 287.069 165.791 293 159C285.919 157.894 285.269 152.805 288 147C281.693 149.143 275.849 154.648 272 160z"/>
<path style="fill:#506155; stroke:none;" d="M38 161L41 160L42 176L0 155L0 165L25 176.738L37.74 181.995L48.0147 192.236L79.7762 205.023L88 213C88.6998 209.904 89.8894 206.783 91.4383 203.986C98.2543 191.679 117.25 199.334 118.637 212C119.396 218.939 111.268 225.038 105 223.193C101.402 222.134 98.3332 219.649 95 218C98.0679 223.957 111.199 240.796 118.896 238.306C123.654 236.768 126.86 229.53 131 226.573C135.072 223.664 139.432 224.473 144 223.215C149.212 221.779 158.544 215.358 163.682 219.607C168.812 223.85 164.054 232.18 162.598 237C160.783 243.01 164.598 248.057 163.069 254C161.291 260.909 154.092 266.15 153.272 273C152.559 278.959 158.03 284.19 162.004 287.83C172.773 297.696 188.528 320.082 203 323C206.251 316.702 214.853 319.999 221 320L222 312L223 312C222.971 322.207 214.931 333.262 216.383 343C219.163 361.633 222.019 383.897 228.548 402C232.941 414.181 242.855 427.623 242.921 441C242.99 455.227 236.432 467.775 230 480C245.076 479.947 247.005 454.914 247 443C246.994 427.592 237.091 412.796 231.043 399C224.476 384.021 222.59 366.971 221.235 351C220.939 347.505 219.04 344.585 219.363 341C220.226 331.44 222.399 322.709 228.478 315.09C235.749 305.977 246.323 300.991 245 288L247 291C250.531 289.951 255.298 288.146 256.113 283.999C256.592 281.557 255.122 272.674 251.892 272.828C247.894 273.019 245.289 278.264 242.79 280.725C237.562 285.876 230.995 290.794 225 295L226 282C217.234 283.507 220.184 296.457 216.737 303C214.562 307.128 211.488 312.033 207 308L206 313C202.192 312.293 196.124 313.759 192.911 312.137C184.484 307.884 177.486 296.06 170.285 289.745C166.527 286.449 157.546 280.435 157.331 275C157.022 267.164 168.958 258.432 171.183 250.83C173.7 242.232 168.996 224.731 167 216L176 212C176.672 215.865 178.21 216.497 182 216C177.625 231.488 189.337 253.603 208 250C205.983 255.297 204.01 272.142 214.53 262.486C221.847 255.77 228.536 241.732 230 232L224 237L223 235L222 235C220.406 240.613 215.28 248.233 209 248L222 233L224 218L236 210L237 206C232.937 208.862 225.471 213.858 223.157 218.285C221.941 220.611 223.814 223.434 222.856 226.015C220.023 233.648 211.711 241.741 204.015 244.321C197.341 246.558 196.385 239.387 192.726 235.615C177.493 219.909 196.139 203.885 206 190C201.881 192.852 199.255 195.855 194 195L189 211L187 211L182 206L191 197L191 196L182 199L186 193C163.715 192.478 145.3 175.615 123 171L115 179C111.205 187.174 88.9036 192.004 82 186L81 186C75.6368 188.428 62.2921 192.056 57 189.336C54.618 188.111 49.221 184.793 50.3457 181.418C51.1922 178.878 55.8999 177.964 58 176.866C65.7904 172.794 74.0624 165.969 67.4506 157.043C61.9149 149.57 53.4536 148.983 45 149C42.3032 149.006 37.6687 148.394 36.1566 151.318C34.7663 154.007 37.0757 158.426 38 161z"/>
<path style="fill:#8fa187; stroke:none;" d="M278 155L278 156L282 156L274 161L277 156L272 162C274.683 161.661 279.226 161.763 281.392 159.977C284.996 157.005 280.888 154.559 278 155z"/>
<path style="fill:#d3e6da; stroke:none;" d="M274 161L282 156C277.801 155.604 275.835 157.281 274 161z"/>
<path style="fill:#8fa187; stroke:none;" d="M271 162L272 163L271 162z"/>
<path style="fill:#506155; stroke:none;" d="M107 163L107 166L113 166L107 163z"/>
<path style="fill:#5c9291; stroke:none;" d="M0 165C0.142138 176.926 22.8964 179.441 31.9097 185.086C36.7473 188.115 39.7994 192.858 45.0008 195.691C55.5799 201.454 68.1203 204.478 78 211.51C89.7222 219.853 106.109 246.573 122.91 242.693C127.226 241.696 129.29 237.048 133 235L133 234L130 234C133.555 227.987 139.38 226.453 146 227C143.257 230.51 140.363 231.299 136 231L135 235L157 232L150 226C154.663 222.243 158.152 221.663 164 222C163.945 228.531 160.959 233.703 160.185 240C159.519 245.422 161.543 250.691 159.75 256C157.615 262.322 151.042 266.997 151.134 274C151.242 282.167 158.323 287.556 164 292.421C177.499 303.987 190.626 323.464 208 329C211.111 324.917 213.979 324.059 219 324C218.851 330.381 214.972 335.727 215.059 342C215.125 346.824 218.218 350.385 218.856 355C220.918 369.891 221.63 385.484 225.913 400C231.605 419.296 246.96 436.894 234.289 457C228.865 465.608 218.378 477.006 207 475.747C195.296 474.452 183.391 460.562 174.715 453.59C153.246 436.339 127.844 425.698 109.075 405C99.8935 394.875 96.5392 380.565 83 375.47C65.0359 368.71 51.943 378.156 35 380.481C25.4403 381.794 8.58135 376.182 0 372C0.00174401 387.801 15.791 387.836 29 386.91C44.8913 385.797 61.9501 373.452 77.9853 381.916C90.3842 388.461 95.0657 403.187 102.706 414C114.952 431.331 132.257 440.867 148.985 453.154C155.17 457.696 161.136 465.825 169 467C177.588 483.984 194.857 480 211 480C216.215 480 225.164 481.699 229.787 478.972C236.122 475.235 239.629 461.713 241.251 455C246.842 431.856 231.552 415.357 226.651 394C223.415 379.899 221.822 366.202 219.856 352C219.321 348.133 216.368 344.986 216.518 341C216.889 331.155 222.993 322.258 223 312L222 312L221 320C214.966 319.996 205.198 315.782 203 323C188.16 317.965 174.524 298.308 163.001 287.83C159.247 284.417 152.607 278.772 153.541 273C154.573 266.616 161.31 261.547 163.073 255C164.7 248.955 160.879 243.747 162.61 237.961C164.035 233.193 168.917 224.112 164.397 219.603C162.032 217.245 157.84 218.181 155 218.924C147.221 220.96 133.916 222.952 128.015 228.189C124.915 230.941 122.206 237.158 117.957 238.092C110.865 239.65 98.9186 223.126 95 218C101.863 222.858 123.355 227.457 119.012 211C113.902 191.635 90.5042 194.173 88 213L50.0008 192.815L38.5409 181.995L26 176.738L0 165z"/>
<path style="fill:#506155; stroke:none;" d="M104 165L104 167L106 167L106 165L104 165M82 171L85 168L82 171z"/>
<path style="fill:#8fa187; stroke:none;" d="M0 172L0 189C5.53486 189.223 12.0887 189.031 16.8958 192.144C20.686 194.598 22.7226 198.387 27.0039 200.319C40.3916 206.363 55.5611 208.224 68 216.384C80.3458 224.483 89.5693 238.908 102.004 246.062C113.213 252.511 127.492 246.368 138 242.746C141.79 241.44 150.259 236.914 154.106 239.415C157.525 241.638 155.872 248.883 154.957 252C151.989 262.105 143.362 272.672 147.738 283.961C150.277 290.51 158.819 295.348 164 299.615C173.403 307.36 181.365 316.865 191 324.32C196.807 328.813 205.624 331.889 209.786 338.104C221.904 356.2 217.255 381.698 223.04 402C226.642 414.64 236.971 428.206 235.581 442C234.427 453.452 220.608 469.068 208.424 469.063C196.881 469.059 183.826 453.605 176.424 446.3C155.832 425.975 129.8 415.032 113.301 390C107.301 380.898 106.651 363.604 98.7222 356.649C80.3938 340.571 55.5022 359.838 35.9105 359.656C30.6447 359.607 26.6731 355.355 22.0895 353.301C16.9334 350.99 10.5863 351.675 7.64815 345.896C5.40544 341.484 3.09797 335.801 2 331L0 331L0 362C0.000269744 366.195 -0.78001 371.143 3.14815 373.852C28.1714 391.105 56.0634 365.71 82 375.47C97.7957 381.414 104.119 401.764 116 413.331C133.192 430.068 156.241 439.222 174.715 454.298C189.234 466.145 204.949 484.284 223.83 469.818C227.377 467.101 230.397 463.647 232.956 460C248.965 437.187 229.984 417.476 224.888 395C221.823 381.482 220.75 367.681 218.856 354C218.268 349.752 215.222 346.393 215.148 342C215.045 335.862 218.943 330.392 219 324C213.958 324.018 210.438 324.167 208 329C191.027 320.971 179.052 304.465 165 292.421C159.629 287.817 151.313 281.858 151.283 274C151.259 267.616 157.754 262.835 159.751 257C161.63 251.507 159.567 246.521 160.189 241C160.938 234.35 163.981 228.918 164 222C158.247 221.321 154.023 221.394 150 226L157 232L135 235L136 231C140.356 231.473 143.843 231.118 146 227C141.289 226.129 125.551 232.371 133 234C129.303 236.554 126.59 241.797 121.961 242.657C106.943 245.445 90.2094 220.378 80 212.277C70.2631 204.551 56.8259 201.57 46 195.691C40.7416 192.836 37.6479 188.219 32.8264 185.086C23.5535 179.059 10.811 174.237 0 172z"/>
<path style="fill:#2d3b37; stroke:none;" d="M125 176L125 177L128 177L125 176M144 180L145 181L144 180z"/>
<path style="fill:#506155; stroke:none;" d="M215 183L215 184L218 183L221 190L233 189L235 202L239 201L237 205L242 198L233.411 188.218L224.108 187.667L215 183z"/>
<path style="fill:#5c9291; stroke:none;" d="M216 183L220 191L232 190L229 196L235 203L239 203L239 202L239 201L235 202L233 189L221 190L216 183z"/>
<path style="fill:#506155; stroke:none;" d="M213 184L214 185L213 184z"/>
<path style="fill:#5c9291; stroke:none;" d="M214 184L215 185L214 184z"/>
<path style="fill:#8fa187; stroke:none;" d="M215 184C218.622 191.015 220.428 191.319 228 191L228 190L220 191L215 184z"/>
<path style="fill:#5c9291; stroke:none;" d="M212 185L211 187L212 185z"/>
<path style="fill:#8fa187; stroke:none;" d="M213 185L214 186L213 185z"/>
<path style="fill:#d3e6da; stroke:none;" d="M194 216C198.487 218.623 197.571 222.378 197 227C202.494 228.714 203.842 233.666 204 239C213.696 238.549 219.794 232.204 222 223L218 218L211 212C216.599 209.677 222.681 207.897 228 212L237 203L233 204C232.196 200.059 230.901 198.157 227 197L229 190C222.208 191.668 219.495 191.187 216 185C203.531 189.239 196.105 203.77 194 216z"/>
<path style="fill:#506155; stroke:none;" d="M210 186L207 190L210 186z"/>
<path style="fill:#8fa187; stroke:none;" d="M210 187L211 188L210 187M209 188L210 189L209 188z"/>
<path style="fill:#d3e6da; stroke:none;" d="M0 189L0 306C0 318.419 -1.66882 341.338 10.2276 349.688C13.308 351.85 17.1708 351.75 20.5756 353.062C24.9447 354.745 28.3833 358.482 32.9961 359.57C40.6918 361.386 54.2454 356.307 62 354.475C73.4019 351.782 91.6836 346.823 100.157 359.105C107.065 369.119 107.147 382.824 114.701 392.999C131.418 415.515 154.727 426.779 174.715 445.464C190.365 460.094 206.133 478.727 226.334 459.985C231.73 454.979 236.575 446.624 235.685 439C233.998 424.541 225.456 412.85 222.518 399C219.089 382.836 219.066 366.264 214.108 350.907C212.609 346.264 212.729 341.365 209.786 337.21C203.959 328.98 190.724 323.367 183.09 316.439C175.4 309.46 168.206 302.071 160.015 295.654C155.267 291.936 148.371 287.351 147.228 280.999C145.097 269.152 162.735 249.755 155.012 239.793C152.094 236.03 144.288 240.384 141 241.485C129.322 245.392 118.878 250.97 106 247.276C100.549 245.713 97.6309 240.97 93.8302 237.17C87.1088 230.449 79.4911 224.347 72 218.518C59.5871 208.858 43.2777 206.539 29 200.742C23.8548 198.653 21.4659 194.226 16.8958 191.593C11.8443 188.683 5.62844 189.07 0 189z"/>
<path style="fill:#8fa187; stroke:none;" d="M208 189L209 190L208 189z"/>
<path style="fill:#5c9291; stroke:none;" d="M206 190C198.568 197.375 184.891 212.754 185.519 224C186.482 241.246 206.38 251.758 217 235C213.433 237.199 207.673 242.812 203.147 242.006C200.057 241.456 199.868 237.43 198.552 235.21C194.754 228.806 189.313 226.779 191.21 218C192.503 212.013 195.077 205.001 198.638 200C201.037 196.632 205.018 194.051 206 190z"/>
<path style="fill:#8fa187; stroke:none;" d="M207 190L208 191L207 190M229 190L227 197L236 204L229 196L232 190L229 190M206 191L207 192L206 191M205 192L206 193L205 192M204 193L205 194L204 193z"/>
<path style="fill:#5c9291; stroke:none;" d="M167 203L175 201L175 200L169 200C171.019 196.4 172.898 195.311 177 195C171.043 192.53 165.846 196.741 167 203z"/>
<path style="fill:#8fa187; stroke:none;" d="M169 200L175 200L172 205L180 202L179 198L182 197L182 195C176.561 193.939 171.097 194.296 169 200z"/>
<path style="fill:#5c9291; stroke:none;" d="M180 194L181 195L180 194M183 194L184 195L183 194z"/>
<path style="fill:#8fa187; stroke:none;" d="M203 194L204 195L203 194z"/>
<path style="fill:#2d3b37; stroke:none;" d="M132 195C130.818 200.375 123.92 206.477 125.722 211.816C128.096 218.846 141.26 223.561 146.167 216.606C148.246 213.659 146.266 209.259 146 206L141 200L136 195L132 195z"/>
<path style="fill:#5c9291; stroke:none;" d="M182 195L183 196L182 195z"/>
<path style="fill:#506155; stroke:none;" d="M191 195L192 196L191 195z"/>
<path style="fill:#8fa187; stroke:none;" d="M202 195L203 196L202 195z"/>
<path style="fill:#506155; stroke:none;" d="M240 195L241 196L240 195z"/>
<path style="fill:#8fa187; stroke:none;" d="M201 196L202 197L201 196M200 197C195.624 203.152 190.378 213.237 190.554 221C190.729 228.707 195.21 230.175 198.552 236.103C199.656 238.062 199.889 241.431 202.314 242.292C205.45 243.404 209.453 240.479 212 239L212 238L204 239C203.939 233.535 203.149 228.055 197 227C197.816 222.587 199.043 217.773 194 216L200 197z"/>
<path style="fill:#5c9291; stroke:none;" d="M179.333 198.667L179.667 199.333L179.333 198.667M183.667 199.333L184.333 199.667L183.667 199.333z"/>
<path style="fill:#2d3b37; stroke:none;" d="M239 199L240 200L239 199z"/>
<path style="fill:#5c9291; stroke:none;" d="M180 200L179 204L180 204L180 200z"/>
<path style="fill:#8fa187; stroke:none;" d="M181 200L182 201L181 200z"/>
<path style="fill:#5c9291; stroke:none;" d="M182 200L183 201L182 200M239 200L240 201L239 200z"/>
<path style="fill:#506155; stroke:none;" d="M249 244L254 242C252.521 248.146 254.183 250.231 258 255C266.224 253.126 267.481 254.13 270 262C267.258 263.572 268.159 265.391 271 266L266 277L270 274L263 290L264 290L264 288L265 288L264 294C277.513 287.961 277.272 275.918 283.698 264.715C287.158 258.684 295.327 257.571 298.694 251.625C302.236 245.373 301.061 236.526 304.04 230C305.836 226.066 310.084 223.116 313 220C320.838 234.801 320 207.977 320 203L311 211C307.665 200.852 294.108 208.16 287 210L287 201C272.57 204.789 255.134 231.041 249 244z"/>
<path style="fill:#8fa187; stroke:none;" d="M237.333 202.667L237.667 203.333L237.333 202.667z"/>
<path style="fill:#5c9291; stroke:none;" d="M176.667 203.333L177.333 203.667L176.667 203.333M170 207L174 206L170 207M175 204L176 205L175 204z"/>
<path style="fill:#506155; stroke:none;" d="M188 204L189 205L188 204z"/>
<path style="fill:#8fa187; stroke:none;" d="M236 204L237 205L236 204z"/>
<path style="fill:#506155; stroke:none;" d="M239 204L240 205L239 204z"/>
<path style="fill:#5c9291; stroke:none;" d="M236 205L237 206L236 205z"/>
<path style="fill:#8fa187; stroke:none;" d="M235 206L236 207L235 206z"/>
<path style="fill:#506155; stroke:none;" d="M238 206L239 207L238 206z"/>
<path style="fill:#8fa187; stroke:none;" d="M234 207L235 208L234 207M211 212L218 218L223 224L221 216L232 211L232 210L228 212C222.955 207.251 216.382 208.875 211 212z"/>
<path style="fill:#5c9291; stroke:none;" d="M233 208L234 209L233 208M232 209L233 210L232 209M214 212L214 213L218 212L214 212M230 211L231 212L230 211M229 212L230 213L229 212M228 213L229 214L228 213M291 224C290.168 239.025 305.736 224.808 308 218C298.211 214.234 295.195 214.805 285 215.505C282.367 215.686 278.952 214.325 276.613 216.031C272.247 219.213 277.998 224.43 281.286 225.397C284.347 226.296 287.969 224.513 291 224M227 214L228 215L227 214M225.667 215.333L226.333 215.667L225.667 215.333M221 216L221 221L222 221L225 217L221 216M222 221L221 229L222 229C223.42 226.039 224.692 223.39 222 221z"/>
<path style="fill:#8fa187; stroke:none;" d="M221 225L221 228L222 228L221 225M220 228L218 232L220 228z"/>
<path style="fill:#5c9291; stroke:none;" d="M220 230L221 231L220 230z"/>
<path style="fill:#506155; stroke:none;" d="M223 230L222 232L223 230z"/>
<path style="fill:#5c9291; stroke:none;" d="M219 231L220 232L219 231M218 232L219 233L218 232z"/>
<path style="fill:#8fa187; stroke:none;" d="M217 233L218 234L217 233M216 234L217 235L216 234M212 238L216 235L212 238z"/>
<path style="fill:#5c9291; stroke:none;" d="M212 257C218.042 254.307 224.649 249.219 223 242C217.974 244.858 212.893 251.226 212 257z"/>
<path style="fill:#8fa187; stroke:none;" d="M221 246L222 247L221 246z"/>
<path style="fill:#506155; stroke:none;" d="M318 262C313.787 267.931 308.49 273.319 301 274L301 279C295.002 279.998 293.518 287.624 294 293C291.012 293 291.171 294.253 292 297L290 296L291 299L282 312L281 321C277.772 321.692 277.98 323.101 279 326L278 326L277 323L276 323C276.591 326.87 277.994 329.406 282 330L282 331L282 332C274.084 332.353 267.005 345.139 265 352L288 336L292 332L296 329C295.686 334.627 292.025 339.495 290.705 345C289.973 348.056 290.959 352.041 289.227 354.741C284.569 362.003 274.522 366.116 275.643 376.848C276.125 381.467 281.344 378.436 283.271 376.811C289.061 371.929 291.562 363.994 297.301 359.522C301.507 356.245 306.905 358.115 310 353C319.07 354.829 316.875 356.221 315 365C323.059 360.636 320 346.877 320 339L320 262L318 262z"/>
<path style="fill:#2d3b37; stroke:none;" d="M271.333 272.667L271.667 273.333L271.333 272.667z"/>
<path style="fill:#5c9291; stroke:none;" d="M305 277L306 278L305 277z"/>
<path style="fill:#8fa187; stroke:none;" d="M306 277L300 280L293.533 297L290.695 314L285 329C289.488 328.654 291.161 327.046 293 323L292 323L286 327L296 304L302 304L294 320L295 320L296 317L297 317L298 320C301.102 314.969 306.987 311.999 309.731 307.454C313.741 300.815 306.203 297.304 301 298C299.918 302.385 296.968 302.696 293 304C296.889 296.753 311.167 286.112 306 277z"/>
<path style="fill:#5c9291; stroke:none;" d="M307.333 277.667L307.667 278.333L307.333 277.667M303 279L304 280L303 279M299 280L300 281L299 280z"/>
<path style="fill:#d3e6da; stroke:none;" d="M302 282L299 291C302.211 288.431 304.05 285.932 302 282M304.333 282.667L304.667 283.333L304.333 282.667z"/>
<path style="fill:#5c9291; stroke:none;" d="M305 286L307 288L304 289L304 290L310 288C309.311 284.803 307.946 285.254 305 286M298 286L299 287L298 286M226 311C234.791 305.94 239.327 296.715 241 287C231.974 288.909 229.37 303.448 226 311z"/>
<path style="fill:#506155; stroke:none;" d="M305 287L306 288L305 287z"/>
<path style="fill:#8fa187; stroke:none;" d="M306 287L307 288L306 287z"/>
<path style="fill:#506155; stroke:none;" d="M304 288L305 289L304 288z"/>
<path style="fill:#5c9291; stroke:none;" d="M303 290L302 292L304 292L303 290M319 291L320 292L319 291M295 292L296 293L295 292M301 292L302 293L301 292M294 294L295 295L294 294M293 296L294 297L293 296M297 296L298 297L297 296M302.667 297.333L303.333 297.667L302.667 297.333M306 297L307 298L306 297M301.333 299.667L301.667 300.333L301.333 299.667M300 301L301 302L300 301M293 302L294 303L293 302z"/>
<path style="fill:#506155; stroke:none;" d="M264 318C271.072 315.587 272.84 309.58 275 303C268.305 304.896 265.373 311.591 264 318M293 303L294 304L293 303z"/>
<path style="fill:#5c9291; stroke:none;" d="M315 303L314 305L315 303z"/>
<path style="fill:#506155; stroke:none;" d="M283 306L286 304L283 306z"/>
<path style="fill:#d3e6da; stroke:none;" d="M296 304L286 327C294.087 324.788 300.319 311.768 302 304L296 304z"/>
<path style="fill:#5c9291; stroke:none;" d="M310 304L311 305L310 304M311.333 305.667L311.667 306.333L311.333 305.667M291 307L292 308L291 307M310 307L307 309L307 310L311 312L310 307z"/>
<path style="fill:#506155; stroke:none;" d="M297.333 315.667L297.667 316.333L297.333 315.667z"/>
<path style="fill:#5c9291; stroke:none;" d="M300 315L301 316L300 315M311 315L310 318L307 317L304 320L304 321L308 323L313 315L311 315z"/>
<path style="fill:#8fa187; stroke:none;" d="M299 341L300 341L304 333L306 336L311 327L317 316C307.115 314.534 301.497 333.664 299 341z"/>
<path style="fill:#5c9291; stroke:none;" d="M316 315L317 316L316 315M316.333 317.667L316.667 318.333L316.333 317.667z"/>
<path style="fill:#8fa187; stroke:none;" d="M296 320L297 321L296 320M306 320L307 321L306 320z"/>
<path style="fill:#5c9291; stroke:none;" d="M315 320L316 321L315 320z"/>
<path style="fill:#2d3b37; stroke:none;" d="M284 321L285 322L284 321z"/>
<path style="fill:#8fa187; stroke:none;" d="M293 321L294 322L293 321z"/>
<path style="fill:#5c9291; stroke:none;" d="M296 321L297 322L296 321M314.333 321.667L314.667 322.333L314.333 321.667z"/>
<path style="fill:#2d3b37; stroke:none;" d="M279 322L280 323L279 322M281 322L282 323L281 322M282 324L283 325L282 324M284 325L285 326L284 325M281 326L280 329L283 329L281 326M294 327L295 328L294 327z"/>
<path style="fill:#5c9291; stroke:none;" d="M311.333 327.667L311.667 328.333L311.333 327.667M313 327L314 328L313 327M284 328L285 329L284 328M287 329L287 330L290 330L287 329M309 330L310 331L309 330M305 331L306 332L305 331z"/>
<path style="fill:#506155; stroke:none;" d="M290 332L290 334L292 332L290 332M294 332L295 333L294 332z"/>
<path style="fill:#5c9291; stroke:none;" d="M302 332L303 333L302 332z"/>
<path style="fill:#506155; stroke:none;" d="M305 332L306 333L305 332z"/>
<path style="fill:#5c9291; stroke:none;" d="M307 333L308 334L307 333M301 334L302 335L301 334M303 334L304 335L303 334z"/>
<path style="fill:#2d3b37; stroke:none;" d="M297 336L298 337L297 336M299 336L300 337L299 336z"/>
<path style="fill:#5c9291; stroke:none;" d="M304 336L305 337L304 336z"/>
<path style="fill:#2d3b37; stroke:none;" d="M298 338L299 339L298 338z"/>
<path style="fill:#5c9291; stroke:none;" d="M301 338L302 339L301 338M299 339L300 340L299 339M299 341L300 342L299 341M298 342L299 343L298 342z"/>
<path style="fill:#2d3b37; stroke:none;" d="M296.333 350.667L296.667 351.333L296.333 350.667M292.667 351.333L293.333 351.667L292.667 351.333z"/>
<path style="fill:#506155; stroke:none;" d="M264 352L265 353L264 352M0 382L0 406C11.221 406.092 23.0587 405.462 34 402.37C46.9094 398.723 61.0189 391.32 73.9599 399.124C78.1809 401.67 79.3713 406.154 82.4113 409.715C88.7036 417.085 94.8958 424.666 101.209 432C114.684 447.652 133.439 457.928 151 468.076C161.004 473.857 167.057 480 179 480L169 467C161.612 465.122 155.909 457.61 149.961 453.154C135.959 442.662 117.965 434.385 107.469 419.829C98.9195 407.974 92.7374 390.31 79.9097 382.468C65.7979 373.842 48.1189 382.882 34 385.985C22.3256 388.55 10.9527 386.222 0 382z"/>
<path style="fill:#2d3b37; stroke:none;" d="M0 406L0 480L168 480C160.686 471.015 148.782 466.807 139 461.125C125.894 453.512 112.293 443.219 102.104 432C91.9272 420.794 81.7502 398.749 66.0895 395.498C55.1533 393.228 43.1848 399.493 33 402.37C22.4753 405.344 10.8424 406.023 0 406z"/>
</svg>
