<?xml version="1.0" standalone="yes"?>
<svg xmlns="http://www.w3.org/2000/svg" width="480" height="319">
<path style="fill:#053f79; stroke:none;" d="M0 0L2 2L0 0z"/>
<path style="fill:#e17774; stroke:none;" d="M1 0L1 1C7.81974 5.7142 18.0031 2.99911 26 3C18.5759 -1.39957 9.31768 0 1 0z"/>
<path style="fill:#053f79; stroke:none;" d="M21 0L21 1L36 3C32.8073 -1.42627 26.01 0.111694 21 0z"/>
<path style="fill:#052254; stroke:none;" d="M26.6667 0.333344L27.3333 0.666656L26.6667 0.333344z"/>
<path style="fill:#e17774; stroke:none;" d="M35 0L35 4L49 3L35 0z"/>
<path style="fill:#053f79; stroke:none;" d="M40 0L41 1L40 0M44 2L47 0L44 2z"/>
<path style="fill:#052254; stroke:none;" d="M46 1L46 2L72 1C65.5382 -1.71146 52.6657 -0.970276 46 1z"/>
<path style="fill:#e17774; stroke:none;" d="M72 0L72 1L76 2L76 1L72 0z"/>
<path style="fill:#053f79; stroke:none;" d="M73 0L74 1L73 0z"/>
<path style="fill:#052254; stroke:none;" d="M74 0L74 1L79 1L74 0z"/>
<path style="fill:#e17774; stroke:none;" d="M79 0L79 1L84 1L79 0z"/>
<path style="fill:#f9d305; stroke:none;" d="M0 4L0 86C60.0973 86 119.925 82 180 82L227 82C232.295 82 241.087 80.3372 245.816 83.0278C253.299 87.2865 260.214 101.892 265.116 109C279.803 130.298 294.644 151.466 309 173C314.613 181.419 320.774 195.315 330 200L330 0L89 0.0146484L0 4z"/>
<path style="fill:#f7bfbf; stroke:none;" d="M330 0L330 200L327 199L329 204L230 191L222.87 239L211 319L221 319L218 312L221 313L217 310L217 309L222 309L222 308L219 308L219 307L224 307L224 306L221 306L221 305L224 303L221 301L216 304L223 300L221 298L221 297L235 294L235 293L233 292L237 290L234 289L234 288L240 286L240 287L238 289L242 289L242 290L240 292L248 289L248 290L244 293L263 293L263 292L248 291L248 290L262 290L262 289L260 289L260 288L268 286L267 288L273 286L266 289L266 290L271 290L268 294L268 295L272 295L272 296L271 299L245 298L245 299L264 300L264 301L246 300L246 301L261 302C259.61 304.316 257.872 304.374 261 305L261 306L257 306L257 307L262 308L260 312L255 311L255 312L260 314L248 314L248 315L256 315L256 319C265.02 319 283.732 322.506 291 317L292 317L294 319L300 318L300 317L297 317L297 316L301 316L301 315L295 313L304 313L304 312L300 311L300 310L312 309L312 308L302 308L303 305L292 305L289 308L285 307L286 305L283 305L283 304L296 304L296 303L293 302L293 301L297 301L297 300C292.844 299.225 288.24 299.593 287 295L283 296C285.113 293.729 287.75 293.254 288 297L297 299L297 296L297 295C294.608 294.362 294.964 294.221 296 292L293 293L299 290L302 287L302 286L288 290L301 285L305 282L304 287L310 283L309 285L310 285L322 285L320 288L323 288L323 289L304 289L305 292L302 293L303 296L307 295L302 297L302 298L321 294L321 295L319 296L319 300L319 301L325 301L325 302L318 303L318 304L322 304L322 305L319 305L318 310L319 317L326 319C326 290.249 329 261.768 329 233C329 227.298 327.366 207.335 332.318 204.028C336.989 200.908 346.573 202.347 352 201.83C370.179 200.099 390.27 200.221 408 196L397.294 159L363.444 50L348 0L330 0z"/>
<path style="fill:#f9d305; stroke:none;" d="M348 0C348.48 20.497 361.237 44.4862 367.495 64C381.531 107.761 396.127 151.587 408 196L428 194C428 171.282 425.059 147.444 421.561 125C419.67 112.869 414.256 95.947 417 84C436.443 87.6019 460.279 86.1492 480 85L480 3L348 0z"/>
<path style="fill:#e17774; stroke:none;" d="M403 0L403 1C420.384 1 439.003 5.45193 456 1L439 0L403 0z"/>
<path style="fill:#f7bfbf; stroke:none;" d="M452 2C458.889 6.12668 467.059 3.49844 474 1C467.896 -1.56128 457.987 -0.526245 452 2z"/>
<path style="fill:#e17774; stroke:none;" d="M474.667 0.333344L475.333 0.666656L474.667 0.333344z"/>
<path style="fill:#053f79; stroke:none;" d="M476 0L477 1L476 0z"/>
<path style="fill:#052254; stroke:none;" d="M471 2L471 3L480 0L471 2M0 1L3 4L0 1z"/>
<path style="fill:#053f79; stroke:none;" d="M51 1L51 2L54 2L51 1z"/>
<path style="fill:#e17774; stroke:none;" d="M64 1L64 2L69 2L64 1M472 1L473 2L472 1z"/>
<path style="fill:#053f79; stroke:none;" d="M473 1L474 2L473 1M3.33333 2.66666L3.66667 3.33334L3.33333 2.66666z"/>
<path style="fill:#f7bfbf; stroke:none;" d="M15 2L16 3L15 2z"/>
<path style="fill:#052254; stroke:none;" d="M28.6667 2.33334L29.3333 2.66666L28.6667 2.33334z"/>
<path style="fill:#e17774; stroke:none;" d="M57.6667 2.33334L58.3333 2.66666L57.6667 2.33334M249 2C248.19 5.61841 248.728 7.1936 252 9L251 2L249 2M463 2L464 3L463 2M468 4L471 2L468 4z"/>
<path style="fill:#053f79; stroke:none;" d="M478.667 2.33334L479.333 2.66666L478.667 2.33334z"/>
<path style="fill:#e17774; stroke:none;" d="M0 3L1 4L0 3z"/>
<path style="fill:#053f79; stroke:none;" d="M1 3L2 4L1 3z"/>
<path style="fill:#f7bfbf; stroke:none;" d="M7 3L8 4L7 3M9 3L10 4L9 3M16 3L16 4L22 4L16 3z"/>
<path style="fill:#e17774; stroke:none;" d="M27 3L27 4L30 4L27 3z"/>
<path style="fill:#052254; stroke:none;" d="M249 3L250 7L251 7L249 3z"/>
<path style="fill:#053f79; stroke:none;" d="M470.667 3.33334L471.333 3.66666L470.667 3.33334z"/>
<path style="fill:#e17774; stroke:none;" d="M472 3L472 4L476 4L472 3z"/>
<path style="fill:#053f79; stroke:none;" d="M250 5L251 6L250 5M250 7L251 8L250 7z"/>
<path style="fill:#e17774; stroke:none;" d="M1 27L2 28L1 27M215 81L216 82L215 81z"/>
<path style="fill:#f7bfbf; stroke:none;" d="M140 82L140 83L157 83L140 82z"/>
<path style="fill:#e17774; stroke:none;" d="M157 82L157 83L176 83L157 82z"/>
<path style="fill:#053f79; stroke:none;" d="M176 82L176 83C180.302 83 188.826 81.6942 188 85L191 83C195.878 84.0742 202.011 82.3414 205 87L206 87L212 82L208 84C200.748 78.9205 184.713 82 176 82z"/>
<path style="fill:#052254; stroke:none;" d="M207 82L207 84L209 82L207 82M206 87L205 87C203.832 81.5491 195.373 83.7533 191 83L188 85C187.331 80.9886 166.525 83.0404 162 83L162 84L167 86L167 87L157 85L148 90L148 91L159 91L151 92L151 93L155 95L148 98L148 99L153 102L154 102L153 99C160.24 102.262 173.185 105.677 181 104C185.861 113.604 189.656 103.438 191 98L181 94L182 91L182 90C184.595 89.6855 184.523 89.5401 184 87L192 88L192 89L190 92L192 90L193 90L194 90C197.233 94.6691 202.132 95.0435 206 91L202 93L203 90C199.049 91.2108 196.917 91.0153 194 88C199.429 87.8196 205.026 87.8559 208 93L213 94L211 90C215.351 92.9708 218.661 95.4451 222 90L216 92L215 92L213 90L216 83C212.545 81.8694 208.213 84.2689 206 87z"/>
<path style="fill:#053f79; stroke:none;" d="M214 83L213 90L215 92L216 92L222 90C217.807 94.6053 215.845 92.2781 211 90L213 94L211 92L208 93C205.986 87.2134 199.207 87.4528 194 88C196.255 91.9037 199.219 91.9087 203 90L202 93L206 91C201.261 94.4797 198.19 94.0929 194 90L193 90L192 90L190 92L192 89L192 88L184 87L182 90L182 91L184 92L181 94L191 98C189.205 103.613 186.872 111.444 181 104L153 99L154 102L153 102L148 99L148 98L155 95L151 93L151 92L159 91L148 91L148 90L157 85L167 87L167 86C156.543 80.7438 142.502 83 131 83L131 84L139 84L139 85C132.743 85 119.603 82.174 116 88L144 86L144 87L130 89L130 90L134 93L130 93L130 94L136 92L149 93L129 100L130 98L124 101L123 101L120 96L118 99L118 96L112 93C118.03 90.99 112.49 89.0408 113 87L109 87L112 89L112 90L106 92L109 93L110 96L110 97C106.803 97.6886 107.254 99.0541 108 102L104 102L105 99L101 98L102 101L98 98L102 95L89 100L90 97L88 99L87 99L88 94L83 94L85 90C82.0463 91.9544 81.7147 93.752 83 97L81 99L72 103L74 105L66 110L73 111L72 107L78 107L77 104C79.681 104 88.3222 98.7114 87 104L90 103L81 110L79 108L76 113L69 112L69 115L47 118L49 123L46 124L53 130L53 131L50 132L50 130L41 132L41 136L40 136L40 133L35 135L36 140L33 139L31 130L30 134L33 135L33 136L28 136L28 137L32 137L27 139L26 142L19 140L19 147L24 144C25.0388 147.551 27.5305 147.752 31 148C32.4717 153.279 38.483 152.478 43 152C44.2792 159.842 51.8734 157.985 58 159L56 162L54 161L53 169L49 168L50 163L48 165L47 165C45.9728 160.207 42.0349 162.311 41 166L48 170L50 169L50 170L48 177L50 175L51 175L61 177L62 185L59 185L61 187L61 188L56 182L55 182L56 185L49 187C51.9536 195.098 52.4622 198.754 62 197L61 202L58 201L60 209L53 211L54 207L48 211L49 206L46 208L47 198L42 201C38.6774 196.914 35.1296 196.11 30 196L30 195L33 195L34 182L31 183L30 182L31 179L22 182L22 188C24.4643 187.507 26.6478 187.409 26 190L29 189C27.812 193.229 25.5973 198.372 31 200L22 210L20 206L17 209L16 204L15 204L16 207L9 205L8 209L0 208L0 209C4.10268 210.207 8.22059 214.247 11 210L12 213L15 213L16 210L17 210L21 216L21 217L16 216L17 222L15 225L21 222L16 236L15 236C15.9229 230.947 15.9323 228.347 11 226L13 219L8 220L11 225L6 227L8 231L3 233L3 234L14 232L9 239L14 243L11 242L9 246L8 246L8 236L0 236L0 238L5 239L5 240L0 239L0 303L6 304L6 305L0 304L0 305L3 309L0 308L4 312L2 319L7 319L9 312L14 312L15 313L15 317L14 318L9 318L9 319L26 319L24 315C27.0694 315.105 24.8544 313.39 23 313L22 309L25 308L31 313L31 317L37 314L37 319C44.7565 319 50.2864 319.231 57 315L57 319L73 319L70 315L76 319L78 316L79 319L88 319L84 311C89.6513 310.907 90.7696 314.329 93 319L98 305L102 306L102 307C96.8084 309.878 97.5404 314.068 96 319L123 319L128 316L127 319L169 319C177.988 319 186.188 320.082 194 315L194 319L204 319L199 311L208 303L208 299L205 300L204 296L199 298L199 297L202 293L200 293L203 289L203 288L198 288L198 287C200.993 286.936 202.346 287.054 203 284L213 291L211 284L214 283L214 281L211 279L215 279L215 276L208 280L216 270L217 270L217 272L218 272L213 266L215 259L216 259L216 263L217 263L218 239L221 238L219 233C220.971 231.665 219.937 230.929 218 230L218 229L224 232L225 221L220 221L220 220L224 219L224 218L221 217L221 216L225 218L226 218L225 208L226 208L226 211L227 211L226 202L227 202L227 204L228 204L228 192L255 190L254 193C261.172 196.04 272.374 197.792 280 196C280.645 199.872 288.883 197.209 292 197L292 198L288 198L288 199L308 199L308 200L304 200L304 201L317 200L317 201L312 201L312 202L319 202L315 197L318 196L318 195L310 196L313 198L302 197L305 191L298 189L297 192L296 192L300 166L302 167L301 164L297 166L296 166L297 169L286 172C285.17 168.71 284.511 167.289 288 166L288 165L287 162L280 164L280 165L284 167L281 168L282 171L286 172L286 173L281 170L276 171L276 170L279 165L278 165L276 167L274 164L274 163L277 160L274 156L264 157L265 161L261 164C257.614 162.332 255.351 162.136 254 166L249 166L247 170L248 166L243 161L247 159L242 160C241.593 154.306 248.003 150.459 249 157L250 157L251 157L250 150C254.494 151.026 261.02 153.134 264 149L247 149C248.807 145.884 250.491 145.816 254 146L245 144L245 143L256 140L255 144L265 141L265 139L259 136L263 136L259 134L260 131L252 130L256 120L252 118L256 118L256 117L238 115L238 114L243 111L231 108C233.897 104.862 235.83 104.606 240 105L241 101L236 99L236 98L240 94L242 98L241 88L242 88C242.476 91.7799 243.243 94.6531 247 96L247 95L245 94L254 94L251 89L250 89L251 92L248 91L250 87C246.511 87 248.54 83.2764 245 82.1667C237.53 79.8253 221.39 80.8607 214 83z"/>
<path style="fill:#e17774; stroke:none;" d="M246 82L247 83L246 82M115 83L115 84L131 84L115 83z"/>
<path style="fill:#052254; stroke:none;" d="M154.667 83.3333L155.333 83.6667L154.667 83.3333z"/>
<path style="fill:#053f79; stroke:none;" d="M168 83L169 84L168 83z"/>
<path style="fill:#052254; stroke:none;" d="M227.667 83.3333L228.333 83.6667L227.667 83.3333M232 83L232 84L241 84L232 83M245 83L241 85L241 86L247 84L245 83z"/>
<path style="fill:#e17774; stroke:none;" d="M247 83L248 84L247 83z"/>
<path style="fill:#f7bfbf; stroke:none;" d="M73 84L73 85L82 85L73 84z"/>
<path style="fill:#e17774; stroke:none;" d="M82 84L82 85L96 85L82 84z"/>
<path style="fill:#053f79; stroke:none;" d="M64 88L64 89L99 86L97 89L100 90C100 86.6031 108.082 91.6145 104 87L112 86C107.227 82.3839 100.2 84.0917 94.7145 85.1242C84.787 86.9929 73.596 85.1636 64 88z"/>
<path style="fill:#052254; stroke:none;" d="M112 86L104 87L106 89L100 90L97 89L99 86L64 89L64 88L89 86L89 85L46 86L33 89L30 89L31 87L0 87L0 168L1 193L2 202L2 203L2 204L0 208L8 209L9 205L16 207L15 204L16 204L17 209L20 206L22 210L31 200L28 200L29 189L26 190C26 187.372 24.4948 187.602 22 188L22 182L31 179L30 182L31 183L34 182L30 195L30 196L42 201L47 198C44.0717 201.859 43.5135 203.69 46 208L49 206L47 208L47 209L48 211L54 207L53 211L60 209L58 201L61 202L62 197C52.5136 197.973 52.8611 194.796 49 187L56 185L55 182L56 182L61 188L61 187L59 185L62 185L62 184L61 177L51 175L50 175L48 177L50 169L48 170L41 166C42.8556 162.996 44.7848 161.672 47 165L48 165L50 163L49 168L53 169L54 161L56 162L58 159C51.9213 157.586 45.1562 159.265 43 152C38.4315 152.149 33.0776 152.719 31 148L24 144L19 147L19 140L26 142L27 139L32 137L28 137L28 136L33 136L33 135L30 134L31 130L36 140L35 135L40 136L41 136L41 132L50 130L50 132L53 131L53 130L46 124L49 123L47 118L69 115L69 112L76 113L76 110L81 110L90 103L87 104C86.2311 99.1429 79.8326 102.914 77 104L78 107L72 107L73 111L66 110L74 105L72 104L72 103L83 97L81 95L81 94L85 90L83 94L88 94L87 99L88 99L90 97L89 100L102 95L98 98L102 101L101 98L105 99L104 102L108 102L110 97L110 96L106 92L112 90L112 89L109 87L113 87L115 89L112 93L118 99L120 96L123 101L124 101L130 98L129 100L149 93L136 92L130 94L130 93L134 93L130 90L130 89L144 87L144 86L116 88L120 85C117.588 83.835 112.529 82.8272 112 86M121 84L121 85L139 85L121 84z"/>
<path style="fill:#053f79; stroke:none;" d="M167 84L168 85L167 84z"/>
<path style="fill:#f7bfbf; stroke:none;" d="M417 84L420 117L424 117L424 118L420 119L420 120L424 121L424 122L421 124L429 124L429 123L425 122L425 121L430 121L430 120L425 119L425 117C430.919 117 448.348 116.61 447 122L448 122L449 120L444 116L453 116L453 115L449 115L454 110L444 111L445 109L426 108L426 107L432 106L432 105C430.04 104.347 429.446 104 432 104L432 103L427 106L419 106L419 105L437 100L437 99L428 100L428 99L430 97L440 97L440 96L418 95L418 94L421 94L421 93L418 93L418 92L432 92L432 91L430 91L430 90L438 89L437 87L448 87C441.258 81.8923 425.488 84.8976 417 84z"/>
<path style="fill:#e17774; stroke:none;" d="M48 85L48 86L64 86L48 85z"/>
<path style="fill:#053f79; stroke:none;" d="M64 85L64 86L74 86L64 85z"/>
<path style="fill:#052254; stroke:none;" d="M92 85L92 86L96 86L92 85M101 85L101 86L104 86L101 85z"/>
<path style="fill:#053f79; stroke:none;" d="M170 85L173 88L172 85L170 85z"/>
<path style="fill:#052254; stroke:none;" d="M247 85L248 88L249 88L247 85z"/>
<path style="fill:#e17774; stroke:none;" d="M248 85L249 86L248 85M448 87L437 87L438 89L430 90L430 91L432 91L432 92L418 92L418 93L421 93L421 94L418 94L418 95L440 96L440 97L430 97L428 99L428 100L437 99L437 100L419 105L419 106L427 106L432 103L432 104C429.471 104.506 429.471 104.494 432 105L432 106L426 107L426 108L445 109L444 111L454 110L449 115L453 115L453 116L444 116L448 122L447 122C446.052 115.101 430.17 117 425 117L425 119L430 120L430 121L425 121L425 122L429 123L429 124L421 124L422 132L429 132L429 136L430 133L433 137C430.174 136.813 427.445 136.967 427 140L424 136L423 136C423.082 140.161 422.357 145.637 427 147L427 148L424 148L424 149L426 150C422.589 153.827 433.092 153.122 435 153L435 154L426 154L442 157L442 156L440 156L440 155L445 155L425 159L425 160C432.004 159.841 442.322 157.358 448 162C442.012 160.233 429.319 159.913 426 166L429 167L428 179L432 179L432 180L429 182L438 183L437 179L441 177L450 179L450 177L456 179L456 180L452 182L459 188L448 190L448 191C452.841 190.779 467.734 190.387 468 185L480 184C480 166.738 484.761 140.955 478 125L480 118L476 118L476 117L480 117L480 85L456 85.4259L448 87z"/>
<path style="fill:#f7bfbf; stroke:none;" d="M452 85L452 86L456 86L452 85M458.667 85.3333L459.333 85.6667L458.667 85.3333M471 85L472 86L471 85z"/>
<path style="fill:#e17774; stroke:none;" d="M0 86L0 87L8 87L0 86z"/>
<path style="fill:#053f79; stroke:none;" d="M8 86L8 87L30 89L33 89L32 87L40 87L8 86z"/>
<path style="fill:#052254; stroke:none;" d="M230 86L230 87L235 89L235 88L230 86M238.667 86.3333L239.333 86.6667L238.667 86.3333z"/>
<path style="fill:#e17774; stroke:none;" d="M249 86L250 87L249 86M423 86L423 87L429 87L423 86M431 88L435 87L431 88z"/>
<path style="fill:#f7bfbf; stroke:none;" d="M450 87L456 90L458 88L450 87z"/>
<path style="fill:#053f79; stroke:none;" d="M192.667 87.3333L193.333 87.6667L192.667 87.3333M207 87L210 90L207 87z"/>
<path style="fill:#f7bfbf; stroke:none;" d="M463 87L463 88L467 88L463 87z"/>
<path style="fill:#053f79; stroke:none;" d="M34 88L35 89L34 88M51 88L52 89L51 88M53 88L53 89L61 89L53 88M175 88L171 91L171 92C173.968 91.7649 176.738 91.2917 175 88z"/>
<path style="fill:#052254; stroke:none;" d="M232 92L239 89L232 92M241 88L242 98L240 94L236 98L236 99L241 101L240 105C235.755 104.26 233.377 104.137 231 108L243 111L238 114L238 115L256 117L256 118L252 118L253 121L256 120L252 130L260 131L259 134L263 136L259 136L265 139L265 141L255 144L256 140L254 143L245 143L245 144L254 146C250.334 145.431 248.265 145.223 247 149L264 149C260.271 152.416 254.815 150.556 250 150L251 157L250 157L249 157C247.783 150.322 241.013 153.634 242 160L247 159L246 162L243 161L248 166L247 170L249 166L254 166C255.903 162.802 257.602 162.921 261 164L265 161L264 157L274 156C274.679 158.972 277.017 161.203 274 163L274 164L276 167L278 165L279 165L276 170L276 171L281 170L286 173L286 172L281 168L284 167L280 165L280 164L287 162L288 165L288 166C284.424 167.02 284.831 168.782 286 172L297 169L296 166L297 166L298 168L301 164L302 167L300 166L300 167L296 192L297 192L298 189L305 191L302 197L313 198L310 196L318 195L318 196L315 197L323 202L322 196L325 198C318.7 183.721 306.5 169.737 297.389 157C288.254 144.228 280.69 130.385 271 118C265.392 110.832 260.823 98.3356 252.972 93.4167C251.053 92.2143 243.761 92.5927 247 95L247 96L241 88M249 88L251 92L249 88z"/>
<path style="fill:#e17774; stroke:none;" d="M250 88L251 89L250 88z"/>
<path style="fill:#f7bfbf; stroke:none;" d="M441 88L441 89L445 90L445 89L441 88M460 88L461 89L460 88z"/>
<path style="fill:#052254; stroke:none;" d="M244 92L247 90C244.604 89.4254 244.513 89.5249 244 92z"/>
<path style="fill:#e17774; stroke:none;" d="M251 89L252 90L251 89M424 89L424 90L427 90L424 89z"/>
<path style="fill:#053f79; stroke:none;" d="M1.66667 90.3333L2.33333 90.6667L1.66667 90.3333M125 90L125 91L128 91L125 90z"/>
<path style="fill:#052254; stroke:none;" d="M136 90L136 92L138 92L136 90z"/>
<path style="fill:#053f79; stroke:none;" d="M178 92L181 90L178 92z"/>
<path style="fill:#f7bfbf; stroke:none;" d="M458.667 90.3333L459.333 90.6667L458.667 90.3333z"/>
<path style="fill:#053f79; stroke:none;" d="M9.66667 91.3333L10.3333 91.6667L9.66667 91.3333M102 91L101 92L105 96L102 91M168.667 91.3333L169.333 91.6667L168.667 91.3333z"/>
<path style="fill:#052254; stroke:none;" d="M186 91L186 92L189 92L186 91z"/>
<path style="fill:#e17774; stroke:none;" d="M252 91L253 92L252 91z"/>
<path style="fill:#f7bfbf; stroke:none;" d="M455 91L456 92L455 91z"/>
<path style="fill:#053f79; stroke:none;" d="M98 92L99 93L98 92M175 93L177 95L175 93z"/>
<path style="fill:#052254; stroke:none;" d="M235 93L234 95L236 95L235 93z"/>
<path style="fill:#053f79; stroke:none;" d="M68 94L68 95L71 95L68 94M124 94L124 95L128 96L124 94z"/>
<path style="fill:#e17774; stroke:none;" d="M254 94L255 95L254 94z"/>
<path style="fill:#f7bfbf; stroke:none;" d="M456 94L457 95L456 94z"/>
<path style="fill:#052254; stroke:none;" d="M191 95L192 96L191 95M202 95L203 96L202 95M215 95L222 100L220 95L215 95z"/>
<path style="fill:#053f79; stroke:none;" d="M249.667 95.3333L250.333 95.6667L249.667 95.3333M252 95L253 96L252 95z"/>
<path style="fill:#f7bfbf; stroke:none;" d="M255 95L256 96L255 95z"/>
<path style="fill:#053f79; stroke:none;" d="M64 96L65 97L64 96z"/>
<path style="fill:#052254; stroke:none;" d="M207 96L208 97L207 96M210.667 96.3333L211.333 96.6667L210.667 96.3333M84 97L87 101L84 97M198 97L196 100L198 97z"/>
<path style="fill:#053f79; stroke:none;" d="M256 97L257 98L256 97z"/>
<path style="fill:#052254; stroke:none;" d="M145 98L146 99L145 98M200 98L200 103L201 103L202 99L200 98M227 101L230 98L227 101z"/>
<path style="fill:#e17774; stroke:none;" d="M257 98L258 99L257 98z"/>
<path style="fill:#052254; stroke:none;" d="M138.667 99.3333L139.333 99.6667L138.667 99.3333z"/>
<path style="fill:#e17774; stroke:none;" d="M258 99L259 100L258 99M419 99L420 100L419 99z"/>
<path style="fill:#f7bfbf; stroke:none;" d="M438.667 99.3333L439.333 99.6667L438.667 99.3333M479 99L480 100L479 99z"/>
<path style="fill:#052254; stroke:none;" d="M115 100L116 101L115 100M135 100L136 101L135 100z"/>
<path style="fill:#053f79; stroke:none;" d="M176 100L176 102L178 102L176 100z"/>
<path style="fill:#e17774; stroke:none;" d="M259 100L260 101L259 100M424.667 100.333L425.333 100.667L424.667 100.333z"/>
<path style="fill:#052254; stroke:none;" d="M89 101L89 102L92 105L93 105L89 101M98.3333 101.667L98.6667 102.333L98.3333 101.667M112 101L107 103L107 104L110 104L110 105L108 108L115 111L109 113L109 114L113 113L119 116L120 116L131 113L126 110L125 113L117 111L119 109L118 104L112 106L112 101M119 101L120 102L119 101M122 105L129 104L129 101L122 105z"/>
<path style="fill:#053f79; stroke:none;" d="M257.333 101.667L257.667 102.333L257.333 101.667M259 101L260 102L259 101z"/>
<path style="fill:#052254; stroke:none;" d="M94.6667 102.333L95.3333 102.667L94.6667 102.333M135 102L131 103L131 104L135 102M138 102L139 103L138 102z"/>
<path style="fill:#e17774; stroke:none;" d="M260 102L261 103L260 102z"/>
<path style="fill:#f7bfbf; stroke:none;" d="M438 102L438 103L448 103L448 104L445 104L445 105L450 105L438 102M474 102L474 103L478 103L474 102z"/>
<path style="fill:#e17774; stroke:none;" d="M261 103L262 104L261 103z"/>
<path style="fill:#f7bfbf; stroke:none;" d="M455 103L455 104L458 104L455 103M479 103L480 104L479 103z"/>
<path style="fill:#052254; stroke:none;" d="M120 104L119 106L121 106L120 104M231 104L232 105L231 104z"/>
<path style="fill:#053f79; stroke:none;" d="M261 104L262 105L261 104z"/>
<path style="fill:#f7bfbf; stroke:none;" d="M433 104L433 106L435 106L435 104L433 104M436.667 104.333L437.333 104.667L436.667 104.333M439 104L440 105L439 104z"/>
<path style="fill:#052254; stroke:none;" d="M130 105L131 106L130 105M157 105L158 106L157 105z"/>
<path style="fill:#053f79; stroke:none;" d="M187 105L188 106L187 105z"/>
<path style="fill:#052254; stroke:none;" d="M199 105L200 106L199 105z"/>
<path style="fill:#053f79; stroke:none;" d="M257 105L258 106L257 105M262 105L263 106L262 105z"/>
<path style="fill:#f7bfbf; stroke:none;" d="M479 105L480 106L479 105z"/>
<path style="fill:#053f79; stroke:none;" d="M47 106L48 107L47 106z"/>
<path style="fill:#052254; stroke:none;" d="M133 106L134 107L133 106z"/>
<path style="fill:#053f79; stroke:none;" d="M234.667 106.333L235.333 106.667L234.667 106.333M239 106L239 107L245 109L246 106L239 106z"/>
<path style="fill:#e17774; stroke:none;" d="M263 106L264 107L263 106z"/>
<path style="fill:#f7bfbf; stroke:none;" d="M438 106L438 107L444 107L438 106z"/>
<path style="fill:#052254; stroke:none;" d="M101.667 107.333L102.333 107.667L101.667 107.333M191 107L192 108L191 107z"/>
<path style="fill:#f7bfbf; stroke:none;" d="M431 107L431 109L434 109L434 107L431 107M456 107L455 109L456 107M458 108L458 109L467 108L458 108z"/>
<path style="fill:#052254; stroke:none;" d="M153 112L152 112L148 110L148 111L155 113L156 113L153 120C154.598 122.613 156.52 124.72 159 122L165 123L165 122L162 119L158 120L158 113L162 110L159 108L153 112z"/>
<path style="fill:#053f79; stroke:none;" d="M257.667 108.333L258.333 108.667L257.667 108.333M264 108L265 109L264 108z"/>
<path style="fill:#f7bfbf; stroke:none;" d="M477 108L478 109L477 108z"/>
<path style="fill:#053f79; stroke:none;" d="M64 109L65 110L64 109z"/>
<path style="fill:#052254; stroke:none;" d="M98 109L97 113L101 114L102 112L102 111L100 109L98 109M102 109L103 110L102 109M182 109L183 110L182 109z"/>
<path style="fill:#e17774; stroke:none;" d="M265 109L266 110L265 109z"/>
<path style="fill:#053f79; stroke:none;" d="M13 110L14 111L13 110z"/>
<path style="fill:#052254; stroke:none;" d="M123.667 110.333L124.333 110.667L123.667 110.333M139 110L142 113L141 116L142 116L144 112L139 110M168 110L171 113L173 111L168 110z"/>
<path style="fill:#e17774; stroke:none;" d="M266 110L267 111L266 110z"/>
<path style="fill:#053f79; stroke:none;" d="M21 111L18 114L18 115L21 111M64.3333 111.667L64.6667 112.333L64.3333 111.667z"/>
<path style="fill:#052254; stroke:none;" d="M79 111L80 112L79 111M90 111L91 112L90 111M135 111L136 112L135 111z"/>
<path style="fill:#053f79; stroke:none;" d="M153 113L156 112L153 113M264.333 111.667L264.667 112.333L264.333 111.667M266 111L267 112L266 111z"/>
<path style="fill:#e17774; stroke:none;" d="M423 111L424 112L423 111M438 111L441 113L438 111z"/>
<path style="fill:#053f79; stroke:none;" d="M33 112L34 113L33 112z"/>
<path style="fill:#052254; stroke:none;" d="M81 112L82 113L81 112M106 112C106.111 115.114 103.841 116 101 116L101 117C103.931 117.493 110.057 114.965 106 112M132.667 112.333L133.333 112.667L132.667 112.333M165 112L166 113L165 112z"/>
<path style="fill:#e17774; stroke:none;" d="M267 112L268 113L267 112M444 113L444 114L448 115L448 112L444 113z"/>
<path style="fill:#f7bfbf; stroke:none;" d="M476 112L476 113L479 113L476 112z"/>
<path style="fill:#053f79; stroke:none;" d="M115.667 113.333L116.333 113.667L115.667 113.333z"/>
<path style="fill:#052254; stroke:none;" d="M168 113L169 114L168 113z"/>
<path style="fill:#053f79; stroke:none;" d="M267 113L268 114L267 113z"/>
<path style="fill:#e17774; stroke:none;" d="M268 114L269 115L268 114M429.667 114.333L430.333 114.667L429.667 114.333M436 114L436 115L440 115L436 114z"/>
<path style="fill:#052254; stroke:none;" d="M74.6667 115.333L75.3333 115.667L74.6667 115.333M138.667 115.333L139.333 115.667L138.667 115.333z"/>
<path style="fill:#053f79; stroke:none;" d="M264 115L265 118L269 119L268 116L264 115z"/>
<path style="fill:#e17774; stroke:none;" d="M269 115L270 116L269 115z"/>
<path style="fill:#053f79; stroke:none;" d="M15 116L16 117L15 116M269 116L270 117L269 116z"/>
<path style="fill:#052254; stroke:none;" d="M74 117L72 120L75 119L76 122L79 120L84 119L80 121L81 118L77 117L78 119L77 119L74 117M152 117L152 118L155 118L152 117z"/>
<path style="fill:#053f79; stroke:none;" d="M259.667 117.333L260.333 117.667L259.667 117.333z"/>
<path style="fill:#e17774; stroke:none;" d="M270 117L271 118L270 117M420 117L421 120L424 118L420 117z"/>
<path style="fill:#f7bfbf; stroke:none;" d="M476 117L476 118L480 118L476 117z"/>
<path style="fill:#053f79; stroke:none;" d="M24 118L25 119L24 118z"/>
<path style="fill:#e17774; stroke:none;" d="M271 118L272 119L271 118z"/>
<path style="fill:#053f79; stroke:none;" d="M37 119L37 120L40 120L37 119z"/>
<path style="fill:#052254; stroke:none;" d="M65 119L70 121L70 120L65 119z"/>
<path style="fill:#e17774; stroke:none;" d="M272 119L273 120L272 119z"/>
<path style="fill:#053f79; stroke:none;" d="M41.6667 120.333L42.3333 120.667L41.6667 120.333z"/>
<path style="fill:#052254; stroke:none;" d="M85 120L85 122L87 122L87 120L85 120M139 120L140 121L139 120z"/>
<path style="fill:#f7bfbf; stroke:none;" d="M431.667 120.333L432.333 120.667L431.667 120.333M475.667 120.333L476.333 120.667L475.667 120.333M479 120L480 121L479 120z"/>
<path style="fill:#052254; stroke:none;" d="M135 121L133 124L137 124L135 121M143 121L144 122L143 121z"/>
<path style="fill:#053f79; stroke:none;" d="M273 121L274 122L273 121z"/>
<path style="fill:#e17774; stroke:none;" d="M421 121L421 122L424 122L421 121z"/>
<path style="fill:#f7bfbf; stroke:none;" d="M455 121L456 122L455 121z"/>
<path style="fill:#053f79; stroke:none;" d="M17 122L18 123L17 122M36 122L37 123L36 122z"/>
<path style="fill:#052254; stroke:none;" d="M71 123L69 123L65 130L68 131L71 129L71 134L69 132L57 136L57 137L62 137L61 140L55 139L56 141L54 139L53 139L51 144L76 140L77 140L78 140L78 142L79 142L80 142L87 140L87 138L81 136L87 137L87 136C81.6319 134.458 77.5215 135.922 73 139L75 136L75 135L70 136L70 135L88 126L88 130L92 128L92 126L88 123L92 123L71 123M128.667 122.333L129.333 122.667L128.667 122.333M167 122L168 123L167 122z"/>
<path style="fill:#e17774; stroke:none;" d="M274 122L275 123L274 122M275 123L276 124L275 123z"/>
<path style="fill:#053f79; stroke:none;" d="M11 124L8 135L7 135L7 132L4 133C6.6498 136.671 9.90639 135.757 14 135L11 130L11 129L11 128L11 124z"/>
<path style="fill:#052254; stroke:none;" d="M51 126L51 127L56 125L51 126M140.667 124.333L141.333 124.667L140.667 124.333M152 124L153 125L152 124z"/>
<path style="fill:#053f79; stroke:none;" d="M256 124L256 125L260 126L256 124M273 124L274 125L273 124M275 124L276 125L275 124M43 125L42 127L44 127L43 125M83 125L84 126L83 125z"/>
<path style="fill:#052254; stroke:none;" d="M100 125L100 127L102 125L100 125M125 128L130 126C127.381 124.607 125.619 125.058 125 128M247 125L248 126L247 125z"/>
<path style="fill:#e17774; stroke:none;" d="M276 125L277 126L276 125z"/>
<path style="fill:#f7bfbf; stroke:none;" d="M423.667 125.333L424.333 125.667L423.667 125.333M478 125L480 128L480 125L478 125z"/>
<path style="fill:#052254; stroke:none;" d="M93.6667 126.333L94.3333 126.667L93.6667 126.333M103 126L104 127L103 126M122 126L121 129L124 127L122 126z"/>
<path style="fill:#053f79; stroke:none;" d="M272 126L272 127L275 127L275 126L272 126z"/>
<path style="fill:#e17774; stroke:none;" d="M277 126L278 127L277 126z"/>
<path style="fill:#f7bfbf; stroke:none;" d="M432 126L432 127L435 127L432 126M476 126L477 127L476 126z"/>
<path style="fill:#053f79; stroke:none;" d="M6.66667 127.333L7.33333 127.667L6.66667 127.333M73 130L76 130L76 131L72 131C74.5746 133.899 77.2262 131.873 80 130C77.4511 127.907 73.9208 125.725 73 130z"/>
<path style="fill:#052254; stroke:none;" d="M96 127L97 128L96 127M139 127L140 128L139 127z"/>
<path style="fill:#053f79; stroke:none;" d="M277 127L279 129L277 127z"/>
<path style="fill:#f7bfbf; stroke:none;" d="M278 127L279 128L278 127M423 127L425 130L423 127M445 129L445 130L452 128L445 129z"/>
<path style="fill:#053f79; stroke:none;" d="M22 128L22 129L25 129L22 128z"/>
<path style="fill:#052254; stroke:none;" d="M99 128L99 129L102 129L99 128M208.667 128.333L209.333 128.667L208.667 128.333M248 128L247 131L248 128z"/>
<path style="fill:#f7bfbf; stroke:none;" d="M431 128L432 129L431 128M440 128L439 130L440 128M455 128L456 129L455 128M457 128L457 129L460 129L457 128z"/>
<path style="fill:#052254; stroke:none;" d="M54.6667 129.333L55.3333 129.667L54.6667 129.333M167 129L168 130L167 129z"/>
<path style="fill:#e17774; stroke:none;" d="M279 129L280 130L279 129z"/>
<path style="fill:#f7bfbf; stroke:none;" d="M434 129L434 130L437 130L434 129M462 129L462 130L467 130L462 129M478 129L479 130L478 129z"/>
<path style="fill:#052254; stroke:none;" d="M57 133L64 130L57 133M135.667 130.333L136.333 130.667L135.667 130.333M206 130L208 132L206 130M228.667 130.333L229.333 130.667L228.667 130.333z"/>
<path style="fill:#f7bfbf; stroke:none;" d="M280 130L282 132L280 130M451 130L452 131L451 130M454 130L454 131L458 132L458 131L454 130z"/>
<path style="fill:#052254; stroke:none;" d="M157 131L157 132L162 133L162 132L157 131z"/>
<path style="fill:#053f79; stroke:none;" d="M280 131L281 132L280 131z"/>
<path style="fill:#f7bfbf; stroke:none;" d="M427 140L433 137L430 133L430 136L429 136L429 132C421.686 131.47 421.226 136.194 427 140M459 131L460 132L459 131M473 131L474 132L473 131z"/>
<path style="fill:#053f79; stroke:none;" d="M36 132L37 133L36 132z"/>
<path style="fill:#052254; stroke:none;" d="M54.6667 132.333L55.3333 132.667L54.6667 132.333M211 132L212 133L211 132M247 134L251 133L247 134z"/>
<path style="fill:#053f79; stroke:none;" d="M274 132L275 133L274 132z"/>
<path style="fill:#e17774; stroke:none;" d="M281 132L282 133L281 132z"/>
<path style="fill:#052254; stroke:none;" d="M112 136L116 135L112 136z"/>
<path style="fill:#f7bfbf; stroke:none;" d="M282 133L283 134L282 133M432 133L432 134L440 134L432 133M441 133L441 134L444 134L441 133z"/>
<path style="fill:#052254; stroke:none;" d="M123 134L122 136L124 136L123 134M130 134L130 135L134 135L130 134z"/>
<path style="fill:#053f79; stroke:none;" d="M282 134L283 135L282 134z"/>
<path style="fill:#f7bfbf; stroke:none;" d="M449 136L449 137L450 139L456 139L456 138L454 137L456 135L460 135L449 136z"/>
<path style="fill:#053f79; stroke:none;" d="M0 135L1 136L0 135M17.6667 135.333L18.3333 135.667L17.6667 135.333z"/>
<path style="fill:#052254; stroke:none;" d="M88 135L89 136L88 135M98 135L95 138L95 139L104 135L98 135M126 135L127 136L126 135M128 135L129 136L128 135M220 135L221 136L220 135M223 135L223 136L226 136L223 135M241 135L242 136L241 135z"/>
<path style="fill:#053f79; stroke:none;" d="M264 135L265 136L264 135z"/>
<path style="fill:#e17774; stroke:none;" d="M283 135L284 136L283 135z"/>
<path style="fill:#053f79; stroke:none;" d="M15 136L16 137L15 136M23 136L24 137L23 136M63 137L69 141L69 136L63 137z"/>
<path style="fill:#052254; stroke:none;" d="M107 136L107 137L111 137L107 136M153 136L153 137L156 137L153 136M239 136L240 137L239 136M249 136L250 137L249 136z"/>
<path style="fill:#053f79; stroke:none;" d="M271.667 136.333L272.333 136.667L271.667 136.333z"/>
<path style="fill:#f7bfbf; stroke:none;" d="M284 136L286 138L284 136M440 136L441 137L440 136z"/>
<path style="fill:#052254; stroke:none;" d="M177 137L177 139L179 139L179 137L177 137z"/>
<path style="fill:#053f79; stroke:none;" d="M284 137L285 138L284 137z"/>
<path style="fill:#f7bfbf; stroke:none;" d="M431 137L432 138L431 137z"/>
<path style="fill:#053f79; stroke:none;" d="M77 138L78 139L77 138z"/>
<path style="fill:#052254; stroke:none;" d="M171 138L171 139L176 139L171 138M180 138L181 139L180 138M240.333 138.667L240.667 139.333L240.333 138.667z"/>
<path style="fill:#053f79; stroke:none;" d="M276 138L277 139L276 138M282.333 138.667L282.667 139.333L282.333 138.667z"/>
<path style="fill:#e17774; stroke:none;" d="M285 138L287 140L285 138z"/>
<path style="fill:#f7bfbf; stroke:none;" d="M445.667 138.333L446.333 138.667L445.667 138.333M466 138L467 139L466 138z"/>
<path style="fill:#052254; stroke:none;" d="M48 139L45 143L45 144L48 145L48 139M258 139L259 140L258 139M262.667 139.333L263.333 139.667L262.667 139.333z"/>
<path style="fill:#053f79; stroke:none;" d="M280 139L281 140L280 139M285 139L286 140L285 139M72.6667 140.333L73.3333 140.667L72.6667 140.333z"/>
<path style="fill:#052254; stroke:none;" d="M135 140L136 141L135 140z"/>
<path style="fill:#053f79; stroke:none;" d="M267 140L265 143L265 144L270 141L267 140M277 140L276 142L278 142L277 140M286 140L287 141L286 140z"/>
<path style="fill:#f7bfbf; stroke:none;" d="M451.667 140.333L452.333 140.667L451.667 140.333z"/>
<path style="fill:#053f79; stroke:none;" d="M8 143L11 141L8 143z"/>
<path style="fill:#052254; stroke:none;" d="M168 141L169 142L168 141M170.667 141.333L171.333 141.667L170.667 141.333M173 141L173 142L179 142L173 141M215 141L215 142L218 142L215 141M239 141L237 142L237 143L239 141z"/>
<path style="fill:#053f79; stroke:none;" d="M281 141L281 143L283 143L281 141z"/>
<path style="fill:#e17774; stroke:none;" d="M287 141L288 142L287 141z"/>
<path style="fill:#052254; stroke:none;" d="M208.667 142.333L209.333 142.667L208.667 142.333z"/>
<path style="fill:#f7bfbf; stroke:none;" d="M444 144L448 143L444 144M454 142L455 143L454 142M457 142L458 143L457 142M465 142L466 143L465 142z"/>
<path style="fill:#052254; stroke:none;" d="M118 144L118 145L123 147L124 144L118 144M214.667 143.333L215.333 143.667L214.667 143.333z"/>
<path style="fill:#053f79; stroke:none;" d="M288 143L289 144L288 143z"/>
<path style="fill:#f7bfbf; stroke:none;" d="M461 143L462 144L461 143z"/>
<path style="fill:#052254; stroke:none;" d="M56.6667 144.333L57.3333 144.667L56.6667 144.333M70 145L72 148L67 148L66 160L62 159L60 165L66 165L61 170L68 167L70 171L75 169L75 165L77 167L80 168L81 168L81 160L81 155L78 152L72 156L71 156L74 153L74 152L69 151L69 150L75 150L73 148L73 147L76 144L70 145z"/>
<path style="fill:#053f79; stroke:none;" d="M257 144L257 146L259 146L257 144z"/>
<path style="fill:#e17774; stroke:none;" d="M289 144L290 145L289 144z"/>
<path style="fill:#f7bfbf; stroke:none;" d="M449.667 144.333L450.333 144.667L449.667 144.333M463 144L464 145L463 144z"/>
<path style="fill:#052254; stroke:none;" d="M32 145L33 146L32 145M114 145L115 146L114 145M235 145L235 146L239 146L235 145z"/>
<path style="fill:#053f79; stroke:none;" d="M289 145L290 146L289 145z"/>
<path style="fill:#f7bfbf; stroke:none;" d="M433 145L434 146L433 145z"/>
<path style="fill:#052254; stroke:none;" d="M241 146L241 147L244 148L241 146z"/>
<path style="fill:#e17774; stroke:none;" d="M290 146L291 147L290 146z"/>
<path style="fill:#f7bfbf; stroke:none;" d="M444 146L445 147L444 146M447 146L447 147L451 147L447 146z"/>
<path style="fill:#e17774; stroke:none;" d="M291 147L292 148L291 147z"/>
<path style="fill:#f7bfbf; stroke:none;" d="M424 147L424 148L427 148L424 147M450 148L450 149L457 148L450 148z"/>
<path style="fill:#053f79; stroke:none;" d="M17 148L17 149L20 149L17 148z"/>
<path style="fill:#052254; stroke:none;" d="M32.3333 148.667L32.6667 149.333L32.3333 148.667M34 148L35 149L34 148M63 148L64 149L63 148z"/>
<path style="fill:#053f79; stroke:none;" d="M281 148L281 150L283 150L283 148L281 148M289 148L290 149L289 148M291 148L292 149L291 148z"/>
<path style="fill:#f7bfbf; stroke:none;" d="M443 148L443 149L449 151L449 150L443 148z"/>
<path style="fill:#053f79; stroke:none;" d="M265 149L265 150L268 150L265 149z"/>
<path style="fill:#e17774; stroke:none;" d="M292 149L293 150L292 149z"/>
<path style="fill:#f7bfbf; stroke:none;" d="M424.667 149.333L425.333 149.667L424.667 149.333M458 149L458 150L469 152L458 149z"/>
<path style="fill:#053f79; stroke:none;" d="M16 152L24 151L16 152z"/>
<path style="fill:#052254; stroke:none;" d="M77.6667 150.333L78.3333 150.667L77.6667 150.333z"/>
<path style="fill:#053f79; stroke:none;" d="M272 150L270 154C272.649 153.432 273.355 152.412 272 150z"/>
<path style="fill:#e17774; stroke:none;" d="M293 150L294 151L293 150z"/>
<path style="fill:#053f79; stroke:none;" d="M280 151L281 152L280 151M284 151L287 154L284 151M293 151L294 152L293 151z"/>
<path style="fill:#f7bfbf; stroke:none;" d="M424 151L425 159C431.381 157.815 440.273 159.827 445 155L440 155L440 156L442 156L442 157L426 154L435 154L435 153L424 151M426.667 151.333L427.333 151.667L426.667 151.333M471 151L472 152L471 151M474 151L473 153L475 153L474 151z"/>
<path style="fill:#053f79; stroke:none;" d="M266.667 152.333L267.333 152.667L266.667 152.333M290 152L291 153L290 152M294 152L295 153L294 152z"/>
<path style="fill:#f7bfbf; stroke:none;" d="M476 152L476 153L479 153L476 152z"/>
<path style="fill:#053f79; stroke:none;" d="M40 153L39 157L40 157L40 153z"/>
<path style="fill:#052254; stroke:none;" d="M63 153L64 154L63 153M81 153L82 154L81 153z"/>
<path style="fill:#e17774; stroke:none;" d="M295 153L296 154L295 153z"/>
<path style="fill:#f7bfbf; stroke:none;" d="M447 153L448 154L447 153M464 153L465 154L464 153z"/>
<path style="fill:#053f79; stroke:none;" d="M19.6667 154.333L20.3333 154.667L19.6667 154.333M27 158L27 159L29 161L25 165L26 165C28.6624 163.222 29.7805 163.785 32 166L39 160L32 163L32 159L37 155C32.5518 153.789 30.2415 154.823 27 158M295 154L296 155L295 154z"/>
<path style="fill:#f7bfbf; stroke:none;" d="M445 154L446 155L445 154M455 154L454 156L456 156L455 154M468 154L468 155L475 157C474.204 153.284 471.363 154 468 154z"/>
<path style="fill:#053f79; stroke:none;" d="M293 155L294 156L293 155M296 155L297 156L296 155z"/>
<path style="fill:#f7bfbf; stroke:none;" d="M458 155L459 156L458 155z"/>
<path style="fill:#053f79; stroke:none;" d="M72 156L73 157L72 156M287 156L290 159L287 156z"/>
<path style="fill:#e17774; stroke:none;" d="M297 156L299 158L297 156z"/>
<path style="fill:#f7bfbf; stroke:none;" d="M448 156L449 157L448 156M464 156L465 157L464 156z"/>
<path style="fill:#053f79; stroke:none;" d="M23 157L23 160L25 159L25 158L23 157M297 157L298 158L297 157z"/>
<path style="fill:#f7bfbf; stroke:none;" d="M445.667 157.333L446.333 157.667L445.667 157.333z"/>
<path style="fill:#053f79; stroke:none;" d="M68.6667 158.333L69.3333 158.667L68.6667 158.333M71 158L78 161L78 160L71 158z"/>
<path style="fill:#052254; stroke:none;" d="M81 158L82 159L81 158M83 158L84 159L83 158M89 160L92 159L89 160M107.667 158.333L108.333 158.667L107.667 158.333z"/>
<path style="fill:#053f79; stroke:none;" d="M291 159L292 162L288 163L288 164L294 165L297 162C296.007 156.04 292.825 159.456 291 159M298 158L299 159L298 158z"/>
<path style="fill:#f7bfbf; stroke:none;" d="M463 158L464 159L463 158z"/>
<path style="fill:#e17774; stroke:none;" d="M299 159L300 160L299 159z"/>
<path style="fill:#f7bfbf; stroke:none;" d="M426 160L426 164C432.681 161.558 441.039 160.361 448 162C443.73 156.721 432.06 159.478 426 160M448 159L448 160L458 160L448 159M460 159L462 161L462 159L460 159M474 159L474 162L478 162L478 161L477 159L474 159z"/>
<path style="fill:#053f79; stroke:none;" d="M63.3333 160.667L63.6667 161.333L63.3333 160.667z"/>
<path style="fill:#052254; stroke:none;" d="M104 160L105 161L104 160M106 160L105 164L108 160L106 160M126 160L127 161L126 160M234.667 160.333L235.333 160.667L234.667 160.333z"/>
<path style="fill:#e17774; stroke:none;" d="M300 160L301 161L300 160z"/>
<path style="fill:#f7bfbf; stroke:none;" d="M472 160L473 161L472 160z"/>
<path style="fill:#052254; stroke:none;" d="M83 163L86 161L83 163z"/>
<path style="fill:#053f79; stroke:none;" d="M300 161L301 162L300 161z"/>
<path style="fill:#f7bfbf; stroke:none;" d="M301 161L302 162L301 161z"/>
<path style="fill:#053f79; stroke:none;" d="M67.6667 162.333L68.3333 162.667L67.6667 162.333M73.6667 162.333L74.3333 162.667L73.6667 162.333z"/>
<path style="fill:#052254; stroke:none;" d="M122 162L123 163L122 162z"/>
<path style="fill:#053f79; stroke:none;" d="M298 162L297 165L298 165L298 162z"/>
<path style="fill:#e17774; stroke:none;" d="M301 162L302 163L301 162z"/>
<path style="fill:#f7bfbf; stroke:none;" d="M457.667 162.333L458.333 162.667L457.667 162.333z"/>
<path style="fill:#053f79; stroke:none;" d="M39 163L37 166L39 163z"/>
<path style="fill:#052254; stroke:none;" d="M55 163L56 164L55 163M57 163L58 164L57 163M103 163L104 164L103 163z"/>
<path style="fill:#e17774; stroke:none;" d="M302 163L303 164L302 163z"/>
<path style="fill:#f7bfbf; stroke:none;" d="M432.667 163.333L433.333 163.667L432.667 163.333M464 163L465 164L464 163z"/>
<path style="fill:#053f79; stroke:none;" d="M2 166L3 167L5 164L2 166M7 164L3 169L3 171L10 174L7 164z"/>
<path style="fill:#052254; stroke:none;" d="M101 164L102 165L101 164z"/>
<path style="fill:#053f79; stroke:none;" d="M250 164L251 165L250 164M302 164L304 166L302 164z"/>
<path style="fill:#f7bfbf; stroke:none;" d="M303 164L304 165L303 164z"/>
<path style="fill:#052254; stroke:none;" d="M272.667 165.333L273.333 165.667L272.667 165.333z"/>
<path style="fill:#f7bfbf; stroke:none;" d="M438 165L441 168C441 164.898 444.367 166 447 166L438 165M454.667 165.333L455.333 165.667L454.667 165.333z"/>
<path style="fill:#052254; stroke:none;" d="M56 166L57 167L56 166z"/>
<path style="fill:#e17774; stroke:none;" d="M304 166L305 167L304 166z"/>
<path style="fill:#f7bfbf; stroke:none;" d="M426 166L426 171L427 171L429 167L426 166M429 166L429 167L435 167L435 166L429 166M471 166L473 168L473 166L471 166z"/>
<path style="fill:#052254; stroke:none;" d="M99 167L100 169L99 169L95 170L102 169L102 168L99 167M198.667 167.333L199.333 167.667L198.667 167.333M255 167L255 170L256 170L255 167M268.667 167.333L269.333 167.667L268.667 167.333z"/>
<path style="fill:#f7bfbf; stroke:none;" d="M305 167L306 168L305 167z"/>
<path style="fill:#053f79; stroke:none;" d="M28 168L31 171L28 168z"/>
<path style="fill:#052254; stroke:none;" d="M55 168L56 169L55 168z"/>
<path style="fill:#053f79; stroke:none;" d="M305 168L306 169L305 168M36 169L39 173L39 169L36 169z"/>
<path style="fill:#052254; stroke:none;" d="M81 169L82 170L81 169M196 172L203 174L204 171C200.76 169.798 196.951 167.56 196 172M261 169L262 170L261 169z"/>
<path style="fill:#e17774; stroke:none;" d="M306 169L308 171L306 169z"/>
<path style="fill:#f7bfbf; stroke:none;" d="M431 169L432 170L431 169z"/>
<path style="fill:#053f79; stroke:none;" d="M46 170L47 171L46 170z"/>
<path style="fill:#052254; stroke:none;" d="M258 170L259 171L258 170M296 170L291 171L290 173L291 176L288 177L290 180C284.471 181.095 280.795 182.916 278 188L283 188L282 192L281 192L275 188C276.102 193.144 284.647 192.829 289 194L289 190L293 194L291 191L291 184L292 177C295.055 175.398 296.934 173.548 296 170z"/>
<path style="fill:#053f79; stroke:none;" d="M306 170L307 171L306 170z"/>
<path style="fill:#f7bfbf; stroke:none;" d="M438 170L439 171L438 170M440.667 170.333L441.333 170.667L440.667 170.333M444 170L445 171L444 170z"/>
<path style="fill:#052254; stroke:none;" d="M7.33333 171.667L7.66667 172.333L7.33333 171.667M71.6667 171.333L72.3333 171.667L71.6667 171.333M74 171L74 175L65 176L66 181L63 181L63 185L71 187L70 181L78 175L74 171M247 172L248 177L251 176L252 177L251 182L260 188C262.289 184.358 259.516 183.28 256 183L255 180L255 179L269 177L264 176L265 173L257 174L258 177L255 176L256 171L247 172M264 171L265 172L264 171z"/>
<path style="fill:#053f79; stroke:none;" d="M307 171L308 172L307 171z"/>
<path style="fill:#f7bfbf; stroke:none;" d="M447 171L448 172L447 171M453 171L454 172L453 171z"/>
<path style="fill:#053f79; stroke:none;" d="M15.3333 172.667L15.6667 173.333L15.3333 172.667z"/>
<path style="fill:#052254; stroke:none;" d="M227 172L228 173L227 172M258 172L259 173L258 172M261.667 172.333L262.333 172.667L261.667 172.333M280 172L278 173L278 174L280 172z"/>
<path style="fill:#e17774; stroke:none;" d="M308 172L309 173L308 172z"/>
<path style="fill:#053f79; stroke:none;" d="M17 173L17 175L19 175L19 173L17 173z"/>
<path style="fill:#052254; stroke:none;" d="M225 173L226 174L225 173M272 173L273 174L272 173z"/>
<path style="fill:#e17774; stroke:none;" d="M309 173L310 174L309 173z"/>
<path style="fill:#f7bfbf; stroke:none;" d="M427 173L428 174L427 173M430.667 173.333L431.333 173.667L430.667 173.333M435.667 173.333L436.333 173.667L435.667 173.333M438 173L439 174L438 173M440 173L441 174L440 173z"/>
<path style="fill:#052254; stroke:none;" d="M116.667 174.333L117.333 174.667L116.667 174.333z"/>
<path style="fill:#053f79; stroke:none;" d="M301 174L302 177L305 174L301 174M309 174L310 175L309 174M14 175L10 190L16 187L14 192L15 192L21 183L18 186L16 186L15 183C18.798 180.262 17.1299 177.649 14 175M44 175L47 177L44 175z"/>
<path style="fill:#052254; stroke:none;" d="M54 175L55 176L54 175M68 175L69 176L68 175z"/>
<path style="fill:#053f79; stroke:none;" d="M259 176L259 177L264 177L259 176z"/>
<path style="fill:#e17774; stroke:none;" d="M310 175L311 176L310 175z"/>
<path style="fill:#f7bfbf; stroke:none;" d="M427 175L427 178L428 178L427 175z"/>
<path style="fill:#052254; stroke:none;" d="M244 176L245 177L244 176M271 176L272 177L271 176z"/>
<path style="fill:#f7bfbf; stroke:none;" d="M311 176L312 177L311 176M429 176L429 177L432 177L429 176M433 176L434 177L433 176M456 176L457 177L456 176z"/>
<path style="fill:#053f79; stroke:none;" d="M23.3333 177.667L23.6667 178.333L23.3333 177.667M311 177L312 178L311 177z"/>
<path style="fill:#f7bfbf; stroke:none;" d="M441 177L437 179L438 183L429 182L432 180L432 179L428 179L428 194L480 189L480 184L468 185C467.668 189.967 452.611 190.675 448 191L448 190L459 188L452 182L456 180L456 179L450 177L450 179L441 177z"/>
<path style="fill:#052254; stroke:none;" d="M15 178L16 179L15 178z"/>
<path style="fill:#053f79; stroke:none;" d="M46 178L48 180L48 178L46 178z"/>
<path style="fill:#e17774; stroke:none;" d="M312 178L313 179L312 178z"/>
<path style="fill:#f7bfbf; stroke:none;" d="M313 179L314 180L313 179z"/>
<path style="fill:#052254; stroke:none;" d="M16 180L17 181L16 180M90 180L91 181L90 180M259 180L262 182L259 180M267 180L268 181L267 180z"/>
<path style="fill:#053f79; stroke:none;" d="M313 180L314 181L313 180z"/>
<path style="fill:#f7bfbf; stroke:none;" d="M456 180L457 181L456 180z"/>
<path style="fill:#e17774; stroke:none;" d="M314 181L316 183L314 181z"/>
<path style="fill:#053f79; stroke:none;" d="M288 182L289 183L288 182M312 182L314 185L312 182M314 182L315 183L314 182z"/>
<path style="fill:#f7bfbf; stroke:none;" d="M456 182L457 183L456 182z"/>
<path style="fill:#052254; stroke:none;" d="M27 183L28 184L27 183z"/>
<path style="fill:#053f79; stroke:none;" d="M64 183L65 184L64 183M300 183L300 184L303 184L300 183M315 183L316 184L315 183z"/>
<path style="fill:#e17774; stroke:none;" d="M428 183L429 184L428 183M452 183L453 184L452 183z"/>
<path style="fill:#f7bfbf; stroke:none;" d="M464 183L465 184L464 183z"/>
<path style="fill:#052254; stroke:none;" d="M14 184L14 187L15 187L14 184M86.3333 184.667L86.6667 185.333L86.3333 184.667M276 184L277 185L276 184z"/>
<path style="fill:#e17774; stroke:none;" d="M316 184L318 186L316 184M429 184L430 185L429 184z"/>
<path style="fill:#052254; stroke:none;" d="M272.667 185.333L273.333 185.667L272.667 185.333z"/>
<path style="fill:#053f79; stroke:none;" d="M316 185L317 186L316 185z"/>
<path style="fill:#e17774; stroke:none;" d="M475 185L476 186L475 185M478 185L479 186L478 185z"/>
<path style="fill:#052254; stroke:none;" d="M63 186L64 187L63 186z"/>
<path style="fill:#053f79; stroke:none;" d="M317 186L318 187L317 186z"/>
<path style="fill:#e17774; stroke:none;" d="M470 186L470 187L473 187L470 186z"/>
<path style="fill:#053f79; stroke:none;" d="M0 187L0 198L1 198L1 193C5.6395 192.001 2.97168 188.514 0 187z"/>
<path style="fill:#052254; stroke:none;" d="M30 187L29 189L31 189L30 187z"/>
<path style="fill:#e17774; stroke:none;" d="M318 187L319 188L318 187M438 187L434 189L434 190L438 187M450 187L450 188L454 188L450 187z"/>
<path style="fill:#053f79; stroke:none;" d="M307 190L310 188L307 190M316 188L317 189L316 188z"/>
<path style="fill:#e17774; stroke:none;" d="M319 188L320 189L319 188M448 188L449 189L448 188z"/>
<path style="fill:#052254; stroke:none;" d="M1.33333 189.667L1.66667 190.333L1.33333 189.667z"/>
<path style="fill:#053f79; stroke:none;" d="M22.6667 189.333L23.3333 189.667L22.6667 189.333z"/>
<path style="fill:#052254; stroke:none;" d="M256 189L257 190L256 189z"/>
<path style="fill:#053f79; stroke:none;" d="M319 189L320 190L319 189z"/>
<path style="fill:#e17774; stroke:none;" d="M438 190L442 191L438 190M445.667 189.333L446.333 189.667L445.667 189.333M476 189L476 190L480 190L476 189z"/>
<path style="fill:#052254; stroke:none;" d="M68 191L72 195C71.4942 192.026 71.0394 191.144 68 191M73.3333 190.667L73.6667 191.333L73.3333 190.667M80 193L83 190L80 193M254 190L246 192L246 193L256 194L256 193L254 190z"/>
<path style="fill:#053f79; stroke:none;" d="M287 190L288 191L287 190z"/>
<path style="fill:#e17774; stroke:none;" d="M320 190L321 191L320 190M467 190L467 191L472 191L467 190z"/>
<path style="fill:#053f79; stroke:none;" d="M472.667 190.333L473.333 190.667L472.667 190.333z"/>
<path style="fill:#052254; stroke:none;" d="M374 202L351 202L351 203L362 206C355.511 204.402 349.798 203.577 345 209L344 209L339 208L334 208L332 204L331 210L332 210L333 207L333 217L336 218L332 231L332 232L335 232L335 231L340 238L337 244L336 244L332 243L331 234L330 234L330 252L331 252L331 249L336 251L338 250L340 255L336 263L339 258L339 257C342.673 255.982 342.597 254.177 341 251L345 251L346 261L340 266L335 266L333 255L330 254C328.727 258.307 327.324 266.788 331 270L331 271L327.855 284L327 319L332 319L330 316L330 308L329 308L329 310L328 310L330 304C328.465 298.217 328.366 290.273 336 294L341 286L347 285L347 284L342 285L344 281L347 283L352 279L350 277L350 276L354 267L349 264L349 263L351 262C348.925 259.85 348.44 258.795 351 257L351 256L349 256L349 255L353 254L352 251C355.19 248.751 354.615 244.53 354 241C358.228 240.299 358.662 226.81 358 223C365.413 224.229 367.682 223.913 369 216C374.923 217.542 379.315 215.622 384 212C384.55 215.751 390.58 216.55 394 217L394 221C390.008 221.815 390.75 224.284 393 227L391 230L384 231L383 231L372 231L372 232L377 237L378 237L379 234L380 234L380 240L388 238L388 235L392 241L413 244C413.976 237.86 418.432 237.119 424 237L423 240L424 240C428.425 236.625 432.878 239.22 436 243L417 242L420 244L420 248L411 249L412 252L410 247C404.537 246.287 401.38 250.436 399 255L406 255L406 256C398.744 256.439 393.282 256.565 389 263L390 265L394 266L390 273L393 272L392 275L404 275L405 273L405 272L404 270L401 269L401 268L408 267L408 266L405 262L403 260L403 259L408 258L415 254L414 251L424 250L425 256L421 255L421 256L423 259L429 257L432 261L431 259L432 259C432.735 264.156 429.077 266.441 425 269L425 270L430 268L434 278L430 278L433 279C430.403 284.87 431.718 290.651 435 296L431 301L435 298L436 298L431 313L432 319L480 319L480 297L473 296L473 289L479 292L477 295L477 296C482.769 294.764 480 274.425 480 269C473.86 269.777 466.416 271.502 462 266L476 264L476 265L474 265L474 266C484.402 262.807 479.084 246.579 480 238L479 238L477 240L477 234L480 232L477 232L480 231L480 190L399 197.741L374 202z"/>
<path style="fill:#053f79; stroke:none;" d="M37 191L38 195L37 191z"/>
<path style="fill:#052254; stroke:none;" d="M199 191L200 192L199 191z"/>
<path style="fill:#e17774; stroke:none;" d="M229 191L230 192L229 191M231.667 191.333L232.333 191.667L231.667 191.333z"/>
<path style="fill:#052254; stroke:none;" d="M237 191L238 192L237 191z"/>
<path style="fill:#e17774; stroke:none;" d="M321 191L322 192L321 191M456 191L456 192L462 192L456 191z"/>
<path style="fill:#053f79; stroke:none;" d="M462 191L462 192L465 192L462 191M25.6667 192.333L26.3333 192.667L25.6667 192.333z"/>
<path style="fill:#052254; stroke:none;" d="M30.6667 192.333L31.3333 192.667L30.6667 192.333M78 192L79 193L78 192M228 192L229 193L228 192z"/>
<path style="fill:#e17774; stroke:none;" d="M237.667 192.333L238.333 192.667L237.667 192.333z"/>
<path style="fill:#053f79; stroke:none;" d="M310 192L311 193L310 192M321 192L322 193L321 192z"/>
<path style="fill:#f7bfbf; stroke:none;" d="M322 192L323 193L322 192z"/>
<path style="fill:#e17774; stroke:none;" d="M442 192L442 193L445 193L442 192M446 192L446 193L451 193L446 192z"/>
<path style="fill:#053f79; stroke:none;" d="M451 192L451 193L454 193L451 192M43 195L46 193L43 195z"/>
<path style="fill:#052254; stroke:none;" d="M208 193L209 194L208 193z"/>
<path style="fill:#e17774; stroke:none;" d="M245 193L245 194L248 194L245 193z"/>
<path style="fill:#053f79; stroke:none;" d="M248 193L248 194L253 194L248 193z"/>
<path style="fill:#052254; stroke:none;" d="M257 193L258 194L257 193z"/>
<path style="fill:#e17774; stroke:none;" d="M322 193L323 194L322 193M434 193L434 194L438 194L434 193z"/>
<path style="fill:#053f79; stroke:none;" d="M438.667 193.333L439.333 193.667L438.667 193.333M48 194L48 197L49 197L50 194L48 194z"/>
<path style="fill:#052254; stroke:none;" d="M76 194L76 196L78 196L76 194z"/>
<path style="fill:#e17774; stroke:none;" d="M252 194L252 195L257 195L252 194M323 194L324 195L323 194z"/>
<path style="fill:#f7bfbf; stroke:none;" d="M422 194L422 195L427 195L422 194z"/>
<path style="fill:#e17774; stroke:none;" d="M427 194L427 195L432 195L427 194z"/>
<path style="fill:#053f79; stroke:none;" d="M432.667 194.333L433.333 194.667L432.667 194.333z"/>
<path style="fill:#052254; stroke:none;" d="M227 195L228 196L227 195z"/>
<path style="fill:#e17774; stroke:none;" d="M260 195L260 196L265 196L260 195z"/>
<path style="fill:#052254; stroke:none;" d="M270 195L271 196L270 195z"/>
<path style="fill:#053f79; stroke:none;" d="M319 195L321 197L319 195z"/>
<path style="fill:#e17774; stroke:none;" d="M324 195L325 196L324 195M414 195L414 196L420 196L414 195z"/>
<path style="fill:#053f79; stroke:none;" d="M420.667 195.333L421.333 195.667L420.667 195.333M18 205L24 199C19.6258 192.928 17.5808 200.848 18 205z"/>
<path style="fill:#052254; stroke:none;" d="M70 196L70 200L61 202L61 203L73 205L70 196M208 196L209 197L208 196z"/>
<path style="fill:#e17774; stroke:none;" d="M228 196L228 199L229 199L228 196M268 196L268 197L272 197L268 196z"/>
<path style="fill:#052254; stroke:none;" d="M278.667 196.333L279.333 196.667L278.667 196.333z"/>
<path style="fill:#053f79; stroke:none;" d="M322 196L322 203L328 203L325 196L324 196L325 198L322 196z"/>
<path style="fill:#f7bfbf; stroke:none;" d="M325 196L326 197L325 196z"/>
<path style="fill:#e17774; stroke:none;" d="M406.667 196.333L407.333 196.667L406.667 196.333z"/>
<path style="fill:#053f79; stroke:none;" d="M408.667 196.333L409.333 196.667L408.667 196.333z"/>
<path style="fill:#e17774; stroke:none;" d="M276 197L276 198L279 198L276 197z"/>
<path style="fill:#052254; stroke:none;" d="M287 197L287 198L292 198L287 197z"/>
<path style="fill:#e17774; stroke:none;" d="M395.667 197.333L396.333 197.667L395.667 197.333z"/>
<path style="fill:#053f79; stroke:none;" d="M397 197L397 198L401 198L397 197z"/>
<path style="fill:#052254; stroke:none;" d="M32 198L31 203L32 203L32 198M36 198L36 203L38 203L38 198L36 198M227 198L228 199L227 198z"/>
<path style="fill:#e17774; stroke:none;" d="M285 198L285 199L288 199L285 198z"/>
<path style="fill:#052254; stroke:none;" d="M295 198L296 199L295 198z"/>
<path style="fill:#053f79; stroke:none;" d="M321 198L322 199L321 198z"/>
<path style="fill:#e17774; stroke:none;" d="M326 198L327 199L326 198M385 198L385 199L388 199L385 198z"/>
<path style="fill:#053f79; stroke:none;" d="M388 198L388 199L393 199L388 198z"/>
<path style="fill:#052254; stroke:none;" d="M77 199L78 202L77 199z"/>
<path style="fill:#e17774; stroke:none;" d="M292 199L292 200L297 200L292 199z"/>
<path style="fill:#052254; stroke:none;" d="M301 199L301 200L308 200L301 199z"/>
<path style="fill:#e17774; stroke:none;" d="M374 199L374 200L378 200L374 199z"/>
<path style="fill:#053f79; stroke:none;" d="M378 199L378 200L383 200L378 199z"/>
<path style="fill:#052254; stroke:none;" d="M39 200L40 201L39 200M206 200L207 201L206 200z"/>
<path style="fill:#e17774; stroke:none;" d="M302.667 200.333L303.333 200.667L302.667 200.333z"/>
<path style="fill:#052254; stroke:none;" d="M309 200L309 201L317 201L309 200z"/>
<path style="fill:#e17774; stroke:none;" d="M364.667 200.333L365.333 200.667L364.667 200.333z"/>
<path style="fill:#053f79; stroke:none;" d="M366 200L366 201L374 202L366 200z"/>
<path style="fill:#e17774; stroke:none;" d="M310.667 201.333L311.333 201.667L310.667 201.333M328 201L329 202L328 201M354 201L354 202L357 202L354 201z"/>
<path style="fill:#053f79; stroke:none;" d="M357 201L357 202L362 202L357 201M0 202L0 204L2 204L2 202L0 202M12.6667 202.333L13.3333 202.667L12.6667 202.333M25 202L25 205L24 205L24 203L23 203L23 208L25 202z"/>
<path style="fill:#052254; stroke:none;" d="M185 202L185 204L187 204L185 202M206 202L207 203L206 202M226 202L226 206L227 206L226 202z"/>
<path style="fill:#e17774; stroke:none;" d="M319 202L319 203L322 203L319 202z"/>
<path style="fill:#052254; stroke:none;" d="M328 202L329 203L328 202z"/>
<path style="fill:#e17774; stroke:none;" d="M341 202L341 203L344 203L341 202z"/>
<path style="fill:#053f79; stroke:none;" d="M333 203L334 208L339 208L344 209L345 209C350.61 204.504 355.178 204.719 362 206C357.505 199.067 340.289 203.019 333 203M367 202L368 203L367 202M46.3333 203.667L46.6667 204.333L46.3333 203.667M56 203L57 204L56 203z"/>
<path style="fill:#e17774; stroke:none;" d="M328 203L329 204L328 203M330 205L333 204L330 205z"/>
<path style="fill:#052254; stroke:none;" d="M341 203L341 204L344 204L341 203z"/>
<path style="fill:#053f79; stroke:none;" d="M13 204L14 205L13 204z"/>
<path style="fill:#e17774; stroke:none;" d="M227 204L227 207L228 207L227 204z"/>
<path style="fill:#053f79; stroke:none;" d="M331 204L332 205L331 204z"/>
<path style="fill:#052254; stroke:none;" d="M334 204L335 205L334 204M28 205L28 208L29 208L28 205z"/>
<path style="fill:#053f79; stroke:none;" d="M330 205L332 243L336 244L337 244L340 238L335 231L335 232L337 233L334 234L332 232L332 231L336 218L333 217L333 207L332 210L331 210L330 205M349.667 206.333L350.333 206.667L349.667 206.333M358.667 206.333L359.333 206.667L358.667 206.333M387 206L387 207L392 208L392 207L387 206z"/>
<path style="fill:#052254; stroke:none;" d="M10.6667 207.333L11.3333 207.667L10.6667 207.333M37 208L38 209L37 208M225 208L225 214L226 214L225 208z"/>
<path style="fill:#053f79; stroke:none;" d="M340 208L341 209L340 208M359.667 208.333L360.333 208.667L359.667 208.333z"/>
<path style="fill:#052254; stroke:none;" d="M0 209L2 229L0 230L0 231L0 236L8 236C6.06712 239.715 5.52556 242.465 8 246L9 246L11 242L14 243L9 239L14 232L3 234L3 233L8 231L6 227L11 225L8 220L13 219L11 226C15.2873 228.956 15.5765 230.983 15 236L16 236L21 222L15 225L17 222L16 216L21 217L21 216L17 210L16 210L15 213L12 213L11 210L10 213L0 209z"/>
<path style="fill:#053f79; stroke:none;" d="M451.667 209.333L452.333 209.667L451.667 209.333z"/>
<path style="fill:#052254; stroke:none;" d="M8 210L9 211L8 210M22 216L25 231L23 234L24 234L26 234L28 212L27 212L26 216L25 216L27 210L22 216M45 210L46 211L45 210M21 211L20 214L21 211z"/>
<path style="fill:#e17774; stroke:none;" d="M226 211L226 214L227 214L226 211M319 211L317 212L317 213L319 211z"/>
<path style="fill:#053f79; stroke:none;" d="M336 211L337 212L336 211M382 212C378.433 216.292 374.325 216.47 369 216C366.968 223.164 365.387 223.648 358 223C358 227.031 357.094 241.774 354 241L352 251L353 254L349 255L349 256L351 256L351 257C347.178 257.819 347.855 260.604 351 262L349 263L349 264L351 266L354 267L352 279L347 283L344 281L342 285L347 284L347 285L341 286L336 294C328.149 289.191 327.912 298.305 330 304L328 310L329 310L329 308L330 308L330 316L332 319L355 319L355 315C377.264 319.465 398.989 319 422 319L423 311L430 308L429 319C432.589 318.231 431.834 316.137 431 313L436 298L435 298L431 301L435 296L430 278L434 278L430 268C426.586 268.832 419.898 268.757 420 273L416 273L416 272L418 271L405 264L405 265L408 266L408 267L401 268L401 269L405 272L404 275C399.491 273.092 396.454 272.86 392 275L393 272L390 273L394 266L389 263C394.31 257.21 398.512 257.121 406 256L406 255L399 255C402.07 251.033 404.695 247.087 410 247L412 252L411 249L420 248L417 242L436 243C433.572 238.516 428.022 235.635 424 240L423 240L424 237C418.176 237.049 413.519 237.321 413 244C404.571 241.366 400.633 237.759 392 241L388 235L388 238L380 240L380 234L379 234L378 237L377 237L372 232L372 231L383 231L384 231L391 230L393 227C391.303 224.454 390.081 221.546 394 221L394 217L384 212L382 212z"/>
<path style="fill:#052254; stroke:none;" d="M195 213L195 216L196 216L197 213L195 213z"/>
<path style="fill:#053f79; stroke:none;" d="M9 214L9 216L11 216L9 214z"/>
<path style="fill:#052254; stroke:none;" d="M39 214L40 215L39 214M47 221L48 221L53 215C48.6688 215.343 47.5953 216.81 47 221M221 216L221 217L224 218L224 219L220 220L220 221L224 222L225 215L221 216z"/>
<path style="fill:#e17774; stroke:none;" d="M316.667 215.333L317.333 215.667L316.667 215.333z"/>
<path style="fill:#052254; stroke:none;" d="M69 216L70 217L69 216M202 216L202 220L203 220L202 216z"/>
<path style="fill:#053f79; stroke:none;" d="M400.667 216.333L401.333 216.667L400.667 216.333z"/>
<path style="fill:#052254; stroke:none;" d="M196 217L197 218L196 217z"/>
<path style="fill:#e17774; stroke:none;" d="M227 217L228 218L227 217z"/>
<path style="fill:#052254; stroke:none;" d="M19 221L23 220L19 221M29 218L30 219L29 218M55 218L56 219L55 218z"/>
<path style="fill:#e17774; stroke:none;" d="M225 218L225 221L226 221L225 218M315 218L315 220L317 220L317 218L315 218z"/>
<path style="fill:#053f79; stroke:none;" d="M337 218L336 219L339 221L337 218M342.667 218.333L343.333 218.667L342.667 218.333z"/>
<path style="fill:#e17774; stroke:none;" d="M237 221L240 219L237 221M342.667 219.333L343.333 219.667L342.667 219.333z"/>
<path style="fill:#053f79; stroke:none;" d="M351 220L351 221L355 220L351 220M0.333333 220.667L0.666667 221.333L0.333333 220.667z"/>
<path style="fill:#e17774; stroke:none;" d="M247 220L248 221L247 220z"/>
<path style="fill:#053f79; stroke:none;" d="M342 220L343 221L342 220M358 220L359 221L358 220M407 220L408 221L407 220z"/>
<path style="fill:#e17774; stroke:none;" d="M329 221L329 240L330 240L329 221z"/>
<path style="fill:#052254; stroke:none;" d="M330 221L330 224L331 224L330 221M47 223L47 224L52 227C52.7935 223.674 49.7918 223.319 47 223M62 223L63 224L62 223M66 223L65 225L67 225L66 223z"/>
<path style="fill:#e17774; stroke:none;" d="M238.667 223.333L239.333 223.667L238.667 223.333z"/>
<path style="fill:#053f79; stroke:none;" d="M364.667 223.333L365.333 223.667L364.667 223.333z"/>
<path style="fill:#052254; stroke:none;" d="M55 224L56 225L55 224M223 224L223 228L224 228L223 224z"/>
<path style="fill:#e17774; stroke:none;" d="M224 224L224 228L225 228L224 224z"/>
<path style="fill:#053f79; stroke:none;" d="M415 224L416 225L415 224z"/>
<path style="fill:#052254; stroke:none;" d="M33 225L34 226L33 225M46.3333 225.667L46.6667 226.333L46.3333 225.667M49.3333 225.667L49.6667 226.333L49.3333 225.667M57 225L57 226L62 227L62 228L52 230L43 235L54 235L53 242L56 239L57 243L52 243L52 244L55 245L55 246L51 245L51 246L56 251L52 256L59 258L57 256C58.8495 251.707 60.1111 248.791 65 248L65 247L58 248L57 248L58 242C61.293 240.28 64.2107 236.052 61 233C64.3623 228.123 62.9247 225.417 57 225z"/>
<path style="fill:#e17774; stroke:none;" d="M240 225L240 226L244 226L240 225z"/>
<path style="fill:#053f79; stroke:none;" d="M473.667 225.333L474.333 225.667L473.667 225.333M2 226L2 228L4 226L2 226z"/>
<path style="fill:#052254; stroke:none;" d="M42 226L43 227L42 226M221 226L222 227L221 226z"/>
<path style="fill:#053f79; stroke:none;" d="M338 226L339 227L338 226z"/>
<path style="fill:#052254; stroke:none;" d="M362 226L360 228L360 229L366 230L365 233L371 234L371 233L364 226L362 226M33 227L34 228L33 227z"/>
<path style="fill:#e17774; stroke:none;" d="M239 227L242 229L242 228L239 227z"/>
<path style="fill:#053f79; stroke:none;" d="M472 227L472 229L474 229L474 227L472 227M0 228L0 230L2 228L0 228z"/>
<path style="fill:#052254; stroke:none;" d="M330 228L330 232L331 232L330 228M48 229L49 230L48 229M218 229L218 230L219 233L221 238L218 239L221 240C215.948 246.444 218.011 255.006 217 263L216 263L216 259L215 259L213 266L218 269C218.415 259.342 220.542 249.577 221.87 240C222.557 235.038 223.729 230.62 218 229M332 229L333 230L332 229M198 230L199 231L198 230z"/>
<path style="fill:#e17774; stroke:none;" d="M320.667 230.333L321.333 230.667L320.667 230.333z"/>
<path style="fill:#053f79; stroke:none;" d="M473 230L473 232L475 230L473 230M0 231L0 234L2 234L2 231L0 231z"/>
<path style="fill:#052254; stroke:none;" d="M33 234L42 236L41 231L33 234M68 231L69 232L68 231M360 234L364 233L360 234z"/>
<path style="fill:#053f79; stroke:none;" d="M381.667 231.333L382.333 231.667L381.667 231.333M467 231L466 233L467 231M477 231L478 233L479 233L480 231L477 231z"/>
<path style="fill:#052254; stroke:none;" d="M64 232L65 233L64 232M197.667 232.333L198.333 232.667L197.667 232.333z"/>
<path style="fill:#e17774; stroke:none;" d="M223 232L223 235L224 235L223 232M247 232L248 233L247 232z"/>
<path style="fill:#053f79; stroke:none;" d="M37 233L38 234L37 233M414 233L416 235L416 233L414 233M477 234L477 240L480 234L477 234z"/>
<path style="fill:#052254; stroke:none;" d="M21 235L19 243L21 243L20 251C25.3418 249.538 27.1686 246.323 28 241L24 242L22 238L25 235L21 235z"/>
<path style="fill:#053f79; stroke:none;" d="M56 235L57 236L56 235M222 235L222 239L223 239L222 235z"/>
<path style="fill:#052254; stroke:none;" d="M360 235L361 236L360 235M375 235L376 236L375 235z"/>
<path style="fill:#053f79; stroke:none;" d="M382 235L383 236L382 235z"/>
<path style="fill:#052254; stroke:none;" d="M18 236L18 239L19 239L18 236M45.6667 236.333L46.3333 236.667L45.6667 236.333M198 236L199 237L198 236z"/>
<path style="fill:#e17774; stroke:none;" d="M235 236L235 237L240 238L235 236M280.667 236.333L281.333 236.667L280.667 236.333z"/>
<path style="fill:#053f79; stroke:none;" d="M408 236L409 237L408 236M474 236L473 238L475 238L474 236z"/>
<path style="fill:#052254; stroke:none;" d="M11.6667 237.333L12.3333 237.667L11.6667 237.333z"/>
<path style="fill:#e17774; stroke:none;" d="M241 237L241 238L244 238L241 237M246.667 237.333L247.333 237.667L246.667 237.333z"/>
<path style="fill:#052254; stroke:none;" d="M0 238L5 240L0 238z"/>
<path style="fill:#e17774; stroke:none;" d="M250.667 238.333L251.333 238.667L250.667 238.333z"/>
<path style="fill:#052254; stroke:none;" d="M359.667 238.333L360.333 238.667L359.667 238.333M197 239L200 241L197 239z"/>
<path style="fill:#e17774; stroke:none;" d="M222 239L222 242L223 242L222 239M236 239L237 240L236 239z"/>
<path style="fill:#052254; stroke:none;" d="M367 239L368 240L367 239M419 239L420 240L419 239z"/>
<path style="fill:#053f79; stroke:none;" d="M9 240L10 241L9 240z"/>
<path style="fill:#052254; stroke:none;" d="M43 240L44 241L43 240M135 240L136 241L135 240z"/>
<path style="fill:#e17774; stroke:none;" d="M317.667 240.333L318.333 240.667L317.667 240.333z"/>
<path style="fill:#053f79; stroke:none;" d="M329 240L330 241L329 240M340 240L341 241L340 240M407 240L407 241L410 241L407 240z"/>
<path style="fill:#052254; stroke:none;" d="M415.333 240.667L415.667 241.333L415.333 240.667M417 240L418 241L417 240z"/>
<path style="fill:#053f79; stroke:none;" d="M467.667 240.333L468.333 240.667L467.667 240.333M479 240L479 243L480 243L479 240z"/>
<path style="fill:#052254; stroke:none;" d="M46 241L47 242L46 241z"/>
<path style="fill:#e17774; stroke:none;" d="M329 241L329 245L330 245L329 241z"/>
<path style="fill:#052254; stroke:none;" d="M365.667 241.333L366.333 241.667L365.667 241.333z"/>
<path style="fill:#053f79; stroke:none;" d="M463 241L464 242L463 241M221 242L221 246L222 246L221 242z"/>
<path style="fill:#e17774; stroke:none;" d="M322 242L323 243L322 242z"/>
<path style="fill:#052254; stroke:none;" d="M40 243L41 244L40 243M47.6667 243.333L48.3333 243.667L47.6667 243.333z"/>
<path style="fill:#e17774; stroke:none;" d="M275.667 243.333L276.333 243.667L275.667 243.333M311 243L312 244L311 243z"/>
<path style="fill:#053f79; stroke:none;" d="M425 243L426 244L425 243M428 245L431 245L430 243L428 245M448 243L446 244L446 245L448 243z"/>
<path style="fill:#052254; stroke:none;" d="M16 244L15 252L16 252L16 244z"/>
<path style="fill:#e17774; stroke:none;" d="M45.3333 244.667L45.6667 245.333L45.3333 244.667z"/>
<path style="fill:#f7bfbf; stroke:none;" d="M46 244L49 246L49 245L46 244z"/>
<path style="fill:#e17774; stroke:none;" d="M47.6667 244.333L48.3333 244.667L47.6667 244.333z"/>
<path style="fill:#052254; stroke:none;" d="M61 244L62 245L61 244z"/>
<path style="fill:#e17774; stroke:none;" d="M320 244L319 246L320 244z"/>
<path style="fill:#053f79; stroke:none;" d="M348 244L346 248L348 244M478 244L479 245L478 244z"/>
<path style="fill:#052254; stroke:none;" d="M3 245L4 246L3 245z"/>
<path style="fill:#053f79; stroke:none;" d="M23 245L24 246L23 245z"/>
<path style="fill:#052254; stroke:none;" d="M28 245L29 246L28 245M170 245L171 246L170 245z"/>
<path style="fill:#053f79; stroke:none;" d="M329.333 245.667L329.667 246.333L329.333 245.667z"/>
<path style="fill:#052254; stroke:none;" d="M31 246L32 247L31 246M46 247L47 252L48 252L50 246L46 247z"/>
<path style="fill:#e17774; stroke:none;" d="M221.333 246.667L221.667 247.333L221.333 246.667M223 246L224 247L223 246M239 249L239 250L258 247L239 249z"/>
<path style="fill:#052254; stroke:none;" d="M8 248L8 249L11 253L5 250L3 257L4 258L15 260L13 256C13.9828 251.419 13.4667 247.457 8 248z"/>
<path style="fill:#053f79; stroke:none;" d="M22 247L23 248L22 247z"/>
<path style="fill:#e17774; stroke:none;" d="M236.667 247.333L237.333 247.667L236.667 247.333M317 248L317 249L326 249L317 248z"/>
<path style="fill:#052254; stroke:none;" d="M412 247L413 248L412 247z"/>
<path style="fill:#053f79; stroke:none;" d="M428 247L428 249L430 247L428 247M446 247L446 249L448 249L448 247L446 247z"/>
<path style="fill:#052254; stroke:none;" d="M30 248L30 250L32 250L30 248M40 248L37 254C39.8446 252.396 41.7481 251.128 40 248M43 248L44 249L43 248z"/>
<path style="fill:#053f79; stroke:none;" d="M56 248L57 249L56 248M329 248L330 249L329 248M341.667 248.333L342.333 248.667L341.667 248.333z"/>
<path style="fill:#052254; stroke:none;" d="M61 249L61 251L63 249L61 249z"/>
<path style="fill:#e17774; stroke:none;" d="M237 249L236 251L238 251L237 249M329.333 249.667L329.667 250.333L329.333 249.667z"/>
<path style="fill:#053f79; stroke:none;" d="M329 251L329 255L333 255C330.953 259.459 333.179 261.795 335 266L340 266L346 261L345 251L341 251L343 253L339 257L339 258L341 259L336 263L340 255L338 250L336 251C335.01 246.051 329.804 251.201 329 251z"/>
<path style="fill:#052254; stroke:none;" d="M34 250L35 251L34 250z"/>
<path style="fill:#053f79; stroke:none;" d="M220.333 250.667L220.667 251.333L220.333 250.667M414 251L415 254L408 258L405 257L403 262L403 263C405.475 262.487 405.575 262.396 405 260C410.218 258.372 416.856 256.458 422 259L423 259L421 256L421 255L425 256L424 250L414 251M429 250L429 254C430.813 252.444 430.813 251.556 429 250z"/>
<path style="fill:#e17774; stroke:none;" d="M230.667 251.333L231.333 251.667L230.667 251.333z"/>
<path style="fill:#053f79; stroke:none;" d="M446 251L446 252L451 253L446 251z"/>
<path style="fill:#052254; stroke:none;" d="M45 252L45 255L47 252L45 252z"/>
<path style="fill:#e17774; stroke:none;" d="M220 252L220 256L221 256L220 252z"/>
<path style="fill:#053f79; stroke:none;" d="M350 252L352 254L352 252L350 252z"/>
<path style="fill:#052254; stroke:none;" d="M423 252L424 253L423 252M28 253L28 259L31 258L35 262L35 253L34 253L34 256L30 257L30 253L28 253z"/>
<path style="fill:#053f79; stroke:none;" d="M448 256L451 254L448 256M446 255L447 256L446 255M459.667 255.333L460.333 255.667L459.667 255.333M464.667 255.333L465.333 255.667L464.667 255.333M471 255L472 256L471 255M219 256L219 259L220 259L219 256z"/>
<path style="fill:#e17774; stroke:none;" d="M241 256L240 260L243 256L241 256z"/>
<path style="fill:#053f79; stroke:none;" d="M425 256L424 258L425 256M454.333 256.667L454.667 257.333L454.333 256.667z"/>
<path style="fill:#052254; stroke:none;" d="M85 257L86 258L85 257M88 257L89 258L88 257M215 257L216 258L215 257z"/>
<path style="fill:#e17774; stroke:none;" d="M312 257L315 261L312 257z"/>
<path style="fill:#053f79; stroke:none;" d="M400 257L401 258L400 257z"/>
<path style="fill:#052254; stroke:none;" d="M420.667 257.333L421.333 257.667L420.667 257.333z"/>
<path style="fill:#053f79; stroke:none;" d="M424 259L424 260L433 263L431 259L432 261L431 261L429 257L424 259M474.333 257.667L474.667 258.333L474.333 257.667z"/>
<path style="fill:#f7bfbf; stroke:none;" d="M405 264L416 271L432 264C426.214 257.049 408.967 254.219 405 264z"/>
<path style="fill:#e17774; stroke:none;" d="M421 258L422 259L421 258z"/>
<path style="fill:#052254; stroke:none;" d="M38 259L39 260L38 259M59 259L58 261L60 261L59 259z"/>
<path style="fill:#e17774; stroke:none;" d="M219 259L219 262L220 262L219 259M328 259L328 267L329 267L328 259M423 259L424 260L423 259M426 259L427 260L426 259M273 260L273 261L277 261L273 260M405 260L406 261L405 260z"/>
<path style="fill:#053f79; stroke:none;" d="M435 260L433 269C436.714 268.204 438.955 261.719 435 260z"/>
<path style="fill:#052254; stroke:none;" d="M37 261L38 262L37 261z"/>
<path style="fill:#053f79; stroke:none;" d="M448 264L448 265L441 266L441 263L438 264L447 266L445 268L445 269L446 277L451 281L445 282L445 284L448 285L444 289L445 292L440 292L440 293C441.975 294.72 441.766 295.068 440 297L462 303L468 300L471 302L471 301L468 300L468 299L471 299L471 298L460 297L461 287L464 288L459 285L461 282L457 275L456 275L453 280L452 267L456 267L456 266L451 265L453 261C451.305 261.312 444.213 262.353 448 264z"/>
<path style="fill:#052254; stroke:none;" d="M40 262L39 267L35 267L38 271L34 269L34 272L37 271L39 276L34 275C36.9083 280.484 42.3113 281.848 41 289C48.3034 286.691 43.4752 280.418 43 275L40 262z"/>
<path style="fill:#e17774; stroke:none;" d="M272.667 262.333L273.333 262.667L272.667 262.333M306 270L315 271L314 267L318 267L318 266L315 266L314 262L306 270M431 262L432 263L431 262z"/>
<path style="fill:#052254; stroke:none;" d="M32 263L31 265L32 263M37 263L38 264L37 263M78 263L79 264L78 263z"/>
<path style="fill:#053f79; stroke:none;" d="M218.333 263.667L218.667 264.333L218.333 263.667M394.667 263.333L395.333 263.667L394.667 263.333z"/>
<path style="fill:#e17774; stroke:none;" d="M404 263L405 264L404 263M432 263L433 264L432 263z"/>
<path style="fill:#053f79; stroke:none;" d="M442 263L442 264L445 264L442 263M462 266L463 269L480 265L480 264L474 266L474 265L476 265L462 266z"/>
<path style="fill:#052254; stroke:none;" d="M28 264L29 265L28 264z"/>
<path style="fill:#053f79; stroke:none;" d="M215 264L216 267L217 267L217 264L215 264z"/>
<path style="fill:#e17774; stroke:none;" d="M318 264L319 265L318 264M431 264L432 265L431 264M440 264L440 265L444 265L444 264L440 264z"/>
<path style="fill:#f7bfbf; stroke:none;" d="M441 264L442 265L441 264M444 264L445 265L444 264z"/>
<path style="fill:#e17774; stroke:none;" d="M445.667 264.333L446.333 264.667L445.667 264.333z"/>
<path style="fill:#f7bfbf; stroke:none;" d="M447 264L448 265L447 264z"/>
<path style="fill:#053f79; stroke:none;" d="M464 264L465 265L464 264z"/>
<path style="fill:#e17774; stroke:none;" d="M218 265L218 269L219 269L218 265z"/>
<path style="fill:#f7bfbf; stroke:none;" d="M312.667 265.333L313.333 265.667L312.667 265.333z"/>
<path style="fill:#053f79; stroke:none;" d="M429.667 265.333L430.333 265.667L429.667 265.333z"/>
<path style="fill:#052254; stroke:none;" d="M449.667 265.333L450.333 265.667L449.667 265.333z"/>
<path style="fill:#e17774; stroke:none;" d="M478.667 265.333L479.333 265.667L478.667 265.333z"/>
<path style="fill:#052254; stroke:none;" d="M32 266L29 268L29 270L33 271L32 266z"/>
<path style="fill:#e17774; stroke:none;" d="M301 268L304 266L301 268z"/>
<path style="fill:#053f79; stroke:none;" d="M428 266L429 267L428 266z"/>
<path style="fill:#e17774; stroke:none;" d="M476 266L477 267L476 266z"/>
<path style="fill:#f7bfbf; stroke:none;" d="M465 267L465 268C468.759 270.085 478.872 271.265 480 266L465 267z"/>
<path style="fill:#052254; stroke:none;" d="M111 267L112 268L111 267z"/>
<path style="fill:#f7bfbf; stroke:none;" d="M310.667 267.333L311.333 267.667L310.667 267.333z"/>
<path style="fill:#053f79; stroke:none;" d="M328 267L328 276L329 276L331 271L331 270L328 267M351 267L349 268L349 269L351 267z"/>
<path style="fill:#052254; stroke:none;" d="M409 267L410 268L409 267z"/>
<path style="fill:#053f79; stroke:none;" d="M427 267L428 268L427 267M430 267L431 268L430 267z"/>
<path style="fill:#e17774; stroke:none;" d="M464 267L465 268L464 267M468 267L469 268L468 267M318 268L317 270L317 271L322 268L318 268z"/>
<path style="fill:#053f79; stroke:none;" d="M335 268L336 269L335 268z"/>
<path style="fill:#052254; stroke:none;" d="M411 268L412 269L411 268z"/>
<path style="fill:#e17774; stroke:none;" d="M414 268L415 269L414 268M425 268L426 269L425 268z"/>
<path style="fill:#053f79; stroke:none;" d="M426 268L427 269L426 268M454.667 268.333L455.333 268.667L454.667 268.333M460 268L460 270L462 270L462 268L460 268M465 268L466 269L465 268M338 271L340 275L336 272C332.594 273.331 331.765 274.815 335 277L329 280L329 289L334 288L335 282L339 281L336 277L344 276L344 269L338 271z"/>
<path style="fill:#052254; stroke:none;" d="M374 269L374 270L382 271L382 270L374 269M387 269L388 270L387 269M413 269L416 272L413 269z"/>
<path style="fill:#e17774; stroke:none;" d="M415 269L416 270L415 269M417 271L420 270L417 271z"/>
<path style="fill:#052254; stroke:none;" d="M416 272L416 273L420 273L422 269L416 272z"/>
<path style="fill:#053f79; stroke:none;" d="M431 269L432 270L431 269z"/>
<path style="fill:#e17774; stroke:none;" d="M467 269L468 270L467 269M472 269L472 270L475 270L472 269z"/>
<path style="fill:#053f79; stroke:none;" d="M475.667 269.333L476.333 269.667L475.667 269.333z"/>
<path style="fill:#052254; stroke:none;" d="M16 270L8 281L8 279L5 280L6 287C13.089 287.219 18.7321 292.698 23 298L31 296L33 300L34 300L33 292L30 293L30 289L36 287L36 286L33 278C29.016 278.764 26.2132 278.614 24 275L18 277L17 273L20 270L16 270M216 270L208 280L215 276L215 279L211 279L214 281L214 283L211 284L213 291L203 284L198 287L198 288L203 288L203 289L200 293L202 293L199 297L199 298L204 296L205 300L208 299L208 303L199 311L204 319L210 319L215.424 285L216 270z"/>
<path style="fill:#e17774; stroke:none;" d="M219.667 270.333L220.333 270.667L219.667 270.333M328 270L329 271L328 270z"/>
<path style="fill:#052254; stroke:none;" d="M407 270L414 273L414 272L407 270M423 270L424 271L423 270M450 270L450 272L452 272L452 270L450 270z"/>
<path style="fill:#053f79; stroke:none;" d="M468.667 270.333L469.333 270.667L468.667 270.333z"/>
<path style="fill:#052254; stroke:none;" d="M21 271L22 272L21 271M110 271L111 272L110 271z"/>
<path style="fill:#e17774; stroke:none;" d="M307 271L303 276L303 280L309 281L309 280L304 280L304 279L313 277L308 275L308 274L317 274L317 273L308 273L308 272L310 272L307 271z"/>
<path style="fill:#053f79; stroke:none;" d="M441 271L442 272L441 271M461 271L460 273L462 273L461 271z"/>
<path style="fill:#e17774; stroke:none;" d="M217 272L217 276L218 276L217 272M320.667 272.333L321.333 272.667L320.667 272.333M323 273L324 274L323 273M236.667 274.333L237.333 274.667L236.667 274.333z"/>
<path style="fill:#052254; stroke:none;" d="M387 274L388 275L387 274z"/>
<path style="fill:#e17774; stroke:none;" d="M314.333 275.667L314.667 276.333L314.333 275.667z"/>
<path style="fill:#052254; stroke:none;" d="M431 275L432 276L431 275z"/>
<path style="fill:#053f79; stroke:none;" d="M15 276L16 277L15 276z"/>
<path style="fill:#052254; stroke:none;" d="M44 276L45 277L44 276z"/>
<path style="fill:#e17774; stroke:none;" d="M320 276L320 281L321 281L321 278L322 277L324 278L320 276z"/>
<path style="fill:#053f79; stroke:none;" d="M347 276L349 278L349 276L347 276z"/>
<path style="fill:#052254; stroke:none;" d="M369.667 276.333L370.333 276.667L369.667 276.333M373.667 276.333L374.333 276.667L373.667 276.333M392.333 276.667L392.667 277.333L392.333 276.667M393 282L409 283L409 282L405 281L406 277C400.739 276.124 396.111 277.471 393 282z"/>
<path style="fill:#053f79; stroke:none;" d="M216.333 277.667L216.667 278.333L216.333 277.667z"/>
<path style="fill:#e17774; stroke:none;" d="M233.667 277.333L234.333 277.667L233.667 277.333z"/>
<path style="fill:#053f79; stroke:none;" d="M17.6667 278.333L18.3333 278.667L17.6667 278.333z"/>
<path style="fill:#052254; stroke:none;" d="M53 278L54 279L53 278M188 278L189 279L188 278z"/>
<path style="fill:#e17774; stroke:none;" d="M310 278L310 279L313 280L310 278M216 279L216 284L217 284L216 279M232 281L235 279L232 281M240 279L241 280L240 279M271 279L272 280L271 279z"/>
<path style="fill:#053f79; stroke:none;" d="M346.667 279.333L347.333 279.667L346.667 279.333z"/>
<path style="fill:#052254; stroke:none;" d="M371.667 279.333L372.333 279.667L371.667 279.333z"/>
<path style="fill:#053f79; stroke:none;" d="M399 279L400 280L399 279z"/>
<path style="fill:#052254; stroke:none;" d="M210 280L211 281L210 280z"/>
<path style="fill:#e17774; stroke:none;" d="M237 280L239 282L239 280L237 280M327 280L327 286L328 286L327 280M316 282L316 283L325 284L325 283C323.04 282.347 322.446 282 325 282L316 282z"/>
<path style="fill:#053f79; stroke:none;" d="M401 281L402 282L401 281z"/>
<path style="fill:#052254; stroke:none;" d="M453 281L453 283L455 281L453 281z"/>
<path style="fill:#e17774; stroke:none;" d="M226 284L225 288L229 289L229 290L224 294L231 288L228 288L228 287L232 282L226 284M240 282L234 284L234 285C236.586 284.79 240.129 285.199 240 282M297.667 282.333L298.333 282.667L297.667 282.333M302 282L301 285L288 290L302 286L302 287L299 290L293 293L296 292C294.439 294.308 294.117 294.651 297 295L297 296L295 297L297 299L288 297C287.609 293.509 284.946 293.095 283 296L287 295L286 298L297 300L297 301L293 301L293 302L296 303L296 304L283 304L283 305L286 305L285 307L289 308L292 305L303 305L302 308L312 308L312 309L300 310L300 311L304 312L304 313L295 313L301 315L301 316L297 316L297 317L300 317L300 318L294 317C298.498 322.147 316.293 318.731 323 319L323 318L319 317L318 310L322 305L322 304L318 304L318 303L325 302L325 301L319 301L319 300L321 295L321 294L302 298L302 297L307 295L302 293L305 292L304 289C311.255 289.461 316.041 292.84 323 289L320 288L322 285L309 285L310 283L304 287L305 282L302 282z"/>
<path style="fill:#052254; stroke:none;" d="M382 282L383 283L382 282z"/>
<path style="fill:#e17774; stroke:none;" d="M88 283L89 284L88 283z"/>
<path style="fill:#f7bfbf; stroke:none;" d="M89 283L88 287L93 285L89 283z"/>
<path style="fill:#e17774; stroke:none;" d="M91 283L92 284L91 283M266 283L266 284L269 284L266 283z"/>
<path style="fill:#053f79; stroke:none;" d="M463 283L464 284L463 283M22 284L21 287L19 285L18 285L19 289L25 288L24 284L22 284M215.333 284.667L215.667 285.333L215.333 284.667z"/>
<path style="fill:#e17774; stroke:none;" d="M241.667 284.333L242.333 284.667L241.667 284.333M248.667 284.333L249.333 284.667L248.667 284.333z"/>
<path style="fill:#052254; stroke:none;" d="M346 291L349 290L349 296L339 294L337 296L337 297L337 298L339 298L338 301L343 304L344 297L350 298L352 284L346 291M383 284L384 285L383 284M394 284L394 285L397 285L394 284M448 284L449 285L448 284z"/>
<path style="fill:#053f79; stroke:none;" d="M30 285L29 287L31 287L30 285z"/>
<path style="fill:#e17774; stroke:none;" d="M87 285L88 286L87 285M92 285L93 286L92 285z"/>
<path style="fill:#052254; stroke:none;" d="M208.667 285.333L209.333 285.667L208.667 285.333z"/>
<path style="fill:#e17774; stroke:none;" d="M254 285L254 288L256 285L254 285M272 291L272 292L282 288L282 285L272 291z"/>
<path style="fill:#052254; stroke:none;" d="M79 286L80 287L79 286M82 286L83 287L82 286z"/>
<path style="fill:#e17774; stroke:none;" d="M215 286L215 289L216 289L215 286M234 288L234 289L237 290C235.191 290.978 232.235 291.798 235 293L235 294L221 297L221 298L223 298L223 300C219.302 299.571 217.239 300.384 216 304L221 301L224 303L221 305L221 306L224 306L224 307L219 307L219 308L222 308L222 309L217 309L217 310L221 313L218 312C222.393 322.595 247.097 320.927 257 318L256 315L248 315L248 314L260 314L255 312L255 311L260 312L262 308L257 307L257 306L261 306L261 305L259 304L261 302L246 301L246 300L264 301L264 300L245 299L245 298L271 299L272 296L272 295L268 295L268 294L271 294L271 290L269 292L266 290L266 289L273 286L267 288L268 286L260 288L260 289L262 289L262 290L248 290L248 291L263 292L263 293L244 293L248 290L248 289L240 292L242 290L242 289L238 289L240 287L234 288M250 286L250 288L252 286L250 286M287 286L288 287L287 286z"/>
<path style="fill:#053f79; stroke:none;" d="M327 286L328 287L327 286z"/>
<path style="fill:#052254; stroke:none;" d="M346 286L347 287L346 286M408 286L409 287L408 286z"/>
<path style="fill:#e17774; stroke:none;" d="M240.667 287.333L241.333 287.667L240.667 287.333M257.667 287.333L258.333 287.667L257.667 287.333M325.333 287.667L325.667 288.333L325.333 287.667z"/>
<path style="fill:#052254; stroke:none;" d="M451.667 287.333L452.333 287.667L451.667 287.333z"/>
<path style="fill:#053f79; stroke:none;" d="M205 288L204 292L208 291L205 288z"/>
<path style="fill:#052254; stroke:none;" d="M211 288L212 289L211 288z"/>
<path style="fill:#e17774; stroke:none;" d="M248 288L249 289L248 288M283 288L284 289L283 288z"/>
<path style="fill:#053f79; stroke:none;" d="M327.333 288.667L327.667 289.333L327.333 288.667z"/>
<path style="fill:#052254; stroke:none;" d="M407.667 288.333L408.333 288.667L407.667 288.333z"/>
<path style="fill:#053f79; stroke:none;" d="M469 288L470 289L469 288M27 289L28 290L27 289z"/>
<path style="fill:#052254; stroke:none;" d="M198 289L199 290L198 289M390 289L391 290L390 289M400 289L401 290L400 289M447 289L448 290L447 289z"/>
<path style="fill:#053f79; stroke:none;" d="M463 289L468 291L463 289M473 289L473 296L480 297L480 296L477 296L477 295L479 292L473 289z"/>
<path style="fill:#e17774; stroke:none;" d="M284 290L284 292L286 290L284 290M287.333 290.667L287.667 291.333L287.333 290.667M324 290L325 291L324 290z"/>
<path style="fill:#052254; stroke:none;" d="M340 290L339 292L340 290M449 290L451 295L446 298L464 299L464 298L451 297L456 294L449 290z"/>
<path style="fill:#053f79; stroke:none;" d="M27 291L28 292L27 291z"/>
<path style="fill:#052254; stroke:none;" d="M39 291L40 294L44 291L39 291z"/>
<path style="fill:#e17774; stroke:none;" d="M215 291L216 292L215 291M320.667 291.333L321.333 291.667L320.667 291.333z"/>
<path style="fill:#052254; stroke:none;" d="M391 291L392 292L391 291M47 292L43 295L43 296L46 297L47 292M97.6667 292.333L98.3333 292.667L97.6667 292.333z"/>
<path style="fill:#053f79; stroke:none;" d="M214 292L215 293L214 292z"/>
<path style="fill:#e17774; stroke:none;" d="M278 294L281 292L278 294M308 292L308 294L310 294L310 292L308 292M313 292L314 293L313 292z"/>
<path style="fill:#053f79; stroke:none;" d="M327 292L328 293L327 292M211 293L209 295C209.333 298.166 211.648 303.529 208 304L208 305L210 306L209 310L210 310L211 293z"/>
<path style="fill:#e17774; stroke:none;" d="M214 293L214 296L215 296L214 293z"/>
<path style="fill:#f7bfbf; stroke:none;" d="M239.667 293.333L240.333 293.667L239.667 293.333z"/>
<path style="fill:#e17774; stroke:none;" d="M326 293L326 309L327 309L326 293z"/>
<path style="fill:#052254; stroke:none;" d="M84 294L80 317L81 317L83 310L83 309L83 302L84 302L84 309L89 302L86 303L84 294M104.333 294.667L104.667 295.333L104.333 294.667z"/>
<path style="fill:#f7bfbf; stroke:none;" d="M247 294L248 295L247 294M255 294L255 295L262 297L255 294z"/>
<path style="fill:#e17774; stroke:none;" d="M272 294L272 295L275 295L272 294z"/>
<path style="fill:#053f79; stroke:none;" d="M469 294L470 295L469 294M27 295L28 296L27 295M31 295L32 296L31 295z"/>
<path style="fill:#052254; stroke:none;" d="M87 295L88 296L87 295M94 295L95 296L94 295z"/>
<path style="fill:#f7bfbf; stroke:none;" d="M263 295L264 296L263 295z"/>
<path style="fill:#e17774; stroke:none;" d="M280.667 295.333L281.333 295.667L280.667 295.333z"/>
<path style="fill:#052254; stroke:none;" d="M16 296L17 297L16 296M18 296L20 298L20 296L18 296z"/>
<path style="fill:#053f79; stroke:none;" d="M207 296L208 297L207 296z"/>
<path style="fill:#f7bfbf; stroke:none;" d="M227 296L228 297L227 296M310 298L313 298L312 296L310 298z"/>
<path style="fill:#053f79; stroke:none;" d="M448.333 296.667L448.667 297.333L448.333 296.667z"/>
<path style="fill:#052254; stroke:none;" d="M456 296L457 297L456 296z"/>
<path style="fill:#053f79; stroke:none;" d="M466 296L466 297L469 297L466 296M472 296L473 297L472 296z"/>
<path style="fill:#052254; stroke:none;" d="M104.333 297.667L104.667 298.333L104.333 297.667z"/>
<path style="fill:#053f79; stroke:none;" d="M213 297L213 300L214 300L213 297z"/>
<path style="fill:#f7bfbf; stroke:none;" d="M224.333 297.667L224.667 298.333L224.333 297.667M233 299L237 299L233 299M239.667 297.333L240.333 297.667L239.667 297.333z"/>
<path style="fill:#e17774; stroke:none;" d="M272 297L275 299L272 297M278 298L278 299L285 299L285 297L278 298z"/>
<path style="fill:#052254; stroke:none;" d="M130 298L132 300L132 298L130 298z"/>
<path style="fill:#f7bfbf; stroke:none;" d="M231 298L232 299L231 298M300 300L300 301L305 299L300 300M306 301L317 301L306 301z"/>
<path style="fill:#052254; stroke:none;" d="M7 302L11 301L7 302M74 300L72 305L73 305L74 300M126.667 300.333L127.333 300.667L126.667 300.333z"/>
<path style="fill:#e17774; stroke:none;" d="M213 300L213 304L214 304L213 300z"/>
<path style="fill:#f7bfbf; stroke:none;" d="M229 300C229.463 304.374 230.634 305.506 235 306L227 306L237 315L244 315L240 313L240 312L243 311L239 310L239 309L243 309L243 308L240 307L256 307L256 306L254 304L249 306L250 303L243 303L243 304L245 304L245 305L240 305L240 304L242 302L239 303L240 300L234 302L235 300L229 300M241 300L242 301L241 300z"/>
<path style="fill:#e17774; stroke:none;" d="M268 302L274 301L268 302M275 300L275 302L291 302L275 300z"/>
<path style="fill:#052254; stroke:none;" d="M29 301L30 303L31 303L32 301L29 301z"/>
<path style="fill:#e17774; stroke:none;" d="M232 301L233 302L232 301z"/>
<path style="fill:#052254; stroke:none;" d="M126 304L130 304L128 308C130.484 313.608 134.685 312.106 140 312L139 305L130 302L126 304z"/>
<path style="fill:#053f79; stroke:none;" d="M454 304L458 303L454 304z"/>
<path style="fill:#052254; stroke:none;" d="M0 303L0 304L6 305L6 304L0 303M7 303L8 304L7 303M9 303L9 304L12 304L9 303M89 306L92 307L93 303L89 306M132 303L133 304L132 303z"/>
<path style="fill:#e17774; stroke:none;" d="M230 305L233 303L230 305M234 303L234 304L238 304L234 303M265 303L265 304L268 304L265 303M270 303L270 304L274 304L270 303z"/>
<path style="fill:#f7bfbf; stroke:none;" d="M299 303L299 304L303 304L299 303M304.667 303.333L305.333 303.667L304.667 303.333M307 303L307 304L314 304L307 303z"/>
<path style="fill:#052254; stroke:none;" d="M344 303L344 307L345 307L344 303M404.667 303.333L405.333 303.667L404.667 303.333M429.667 303.333L430.333 303.667L429.667 303.333z"/>
<path style="fill:#053f79; stroke:none;" d="M460 303L461 304L460 303M212.333 304.667L212.667 305.333L212.333 304.667z"/>
<path style="fill:#e17774; stroke:none;" d="M218 304L218 305L221 305L218 304M247 304L248 305L247 304z"/>
<path style="fill:#f7bfbf; stroke:none;" d="M256.667 304.333L257.333 304.667L256.667 304.333z"/>
<path style="fill:#e17774; stroke:none;" d="M278 304L278 305L282 305L278 304z"/>
<path style="fill:#052254; stroke:none;" d="M408 304L407 307L408 307L408 304z"/>
<path style="fill:#053f79; stroke:none;" d="M446 304L447 305L446 304z"/>
<path style="fill:#052254; stroke:none;" d="M0 305L3 309L0 305M57 305L57 308L59 308L59 305L57 305M98 305L94 319L98 317C96.6759 312.622 98.6019 309.728 102 307L98 305M111 305L112 306L111 305z"/>
<path style="fill:#e17774; stroke:none;" d="M239 305L237 309L232 308C234.795 311.196 239.365 309.235 239 305M264 305L263 309L264 309L264 305z"/>
<path style="fill:#f7bfbf; stroke:none;" d="M287 305L288 306L287 305M308 305L308 306L314 306L308 305z"/>
<path style="fill:#052254; stroke:none;" d="M32 309L35 306L32 309M154 306L155 307L154 306M179 306L180 307L179 306M195 306L196 307L195 306z"/>
<path style="fill:#e17774; stroke:none;" d="M212 306L212 310L213 310L212 306M215.667 306.333L216.333 306.667L215.667 306.333M280 306L280 307L285 308L280 306M297 306L300 308L297 306z"/>
<path style="fill:#052254; stroke:none;" d="M424 306L422 308L422 309L426 306L424 306z"/>
<path style="fill:#f7bfbf; stroke:none;" d="M225.333 307.667L225.667 308.333L225.333 307.667z"/>
<path style="fill:#e17774; stroke:none;" d="M268.667 307.333L269.333 307.667L268.667 307.333z"/>
<path style="fill:#052254; stroke:none;" d="M22 309L23 313C26.3421 313.557 26.8754 315.719 24 315C26.6365 320.029 31.9933 319 37 319L37 314L35 316L31 317L31 313L25 308L22 309M89 308L89 310L91 310L89 308M155 308L158 311L155 308z"/>
<path style="fill:#f7bfbf; stroke:none;" d="M245 308L246 309L245 308z"/>
<path style="fill:#052254; stroke:none;" d="M340 308L341 309L340 308M423 311C424.966 314.146 423.049 315.365 421 318C429.621 320.52 429.999 315.155 430 308L423 311M27 309L27 311L29 311L29 309L27 309z"/>
<path style="fill:#f7bfbf; stroke:none;" d="M256.667 309.333L257.333 309.667L256.667 309.333z"/>
<path style="fill:#e17774; stroke:none;" d="M277 309L277 310L281 310L277 309M286.667 309.333L287.333 309.667L286.667 309.333M290 310L292 313L289 314L289 315L295 309L290 310z"/>
<path style="fill:#053f79; stroke:none;" d="M326.333 309.667L326.667 310.333L326.333 309.667z"/>
<path style="fill:#052254; stroke:none;" d="M417 309L418 310L417 309M0 310L1 319L4 312L0 310M77 310L78 311L77 310M84 311L87 318L93 319C91.2587 313.911 89.8639 310.554 84 311M192 310L192 312L195 312L195 310L192 310z"/>
<path style="fill:#053f79; stroke:none;" d="M211.333 310.667L211.667 311.333L211.333 310.667z"/>
<path style="fill:#e17774; stroke:none;" d="M296 310L296 311L299 311L296 310z"/>
<path style="fill:#052254; stroke:none;" d="M5.33333 311.667L5.66667 312.333L5.33333 311.667M11.6667 311.333L12.3333 311.667L11.6667 311.333M31 311L32 312L31 311M51.6667 311.333L52.3333 311.667L51.6667 311.333M190 311L191 312L190 311z"/>
<path style="fill:#e17774; stroke:none;" d="M212 311L213 312L212 311M237 311L238 312L237 311z"/>
<path style="fill:#f7bfbf; stroke:none;" d="M245 311L246 315L247 315L245 311M250.667 311.333L251.333 311.667L250.667 311.333z"/>
<path style="fill:#e17774; stroke:none;" d="M262.667 311.333L263.333 311.667L262.667 311.333M274 311L274 312L280 312L274 311M288 311L289 312L288 311z"/>
<path style="fill:#f7bfbf; stroke:none;" d="M306 313L312 312L312 313L310 313L310 314L314 311L306 313z"/>
<path style="fill:#e17774; stroke:none;" d="M321 311L322 312L321 311M326.333 311.667L326.667 312.333L326.333 311.667z"/>
<path style="fill:#053f79; stroke:none;" d="M0.333333 312.667L0.666667 313.333L0.333333 312.667z"/>
<path style="fill:#052254; stroke:none;" d="M9 312L7 319L14 318L15 317L15 313L14 312L9 312M16.6667 312.333L17.3333 312.667L16.6667 312.333M157 312L158 313L157 312z"/>
<path style="fill:#053f79; stroke:none;" d="M208.667 312.333L209.333 312.667L208.667 312.333z"/>
<path style="fill:#e17774; stroke:none;" d="M211 312L211 316L212 316L211 312z"/>
<path style="fill:#f7bfbf; stroke:none;" d="M227 312L227 313L230 313L227 312z"/>
<path style="fill:#052254; stroke:none;" d="M59.6667 313.333L60.3333 313.667L59.6667 313.333M76.3333 313.667L76.6667 314.333L76.3333 313.667M127 313L128 314L127 313z"/>
<path style="fill:#f7bfbf; stroke:none;" d="M231 313L232 314L231 313z"/>
<path style="fill:#e17774; stroke:none;" d="M272.667 313.333L273.333 313.667L272.667 313.333M276 313L276 314L288 315L276 313z"/>
<path style="fill:#053f79; stroke:none;" d="M326 313L326 319L327 319L326 313z"/>
<path style="fill:#052254; stroke:none;" d="M63.3333 314.667L63.6667 315.333L63.3333 314.667M152 314L151 316L153 316L152 314M416 314L417 315L416 314M56 315L52 319L57 319L56 315M58 316L58 317L62 317L58 316M70 315L75 319L70 315M123 319L128 316C124.863 315.506 124 315.964 123 319M128 315L129 316L128 315M193 315L188 318L188 319L194 319L193 315z"/>
<path style="fill:#e17774; stroke:none;" d="M271 315L277 317L277 316L271 315z"/>
<path style="fill:#f7bfbf; stroke:none;" d="M312 315L313 316L312 315z"/>
<path style="fill:#052254; stroke:none;" d="M355 315L355 319L365 319L355 315M77 316L77 319L79 319L79 316L77 316M139 316L140 317L139 316z"/>
<path style="fill:#053f79; stroke:none;" d="M210 316L210 319L211 319L210 316z"/>
<path style="fill:#f7bfbf; stroke:none;" d="M228.667 316.333L229.333 316.667L228.667 316.333M232 316L232 318L235 318L235 316L232 316z"/>
<path style="fill:#052254; stroke:none;" d="M351 316L352 317L351 316z"/>
<path style="fill:#f7bfbf; stroke:none;" d="M248.667 317.333L249.333 317.667L248.667 317.333z"/>
<path style="fill:#e17774; stroke:none;" d="M290 319L293 319L292 317L290 319z"/>
<path style="fill:#053f79; stroke:none;" d="M0 318L1 319L0 318M53 318L53 319L56 319L53 318z"/>
<path style="fill:#052254; stroke:none;" d="M63 318L64 319L63 318M67 318L68 319L67 318z"/>
<path style="fill:#053f79; stroke:none;" d="M207 318L208 319L207 318z"/>
<path style="fill:#f7bfbf; stroke:none;" d="M231 318L232 319L231 318M237.667 318.333L238.333 318.667L237.667 318.333M314 318L314 319L318 319L314 318z"/>
<path style="fill:#052254; stroke:none;" d="M335 318L336 319L335 318z"/>
</svg>
