<?xml version="1.0" standalone="yes"?>
<svg xmlns="http://www.w3.org/2000/svg" width="480" height="288">
<path style="fill:#230d45; stroke:none;" d="M0 0L0 288L285 288L285 287C275.417 282.519 268.366 269.93 261.572 262C248.796 247.088 234.684 233.353 220.039 220.299C189.699 193.256 155.052 171.702 121.285 149.304C100.962 135.824 81.5637 119.465 60 108C88.4026 87.5067 112.667 64.1983 137.749 39.6296C148.07 29.5197 164.255 14.3837 168 0L0 0z"/>
<path style="fill:#5e3a8d; stroke:none;" d="M60 108L111.83 142.908L183 191C180.903 188.389 177.605 186.116 176.282 182.985C175.002 179.954 176.466 176.965 174.593 174C169.95 166.653 163.493 160.604 159.09 153C153 142.48 150.285 129.746 147.711 118C143.763 99.9865 139.507 86.7132 151 70L152 70C156.684 75.8811 169.081 79.3278 176 82.2801C188.498 87.6129 219.077 98.3868 230.482 85.6867C234.211 81.5343 232.699 72.3898 235.188 67C241.657 52.986 253.846 39.8369 263.576 28.0008C267.546 23.1707 271.486 17.0219 278 16L276.424 65L274 81L274 82C282.899 98.2096 260.916 113.587 259.305 128C256.344 154.475 278.2 175.605 281.576 201C283.186 213.115 279.857 229.325 266 232.852C240.712 239.288 225.256 204.546 205.83 196.879C201.433 195.143 196.511 196.644 192 197C198.586 205.142 208.598 210.907 216.424 217.888C231.05 230.934 244.525 244.768 257.965 259C265.449 266.926 273.651 283.134 284.001 287.106C295.129 291.378 313.128 288 325 288L417 288C417 271.274 415.83 257.49 411 243C406.128 228.383 393.441 216.606 385 205C362.304 173.793 333.445 148.337 321 111C315.822 95.4659 315.019 79.0772 311 63C309.587 57.3497 311.82 47.4551 314 48C316.325 29.8434 335.851 16.0438 343 0L219 0L184 0L169.414 0.603394L162.597 9L143.675 33.6752L80.5748 92.7361L60 108z"/>
<path style="fill:#230d45; stroke:none;" d="M314 48C309.557 48.7057 310.884 60.3595 311.412 64C313.752 80.1294 315.54 97.8991 321.995 113C329.223 129.907 336.49 147.328 347.894 161.94C372.578 193.569 405.168 219.387 415.509 260C417.808 269.026 417 278.778 417 288L480 288L480 0L384 0C373.081 0 354.334 -3.65308 344.289 0.603394C340.54 2.19217 337.96 6.86731 335.63 10C329.034 18.8669 313.246 36.6129 314 48z"/>
<path style="fill:#bb2990; stroke:none;" d="M152 70L151 70C137.977 84.0573 143.47 101.908 147.486 118C150.604 130.492 152.918 143.811 159.696 155C164.186 162.412 173.577 169.889 176 178L193 166L206 194L200 195L200 196C207.517 196.683 211.589 201.975 217 206.715C228.863 217.107 248.87 238.339 267 232.927C280.692 228.839 283.161 213.216 281.715 201C278.716 175.669 256.112 154.185 259.483 128C261.016 116.091 285.001 94.8828 274 82L274 81C277.139 76.8563 275.768 70.996 276.424 66C278.349 51.3395 280.642 30.4475 278 16C270.974 16.54 266.952 22.9116 262.751 28.0008C253.206 39.5636 240.581 53.0412 234.761 67C232.571 72.2533 233.755 80.562 230.447 84.8526C226.084 90.5112 214.453 91.3127 208 90.4198C190.024 87.9323 166.217 81.8178 152 70z"/>
<path style="fill:#230d45; stroke:none;" d="M310.333 52.6667L310.667 53.3333L310.333 52.6667z"/>
<path style="fill:#5e3a8d; stroke:none;" d="M273.333 90.6667L273.667 91.3333L273.333 90.6667z"/>
<path style="fill:#f967b5; stroke:none;" d="M206 194L193 166C186.994 167.211 174.425 175.481 176.658 182.996C178.115 187.897 185.637 192.578 190 194.697C195.018 197.134 200.851 194.998 206 194z"/>
<path style="fill:#b266ae; stroke:none;" d="M177 177L178 178L177 177M176 178L177 179L176 178M175 179L175 183L176 183L175 179M176 184L177 185L176 184M177 185L178 186L177 185M178 186L179 187L178 186z"/>
<path style="fill:#5e3a8d; stroke:none;" d="M176 187L177 188L176 187z"/>
<path style="fill:#b266ae; stroke:none;" d="M179 187L180 188L179 187M182 189L183 190L182 189M183 190L184 191L183 190z"/>
<path style="fill:#5e3a8d; stroke:none;" d="M184 191L187 194L184 191z"/>
<path style="fill:#b266ae; stroke:none;" d="M185 191L186 192L185 191M186 192L187 193L186 192M187 193L188 194L187 193z"/>
<path style="fill:#5e3a8d; stroke:none;" d="M188 194L191 197L188 194z"/>
<path style="fill:#b266ae; stroke:none;" d="M189 194L190 195L189 194M190 195L191 196L190 195M198.667 195.333L199.333 195.667L198.667 195.333M191 196L191 197L196 197L191 196z"/>
<path style="fill:#bb2990; stroke:none;" d="M196 196L197 197L196 196z"/>
<path style="fill:#230d45; stroke:none;" d="M279 281L280 282L279 281z"/>
</svg>
