<?xml version="1.0" standalone="yes"?>
<svg xmlns="http://www.w3.org/2000/svg" width="280" height="480">
<path style="fill:#44daca; stroke:none;" d="M0 0L0 112C9.05052 112.098 22.5333 120.154 27 128L30 130L33 128L35 129C36.5024 133.332 40.0835 138.759 45 136C47.8157 142.508 62.6572 154.276 70 154L72 160L73 160L74 158L80 165L83 166L88 170L89 170L90 168C91.1003 170.934 98.9508 178.274 100 173L101 173L101 177L104 176L108 184L112 182L114 184L117 189L127 194L130 192L132 197L134 195L138 203L139 203L140 199C144.303 203.043 145.38 207.051 152 206L141 188L135.615 171.961L118.481 128L113 108C107.588 100.412 107.634 87.0001 105.726 78C102.86 64.4798 98.8173 48.2089 94.5324 35C90.6381 22.9952 82.01 12.9783 82 0L0 0z"/>
<path style="fill:#dbfddf; stroke:none;" d="M82 0C82.0015 13.5444 90.4744 23.4907 94.5324 36C98.2717 47.527 97.8681 60.7019 102.749 72C106.346 80.3244 114.054 87.4193 116 96C120.697 98.4524 126.177 104.701 127 110L130 108L133 116C136.842 115.863 139.105 119.599 140 123L142 122L152 133L155 132C156.256 135.898 157.68 138.79 162 139L169 144C171.379 147.915 175.3 151.816 180 152L181 155L183 156L186 158L188 157L192 163L198 163L199 163C200.95 172.149 220.8 169.19 226 176L239 177L240 177C255.114 188.898 267.155 169.061 280 166L280 0L82 0M102.333 73.6667L102.667 74.3333L102.333 73.6667z"/>
<path style="fill:#bff36c; stroke:none;" d="M104.333 76.6667L104.667 77.3333L104.333 76.6667M106 80C106.284 86.6032 107.915 103.596 113 108L118.481 129L128.804 157.83L141 188C145.705 192.551 152.403 204.225 152 211L155 210C156.31 215.508 160.345 219.415 163.5 224C171.07 235.001 181.197 254.58 193 261L192 264C200.413 271.904 206.733 288.986 218 293L216 294L216 295L230 310C239.232 311.654 258.594 321.189 265 328L280 328L280 166C264.876 168.027 257.872 186.305 240 177L239 177L226 176C220.318 167.769 204.603 172.01 199 163L198 163L197 165L192 163L188 157L186 158L183 156L183 154L181 155L180 152L169 144L162 139L155 132L152 133L142 122L140 123C139.043 119.081 137.231 116.261 133 116L130 108L127 110C126.584 104.583 121.206 97.6492 116 96L106 80z"/>
<path style="fill:#54b777; stroke:none;" d="M104 287L114 308C120.157 309.968 123.948 321.649 126.931 327C137.034 345.122 154.133 364.056 160 384L161 384L162 382C163.206 389.983 171.213 397.165 175.386 404.039C190.897 429.595 216.21 450.644 224 480L268 480L264 464L253 444C234.379 428.549 239.061 398.391 225 381L223.434 372L221 348L223 348L221 343L224 342L221 337L224 336L224 333L221 332L224 331L222 324L226 324L223 321L227 318L227 317L224 317L224 312L227 305L216 295L216 294L218 293L192 264L193 261L172.9 235.129L155 210L152 211L152 206C145.228 206.533 144.999 202.203 140 199L139 203L138 203C137.912 199.291 136.173 195.066 132 197L130 192L127 194C124.087 191.215 121.094 186.935 117 189L112 182L108 184L104 176L101 177L101 173L100 173L100 176L90 168L89 170L88 170C87.054 166.859 86.2925 165.931 83 166L80 165C79.1347 159.808 73.621 156.895 73 160L72 160L70 154C62.3692 153.416 49.022 142.294 45 136C40.0416 137.479 37.0791 132.992 35 129L33 128L30 130L27 128C24.3866 121.002 15.3002 117.179 9.03935 113.883C6.97108 112.794 3.04932 110.396 1.01312 112.792C-1.07168 115.246 0 121.016 0 124C0 134.088 -2.5518 148.122 0.317901 157.786C1.5903 162.071 8.34679 163.346 11.4236 166.264C19.0554 173.502 25.8721 182.445 32.9568 190.294C51.6719 211.027 67.6497 236.969 83.9213 259.999C89.4574 267.835 95.8642 282.094 104 287z"/>
<path style="fill:#bff36c; stroke:none;" d="M114 116L115 117L114 116z"/>
<path style="fill:#44daca; stroke:none;" d="M16 119L17 120L16 119z"/>
<path style="fill:#54b777; stroke:none;" d="M65 152L66 153L65 152z"/>
<path style="fill:#21386a; stroke:none;" d="M0 160L0 480L224 480C220.782 461.006 207.491 447.365 195.92 432.961C188.099 423.225 181.577 412.595 174.796 402.17C170.639 395.779 164.156 389.302 162 382L161 384L160 384C158.73 376.963 153.859 371.073 150.293 365C142.626 351.942 134.294 339.205 126.931 326C124.021 320.78 120.25 309.29 114 308L104 287C93.4869 277.426 85.8927 261.636 77.5725 250C64.9201 232.305 50.1364 215.659 38.0039 197.834C28.9279 184.5 16.3386 164.503 0 160z"/>
<path style="fill:#bff36c; stroke:none;" d="M245 178L246 179L245 178z"/>
<path style="fill:#44daca; stroke:none;" d="M226 306L224 312C224.29 314.927 223.895 316.389 227 317L227 318L223 321L226 324L222 324L221 332L224 333L224 336L221 337L224 342L221 343L223 348L221 348L222.782 371L225 381L243.931 430.039L253 444L251 446L264 464C264.124 476.072 268.897 480 280 480L280 328L265 328C260.534 320.827 247.859 318.005 240.424 314.74C236.661 313.087 234.187 310.37 230 310L229 306L226 306M235 310L236 311L235 310M254 451L255 452L254 451z"/>
</svg>
