<?xml version="1.0" standalone="yes"?>
<svg xmlns="http://www.w3.org/2000/svg" width="480" height="384">
<path style="fill:#303136; stroke:none;" d="M0 0L0 384L158 384C158 378.335 158.384 372.484 156.671 367C155.378 362.859 152.095 359.375 151.56 355C149.13 335.133 162.033 302.719 178.004 290.927C182.909 287.306 192.891 280.472 199 282L200 268L213 261L214 264C222.107 263.32 222.846 258.454 223 251L222 251L222 256C214.195 254.986 212.108 251.953 209 245L217 241L217 240C209.632 238.475 205.593 233.829 199.015 231.367C192.813 229.045 191.83 232.1 186.336 226.208C181.242 220.746 175.072 216.305 183 210C180.98 206.492 178.819 200.812 174.815 199.158C163.365 194.428 151.576 205.829 140.015 197.486C121.699 184.268 144.795 153.974 155.284 143.299C159.632 138.873 163.73 138.426 166 132L150 133L143 124L143 128L142 128L142 123L136 119L141 120L141 119C133.592 116.164 124.554 113.585 120 122L119 122C123.306 109.914 136.695 116.249 145 120L139 111L158 125L158 119C155.458 116.55 153.62 114.356 157 112L156 116L159 116L159 110L140 105L140 103L146 96L136 95L138 91L141 92L137 77L142 79L143 74C147.455 75.044 156.003 69.6347 152 65L152 64L156 65L153 71L164 71L162 68C162.831 65.3568 164.354 63.1481 167 65L168 62L166 63L166 62L168 54L169 54C170.417 57.334 172.482 59.8001 175 56L184 57L186 56L188 58L188 49L192 51C189.547 55.8603 193.727 59.1462 198 61L196 54C202.332 52.6431 195.815 37.2326 196 32L199 36L201 46L202 46L202 42L207 44L201 52L210 48L214 51L212 54L206 52L203 57L212 73L215 58L218 59L217 62L222 63L221 68L232 69L234 70L235 71L234 73L241 81C244.672 70.1753 246.536 64.0064 254 55L254 54L248 53L246 41L251 44L252 29C243.682 28.5443 235.1 13.0968 246 12L244 0L240 3L239 3L239 0L185 0L186 4L184 0L143 0L143 1C144.697 2.07932 146.422 3.11237 147.985 4.3858C149.196 5.37204 157.856 15.1747 151.121 13.5926C147.194 12.6701 144.967 7.62012 140.996 6.1636C135.602 4.18533 132.305 6.88919 128 2L132 4L133 0L127 2L114 0L113 0L81 0L0 0z"/>
<path style="fill:#366588; stroke:none;" d="M108 0L108 2L112 2L112 0L108 0M114 2L117 0L114 2M126 0L128 2L128 0L126 0M132 4L128 2C131.719 8.34952 136.494 4.12961 141.985 7.10107C145.217 8.84955 147.492 13.3084 151.126 14.1489C153.172 14.6223 154.725 13.2006 154.288 11.1104C152.834 4.15469 134.069 -6.24576 132 4M184 0L186 4L184 0M222 0L222 2L225 2L225 0L222 0M239 0L239 3L240 3L239 0M241.667 0.333344L242.333 0.666656L241.667 0.333344M244 0L246 12C236.146 11.0083 241.985 28.7578 252 29L251 44L246 41L248 53L254 54L254 55C245.12 62.6165 243.799 70.1856 241 81L235 71L234 70L232 69L221 68L222 63L217 62L218 59L216 58L215 58L212 73L203 57L206 52L212 54L214 51L210 48L201 52L207 44L202 42L202 46L201 46L199 36L196 32C195.43 38.2694 201.786 50.236 196 54L198 61C194.507 59.0697 188.794 55.2745 192 51L188 49L188 58L186 56L184 57L175 56C172.061 58.4656 170.894 56.9525 169 54L168 54L166 63L168 62L167 65L165 63L162 68L164 71L153 71L156 65L152 64L152 65C153.285 70.4231 147.999 74.304 143 74L142 79L137 77L137 78L137 79L141 83L145 82C147.749 90.1402 151.494 89.8741 159 90L161 93L161 94C156.619 93.6937 153.615 93.0183 151 97L154 95C153.791 101.611 159.166 103.93 165 105L165 106L149 103L159 110L157 112L160 114L159 112L160 112L162 117L163 117L161 111L166 117L167 117L168 114L169 114L171 120L172 114L173 114C172.425 118.998 172.408 121.564 178 122L176 128L177 128L181 124L182 130L183 130L181 119L182 119L187 136L190 135L190 132L192 130L193 130L194 137L195 137L194 119L197 126L205 135L199 135L198 135L199 141L200 138L201 142L201 143L219 146L219 147C212.649 146.503 203.542 146.737 201 154L195 157L209 160L215 168L212 167L213 170L207 174L210 181L203 182L208 189L200 185L203 186L203 185L197 185L197 187L204 190L202 193L214 212L213 205L217 208L220 208L220 209L215 209L215 210L234 210L233 218L231 211L220 215L221 219L219 223L220 223L221 219L242 219L240 203L244 199L245 220L249 217L251.454 200.001L249 185C256.009 184.917 257.309 182.445 259 176L267 181C264.97 173.774 257.116 168.822 251 165L250 166L248 172C244.235 162.497 240.293 154.198 230 151L234 140L235 140L235 148L236 148L240 132L239 135L232 128L228 130L228 129L230 123L231 123L232 126L239 122L237 117L243 115L242 124L246 124L250 120L246.461 90.1844L257.258 78.9105L259 64L260 64L260 71L262 71L261 60L260 60L259 64L258 64C257.929 51.2184 265.542 39.8572 261 27C266.432 28.0339 268.919 30.2834 268 36L269 37L275 32C274.23 23.7074 279.917 20.938 274 13L271 13L273 18L255 17L255 12C251.242 8.55191 250.864 4.93167 251 0L244 0z"/>
<path style="fill:#303136; stroke:none;" d="M245.667 0.333344L246.333 0.666656L245.667 0.333344M251 0L251 8L259 0L251 0z"/>
<path style="fill:#966e92; stroke:none;" d="M255 6L260 7L261 0L255 6z"/>
<path style="fill:#bb2e43; stroke:none;" d="M260 7C256.312 6.23181 254.265 6.1994 253 10C257.363 12.9799 259.694 14.2479 265 13C264.804 9.20428 265.05 6.25018 269 5C274.078 0.51709 278.543 3.97992 279 10L278 10L275 5C273.957 10.3945 277.607 14.6185 277.891 20C278.263 27.0512 274.99 33.7144 276.285 41C276.711 43.4009 279.039 50.6147 282.66 48.8241C287.299 46.531 285.059 39.8186 284.888 36C284.348 23.9024 284.945 11.973 284 0C276.028 0 260.352 -3.71793 260 7z"/>
<path style="fill:#303136; stroke:none;" d="M265 0L266 1L265 0M284 0C284.553 12.8866 287.826 31.4762 285.174 43.9946C284.089 49.1133 280.379 49.2476 278.117 44.9761C275.723 40.4543 276.695 35.867 276 31L272 32L269 37L268 36C270.062 30.0862 266.701 27.5216 261 27L258 64L259 64L260 60L261 60L262 71L260 71L260 64L259 64C259 68.5117 259.827 73.9868 257.258 77.9606C254.435 82.3271 248.22 84.4704 246.19 89.3248C243.595 95.5286 248.13 113.616 250 120L246 124L242 124L243 115L237 117L239 122L232 126L231 123L230 123L228 129L228 130L232 128C233.119 132.593 236.338 137.564 240 132L241 135C236.914 137.906 236.377 143.265 236 148L235 148L235 140L234 140L230 151C240.097 155.459 242.93 162.835 248 172C250.798 170.131 251.121 169.152 250 166L251 165L267 181L259 176C256.955 181.832 255.655 184.783 249 185L251.115 200.001L249 217L245 220L244 199L240 203L242 219L234 220L234 238L241 234C239.073 239.446 239.89 242.419 246 240L247 244L271 235C268.948 237.507 265.323 241.101 268 244L268 245L266 249L269 248L262 258L265 257L267 261L258 263L260 259L250 262L252 266C247.606 267.148 244.986 268.868 243 273L244 273L248 270L244 277L259 270C256.916 273.145 256.365 274.534 258 278C253.966 278.64 252.345 280.15 251 284L255 287L250 286L249 301L257 299C247.619 304.581 244.492 318.459 256 324L256 325L247 321L247 322L249 324L243 332L277 344C276.979 336.545 274.76 335.139 270 330C274.072 332.267 277.421 333.627 280 329L276 327L277 323L260 317L261 313L259 315C254.334 312.439 253.059 309.049 252 304L259 301L256 298L256 292L262 294L260 300L268 289L262 290L267 283L267 278L263 278L263 277L268 276L268 278L272 274C284.207 273.474 283.679 252.489 286 244L287 244L286 256L287 256L288 254L291 256L290 253C299.997 256.402 305.492 255.175 311 245L306 243L312 240C307.483 232.384 302.365 218.84 308 211L308 210L296 197L294 197L289 220L303 216L303 226C291.062 228.299 288.153 226.627 287 240L286 240C285.512 235.463 286.54 231.382 282 229L281 234L280 234L280 230L275 232C279.604 225.978 286.736 223.145 287 215L283 221L282 221L293 181L288 177C290.562 172.378 285.996 169.787 283.595 166C280.819 161.622 275.838 152.001 276 147L266 142L266 140C276.701 139.367 283.225 147.693 292.74 139.367C301.815 131.425 302.385 120.774 302.92 110C303.06 107.168 305.839 103.002 304.698 100.353C303.258 97.0078 292.406 94.2286 289 94L296 82L279 94C274.395 74.6475 295.068 83.8566 302 72L299 71L302 70L316.749 29L323 0L306 0C305.431 4.53812 303.986 7.63605 300 10C297.943 5.57983 295.879 4.09735 291 5L290 0L284 0z"/>
<path style="fill:#bb2e43; stroke:none;" d="M290 0L291 5C295.686 4.64877 297.436 6.19788 300 10C304.597 8.21335 305.697 4.70206 306 0L290 0M299 71L302 72C293.975 82.0348 273.555 75.5796 279 94L296 82L289 94C292.306 94.4415 302.236 97.4864 303.902 100.483C305.264 102.932 302.763 107.343 302.613 110C302 120.871 301.341 131.607 291.871 139.367C282.599 146.964 276.281 138.364 266 140L266 142L276 147C274.359 156.993 290.621 168.003 288 177L293 181C291.206 187.935 282.723 208.64 291 211L294 197L296 197L308 210L308 211L305 215L307 218L316 217C317.643 224.707 326.587 218.779 327 213L328 213L331 218L333 213L332 206L329 210L328 210L333 184L334 184L333 191L336 196L337 196L338 190C340.993 189.936 342.346 190.054 343 187L348 182L352 183C350.89 186.876 351.535 193.696 346 190L345 190C341.94 194.617 341.01 198.749 343 204L336 202C335.262 207.171 334.88 212.979 341 214L337 219L341 221L342 221C347.562 217.917 355.812 216.543 362.004 218.72C365.692 220.017 372.364 225.496 376 223L377 223L377 227L380 226L378 224L370 206L376 206L381 203L379 203L382 200C378.821 187.58 380.003 179.206 365 177L366 182C362.43 178.43 364.912 170.513 369 168C366.985 161.012 365.157 153.465 373.001 149.703C379.061 146.797 385.506 150.865 387 142L388 142L388 146L389 146L390 142L386 141L387 138L384 137L384 121L383 121L383 125L382 125L376 126L383 120L382 117C366.073 119.96 353.922 123.916 340 133L343 149L342 149L341 147L340 157C334.817 155.272 327.605 157.609 324 151C322.277 147.842 327.94 145.493 326 142C321.63 134.135 332.07 113.907 338 106C340.762 102.317 348.267 94.385 350 94C353.767 93.1628 357.705 90.4771 358 89L361 90L362 88L354 72L347 74C354.117 76.0854 349.609 83.2043 348 88L344 86L332 108L331 108L333 101L332 101L327 111L331 111C323.427 125.354 322.31 140.291 320 156C303.872 148.459 307.402 120.518 316.213 107.09C320.082 101.192 326.152 97.7273 329 91L323 95C322.442 90.6951 321.574 88.8515 317 89C317.038 81.3506 322.093 77.0282 329 75L332 86C335.678 83.3571 333.784 79.8747 333 76L336 80L340 80L339 74L341 74L345 82L342 64L338 66L337 63L335 65L329 60C329.141 64.3818 322.289 72.5455 317.25 70.9946C303.651 66.8092 311.969 49.5524 319 44L323 50L324 50C320.841 36.3515 320.24 31.3007 334 24C334.656 17.5396 341.105 21.1086 346 20L345 23C352.052 20.2662 358.315 12.4729 362 6C356.833 6.79996 355.464 12.3643 351.299 13.2693C344.452 14.7573 345.932 3.38641 346 0C340.099 0 328.458 -2.23935 323.394 1.02777C315.939 5.8367 317.797 19.8957 316.84 27C315.723 35.2818 310.352 43.1679 307.645 51C305.236 57.9717 304.373 65.4628 299 71z"/>
<path style="fill:#303136; stroke:none;" d="M346 0C345.844 3.63446 343.969 15.9218 351.745 13.5532C355.74 12.3363 357.422 7.28931 362 6L345 23L346 20C340.943 20.7786 333.335 16.3463 334 24C319.626 29.3341 319.843 37.2447 324 50L323 50L319 44C315.762 45.6925 314.637 47.8788 312.81 51.0008C311.323 53.5425 309.413 55.9319 309.319 59C308.814 75.3506 331.145 72.8036 329 60L337 63L338 66L342 64L345 82L341 74L339 74L340 80L336 80L333 76L332 86L329 75C321.611 76.5546 316.559 80.9435 317 89C321.389 89.136 321.793 91.0954 323 95L329 91C325.419 96.725 319.928 100.67 316.213 106.17C307.844 118.56 302.875 150.578 320 156L331 111L327 111L332 101L333 101L331 108L332 108L344 86L348 88C350.223 83.3194 354.685 75.4202 347 74L354 72L360 80L360 84L362 83L361 90C342.221 91.4582 328.993 116.482 325.215 133.015C324.223 137.351 322.97 148.868 325.518 152.517C328.671 157.031 335.141 156.597 340 157C340.078 148.308 346.815 140.045 340 133C354.271 126.492 364.854 118.547 381 118L380 116L386 138L387 135L388 135L389 149L388 149L388 142L387 142C384.708 150.067 359.107 148.839 369 161L369 162C366.564 165.826 362.047 178.545 366 182L365 177C373.056 178.843 378.441 181.218 380.471 190C382.271 197.79 380.731 209.96 370 206C369.196 211.569 374.58 214.366 377.091 219.001C379.459 223.372 378.266 227.484 379.512 232C381.68 239.853 391.369 251.869 384 259L383 246L382 246L382 250L381 250L380 248L382 256L372 268L373 263L370 264L359 284L363 274L357 281L354 280L359 271L349 274L349 278L344 276C345.389 288.339 334.998 282.48 328.961 281.734C324.325 281.161 318.9 283.167 314 283L314 284L317 284L317 285L315 285L315 286L319 285L320 290C314.716 287.534 306.275 277.512 311.113 271.147C313.105 268.527 318.18 267.716 321 266L321 264C318.082 262.928 314.506 261.041 314 265C306.358 268.151 293.791 273.864 291 282C298.041 282.024 304.428 283.781 307 291C321.43 293.207 317.537 309.77 324.918 317.338C330.365 322.923 327.84 305.904 327 304L329 300L330 300L330 302L331 302L331 298L328 298L331 297L331 296L324 291L330 292L330 291L352 281L348 281L349 278L358 287L344 291C334.464 289.579 333.82 311.269 333 318C337.414 317.759 349.826 307.501 343 306L344 303L340 304L348 300L348 301L345 302C348.444 310.325 338.743 329.923 329 329C327.54 335.369 317.294 352.5 323 357L328.257 373L324 384L480 384L480 0L346 0M265 10L267 16L262 15C265.263 19.2441 268.038 19.7996 273 18L271 13L274 13L278 17L275 5L278 10C279.77 5.6123 276.452 0.132507 271.228 2.79321C268.293 4.28793 268.183 8.24893 265 10z"/>
<path style="fill:#366588; stroke:none;" d="M98 12L99 12C102.138 7.07764 105.655 7.9599 111 8C107.204 1.29929 97.8887 4.70438 98 12M240 3L241 4L240 3z"/>
<path style="fill:#966e92; stroke:none;" d="M267 4L269 8L267 4z"/>
<path style="fill:#bb2e43; stroke:none;" d="M375 6L378 4L375 6z"/>
<path style="fill:#4a8fa9; stroke:none;" d="M246 5L248 9L246 5z"/>
<path style="fill:#303136; stroke:none;" d="M323 23L330 21C330.556 17.8434 332.741 15.131 333.12 12.0038C333.621 7.8801 328.274 3.30569 325.09 7.33331C321.931 11.3278 323.503 18.2422 323 23z"/>
<path style="fill:#366588; stroke:none;" d="M136 6L137 7L136 6M214 6L215 14L220 13L216 6L214 6M232 6L232 8L234 8L232 6M265 6L264 9L269 9L265 6M235.667 7.33334L236.333 7.66666L235.667 7.33334z"/>
<path style="fill:#303136; stroke:none;" d="M264 7L265 8L264 7z"/>
<path style="fill:#4a8fa9; stroke:none;" d="M267 7L268 8L267 7z"/>
<path style="fill:#366588; stroke:none;" d="M16 9L16 10L22 12L16 9M138 8C139.223 11.6867 141.308 11.8796 145 12L138 8z"/>
<path style="fill:#966e92; stroke:none;" d="M252 8C253.995 15.1348 258.476 16.4399 265 14L265 13C258.816 14.078 256.672 11.6206 252 8z"/>
<path style="fill:#4a8fa9; stroke:none;" d="M98.3333 9.66666L98.6667 10.3333L98.3333 9.66666z"/>
<path style="fill:#366588; stroke:none;" d="M185 9L186 10L185 9z"/>
<path style="fill:#966e92; stroke:none;" d="M264 9L265 10L264 9z"/>
<path style="fill:#366588; stroke:none;" d="M15 11L14 13L16 13L15 11M226 11L227 21L228 21L226 11M237 11L237 14L239 14L239 11L237 11z"/>
<path style="fill:#bb2e43; stroke:none;" d="M286 11L286 26C292.777 22.1798 295.091 12.9634 286 11z"/>
<path style="fill:#4a8fa9; stroke:none;" d="M242 13L242 17L243 17L242 13M254 13L255 17L256 17L254 13z"/>
<path style="fill:#366588; stroke:none;" d="M197 14L189 27L187 21L186 21L184 23L185 37C191.448 32.6649 200.584 22.8109 197 14M264 14L267 16L264 14z"/>
<path style="fill:#bb2e43; stroke:none;" d="M302 15L298 22L302 15z"/>
<path style="fill:#303136; stroke:none;" d="M352 15L351 18L352 15z"/>
<path style="fill:#bb2e43; stroke:none;" d="M378 16L379 17L378 16z"/>
<path style="fill:#366588; stroke:none;" d="M206 18L211 19L206 18z"/>
<path style="fill:#966e92; stroke:none;" d="M320 18L319 21L320 18z"/>
<path style="fill:#bb2e43; stroke:none;" d="M379 18L377 23L384 23L379 18z"/>
<path style="fill:#366588; stroke:none;" d="M183.333 19.6667L183.667 20.3333L183.333 19.6667M232 20L230 35L227 33C226.445 36.8126 227.698 38.1454 231 40L236 36L232 20z"/>
<path style="fill:#4a8fa9; stroke:none;" d="M245 20C243.609 25.2666 245.7 27.5957 251 28L251 24L250 24L249 26L246 24L245 20z"/>
<path style="fill:#966e92; stroke:none;" d="M277 23L275 31L276 31L277 23z"/>
<path style="fill:#bb2e43; stroke:none;" d="M345 24L346 25L345 24z"/>
<path style="fill:#366588; stroke:none;" d="M247 25L248 26L247 25z"/>
<path style="fill:#4a8fa9; stroke:none;" d="M254 26L254 28L256 28L256 26L254 26z"/>
<path style="fill:#bb2e43; stroke:none;" d="M343 26L344 27L343 26z"/>
<path style="fill:#4a8fa9; stroke:none;" d="M274 27L274 31L275 31L274 27z"/>
<path style="fill:#366588; stroke:none;" d="M208 28L208 30L211 30L211 28L208 28z"/>
<path style="fill:#4a8fa9; stroke:none;" d="M272 28L273 29L272 28z"/>
<path style="fill:#303136; stroke:none;" d="M253 29L255 31L253 29z"/>
<path style="fill:#4a8fa9; stroke:none;" d="M185 30L186 31L185 30z"/>
<path style="fill:#bb2e43; stroke:none;" d="M340 30L337 31L329 50L337 44L342 30L340 30z"/>
<path style="fill:#4a8fa9; stroke:none;" d="M185 32L186 33L185 32z"/>
<path style="fill:#303136; stroke:none;" d="M252 36L253 41L254 41L252 36z"/>
<path style="fill:#366588; stroke:none;" d="M191 37L194 40L191 37M185 38L187 48L188 48L185 38z"/>
<path style="fill:#4a8fa9; stroke:none;" d="M256 38L259 46L256 38z"/>
<path style="fill:#366588; stroke:none;" d="M139 40L140 44L141 44L141 40L139 40M265 41C265.659 46.3976 267.51 68.3107 273 69L273 73C277.982 71.519 276.644 51.7446 272.167 48.6667C270.858 47.767 271.015 50.8799 271 51L270 51L269 41L265 41M137 42L138 43L137 42z"/>
<path style="fill:#4a8fa9; stroke:none;" d="M245 44L246 45L245 44M256 48L250 49L255 57L256 57L256 48z"/>
<path style="fill:#bb2e43; stroke:none;" d="M334 48L334 52L337 48L334 48M266 52L263 61C266.782 58.9626 268.38 55.8552 266 52z"/>
<path style="fill:#966e92; stroke:none;" d="M267.333 52.6667L267.667 53.3333L267.333 52.6667z"/>
<path style="fill:#bb2e43; stroke:none;" d="M355 52L358 61C354.346 63.0237 352.246 65.7846 353 70C362.395 63.8065 363.558 59.6124 355 52z"/>
<path style="fill:#366588; stroke:none;" d="M173 53L175 55L175 53L173 53M247 53L248 54L247 53z"/>
<path style="fill:#966e92; stroke:none;" d="M265 56L266 57L265 56M267.333 56.6667L267.667 57.3333L267.333 56.6667z"/>
<path style="fill:#303136; stroke:none;" d="M273.333 56.6667L273.667 57.3333L273.333 56.6667z"/>
<path style="fill:#366588; stroke:none;" d="M154 57L154 59L157 59L157 57L154 57M160 60L164 57L160 60z"/>
<path style="fill:#303136; stroke:none;" d="M179 67L166 70C167.785 72.5466 170.425 74.5067 173 72L174 72L174 77C167.197 74.8246 148.527 67.4613 149 81L150 81L158 75C155.475 79.0677 154.2 81.3795 156 86L160 87L161 87L164 83L163 86L164 86L166 84L165 89C168.176 86.1628 165.318 82.3721 164 79L165 79C167.903 84.8432 176.689 89.1821 183 90L183 96L196 105L201 76L195 78L195 73L193 73C189.942 83.0652 177.499 70.6535 188 62C182.789 56.6844 177.968 60.2848 179 67z"/>
<path style="fill:#966e92; stroke:none;" d="M264 59L265 60L264 59z"/>
<path style="fill:#366588; stroke:none;" d="M235 60L234 63L235 60z"/>
<path style="fill:#303136; stroke:none;" d="M252 60L246 86L247 86L247 82L254 78L247 79L250 71C254.823 69.3041 253.997 64.4236 254 60L252 60z"/>
<path style="fill:#4a8fa9; stroke:none;" d="M169 64L172 61L169 64M199 62L197 65C199.259 64.5379 200.212 64.145 199 62M203 62L203 68L202 69L197 67L195 70L197 74L200 72L201 72L202 79L208 77L204 79C203.743 81.444 201.176 97.3712 206 90L207 96L208 96L210 87L213 88L214 74L210 79L209 79L205 71L208 73L203 62z"/>
<path style="fill:#366588; stroke:none;" d="M231.333 65.6667L231.667 66.3333L231.333 65.6667M204 66L205 67L204 66z"/>
<path style="fill:#4a8fa9; stroke:none;" d="M217 67L218 68L217 67M183 68L186 77L187 77L183 68z"/>
<path style="fill:#303136; stroke:none;" d="M187 73L190 68C186.964 69.0004 186.506 69.8628 187 73M304 68C306.337 76.7148 303.854 79.6166 314 83L317 75L304 68z"/>
<path style="fill:#366588; stroke:none;" d="M198 70L199 71L198 70M200 70L201 71L200 70z"/>
<path style="fill:#4a8fa9; stroke:none;" d="M216 70L216 71L219 71L216 70z"/>
<path style="fill:#366588; stroke:none;" d="M131 72L132 73L131 72M183.333 72.6667L183.667 73.3333L183.333 72.6667z"/>
<path style="fill:#4a8fa9; stroke:none;" d="M215 77L220 73L215 77z"/>
<path style="fill:#303136; stroke:none;" d="M222 73L224 75L224 73L222 73z"/>
<path style="fill:#366588; stroke:none;" d="M128 77L131 74L128 77M161 74L162 75L161 74M184 74L186 77L184 74z"/>
<path style="fill:#303136; stroke:none;" d="M255 74L255 77L256 77L255 74z"/>
<path style="fill:#366588; stroke:none;" d="M135 75L137 77L135 75z"/>
<path style="fill:#bb2e43; stroke:none;" d="M293 75L292 78L293 75z"/>
<path style="fill:#4a8fa9; stroke:none;" d="M145 76C145.598 80.5998 145.945 84.157 151 85L147 76L145 76M196 76L197 77L196 76z"/>
<path style="fill:#366588; stroke:none;" d="M166 77L167 78L166 77z"/>
<path style="fill:#303136; stroke:none;" d="M215 78L214 93L214 106L215 106L217 102C218.153 109.124 217.132 113.91 211 118L211 120L218 127L225 112L225 114L237 108L236 114L238 111C242.303 110.405 240.811 104.416 240.537 101C239.914 93.231 239.753 82.1189 230 81C231.173 87.2941 231.704 96.82 222 94L219 99L220.887 88L219 77L215 78z"/>
<path style="fill:#4a8fa9; stroke:none;" d="M138 78L141 92L144 92L147 103C143.754 102.45 141.932 102.403 142 106L153 108L149 103L165 106L165 105C159.705 103.275 154.203 101.332 154 95L151 97L161 94L161 93L159 90C151.558 89.5063 148.535 89.1531 145 82L141 83L138 78M151 80L152 81L151 80z"/>
<path style="fill:#966e92; stroke:none;" d="M359 80L359 83L360 83L359 80z"/>
<path style="fill:#366588; stroke:none;" d="M138.333 81.6667L138.667 82.3333L138.333 81.6667z"/>
<path style="fill:#303136; stroke:none;" d="M301 81L305 86L306 82L301 81z"/>
<path style="fill:#bb2e43; stroke:none;" d="M340 81L341 87L342 87L342 81L340 81z"/>
<path style="fill:#366588; stroke:none;" d="M216 82L217 83L216 82M139.333 83.6667L139.667 84.3333L139.333 83.6667z"/>
<path style="fill:#4a8fa9; stroke:none;" d="M221 85L224 83L221 85z"/>
<path style="fill:#966e92; stroke:none;" d="M361 83L361 86L362 86L361 83z"/>
<path style="fill:#366588; stroke:none;" d="M140 85L141 86L140 85z"/>
<path style="fill:#4a8fa9; stroke:none;" d="M174 86L175 87L174 86z"/>
<path style="fill:#bb2e43; stroke:none;" d="M325 86L325 88L327 86L325 86z"/>
<path style="fill:#366588; stroke:none;" d="M118 94L124 87L118 94M130 87L130 88L133 88L130 87M141 87L141 91L142 91L141 87z"/>
<path style="fill:#4a8fa9; stroke:none;" d="M168 87L164 95L169 92L169 97L166 96L171 103L165 102L169 106L178 112L178 111C174.155 107.727 172.94 104.93 174 100C171.083 96.7504 170.81 94.1245 172 90L169 91L173 88L168 87z"/>
<path style="fill:#303136; stroke:none;" d="M223 87L224 88L223 87z"/>
<path style="fill:#366588; stroke:none;" d="M135 88L136 89L135 88z"/>
<path style="fill:#4a8fa9; stroke:none;" d="M155 88L156 89L155 88M176 88L177 89L176 88z"/>
<path style="fill:#966e92; stroke:none;" d="M362 88L362 91L363 91L362 88M358 89L359 90L358 89z"/>
<path style="fill:#366588; stroke:none;" d="M138 91L136 95L145 96L144 92L138 91z"/>
<path style="fill:#303136; stroke:none;" d="M177 91L181 94L177 91z"/>
<path style="fill:#366588; stroke:none;" d="M235 91L232 92L237 97L235 91M106 95L112 95L108 104L116 92L106 95z"/>
<path style="fill:#4a8fa9; stroke:none;" d="M119 92L120 93L119 92z"/>
<path style="fill:#366588; stroke:none;" d="M193 95L194 96L193 95M196 95L197 96L196 95z"/>
<path style="fill:#4a8fa9; stroke:none;" d="M199 95L200 96L199 95M203 95L204 96L203 95z"/>
<path style="fill:#366588; stroke:none;" d="M105 96L101 126L100 126L101 109L100 109L99 125L96 120L95 120L94 134L95 134L96 132L95 136L99 136L98 130L103 132L104 140L97 139L98 142L96 141L96 142L98 143L102 142L102 143L99 145L102 144C107.507 151.827 120.232 145.507 124 139L121 140C123.47 135.915 124.06 133.383 122 129L115 133L115 130L114 130L110 134L109 134L110 129L106 130L106 129C111.389 124.363 108.005 114.229 108 108L107 108L107 125L104 127L103 127C105.378 119.38 108.125 103.465 105 96z"/>
<path style="fill:#4a8fa9; stroke:none;" d="M158 96L159 97L158 96z"/>
<path style="fill:#303136; stroke:none;" d="M112 97L113 98L112 97z"/>
<path style="fill:#366588; stroke:none;" d="M115 101L120 98L115 101M146 97L143 102L147 103L146 97z"/>
<path style="fill:#303136; stroke:none;" d="M178 97L184 100L191 111L187 110L192 115C191.997 109.859 188.693 96.0473 181 100L178 97z"/>
<path style="fill:#4a8fa9; stroke:none;" d="M206.333 97.6667L206.667 98.3333L206.333 97.6667z"/>
<path style="fill:#966e92; stroke:none;" d="M362 97L359 114L360 114L362 97z"/>
<path style="fill:#4a8fa9; stroke:none;" d="M155 98L156 99L155 98M159 98L164 102L159 98z"/>
<path style="fill:#303136; stroke:none;" d="M163 98L164 99L163 98M165 98L168 101L165 98z"/>
<path style="fill:#366588; stroke:none;" d="M167 98L168 99L167 98z"/>
<path style="fill:#bb2e43; stroke:none;" d="M286 98L285 101L288 99L286 98z"/>
<path style="fill:#366588; stroke:none;" d="M257 99L259 102L257 99z"/>
<path style="fill:#303136; stroke:none;" d="M177 100L180 103L177 100z"/>
<path style="fill:#bb2e43; stroke:none;" d="M360 100L361 101L360 100M361 103L365 101L361 103z"/>
<path style="fill:#4a8fa9; stroke:none;" d="M176 101L177 102L176 101z"/>
<path style="fill:#366588; stroke:none;" d="M234 101L234 104L235 104L234 101M141 102L142 103L141 102M140.333 103.667L140.667 104.333L140.333 103.667z"/>
<path style="fill:#4a8fa9; stroke:none;" d="M178 103L180 114C182.43 109.709 181.708 106.137 178 103z"/>
<path style="fill:#366588; stroke:none;" d="M302 103L303 104L302 103M94 104L97 114L98 114L97 104L94 104z"/>
<path style="fill:#4a8fa9; stroke:none;" d="M197 104L196 112L197 112L197 104z"/>
<path style="fill:#366588; stroke:none;" d="M141 105L142 106L141 105M143 105L143 106L150 107L143 105M170 105L172 108L170 105z"/>
<path style="fill:#303136; stroke:none;" d="M182 105L183 106L182 105M209 105L208 109L209 109L209 105z"/>
<path style="fill:#366588; stroke:none;" d="M150.667 107.333L151.333 107.667L150.667 107.333z"/>
<path style="fill:#303136; stroke:none;" d="M162 107L165 111L162 107M167 108L168 109L167 108M194 108L194 111L195 111L194 108z"/>
<path style="fill:#4a8fa9; stroke:none;" d="M212 108L212 110L214 110L214 108L212 108z"/>
<path style="fill:#303136; stroke:none;" d="M330 108L331 109L330 108z"/>
<path style="fill:#366588; stroke:none;" d="M124 112L132 112C129.209 110.518 126.286 109.485 124 112z"/>
<path style="fill:#303136; stroke:none;" d="M169 110L169 113L170 113L169 110z"/>
<path style="fill:#366588; stroke:none;" d="M139 111L145 120C137.669 115.394 121.612 109.648 119 122L120 122C126.275 114.322 132.58 116.611 141 119L141 120L136 119L136 120C139.802 121.77 141.418 123.837 142 128L143 128L143 124L148 125L152 131L150 132L150 133L166 132L153 146L154 146C157.142 142.182 161.671 139.627 166 143L175 142L171 138C171.32 136.012 170.767 130.534 168 133L167 133L167 129L166 129L164 133L151 129C156.566 129.474 159.639 131.937 164 127L159 125L159 124C162.709 123.859 164.128 124.819 166 128L167 128C165.15 122.858 162.117 122.173 157 123L159 121L159 120L156 121L158 125L139 111z"/>
<path style="fill:#4a8fa9; stroke:none;" d="M161 111L165 119L159 112L160 117L155 116L159 120L157 123C164.489 122.463 166.254 126.069 167 133L168 133L169 131L171 138L175 142L166 143C162.743 138.799 155.646 141.475 153.742 146.058C148.452 158.789 157.852 173.643 170 177L164 183L170 186L186 216L188 215C188.945 225.895 203.949 236.892 214 239L213 231L211 232L211 231L212 227L214 229L219 229L224 219L220 223L219 223L221 219L220 215L231 211L233 218L234 210L215 210L215 209L220 209L220 208L217 208L213 205L214 212L202 193L204 190L197 187L197 185L203 185L203 186L200 185C201.928 188.498 204.122 188.875 208 189L203 182L210 181L207 174C210.548 173.249 212.247 170.555 212 167L215 168L209 160L195 157L201 154C204.762 147.524 212.267 146.73 219 147L219 146L201 143L201 142C203.936 140.27 201.538 137.212 199 141L198 135L199 135L200 137L201 137L205 135L197 126C197.841 122.374 197.043 121.083 194 119L195 137L194 137L193 130L192 130L192 133L190 132L190 135L187 136L182 119L181 119L183 130L182 130L181 124L177 128L176 128L178 122C172.971 121.191 172.783 118.648 173 114L172 114L171 120L168 119L169 114L168 114L167 117L161 111M166 111L168 113L166 111M182.333 111.667L182.667 112.333L182.333 111.667z"/>
<path style="fill:#366588; stroke:none;" d="M154 112L154 116L157 112L154 112z"/>
<path style="fill:#966e92; stroke:none;" d="M366 112L366 113L369 113L366 112z"/>
<path style="fill:#4a8fa9; stroke:none;" d="M195 113L195 117L196 117L195 113z"/>
<path style="fill:#bb2e43; stroke:none;" d="M358 113L359 119L362 115L358 113z"/>
<path style="fill:#4a8fa9; stroke:none;" d="M154 114L155 115L154 114M185 114L183 117C185.251 116.527 186.118 116.14 185 114M237 116L240 114L237 116z"/>
<path style="fill:#966e92; stroke:none;" d="M371 116L374 114L371 116z"/>
<path style="fill:#366588; stroke:none;" d="M159 115L156 116L156 117L159 115z"/>
<path style="fill:#303136; stroke:none;" d="M163 115L163 118L164 118L163 115z"/>
<path style="fill:#bb2e43; stroke:none;" d="M373 115L374 116L373 115z"/>
<path style="fill:#966e92; stroke:none;" d="M380.667 116.333L381.333 116.667L380.667 116.333z"/>
<path style="fill:#366588; stroke:none;" d="M155 117L156 118L155 117M164 117L163 119L165 119L164 117z"/>
<path style="fill:#303136; stroke:none;" d="M169 117L170 118L169 117z"/>
<path style="fill:#4a8fa9; stroke:none;" d="M145 118L145 119L149 119L145 118z"/>
<path style="fill:#966e92; stroke:none;" d="M382 118L383 119L382 118z"/>
<path style="fill:#303136; stroke:none;" d="M146 120L146 121L151 122L146 120z"/>
<path style="fill:#4a8fa9; stroke:none;" d="M184 119L185 120L184 119z"/>
<path style="fill:#966e92; stroke:none;" d="M381 119L376 126L382 125L383 125L381 119z"/>
<path style="fill:#4a8fa9; stroke:none;" d="M136 120L140 123L136 120M210.333 121.667L210.667 122.333L210.333 121.667z"/>
<path style="fill:#303136; stroke:none;" d="M234 121L235 122L234 121z"/>
<path style="fill:#366588; stroke:none;" d="M138 122L139 123L138 122z"/>
<path style="fill:#4a8fa9; stroke:none;" d="M142 122L143 123L142 122z"/>
<path style="fill:#303136; stroke:none;" d="M151 122L152 123L151 122z"/>
<path style="fill:#366588; stroke:none;" d="M262 122L262 127L262 122z"/>
<path style="fill:#bb2e43; stroke:none;" d="M285 122L285 125L286 125L285 122z"/>
<path style="fill:#4a8fa9; stroke:none;" d="M104 123L103 127L104 127L104 123z"/>
<path style="fill:#303136; stroke:none;" d="M159 124L159 125L164 127C159.051 130.895 156.639 129.051 151 129C155.119 133.206 160.629 131.997 166 131C165.729 126.1 164.341 122.992 159 124M209 123L210 124L209 123z"/>
<path style="fill:#366588; stroke:none;" d="M173.667 124.333L174.333 124.667L173.667 124.333M234 125L234 126L241 128L234 125M114 125L114 129L118 129L118 128L114 125z"/>
<path style="fill:#4a8fa9; stroke:none;" d="M147 125L146 127L148 127L147 125z"/>
<path style="fill:#303136; stroke:none;" d="M203 125L201 130L203 125z"/>
<path style="fill:#bb2e43; stroke:none;" d="M278 125L278 134L281 133L278 125z"/>
<path style="fill:#303136; stroke:none;" d="M97 126L97 128L99 128L97 126z"/>
<path style="fill:#366588; stroke:none;" d="M120 126L119 128L121 128L120 126z"/>
<path style="fill:#4a8fa9; stroke:none;" d="M156 126L157 127L156 126z"/>
<path style="fill:#303136; stroke:none;" d="M100 128L101 129L100 128z"/>
<path style="fill:#4a8fa9; stroke:none;" d="M109 134L110 134L112 133L115 130L115 133L116 133L121 130C117.371 126.181 109.823 129.066 109 134z"/>
<path style="fill:#303136; stroke:none;" d="M150 128L151 129L150 128z"/>
<path style="fill:#366588; stroke:none;" d="M196 128L196 131L197 131L196 128z"/>
<path style="fill:#303136; stroke:none;" d="M356 128L355 131L358 131L356 128z"/>
<path style="fill:#966e92; stroke:none;" d="M376 128L374 129L374 130L376 128z"/>
<path style="fill:#4a8fa9; stroke:none;" d="M106 129L106 130L109 130L106 129M157.667 129.333L158.333 129.667L157.667 129.333z"/>
<path style="fill:#303136; stroke:none;" d="M379 129L380 130L379 129M96 130L97 131L96 130z"/>
<path style="fill:#4a8fa9; stroke:none;" d="M98 130L99 136L96 135C97.4999 139.17 99.5607 140.825 104 140L103 132L98 130z"/>
<path style="fill:#303136; stroke:none;" d="M206 130L205 136L209 137L208 130L206 130M346 130L347 131L346 130z"/>
<path style="fill:#4a8fa9; stroke:none;" d="M104 131L105 132L104 131z"/>
<path style="fill:#303136; stroke:none;" d="M107 131L108 132L107 131M120 131L119 136L120 136L121 134L120 131z"/>
<path style="fill:#4a8fa9; stroke:none;" d="M150.667 131.333L151.333 131.667L150.667 131.333z"/>
<path style="fill:#303136; stroke:none;" d="M211 131L211 140L214 131L211 131M223.667 131.333L224.333 131.667L223.667 131.333M375 131L376 132L375 131z"/>
<path style="fill:#966e92; stroke:none;" d="M386 131L387 132L386 131z"/>
<path style="fill:#4a8fa9; stroke:none;" d="M95 132L95 135L97 134L97 133L95 132M106 132L107 133L106 132M161 132L161 133L164 133L161 132z"/>
<path style="fill:#bb2e43; stroke:none;" d="M386 132L387 133L386 132z"/>
<path style="fill:#303136; stroke:none;" d="M107.333 133.667L107.667 134.333L107.333 133.667z"/>
<path style="fill:#4a8fa9; stroke:none;" d="M122 133L123 134L122 133M160 133L161 134L160 133M166.333 133.667L166.667 134.333L166.333 133.667z"/>
<path style="fill:#303136; stroke:none;" d="M111.333 134.667L111.667 135.333L111.333 134.667z"/>
<path style="fill:#366588; stroke:none;" d="M144 134L136 143L138 146C144.795 144.682 150.718 143.744 154 137L144 134z"/>
<path style="fill:#303136; stroke:none;" d="M227 134L230 138L227 134M108 135L110 138L108 135M115.333 135.667L115.667 136.333L115.333 135.667M344 135L345 136L344 135M368 138L372 135L368 138z"/>
<path style="fill:#966e92; stroke:none;" d="M384.333 135.667L384.667 136.333L384.333 135.667M387 135L386 141L388 142L389 142L387 135z"/>
<path style="fill:#366588; stroke:none;" d="M101 136L102 137L101 136z"/>
<path style="fill:#4a8fa9; stroke:none;" d="M123 136L121 140L123 136z"/>
<path style="fill:#303136; stroke:none;" d="M166 138L169 138L168 136L166 138z"/>
<path style="fill:#366588; stroke:none;" d="M180.333 136.667L180.667 137.333L180.333 136.667z"/>
<path style="fill:#4a8fa9; stroke:none;" d="M216 136L216 138L218 136L216 136M223 138L226 136L223 138z"/>
<path style="fill:#966e92; stroke:none;" d="M346.333 136.667L346.667 137.333L346.333 136.667z"/>
<path style="fill:#303136; stroke:none;" d="M379 136L380 137L379 136z"/>
<path style="fill:#366588; stroke:none;" d="M96 137L97 138L96 137M184 137L184 138L187 142L188 142L188 137L184 137z"/>
<path style="fill:#4a8fa9; stroke:none;" d="M111 138L107 140L107 141L111 142L111 143L106 145L111 147L111 143L119 143L119 142L111 138M143 138L143 139L147 140L143 138M169 140L172 140L171 138L169 140z"/>
<path style="fill:#366588; stroke:none;" d="M177 138L177 142L178 142L177 138z"/>
<path style="fill:#303136; stroke:none;" d="M384 138L384 140L386 138L384 138z"/>
<path style="fill:#4a8fa9; stroke:none;" d="M149.667 139.333L150.333 139.667L149.667 139.333z"/>
<path style="fill:#303136; stroke:none;" d="M223 139L221 147L227 143L225 148L229 149L232 144L228 144L228 139L223 139M355 139C347.855 150.761 359.898 153.469 364 141L355 139z"/>
<path style="fill:#4a8fa9; stroke:none;" d="M96 140L98 142L98 140L96 140z"/>
<path style="fill:#303136; stroke:none;" d="M173 140L174 141L173 140z"/>
<path style="fill:#bb2e43; stroke:none;" d="M327 140L328 144L329 144L330 140L327 140z"/>
<path style="fill:#966e92; stroke:none;" d="M365 142L368 141L365 142z"/>
<path style="fill:#303136; stroke:none;" d="M365 144C369.15 143.985 372.544 144.387 374 140L365 144M99 141L102 143L102 142L99 141z"/>
<path style="fill:#4a8fa9; stroke:none;" d="M103 141L103 143L105 143L105 141L103 141M141 141L141 144L143 141L141 141z"/>
<path style="fill:#366588; stroke:none;" d="M244 141L247 146L244 141z"/>
<path style="fill:#966e92; stroke:none;" d="M344 141L345 142L344 141z"/>
<path style="fill:#bb2e43; stroke:none;" d="M366 141L367 142L366 141z"/>
<path style="fill:#4a8fa9; stroke:none;" d="M98.3333 142.667L98.6667 143.333L98.3333 142.667M147.667 142.333L148.333 142.667L147.667 142.333z"/>
<path style="fill:#966e92; stroke:none;" d="M348 142L348 144L350 144L350 142L348 142z"/>
<path style="fill:#4a8fa9; stroke:none;" d="M137 143L138 144L137 143z"/>
<path style="fill:#966e92; stroke:none;" d="M343 143L344 144L343 143z"/>
<path style="fill:#303136; stroke:none;" d="M345 143L346 144L345 143z"/>
<path style="fill:#966e92; stroke:none;" d="M386 143L387 144L386 143M389 143L390 144L389 143z"/>
<path style="fill:#4a8fa9; stroke:none;" d="M100.667 144.333L101.333 144.667L100.667 144.333M138.667 144.333L139.333 144.667L138.667 144.333z"/>
<path style="fill:#303136; stroke:none;" d="M285 146L285 147L288 148L290 144L285 146M344 144L344 147L345 147L344 144z"/>
<path style="fill:#966e92; stroke:none;" d="M363 144L364 145L363 144M347 145L349 147L347 151L353 151L351 149L352 145L347 145M342 146L342 149L343 149L342 146M384 146L383 148L384 146M388 146L388 149L389 149L388 146z"/>
<path style="fill:#bb2e43; stroke:none;" d="M351.333 147.667L351.667 148.333L351.333 147.667z"/>
<path style="fill:#303136; stroke:none;" d="M365 149L368 147L365 149z"/>
<path style="fill:#366588; stroke:none;" d="M152 148C146.87 152.782 139.663 158.45 140 166L138 165L138 166L139 170L138 170L138 168L137 168L138 173L145 164L146 164L143 171L144 171L145 168L150 168L151 168L154 187L154 188L158 192L154 191L154 198L158 198L158 199L155 199L155 200L157 200L157 201L152 201L152 202L175 198L170 186L164 183L170 177C154.04 170.667 157.396 160.86 152 148z"/>
<path style="fill:#4a8fa9; stroke:none;" d="M221 148L225 151L225 150L221 148z"/>
<path style="fill:#366588; stroke:none;" d="M186 149L187 150L186 149z"/>
<path style="fill:#303136; stroke:none;" d="M280 152L283 150L280 152z"/>
<path style="fill:#bb2e43; stroke:none;" d="M392 154L392 153L389 150C377.523 153.611 383.928 164.249 392 154z"/>
<path style="fill:#303136; stroke:none;" d="M215 151L214 152L217 154L215 151M350 151L348 155L354 156L350 151z"/>
<path style="fill:#966e92; stroke:none;" d="M354 153L357 151L354 153z"/>
<path style="fill:#303136; stroke:none;" d="M361 151L360 154L361 151z"/>
<path style="fill:#966e92; stroke:none;" d="M388 151L389 152L388 151M390 152L391 153L390 152z"/>
<path style="fill:#366588; stroke:none;" d="M191 153L192 154L191 153z"/>
<path style="fill:#966e92; stroke:none;" d="M342 153L342 158L344 158L342 153z"/>
<path style="fill:#303136; stroke:none;" d="M226 154L226 158L231 157L226 154z"/>
<path style="fill:#4a8fa9; stroke:none;" d="M235 155L236 156L235 155z"/>
<path style="fill:#303136; stroke:none;" d="M363 155L365 158L363 155z"/>
<path style="fill:#4a8fa9; stroke:none;" d="M145 156L144 158L145 156z"/>
<path style="fill:#966e92; stroke:none;" d="M360 156L361 159L364 159L364 158L360 156M366 156L367 157L366 156z"/>
<path style="fill:#4a8fa9; stroke:none;" d="M150 157L147 163L148 163L150 157z"/>
<path style="fill:#966e92; stroke:none;" d="M357.333 157.667L357.667 158.333L357.333 157.667z"/>
<path style="fill:#366588; stroke:none;" d="M178 158L179 159L178 158z"/>
<path style="fill:#303136; stroke:none;" d="M229 160L231 162L231 163C220.87 168.433 230.91 176.824 237 181C238.433 178.134 238.067 172.017 242 173L241 164L234 158L229 160z"/>
<path style="fill:#4a8fa9; stroke:none;" d="M143 159L141 162L143 159z"/>
<path style="fill:#303136; stroke:none;" d="M330 159L336 164L333 162L334 159L330 159z"/>
<path style="fill:#366588; stroke:none;" d="M176 160L173 161L173 162L179 165L179 160L178 160L177 162L176 160z"/>
<path style="fill:#966e92; stroke:none;" d="M359 160L360 161L359 160M362.667 160.333L363.333 160.667L362.667 160.333z"/>
<path style="fill:#366588; stroke:none;" d="M234.333 161.667L234.667 162.333L234.333 161.667z"/>
<path style="fill:#303136; stroke:none;" d="M361 161L364 166L363 161L361 161z"/>
<path style="fill:#966e92; stroke:none;" d="M368 161L369 162L368 161z"/>
<path style="fill:#4a8fa9; stroke:none;" d="M176 162L177 163L176 162M140 163L141 164L140 163M213 163L214 164L213 163M139.333 164.667L139.667 165.333L139.333 164.667M145 164C143.673 165.867 138.654 174.907 138 170L137 170C135.012 178.673 132.337 186.355 136 195L139 194C141.2 201.029 150.694 200.87 157 201L157 200L155 200L155 199L158 199L158 198L154 198L154 191L158 192L154 188L154 187L157 187L151 168L150 168L145 168L144 171L143 171L145 164z"/>
<path style="fill:#366588; stroke:none;" d="M171 164L172 165L171 164z"/>
<path style="fill:#303136; stroke:none;" d="M154 165L155 166L154 165z"/>
<path style="fill:#366588; stroke:none;" d="M210 165L211 166L210 165M173 166L173 169L177 168C175.878 170.66 175.606 171.334 178 173C177.861 168.828 177.253 166.928 173 166z"/>
<path style="fill:#966e92; stroke:none;" d="M359 168L362 168L361 166L359 168z"/>
<path style="fill:#4a8fa9; stroke:none;" d="M138 167L138 170L139 170L138 167z"/>
<path style="fill:#366588; stroke:none;" d="M184 168L185 169L184 168z"/>
<path style="fill:#966e92; stroke:none;" d="M367 168L368 169L367 168M361 169L360 179C363.143 175.919 363.506 172.674 361 169z"/>
<path style="fill:#4a8fa9; stroke:none;" d="M252 170L242 176C239.809 182.137 238.797 192.885 245 197L244 194L247 181L251 182L253 177L252 170z"/>
<path style="fill:#966e92; stroke:none;" d="M308.333 170.667L308.667 171.333L308.333 170.667z"/>
<path style="fill:#366588; stroke:none;" d="M136.333 171.667L136.667 172.333L136.333 171.667M148 171L146 177L150 177L148 171M140 173L139 185L142 184L140 173M179 173L180 174L179 173z"/>
<path style="fill:#966e92; stroke:none;" d="M306 173L304 176L305 177L306 177L307 177L306 173z"/>
<path style="fill:#366588; stroke:none;" d="M135.333 174.667L135.667 175.333L135.333 174.667M176 175L173 177L173 178L178 178L176 175M247.333 175.667L247.667 176.333L247.333 175.667z"/>
<path style="fill:#966e92; stroke:none;" d="M356 175L357 178L356 175z"/>
<path style="fill:#366588; stroke:none;" d="M179 176L180 177L179 176M184 176L185 177L184 176z"/>
<path style="fill:#966e92; stroke:none;" d="M349.667 176.333L350.333 176.667L349.667 176.333z"/>
<path style="fill:#366588; stroke:none;" d="M205.333 177.667L205.667 178.333L205.333 177.667z"/>
<path style="fill:#966e92; stroke:none;" d="M303 177L302 179L303 177z"/>
<path style="fill:#366588; stroke:none;" d="M134.333 178.667L134.667 179.333L134.333 178.667z"/>
<path style="fill:#966e92; stroke:none;" d="M348 178L348 181L349 181L348 178z"/>
<path style="fill:#366588; stroke:none;" d="M244 179L244 183L245 183L244 179z"/>
<path style="fill:#966e92; stroke:none;" d="M317 179L316 182L317 179z"/>
<path style="fill:#bb2e43; stroke:none;" d="M289.333 181.667L289.667 182.333L289.333 181.667z"/>
<path style="fill:#4a8fa9; stroke:none;" d="M209 183L209 184L215 185L209 183z"/>
<path style="fill:#366588; stroke:none;" d="M259 183L264 189L262 182L259 183z"/>
<path style="fill:#966e92; stroke:none;" d="M348 182L343 187L338 190L337 196L336 196L333 191L334 184L333 184C330.79 192.519 325.408 201.23 328 210L329 210L332 206L333 213C329.803 213.689 330.254 215.054 331 218L328 217L328 213L327 213L324 220L337 221L337 218L341 214C335.239 212.251 335.753 207.215 336 202L343 204C341.427 198.506 342.464 195.036 345 190L346 190C351.324 194.763 351.231 186.764 352 183L348 182M372 182L372 184L374 184L372 182z"/>
<path style="fill:#366588; stroke:none;" d="M133 184L133 190L134 190L133 184M143.333 184.667L143.667 185.333L143.333 184.667z"/>
<path style="fill:#303136; stroke:none;" d="M239 184L239 189L240 189L239 184z"/>
<path style="fill:#366588; stroke:none;" d="M141 185L140 188L141 185z"/>
<path style="fill:#4a8fa9; stroke:none;" d="M160 185L161 186L160 185z"/>
<path style="fill:#366588; stroke:none;" d="M146 186L150 191L149 186L146 186M143 188L142 190L143 188z"/>
<path style="fill:#4a8fa9; stroke:none;" d="M209 188L210 189L209 188z"/>
<path style="fill:#366588; stroke:none;" d="M257 190L255 196L259 190L257 190M145 191L149 194L149 195L145 195L145 196L152 198L152 197L149 196L152 195L145 191M172 191L173 192L172 191M177 191L179 193L177 191z"/>
<path style="fill:#966e92; stroke:none;" d="M380 191L380 194L381 194L380 191z"/>
<path style="fill:#303136; stroke:none;" d="M167 192L167 193L171 194L171 193L171 192L167 192z"/>
<path style="fill:#966e92; stroke:none;" d="M294 192L291 200L292 200L294 192M353 192L352 195L359 196L353 192z"/>
<path style="fill:#366588; stroke:none;" d="M135 193L136 194L135 193M138 194L139 197L138 194z"/>
<path style="fill:#303136; stroke:none;" d="M296 195L300 196L296 195z"/>
<path style="fill:#4a8fa9; stroke:none;" d="M166 196L166 197L169 197L166 196z"/>
<path style="fill:#366588; stroke:none;" d="M139 197L140 198L139 197M140.667 198.333L141.333 198.667L140.667 198.333M175 198L176 199L175 198z"/>
<path style="fill:#303136; stroke:none;" d="M242 198L243 199L242 198z"/>
<path style="fill:#366588; stroke:none;" d="M143 199L144 200L143 199M176 199L177 200L176 199M192 199L193 200L192 199M149.667 200.333L150.333 200.667L149.667 200.333M177.333 200.667L177.667 201.333L177.333 200.667z"/>
<path style="fill:#966e92; stroke:none;" d="M365.667 201.333L366.333 201.667L365.667 201.333M379 201L379 204L381 201L379 201z"/>
<path style="fill:#366588; stroke:none;" d="M179 203L180 204L179 203z"/>
<path style="fill:#966e92; stroke:none;" d="M288 203L289 204L288 203M306 203L306 206L308 203L306 203z"/>
<path style="fill:#366588; stroke:none;" d="M180.333 205.667L180.667 206.333L180.333 205.667z"/>
<path style="fill:#966e92; stroke:none;" d="M367 205L368 206L367 205z"/>
<path style="fill:#366588; stroke:none;" d="M207 206L207 208L209 208L209 206L207 206z"/>
<path style="fill:#bb2e43; stroke:none;" d="M295 211L302 206C298.166 206.437 296.398 207.343 295 211z"/>
<path style="fill:#966e92; stroke:none;" d="M309 212L319 212L319 207C313.575 206.315 308.45 204.835 309 212M376 206L377 207L376 206z"/>
<path style="fill:#366588; stroke:none;" d="M181 207L182 208L181 207z"/>
<path style="fill:#966e92; stroke:none;" d="M286 207L287 208L286 207M352 207L350 216C355.802 215.053 357.152 210.171 352 207z"/>
<path style="fill:#366588; stroke:none;" d="M182 208L183 209L182 208z"/>
<path style="fill:#966e92; stroke:none;" d="M285 208L283 216L284 216L286 211L287 211L287 223L288 223L291 212L285 208z"/>
<path style="fill:#303136; stroke:none;" d="M287 208L288 209L287 208z"/>
<path style="fill:#bb2e43; stroke:none;" d="M312 208L315 210L312 208z"/>
<path style="fill:#366588; stroke:none;" d="M186 223L185 221L186 221L189 221L190 222L189 224L192 224L190 226L192 232L189 230L194 233L198 230L188 215L186 216C185.011 204.656 175.176 216.701 186 223M199 209L200 213L201 213L201 209L199 209M284 209L285 210L284 209z"/>
<path style="fill:#966e92; stroke:none;" d="M328 212L331 211L328 212M343 210L340 212L343 210z"/>
<path style="fill:#366588; stroke:none;" d="M286 211L285 215L286 211z"/>
<path style="fill:#966e92; stroke:none;" d="M307 212L308 213L307 212z"/>
<path style="fill:#4a8fa9; stroke:none;" d="M179 213C179.2 221.282 185.682 227.169 192 232C191.346 226.828 189.817 223.357 185 221L186 223L179 213z"/>
<path style="fill:#366588; stroke:none;" d="M283 213L284 214L283 213M290 213L291 214L290 213M178 214L178 218L179 218L178 214z"/>
<path style="fill:#4a8fa9; stroke:none;" d="M224 214L221 216L221 217L224 214z"/>
<path style="fill:#366588; stroke:none;" d="M282 214L283 219L284 219L282 214z"/>
<path style="fill:#966e92; stroke:none;" d="M306 214C304.394 221.058 314.555 221.186 320 222L316 217L307 218L306 214z"/>
<path style="fill:#303136; stroke:none;" d="M310 214L311 215L310 214z"/>
<path style="fill:#966e92; stroke:none;" d="M311 214L308 216L308 217L312 217L311 214z"/>
<path style="fill:#303136; stroke:none;" d="M312 214L312 216L314 216L312 214M182 215L182 218L183 218L182 215z"/>
<path style="fill:#4a8fa9; stroke:none;" d="M234 215L235 216L234 215z"/>
<path style="fill:#366588; stroke:none;" d="M284 215L285 216L284 215M311 215L312 216L311 215z"/>
<path style="fill:#966e92; stroke:none;" d="M315 215L316 216L315 215z"/>
<path style="fill:#366588; stroke:none;" d="M334 215L335 216L334 215z"/>
<path style="fill:#303136; stroke:none;" d="M335.333 215.667L335.667 216.333L335.333 215.667z"/>
<path style="fill:#366588; stroke:none;" d="M336 215L336 217L338 215L336 215z"/>
<path style="fill:#303136; stroke:none;" d="M361.333 215.667L361.667 216.333L361.333 215.667z"/>
<path style="fill:#366588; stroke:none;" d="M302 216L289 220L290 224L285 224L287 221L275 232L280 230L280 234L281 234L282 229C285.352 231.652 285.4 233.896 285 238L286 238L288 237C287.477 225.1 294.449 229.141 303 226L302 216z"/>
<path style="fill:#966e92; stroke:none;" d="M345 216L347 218L347 216L345 216z"/>
<path style="fill:#366588; stroke:none;" d="M194 217L194 219L196 219L194 217z"/>
<path style="fill:#303136; stroke:none;" d="M239 217L240 218L239 217z"/>
<path style="fill:#bb2e43; stroke:none;" d="M287 217L287 220L288 220L287 217z"/>
<path style="fill:#303136; stroke:none;" d="M343 217L343 218L346 218L343 217z"/>
<path style="fill:#966e92; stroke:none;" d="M342 222L349 224L359 219C354.331 216.488 344.973 217.361 342 222M282 218L282 221L283 221L282 218z"/>
<path style="fill:#303136; stroke:none;" d="M359 218L359 219L363 221L359 218z"/>
<path style="fill:#966e92; stroke:none;" d="M362 218L366 221L366 220L362 218z"/>
<path style="fill:#366588; stroke:none;" d="M179 219L180 220L179 219z"/>
<path style="fill:#966e92; stroke:none;" d="M232 248L231 243L235 238C222.095 235.084 219.296 230.69 226 219C213.791 225.006 220.691 245.253 232 248z"/>
<path style="fill:#bb2e43; stroke:none;" d="M234 238C233.618 234.026 236.057 225.158 234.758 222.317C233.393 219.33 227.649 219.034 225.275 220.693C213.662 228.806 226.342 236.27 234 238z"/>
<path style="fill:#303136; stroke:none;" d="M228 219L228 220L232 220L228 219z"/>
<path style="fill:#4a8fa9; stroke:none;" d="M299 219L300 220L299 219z"/>
<path style="fill:#366588; stroke:none;" d="M305 219L308 228C309.719 226.292 309.96 225.777 311 228L312 228L317 224C315.552 219.054 309.212 220.457 305 219z"/>
<path style="fill:#303136; stroke:none;" d="M311 219L312 220L311 219z"/>
<path style="fill:#966e92; stroke:none;" d="M339 219L341 222L339 219z"/>
<path style="fill:#366588; stroke:none;" d="M349 224C342.848 220.712 327.116 216.535 323 224L333 226C339.8 220.667 352.922 235.843 354 222L376 228C370.556 221.67 354.57 214.433 349 224M362 219L363 220L362 219z"/>
<path style="fill:#303136; stroke:none;" d="M187 220L188 221L187 220M308 220L309 221L308 220M312 220L313 221L312 220M312 228L317 228C318.991 224.572 321.237 224.824 325 225L325 224L325 220C319.897 220.884 314.002 222.913 312 228M338 220L339 221L338 220z"/>
<path style="fill:#366588; stroke:none;" d="M180 221L181 222L180 221z"/>
<path style="fill:#303136; stroke:none;" d="M188 221L188 223L190 223L188 221M339 221L340 222L339 221M341 221L342 222L341 221M344.667 221.333L345.333 221.667L344.667 221.333M366.333 221.667L366.667 222.333L366.333 221.667z"/>
<path style="fill:#366588; stroke:none;" d="M181 222L182 223L181 222M192 222L193 223L192 222z"/>
<path style="fill:#4a8fa9; stroke:none;" d="M285 224L290 223L285 224z"/>
<path style="fill:#303136; stroke:none;" d="M310 222L310 224L312 222L310 222z"/>
<path style="fill:#966e92; stroke:none;" d="M354 222C353.286 226.479 351.172 227.677 347 229L347 230L364 231L364 232L352 238L354 241L354 242L352 244C359.725 241.738 361.041 237.486 366 232L367 250C357.663 243.284 353.138 248.438 354 258L364 252L367 254L367 255C360.911 256.233 358.286 259.961 360 266L350 267L352 269L352 270L352 271L345 274L349 278L349 274L358 270L356 281L357 281C358.43 278.199 359.548 274.971 363 276L364 276L367 273C367.591 270.225 368.49 263.694 370.713 261.832C374.933 258.298 372.629 266.796 372 268C375.389 265.548 378.438 262.128 379.699 258C380.861 254.197 377.03 250.002 382 249L380 247L380 246C387.827 243.245 379.173 231.862 379 226L377 227L377 223L376 223L375 225L367 222L367 223L376 228L373 231L373 232C375.651 236.113 374.792 238.075 371 241C368.612 229.615 365.632 224.181 354 222M378.333 222.667L378.667 223.333L378.333 222.667z"/>
<path style="fill:#366588; stroke:none;" d="M183 223L184 224L183 223z"/>
<path style="fill:#303136; stroke:none;" d="M190 223L190 225L192 225L190 223M338 223L337 225L339 225L338 223z"/>
<path style="fill:#966e92; stroke:none;" d="M318 224L317 226L318 224z"/>
<path style="fill:#bb2e43; stroke:none;" d="M312 240L306 243L311 245L301 255.167L294 257C290.185 256.118 286.317 256.63 286 252L285 252C283.44 257.123 279.942 263.817 279.56 269C278.779 279.587 290.986 303.547 276 308L277 315L273 309L269 310L280 301L280 292C272.678 292.471 270.321 296.857 265 301L265 295L264 295C260.817 301.451 259.852 304.42 252 304C252.93 310.868 254.672 314.278 262 313C261.531 320.937 270.581 322.863 277 323L276 327L280 334L270 330L278 345L279 345L284 338C283.49 341.469 280.957 346.812 283.147 350.053C285.521 353.565 290.519 351.849 294 352.934C304.403 356.179 310.116 360.604 313 346L314 346L313 352C320.027 348.456 319.621 338.399 323.93 332.333C327.211 327.714 330.518 330.751 334.714 329.304C340.22 327.405 339.996 320.675 340 316L337 317L339 319L335 320L333 312L334 307L333 307L332 317C317.049 319.593 323.819 290.004 307 291C305.307 282.994 298.061 282.005 291 282C295.297 273.793 306.254 269.621 314 265C314.513 261.165 318.17 263.334 321 264L321 266C311.586 270.175 308.104 271.151 314 281L312 278L311 278C311.199 284.136 313.949 288.3 320 290L319 285L315 286L315 285L317 285L317 284L314 284L314 283C321.117 283.541 329.039 279.888 334 286C338.668 285.355 342.501 284.194 345 280L343 281L343 280L344 276L345 274C349.18 271.628 350.905 267.687 350 263L359 261L367 255L367 254L364 252L354 258C353.999 247.963 357.471 245.299 367 250L366 232L352 244L354 242L354 241L352 238C357.467 238.434 360.078 235.37 364 232L364 231L337 227L337 226L339 226C335.853 225.129 333.27 227.539 329.996 227.422C326.81 227.308 324.213 224.86 321.039 224.846C311.112 224.802 305.59 231.968 312 240z"/>
<path style="fill:#303136; stroke:none;" d="M333 224L333 227L336 227L336 224L333 224z"/>
<path style="fill:#966e92; stroke:none;" d="M336 224L337 225L336 224M337 226L337 227L345 229C343.034 225.094 341.006 224.074 337 226z"/>
<path style="fill:#303136; stroke:none;" d="M192.667 225.333L193.333 225.667L192.667 225.333M309 225L309 228L311 228L311 225L309 225z"/>
<path style="fill:#966e92; stroke:none;" d="M324.667 225.333L325.333 225.667L324.667 225.333M326 226L326 227L333 227L326 226z"/>
<path style="fill:#4a8fa9; stroke:none;" d="M367 225L371 241L376 234L373 235L371 228L374 229L367 225z"/>
<path style="fill:#366588; stroke:none;" d="M186 226L187 227L186 226M187 227L188 228L187 227M212 227L211 232L213 231L213 232C212.179 238.666 215.588 238.445 220 241L221 241L219 229L212 227z"/>
<path style="fill:#966e92; stroke:none;" d="M308 227L308 230L309 230L308 227z"/>
<path style="fill:#4a8fa9; stroke:none;" d="M192.667 228.333L193.333 228.667L192.667 228.333z"/>
<path style="fill:#366588; stroke:none;" d="M368 228L369 229L368 228M371 228L374 235L375 234L373 232L373 231L375 229L371 228M198 230L199 231L198 230z"/>
<path style="fill:#4a8fa9; stroke:none;" d="M192 232L193 233L192 232z"/>
<path style="fill:#366588; stroke:none;" d="M271 235L274 232L271 235z"/>
<path style="fill:#966e92; stroke:none;" d="M350 234L353 232L350 234z"/>
<path style="fill:#366588; stroke:none;" d="M240 234L235 239L237 239L235 244L248 250L249 250L251 248L252 251L245 254L246 251L236 251L234 253L235 250L232 249L228 255L230 261L238 267L241 264L234 260L234 259C237.604 259.485 243.099 260.14 244 256L245 256L243 266L244 266L248 264L249 264L250 264L256 260L255 257L261 262L267 261L265 257L262 258L269 248L266 249L268 245L268 244L271 235L247 244L246 240C239.656 241.524 240.955 238.864 240 234M204 235L205 236L204 235M205 236L206 237L205 236z"/>
<path style="fill:#966e92; stroke:none;" d="M286 236L286 240L287 240L286 236z"/>
<path style="fill:#366588; stroke:none;" d="M207 237L208 238L207 237z"/>
<path style="fill:#4a8fa9; stroke:none;" d="M222 237L221 241L220 241L219 239L214 247L210 245C211.476 250.925 213.605 254.79 220 255L216 249L221 247L231 255L232 249L239 248L240 252L246 251L245 254L252 251L252 249L251 248L249 250L248 250C247.169 246.122 238.847 244.259 235 244L237 239L231 243L232 248L228 251L226 251L225 250L222 237z"/>
<path style="fill:#366588; stroke:none;" d="M370.333 237.667L370.667 238.333L370.333 237.667M382 237L383 238L382 237M210.667 238.333L211.333 238.667L210.667 238.333M246 240L249 238L246 240M375 239L374 243L375 239M229 240L231 243L232 242L229 240M285.333 240.667L285.667 241.333L285.333 240.667M210 244L210 245L214 247L216 241L210 244M375 251L374 248L380 241C375.544 242.376 371.296 246.854 375 251z"/>
<path style="fill:#bb2e43; stroke:none;" d="M380 242L380 244L382 244L380 242z"/>
<path style="fill:#4a8fa9; stroke:none;" d="M263 243L263 246L264 246L263 243z"/>
<path style="fill:#366588; stroke:none;" d="M268 243L269 244L268 243z"/>
<path style="fill:#bb2e43; stroke:none;" d="M286 244L285 246L287 246L286 244z"/>
<path style="fill:#366588; stroke:none;" d="M303 244L302 246L304 246L303 244M383 244L385 259C389.263 254.03 385.88 249.666 385 244L383 244M209.333 245.667L209.667 246.333L209.333 245.667M226 246L226 251L228 251L228 246L226 246M269 246L269 248L271 248L271 246L269 246z"/>
<path style="fill:#966e92; stroke:none;" d="M285 246L284 252L285 246z"/>
<path style="fill:#bb2e43; stroke:none;" d="M380.667 246.333L381.333 246.667L380.667 246.333z"/>
<path style="fill:#366588; stroke:none;" d="M216 247L217 248L216 247M216 249L218 255L218 256L222 256L221 247L216 249z"/>
<path style="fill:#4a8fa9; stroke:none;" d="M256 247L257 248L256 247z"/>
<path style="fill:#366588; stroke:none;" d="M299 247L298 249L300 249L299 247M370 247L371 248L370 247M210 248L211 249L210 248z"/>
<path style="fill:#966e92; stroke:none;" d="M234 250L240 252C238.311 249.389 236.846 248.568 234 250z"/>
<path style="fill:#366588; stroke:none;" d="M238 248L238 250L240 250L238 248M379 248L380 249L379 248M211 249L212 250L211 249M284 249L285 250L284 249M378 249L379 253L380 253L378 249M381 249L382 250L381 249M212 250L212 254L213 254L212 250z"/>
<path style="fill:#966e92; stroke:none;" d="M223 250L227.225 265.896L234 276L255 278L255 276L250 276L250 275L256 275C253.507 266.883 248.19 274.75 244 277L245 273L243 273L250 265L250 264L243 266L245 258L241 264L238 267L230 261C229.434 255.712 227.774 252.532 223 250z"/>
<path style="fill:#4a8fa9; stroke:none;" d="M262 250L260 254L262 250z"/>
<path style="fill:#366588; stroke:none;" d="M228.667 251.333L229.333 251.667L228.667 251.333z"/>
<path style="fill:#303136; stroke:none;" d="M234 251L237 253L234 251z"/>
<path style="fill:#366588; stroke:none;" d="M288 251L288 254L290 253L290 252L288 251z"/>
<path style="fill:#bb2e43; stroke:none;" d="M361 251L362 252L361 251M365 251L366 252L365 251M370 252L371 253L370 252z"/>
<path style="fill:#366588; stroke:none;" d="M223 253C222.106 259.881 220.553 263.838 213 263C213.263 265.818 213.127 268.542 210 269L207 275L208 275L216 268L214 265L220 266L220 267L209 277C212.343 284.177 215.712 283.04 222 280L218 285L227 280C227.197 283.569 227.462 285.757 231 287L228 290L233 309L231 315L232 315L235 310L234 306L238 308L239 308L241 307L240 301L241 301L242 307L245 305L245 315L236 311L238 315C244.205 316.156 245.122 327.935 239.57 330.788C236.004 332.62 223.928 326.232 221 324L208 318C208.729 309.983 201.709 303.31 207 296L206 301L214 297L213 291L208 296L205 296L200 281C175.062 281.162 159.376 310.853 155 332L156 332C160.984 322.167 169.247 311.338 170 300L175 299L174 301L185 291L187 293L186 288L189 289L195 282L199 285L199 287L194 291L199 288L202 296L189 293L199 307L196 296L197 296L202 303C201.747 308.905 200.437 313.427 205 318L205 319L201 324L203 322L204 322L207 324L208 328L208 329L198 330L198 334L194 330L191 331L194 336L193 347L198 349L195 348L200 358L199 358L193 348L192 348L193 358L187 361L207 375C202.474 373.431 198.06 371.163 195 376L194 376C194.902 370.827 194.324 368.437 189 367L193 373C183.539 374.199 174.894 359.532 175 351L169 350L169 349L174 348L169 334L166 334L167 330C160.819 326.936 157.849 329.794 156 336L155 336L155 333L154 333L155 339L154 339L154 337L153 337L152 351L153 351L163 332L161 344L163 344L162 347L168 348L168 349L164 348L169 352L166 356L170 358L170 359L158 350C155.248 354.484 159.721 359.375 161 364L162 364L162 362L163 362L158 384L160 377L161 377C161.445 379.88 167.017 387.931 168 382L170 384L178 384L178 374L179 374L181 380L184 378L183 382L179 380C181.56 384.173 190.953 386.357 195.234 382.987C197.294 381.365 198.026 376.407 199 374L200 374L201 380L198 381L198 384L203 384L205 379L213 384L210 381L210 380L214 384L242 384L241 381L245 380C246.265 383.801 248.312 383.768 252 383L251 379L261 378L259 376L259 375L263 372L261 376L266 376L262 381C267.379 386.492 279.734 384 287 384C284.633 375.681 281.6 373.485 274 370L273 372L272 372L273 364L260 362L267 366L256 366C258.391 360.792 262.673 359.846 268 361C266.089 355.429 261.063 351.754 256 349L256 348L265 349L264 353L265 353L266 353L265 351L266 351L282 365L282 366L279 367L289 378L287 372L294 384L300 384L299 380C302.481 382.454 304.074 382.351 308 381L304 373C306.503 372.391 307.614 371.105 308 374L309 374L317 366L314 361L317 363L321 362L323 372L326 375L324 374L323 380L324 376L323 376L319 378L321 370L318 369L311 374L312 384C315.931 383.688 317.315 382.543 319 379L321 384L328 381L328.092 370.999L323 357L321 352L318 351L317 351C308.066 356.962 306.029 358.293 296 356L296 361C291.388 355.525 291.664 352.949 284 352L285 355L277 349L282 351C279.425 345.26 273.477 344.317 268 342.246C259.242 338.935 252.441 333.201 243 332L249 324L247 322L247 321L250 322C247.983 311.136 248.729 305.94 257 299L249 301L250 286L255 287L251 284L254 278L238 277L238 280L234 281L232 277L236 279L227.144 264.957L223 253M290 253L290 254L293 254L290 253z"/>
<path style="fill:#303136; stroke:none;" d="M370 253L371 254L370 253z"/>
<path style="fill:#366588; stroke:none;" d="M213 254L214 255L213 254z"/>
<path style="fill:#966e92; stroke:none;" d="M285 254L286 255L285 254z"/>
<path style="fill:#366588; stroke:none;" d="M287 254L288 255L287 254z"/>
<path style="fill:#966e92; stroke:none;" d="M291 254L294 257L294 254L291 254z"/>
<path style="fill:#4a8fa9; stroke:none;" d="M231 255L231 256L235 256L231 255z"/>
<path style="fill:#303136; stroke:none;" d="M248 256L248 257L253 256L248 256z"/>
<path style="fill:#966e92; stroke:none;" d="M287.333 255.667L287.667 256.333L287.333 255.667z"/>
<path style="fill:#366588; stroke:none;" d="M381 255L382 256L381 255z"/>
<path style="fill:#966e92; stroke:none;" d="M232 256L233 257L232 256z"/>
<path style="fill:#4a8fa9; stroke:none;" d="M244.333 256.667L244.667 257.333L244.333 256.667z"/>
<path style="fill:#366588; stroke:none;" d="M380 256L381 257L380 256z"/>
<path style="fill:#966e92; stroke:none;" d="M255 257L259 258L255 257z"/>
<path style="fill:#366588; stroke:none;" d="M212.333 258.667L212.667 259.333L212.333 258.667z"/>
<path style="fill:#4a8fa9; stroke:none;" d="M238 259L239 263L242 258L238 259z"/>
<path style="fill:#303136; stroke:none;" d="M367 260L370 259L367 260z"/>
<path style="fill:#966e92; stroke:none;" d="M384 258L385 259L384 258M234 259L234 260L238 261L234 259z"/>
<path style="fill:#303136; stroke:none;" d="M252 259L253 260L252 259z"/>
<path style="fill:#366588; stroke:none;" d="M365.667 259.333L366.333 259.667L365.667 259.333M379 259L380 260L379 259z"/>
<path style="fill:#303136; stroke:none;" d="M350 263L351 267C355.058 265.681 358.729 264.79 358 260L350 263z"/>
<path style="fill:#366588; stroke:none;" d="M370 260L371 261L370 260z"/>
<path style="fill:#303136; stroke:none;" d="M371 260L369 263L371 260z"/>
<path style="fill:#366588; stroke:none;" d="M372 260L369 263L369 264L374 266L372 260z"/>
<path style="fill:#bb2e43; stroke:none;" d="M375.667 260.333L376.333 260.667L375.667 260.333z"/>
<path style="fill:#366588; stroke:none;" d="M212 261L213 262L212 261z"/>
<path style="fill:#966e92; stroke:none;" d="M258 263L261 261L258 263z"/>
<path style="fill:#366588; stroke:none;" d="M360 262L360 263L364 261L360 262z"/>
<path style="fill:#303136; stroke:none;" d="M374.333 261.667L374.667 262.333L374.333 261.667z"/>
<path style="fill:#bb2e43; stroke:none;" d="M200 277L204 271C209.524 271.327 211.743 267.106 211 262C203.578 264.601 200.636 269.275 200 277z"/>
<path style="fill:#966e92; stroke:none;" d="M212 262L214 265L212 262z"/>
<path style="fill:#4a8fa9; stroke:none;" d="M223 262L225 265L223 262M225 262L226 263L225 262z"/>
<path style="fill:#303136; stroke:none;" d="M236 262L237 263L236 262M244 265L248 262L244 265z"/>
<path style="fill:#366588; stroke:none;" d="M267 262L266 264L268 264L267 262z"/>
<path style="fill:#303136; stroke:none;" d="M212 264L211 267L212 264z"/>
<path style="fill:#bb2e43; stroke:none;" d="M250 264L248 267L250 264z"/>
<path style="fill:#366588; stroke:none;" d="M357 266L360 266L359 264L357 266M376 264L377 265L376 264z"/>
<path style="fill:#966e92; stroke:none;" d="M203 265L204 266L203 265M214 265L214 267L216 265L214 265M251 265L252 266L251 265z"/>
<path style="fill:#366588; stroke:none;" d="M354 265L355 266L354 265M369 265L369 267L371 265L369 265M375 265L376 266L375 265z"/>
<path style="fill:#bb2e43; stroke:none;" d="M201 266L200 268L201 266z"/>
<path style="fill:#966e92; stroke:none;" d="M202 266C197.657 271.697 197.425 276.8 201 283L204 281L205 296L208 296L213 291L214 297C203.307 298.219 202.77 314.699 211 319L214 310L209 304L223 300L222 297C229.075 303.124 228.062 315.598 227 324L231 324L229 307L233 309L228 290L231 289L231 288C227.235 287.511 227.167 283.309 227 280L219.946 283.997L206 279L210 270L204 271L200 277L202 266z"/>
<path style="fill:#4a8fa9; stroke:none;" d="M215 266L206 278L220 267L215 266z"/>
<path style="fill:#303136; stroke:none;" d="M221 268L224 267L221 268z"/>
<path style="fill:#366588; stroke:none;" d="M372 266L373 267L372 266M374 266L375 267L374 266z"/>
<path style="fill:#966e92; stroke:none;" d="M210 269L211 270L213 267L210 269z"/>
<path style="fill:#303136; stroke:none;" d="M364 267L362 272L364 267z"/>
<path style="fill:#366588; stroke:none;" d="M373 267L374 268L373 267z"/>
<path style="fill:#966e92; stroke:none;" d="M280.333 268.667L280.667 269.333L280.333 268.667z"/>
<path style="fill:#366588; stroke:none;" d="M352 268L353 269L352 268M363 268L364 269L363 268M371 268L372 269L371 268M234 269L234 270L239 272L234 269M244 269L245 270L244 269M276 269L275 273L276 273L276 269z"/>
<path style="fill:#303136; stroke:none;" d="M349 269L348 273L352 269L349 269M219 270L220 271L219 270z"/>
<path style="fill:#366588; stroke:none;" d="M245 270L245 275L246 275L248 270L245 270M251 270L252 271L251 270M255 272L259 270L255 272z"/>
<path style="fill:#966e92; stroke:none;" d="M279 270L268 289L272 287C271.101 290.575 269.608 291.119 266 291L264 294L264 295L266 299C269.773 297.741 271.933 293.703 275.96 292.917C282.299 291.679 280.884 302.267 281 306C284.312 303.411 281.931 299.76 282.073 296C282.436 286.431 283.056 279.399 279 270z"/>
<path style="fill:#366588; stroke:none;" d="M357 270L358 271L357 270M362 270L363 271L362 270M364 270L365 271L364 270M249.667 271.333L250.333 271.667L249.667 271.333z"/>
<path style="fill:#966e92; stroke:none;" d="M348 271L349 272L348 271z"/>
<path style="fill:#366588; stroke:none;" d="M356 271L357 272L356 271M368 271L369 272L368 271z"/>
<path style="fill:#303136; stroke:none;" d="M217.667 272.333L218.333 272.667L217.667 272.333z"/>
<path style="fill:#bb2e43; stroke:none;" d="M239.333 272.667L239.667 273.333L239.333 272.667z"/>
<path style="fill:#966e92; stroke:none;" d="M338 272L339 281L341 281L340 272L338 272z"/>
<path style="fill:#366588; stroke:none;" d="M358 272L359 273L358 272z"/>
<path style="fill:#966e92; stroke:none;" d="M208 273L209 274L208 273z"/>
<path style="fill:#366588; stroke:none;" d="M248 273L249 274L248 273M276 273L277 274L276 273z"/>
<path style="fill:#bb2e43; stroke:none;" d="M364 276L367 273L364 276z"/>
<path style="fill:#366588; stroke:none;" d="M247 274L248 275L247 274M250 275L250 276L258 278C255.503 275.008 253.836 274.149 250 275M272 274L268 278L268 276L263 277L263 278L267 278L266 281L270 279L271 282L274 274L272 274M275 274L276 275L275 274M351 274L352 275L351 274M357 274L358 275L357 274z"/>
<path style="fill:#303136; stroke:none;" d="M235 276L236 279L238 277L241 279C239.38 276.059 238.314 275.501 235 276z"/>
<path style="fill:#966e92; stroke:none;" d="M336 275L337 276L336 275z"/>
<path style="fill:#366588; stroke:none;" d="M359.667 275.333L360.333 275.667L359.667 275.333M246 276L247 277L246 276M363 276L359 284C361.886 281.803 364.171 279.738 363 276z"/>
<path style="fill:#966e92; stroke:none;" d="M230 277L231 278L230 277M232 277L234 281L238 280L238 279L232 277M311 277L312 278L311 277z"/>
<path style="fill:#303136; stroke:none;" d="M312 277L314 281L312 277z"/>
<path style="fill:#366588; stroke:none;" d="M365 277L366 278L365 277M206 278L207 279L206 278z"/>
<path style="fill:#4a8fa9; stroke:none;" d="M221 278L222 280L223 280L224 278L221 278z"/>
<path style="fill:#966e92; stroke:none;" d="M256 278L257 279L256 278M349 278L348 281L351 279L349 278z"/>
<path style="fill:#bb2e43; stroke:none;" d="M350 278L349 280L349 281L352 282L352 283L349 284L349 285L352 287L357 287L350 278z"/>
<path style="fill:#303136; stroke:none;" d="M245 279L244 281L246 281L245 279z"/>
<path style="fill:#4a8fa9; stroke:none;" d="M268 279L269 283L263 289C268.033 287.575 270.675 284.259 270 279L268 279z"/>
<path style="fill:#bb2e43; stroke:none;" d="M274 283L278 284L278 279L274 283z"/>
<path style="fill:#966e92; stroke:none;" d="M343 279L343 281L345 279L343 279z"/>
<path style="fill:#bb2e43; stroke:none;" d="M354.667 279.333L355.333 279.667L354.667 279.333z"/>
<path style="fill:#4a8fa9; stroke:none;" d="M217 284L222 280L217 284z"/>
<path style="fill:#966e92; stroke:none;" d="M267 280L268 281L267 280z"/>
<path style="fill:#4a8fa9; stroke:none;" d="M202 281L202 284L204 283L204 282L202 281z"/>
<path style="fill:#366588; stroke:none;" d="M203 281L204 282L203 281M257 281L258 282L257 281z"/>
<path style="fill:#966e92; stroke:none;" d="M347 281L348 282L347 281z"/>
<path style="fill:#4a8fa9; stroke:none;" d="M195 282L185 291L174 301L175 299L174 299L170 300C169.783 303.961 169.079 308.083 174 308L178 313L174 318L173 318L173 331L172 331L171 327L167 329L167 322L168 322L171 324L171 315L167 321L167 312C162.213 315.068 155.604 330.154 155 336L156 336C158.56 330.197 160.842 327.752 167 330L166 334L169 334C168.041 339.589 171.007 343.476 174 348L169 349L169 350L175 351L180 366L182 366L186 363L189 370L189 367C193.757 368.935 194.467 371.042 194 376L195 376C199.013 371.787 202.006 373.89 207 375C204.881 368.494 193.031 363.634 187 361L193 358L192 348L193 348L199 357L200 357L195 348L198 349L193 347L194 336L191 331L194 330L198 334L198 330L208 329L208 328L207 324L204 322L203 322L201 324L205 319L205 318C201.386 312.839 201.88 309.023 202 303L197 296L196 296L199 307L189 293L202 296L199 288L194 291L199 287L199 285L195 282M200 282L201 283L200 282z"/>
<path style="fill:#366588; stroke:none;" d="M263 286L269 283L263 286M280.333 282.667L280.667 283.333L280.333 282.667M205 283L205 288L206 288L205 283z"/>
<path style="fill:#303136; stroke:none;" d="M244 283L245 284L244 283z"/>
<path style="fill:#366588; stroke:none;" d="M272.333 283.667L272.667 284.333L272.333 283.667z"/>
<path style="fill:#bb2e43; stroke:none;" d="M344 283L345 284L344 283z"/>
<path style="fill:#966e92; stroke:none;" d="M352.333 283.667L352.667 284.333L352.333 283.667M333 284L334 285L333 284z"/>
<path style="fill:#303136; stroke:none;" d="M238 285L239 286L238 285z"/>
<path style="fill:#366588; stroke:none;" d="M269 285L270 286L269 285z"/>
<path style="fill:#bb2e43; stroke:none;" d="M342 288L348 286L342 288z"/>
<path style="fill:#966e92; stroke:none;" d="M334 294L333 293L335 287L330 288L331 300L333 305L329 304L328 307L328 308L329 317L330 317L333 307C337.423 306.278 335.105 299.004 334 296L337 297C341.327 287.277 348.508 289.736 357 288L352 287C347.157 281.759 337.828 291.089 334 294z"/>
<path style="fill:#366588; stroke:none;" d="M358 285L359 286L358 285M215 286L214 289L217 289L215 286M262 286L262 290L266 290L266 289L262 286M266 289L269 286L266 289M276 286L275 290L281 291L282 287L276 286z"/>
<path style="fill:#4a8fa9; stroke:none;" d="M280 286L281 287L280 286z"/>
<path style="fill:#966e92; stroke:none;" d="M357 286L358 287L357 286z"/>
<path style="fill:#4a8fa9; stroke:none;" d="M199.667 287.333L200.333 287.667L199.667 287.333M228 287L229 289L230 289L231 287L228 287z"/>
<path style="fill:#bb2e43; stroke:none;" d="M267 291C270.474 291.341 272.065 290.621 272 287L267 291z"/>
<path style="fill:#366588; stroke:none;" d="M330 291L330 292L324 291L331 296L331 297L328 298L332 299L330 288L332 289C329.902 286.776 327.776 288.902 330 291M333 287L334 288L333 287z"/>
<path style="fill:#bb2e43; stroke:none;" d="M349 287L350 288L349 287z"/>
<path style="fill:#4a8fa9; stroke:none;" d="M183 288L184 289L183 288z"/>
<path style="fill:#966e92; stroke:none;" d="M186 288L188 290L188 288L186 288z"/>
<path style="fill:#366588; stroke:none;" d="M192 288L193 289L192 288z"/>
<path style="fill:#966e92; stroke:none;" d="M232 288L232 290L235 290L235 288L232 288M245 288L246 289L245 288z"/>
<path style="fill:#bb2e43; stroke:none;" d="M334 291L340 289C337.238 287.409 334.714 287.669 334 291z"/>
<path style="fill:#366588; stroke:none;" d="M255 289L256 290L255 289z"/>
<path style="fill:#303136; stroke:none;" d="M201.667 290.333L202.333 290.667L201.667 290.333z"/>
<path style="fill:#366588; stroke:none;" d="M208.333 290.667L208.667 291.333L208.333 290.667M321.667 290.333L322.333 290.667L321.667 290.333z"/>
<path style="fill:#303136; stroke:none;" d="M337 290L333 291L334 294L337 290z"/>
<path style="fill:#366588; stroke:none;" d="M343 290L344 291L343 290z"/>
<path style="fill:#4a8fa9; stroke:none;" d="M209.667 291.333L210.333 291.667L209.667 291.333z"/>
<path style="fill:#303136; stroke:none;" d="M270 291L271 292L270 291z"/>
<path style="fill:#966e92; stroke:none;" d="M352 291L348 294L348 295L352 291z"/>
<path style="fill:#366588; stroke:none;" d="M353 291L354 292L353 291M222 292L224 294L224 292L222 292z"/>
<path style="fill:#303136; stroke:none;" d="M246 292L245 294L247 294L246 292z"/>
<path style="fill:#366588; stroke:none;" d="M256 292L256 298L259 301L256 302L256 303L261 303L262 294L256 292z"/>
<path style="fill:#303136; stroke:none;" d="M306 292L308 296L306 292M240 293L241 294L240 293z"/>
<path style="fill:#bb2e43; stroke:none;" d="M335 293L336 294L335 293z"/>
<path style="fill:#366588; stroke:none;" d="M351 293L352 294L351 293z"/>
<path style="fill:#303136; stroke:none;" d="M176 294L174 297L176 294M280 294L281 301L280 294z"/>
<path style="fill:#366588; stroke:none;" d="M340.667 294.333L341.333 294.667L340.667 294.333M348 295L349 296L348 295z"/>
<path style="fill:#4a8fa9; stroke:none;" d="M202 296L203 297L202 296M206 296L204 302L205 302L206 296z"/>
<path style="fill:#303136; stroke:none;" d="M218.667 296.333L219.333 296.667L218.667 296.333M236.333 296.667L236.667 297.333L236.333 296.667z"/>
<path style="fill:#bb2e43; stroke:none;" d="M334 296L335 300L336 300L334 296M222 297L226 301L222 297z"/>
<path style="fill:#366588; stroke:none;" d="M217 299L218 300L217 299z"/>
<path style="fill:#303136; stroke:none;" d="M209 304L214 310C211.305 316.618 211.007 325.495 221 324C223.308 326.658 236.805 333.369 240.272 330.932C245.455 327.29 244.712 315.637 238 315L236 311L245 315L245 305L238 308L234 306L235 310C230.436 312.959 232 320.087 232 325L227 325C227.485 318.851 229.993 306.885 224 303L225 300L224 300L223 302C219.241 296.268 213.714 302.703 209 304M266.667 299.333L267.333 299.667L266.667 299.333z"/>
<path style="fill:#366588; stroke:none;" d="M223.333 300.667L223.667 301.333L223.333 300.667z"/>
<path style="fill:#4a8fa9; stroke:none;" d="M239 300L240 301L239 300z"/>
<path style="fill:#966e92; stroke:none;" d="M260 300L262 303L262 300L260 300M265.667 300.333L266.333 300.667L265.667 300.333z"/>
<path style="fill:#303136; stroke:none;" d="M278 300L269 310L277 306L277 308L281 307L281 306L278 306L278 305L281 304L278 300z"/>
<path style="fill:#366588; stroke:none;" d="M327 300L328 301L327 300M329 300L333 305L333 300L329 300z"/>
<path style="fill:#303136; stroke:none;" d="M333.333 300.667L333.667 301.333L333.333 300.667z"/>
<path style="fill:#bb2e43; stroke:none;" d="M342 301L343 306L347 306L347 301L342 301z"/>
<path style="fill:#966e92; stroke:none;" d="M345 300L345 301L348 301L345 300z"/>
<path style="fill:#366588; stroke:none;" d="M188 301L188 305L191 304L188 301z"/>
<path style="fill:#4a8fa9; stroke:none;" d="M240 301L241 307L242 307L240 301z"/>
<path style="fill:#966e92; stroke:none;" d="M343 301L344 302L343 301z"/>
<path style="fill:#366588; stroke:none;" d="M224.667 302.333L225.333 302.667L224.667 302.333z"/>
<path style="fill:#303136; stroke:none;" d="M235 302L234 305L235 302z"/>
<path style="fill:#966e92; stroke:none;" d="M257 302L255 305L257 302z"/>
<path style="fill:#366588; stroke:none;" d="M280 302L281 303L280 302z"/>
<path style="fill:#966e92; stroke:none;" d="M340 304L343 303L340 304z"/>
<path style="fill:#366588; stroke:none;" d="M173 303L173 307L174 307L173 303z"/>
<path style="fill:#303136; stroke:none;" d="M258 303L259 304L258 303z"/>
<path style="fill:#966e92; stroke:none;" d="M259.667 303.333L260.333 303.667L259.667 303.333z"/>
<path style="fill:#366588; stroke:none;" d="M281 303L278 305L278 306L281 303z"/>
<path style="fill:#bb2e43; stroke:none;" d="M341 303L342 304L341 303z"/>
<path style="fill:#366588; stroke:none;" d="M176 304L175 307L176 304z"/>
<path style="fill:#bb2e43; stroke:none;" d="M228 304L228 307L229 307L228 304M325 304L326 305L325 304z"/>
<path style="fill:#966e92; stroke:none;" d="M327 304L328 305L327 304z"/>
<path style="fill:#bb2e43; stroke:none;" d="M328 304L327 305L327 306L328 307L329 307L330 306L330 305L328 304M338 304L339 305L338 304z"/>
<path style="fill:#966e92; stroke:none;" d="M339 304L340 305L339 304M168 305L167 313C171.4 311.447 170.829 308.058 168 305z"/>
<path style="fill:#366588; stroke:none;" d="M191 305L186 309L192 309L193 305L191 305M273 307L273 308L277 307L273 307z"/>
<path style="fill:#966e92; stroke:none;" d="M346 306L343 313L344 313L346 306z"/>
<path style="fill:#bb2e43; stroke:none;" d="M229 307L230 308L229 307z"/>
<path style="fill:#966e92; stroke:none;" d="M276 307L277 308L276 307z"/>
<path style="fill:#366588; stroke:none;" d="M173 308C169.352 311.639 163.649 315.577 167 321L171 315L171 324L168 322L167 322L167 329L171 327L172 331L173 331L173 318L174 318L175 320L178 313L173 308M175.333 308.667L175.667 309.333L175.333 308.667M178 308L178 313L180 313L180 308L178 308z"/>
<path style="fill:#303136; stroke:none;" d="M229 308L230 320L231 320L231 308L229 308z"/>
<path style="fill:#966e92; stroke:none;" d="M272 308L272 309L276 309L272 308z"/>
<path style="fill:#366588; stroke:none;" d="M194 309L191 317L194 309M215 309L215 310L219 310L215 309z"/>
<path style="fill:#966e92; stroke:none;" d="M271 309L272 310L271 309z"/>
<path style="fill:#303136; stroke:none;" d="M273 309L277 315C277.54 311.325 276.536 310.073 273 309M287 309L287 316L294 311L290 311L287 309z"/>
<path style="fill:#366588; stroke:none;" d="M330 310L331 313L330 310M100 314L104 312L100 314M227.333 311.667L227.667 312.333L227.333 311.667M342 311L344 314L342 311M2 312L3 313L2 312z"/>
<path style="fill:#966e92; stroke:none;" d="M333.667 312.333L334.333 312.667L333.667 312.333M261 313L262 314L261 313z"/>
<path style="fill:#366588; stroke:none;" d="M329.333 313.667L329.667 314.333L329.333 313.667z"/>
<path style="fill:#bb2e43; stroke:none;" d="M229 314L229 317L230 317L229 314z"/>
<path style="fill:#966e92; stroke:none;" d="M257.667 314.333L258.333 314.667L257.667 314.333z"/>
<path style="fill:#303136; stroke:none;" d="M331 314L332 315L331 314z"/>
<path style="fill:#966e92; stroke:none;" d="M340 317L343 314L340 317z"/>
<path style="fill:#bb2e43; stroke:none;" d="M211 315L212 316L211 315z"/>
<path style="fill:#966e92; stroke:none;" d="M231 315L232 316L231 315M260 315L260 317L262 317L260 315M332 315L333 316L332 315z"/>
<path style="fill:#366588; stroke:none;" d="M231 316L231 324L227 324L227 325L232 325L231 316M237 316L236 321L237 321L239 316L237 316z"/>
<path style="fill:#303136; stroke:none;" d="M330.667 316.333L331.333 316.667L330.667 316.333z"/>
<path style="fill:#966e92; stroke:none;" d="M260 318L262 320L262 318L260 318M335 319L335 320L339 319L335 319z"/>
<path style="fill:#366588; stroke:none;" d="M213 319L214 320L213 319M229 319L230 320L229 319z"/>
<path style="fill:#966e92; stroke:none;" d="M208 320L209 321L208 320z"/>
<path style="fill:#366588; stroke:none;" d="M216 320L216 322L218 320L216 320M227 320L228 321L227 320M240 320L241 321L240 320M253 320L254 321L253 320z"/>
<path style="fill:#303136; stroke:none;" d="M160 321L161 322L160 321z"/>
<path style="fill:#366588; stroke:none;" d="M176 321L175 327L177 327L176 321z"/>
<path style="fill:#966e92; stroke:none;" d="M177 321L178 322L177 321z"/>
<path style="fill:#4a8fa9; stroke:none;" d="M208 321L209 322L208 321z"/>
<path style="fill:#966e92; stroke:none;" d="M250 321L255 325L250 321z"/>
<path style="fill:#366588; stroke:none;" d="M251 321L252 322L251 321z"/>
<path style="fill:#966e92; stroke:none;" d="M182 322L183 323L182 322z"/>
<path style="fill:#4a8fa9; stroke:none;" d="M244 322L244 324L246 322L244 322z"/>
<path style="fill:#bb2e43; stroke:none;" d="M254 323L255 324L254 323z"/>
<path style="fill:#366588; stroke:none;" d="M196.333 324.667L196.667 325.333L196.333 324.667z"/>
<path style="fill:#bb2e43; stroke:none;" d="M255 324L256 325L255 324z"/>
<path style="fill:#366588; stroke:none;" d="M203 325L203 327L205 325L203 325z"/>
<path style="fill:#4a8fa9; stroke:none;" d="M208 325L221 332L221 331L214 326L214 328L208 325z"/>
<path style="fill:#bb2e43; stroke:none;" d="M256.667 325.333L257.333 325.667L256.667 325.333z"/>
<path style="fill:#303136; stroke:none;" d="M285 332L290 325C285.261 325.378 283.873 327.376 285 332z"/>
<path style="fill:#966e92; stroke:none;" d="M258 326L259 327L258 326M324 328L327 327L324 328z"/>
<path style="fill:#bb2e43; stroke:none;" d="M266 327L267 328L266 327z"/>
<path style="fill:#4a8fa9; stroke:none;" d="M162 328L164 330L162 328z"/>
<path style="fill:#366588; stroke:none;" d="M178.667 328.333L179.333 328.667L178.667 328.333z"/>
<path style="fill:#966e92; stroke:none;" d="M328 328L313 352L313 353L317 351L318 351L320 353C323.641 346.761 330.235 335.36 328 328z"/>
<path style="fill:#366588; stroke:none;" d="M175 329L175 332L177 329L175 329z"/>
<path style="fill:#303136; stroke:none;" d="M161 330L160 334L161 334L161 330z"/>
<path style="fill:#366588; stroke:none;" d="M170 330L171 331L170 330z"/>
<path style="fill:#303136; stroke:none;" d="M292 330L288 337L292 330z"/>
<path style="fill:#366588; stroke:none;" d="M173 331L174 332L173 331z"/>
<path style="fill:#966e92; stroke:none;" d="M279 331L280 334L279 331z"/>
<path style="fill:#303136; stroke:none;" d="M326 331L322 344L323 344L326 331z"/>
<path style="fill:#366588; stroke:none;" d="M328 331L329 332L328 331z"/>
<path style="fill:#4a8fa9; stroke:none;" d="M163 332C160.285 336.26 155.438 337.959 153.702 343.001C149.083 356.419 158 368.252 158 382L159 382L163 362L162 362L162 364L161 364L158 350C160.483 354.087 165.071 359.091 170 359L170 358L166 356L169 352L164 348L168 349L168 348L162 347L163 344L161 344C162.953 339.977 165.655 336.141 163 332z"/>
<path style="fill:#366588; stroke:none;" d="M184 332L185 333L184 332z"/>
<path style="fill:#303136; stroke:none;" d="M158 333L159 334L158 333z"/>
<path style="fill:#366588; stroke:none;" d="M177 333L177 337L178 337L177 333z"/>
<path style="fill:#4a8fa9; stroke:none;" d="M240 333L241 336L245 336L245 335L240 333z"/>
<path style="fill:#303136; stroke:none;" d="M283 333L283 336L284 336L285 333L283 333z"/>
<path style="fill:#4a8fa9; stroke:none;" d="M167.333 334.667L167.667 335.333L167.333 334.667z"/>
<path style="fill:#966e92; stroke:none;" d="M204.333 334.667L204.667 335.333L204.333 334.667z"/>
<path style="fill:#4a8fa9; stroke:none;" d="M216.667 334.333L217.333 334.667L216.667 334.333M247 335L248 338L252 339L256 339L256 338L248 336L248 335L251 335L247 335z"/>
<path style="fill:#366588; stroke:none;" d="M324 335L325 336L324 335z"/>
<path style="fill:#4a8fa9; stroke:none;" d="M154 336L154 339L155 339L154 336z"/>
<path style="fill:#303136; stroke:none;" d="M156 336L157 337L156 336M209.667 336.333L210.333 336.667L209.667 336.333M203 337L203 340L204 340L203 337M206 337L206 339L208 339L208 337L206 337z"/>
<path style="fill:#4a8fa9; stroke:none;" d="M236 337L237 345L234 345L241 349L238 346L240 342L249 363L255 364L250 359L250 342L249 342L248 348C245.453 342.472 242.492 337.457 236 337z"/>
<path style="fill:#303136; stroke:none;" d="M282 338L279 347C283.145 345.557 283.641 342.077 284 338L282 338z"/>
<path style="fill:#366588; stroke:none;" d="M323 338L324 339L323 338M326 338L327 339L326 338z"/>
<path style="fill:#4a8fa9; stroke:none;" d="M153 339L154 340L153 339z"/>
<path style="fill:#366588; stroke:none;" d="M180 339L177 345L180 344C180.192 345.665 180.146 347.35 180.343 349.005C181.347 357.423 190.156 347.723 180 344L180 339z"/>
<path style="fill:#4a8fa9; stroke:none;" d="M210 339L211 340L210 339z"/>
<path style="fill:#303136; stroke:none;" d="M213 339L205 342L205 343L208 344L206 349L206 354L210 352L211 352L216 358L217 358L223 356L222 352L214 347L215 346L222 349L224 345L216 343L217 340L213 339z"/>
<path style="fill:#366588; stroke:none;" d="M157 340L158 341L157 340z"/>
<path style="fill:#4a8fa9; stroke:none;" d="M252.667 340.333L253.333 340.667L252.667 340.333M164 341L165 342L164 341z"/>
<path style="fill:#366588; stroke:none;" d="M214 341L215 342L214 341M322 341L323 342L322 341M191.333 342.667L191.667 343.333L191.333 342.667z"/>
<path style="fill:#4a8fa9; stroke:none;" d="M233.667 342.333L234.333 342.667L233.667 342.333M263 342L265 344L263 342z"/>
<path style="fill:#366588; stroke:none;" d="M321 342L322 343L321 342M156 343L157 344L156 343M154 344L154 350L155 350L157 349L157 345L154 344z"/>
<path style="fill:#4a8fa9; stroke:none;" d="M251.333 344.667L251.667 345.333L251.333 344.667z"/>
<path style="fill:#966e92; stroke:none;" d="M274 344L274 345L279 347L274 344z"/>
<path style="fill:#366588; stroke:none;" d="M321.333 344.667L321.667 345.333L321.333 344.667z"/>
<path style="fill:#303136; stroke:none;" d="M204 348L203 348L203 346L202 346L203 349L205 349L205 345L204 348z"/>
<path style="fill:#4a8fa9; stroke:none;" d="M261 345L261 346L267 349L267 345L261 345z"/>
<path style="fill:#366588; stroke:none;" d="M244 346L247 354L248 354L249 352L244 346z"/>
<path style="fill:#303136; stroke:none;" d="M313 346L311 355L312 355L313 346z"/>
<path style="fill:#366588; stroke:none;" d="M190 347L191 348L190 347z"/>
<path style="fill:#4a8fa9; stroke:none;" d="M274 347L276 349L274 347z"/>
<path style="fill:#966e92; stroke:none;" d="M281 347L281 350L283 349L283 348L281 347z"/>
<path style="fill:#4a8fa9; stroke:none;" d="M256 348L256 349L268 361C262.811 359.51 257.609 360.287 256 366L267 366L260 362L273 364L272 372L274 370L294 384C293.29 379.28 291.838 373.728 287 372L289 378L279 367L282 366L282 365L265 351L266 353L265 353L264 353L265 349L256 348M198 349L199 350L198 349z"/>
<path style="fill:#303136; stroke:none;" d="M225 349L223 353L227 354C225.679 359.018 227.557 361.618 232 364L231 359C235.224 352.92 230.502 351.263 225 349z"/>
<path style="fill:#4a8fa9; stroke:none;" d="M233 349L234 353L240 353L240 352L233 349M277 349L285 355L277 349z"/>
<path style="fill:#303136; stroke:none;" d="M302 349L304 355L304 349L302 349z"/>
<path style="fill:#4a8fa9; stroke:none;" d="M269 350L269 351L272 352L269 350z"/>
<path style="fill:#303136; stroke:none;" d="M282 350L283 351L282 350z"/>
<path style="fill:#366588; stroke:none;" d="M161 351L163 353L161 351z"/>
<path style="fill:#303136; stroke:none;" d="M199 351L203 360L208 361L199 351z"/>
<path style="fill:#966e92; stroke:none;" d="M221 351L222 352L221 351M281 351L281 352L284 353L281 351z"/>
<path style="fill:#366588; stroke:none;" d="M151.333 352.667L151.667 353.333L151.333 352.667z"/>
<path style="fill:#4a8fa9; stroke:none;" d="M157.333 352.667L157.667 353.333L157.333 352.667z"/>
<path style="fill:#966e92; stroke:none;" d="M222.333 352.667L222.667 353.333L222.333 352.667z"/>
<path style="fill:#366588; stroke:none;" d="M229 352L230 353L229 352M233 352L234 353L233 352z"/>
<path style="fill:#303136; stroke:none;" d="M285 352L286 353L285 352M291 352L296 361L296 356L302 358L291 352z"/>
<path style="fill:#bb2e43; stroke:none;" d="M221 353L222 354L221 353z"/>
<path style="fill:#366588; stroke:none;" d="M219 354L220 355L219 354z"/>
<path style="fill:#966e92; stroke:none;" d="M220 354L221 355L220 354z"/>
<path style="fill:#4a8fa9; stroke:none;" d="M235 354L236 355L235 354M269 354L270 355L269 354z"/>
<path style="fill:#966e92; stroke:none;" d="M310 354L311 355L310 354z"/>
<path style="fill:#366588; stroke:none;" d="M151.333 355.667L151.667 356.333L151.333 355.667z"/>
<path style="fill:#303136; stroke:none;" d="M196 355L199 365L200 365C200.743 360.507 199.328 358.001 196 355z"/>
<path style="fill:#366588; stroke:none;" d="M227 355L228 357L229 357L230 355L227 355z"/>
<path style="fill:#303136; stroke:none;" d="M242 355L243 356L242 355M244 355L245 356L244 355z"/>
<path style="fill:#4a8fa9; stroke:none;" d="M275 355L275 357L277 357L275 355z"/>
<path style="fill:#303136; stroke:none;" d="M309 355L310 356L309 355z"/>
<path style="fill:#4a8fa9; stroke:none;" d="M224 356L225 357L224 356z"/>
<path style="fill:#303136; stroke:none;" d="M234 356L233 359C235.158 358.022 235.501 357.812 234 356z"/>
<path style="fill:#4a8fa9; stroke:none;" d="M286 356L285 360C289.528 363.25 291.741 366.339 291 372L292 372L293 369L295 369C297.308 372.753 299.823 372.731 304 373C303.155 368.016 299.105 366.382 295 364L299 370L295 369L287 360L288 356L286 356z"/>
<path style="fill:#303136; stroke:none;" d="M308 356L309 357L308 356z"/>
<path style="fill:#4a8fa9; stroke:none;" d="M172 357L171 370L176 372L175 363L173 363L174 357L172 357z"/>
<path style="fill:#966e92; stroke:none;" d="M199 357L200 358L199 357z"/>
<path style="fill:#4a8fa9; stroke:none;" d="M254.667 357.333L255.333 357.667L254.667 357.333M260 357L258 360L260 357z"/>
<path style="fill:#966e92; stroke:none;" d="M307 357L308 358L307 357z"/>
<path style="fill:#366588; stroke:none;" d="M152 358L153 359L152 358z"/>
<path style="fill:#303136; stroke:none;" d="M224 358L222 361L224 358z"/>
<path style="fill:#4a8fa9; stroke:none;" d="M263 358L264 359L263 358z"/>
<path style="fill:#366588; stroke:none;" d="M272 358C272.513 360.475 272.604 360.575 275 360L272 358z"/>
<path style="fill:#303136; stroke:none;" d="M296 358L297 359L296 358M302.667 358.333L303.333 358.667L302.667 358.333z"/>
<path style="fill:#966e92; stroke:none;" d="M305.667 358.333L306.333 358.667L305.667 358.333z"/>
<path style="fill:#4a8fa9; stroke:none;" d="M193 359L192 361L193 359z"/>
<path style="fill:#303136; stroke:none;" d="M217 360C217.698 364.292 216.828 367.677 221 370L221 369L220 359L217 360M244 359L245 360L244 359z"/>
<path style="fill:#966e92; stroke:none;" d="M304 359L305 360L304 359z"/>
<path style="fill:#366588; stroke:none;" d="M153 360L154 361L153 360z"/>
<path style="fill:#303136; stroke:none;" d="M166 360L167 361L166 360z"/>
<path style="fill:#966e92; stroke:none;" d="M209 360L215 367L215 369L212 370L212 371L218 372L217 361L214 363L213 363L209 360z"/>
<path style="fill:#303136; stroke:none;" d="M235 360L236 364L232 364L237 382L238 382C238.876 375.709 239.067 365.114 235 360z"/>
<path style="fill:#4a8fa9; stroke:none;" d="M237 360L238 361L237 360M240 360L241 361L240 360M308 360L308 362L310 362L310 360L308 360z"/>
<path style="fill:#303136; stroke:none;" d="M167 361C166.383 364.953 166.619 367.628 170 370L169 361L167 361z"/>
<path style="fill:#bb2e43; stroke:none;" d="M217 361L216 367L217 361z"/>
<path style="fill:#966e92; stroke:none;" d="M237 361L238 362L237 361z"/>
<path style="fill:#4a8fa9; stroke:none;" d="M314 361C314.064 363.993 313.946 365.346 317 366L309 374L308 374L307 371L304 373L308 381L299 380C300.872 385.642 307.118 383.645 312 384L311 374L319 371L320 371L321 362L317 363L314 361z"/>
<path style="fill:#366588; stroke:none;" d="M154 362L155 363L154 362z"/>
<path style="fill:#966e92; stroke:none;" d="M243 362L240 363L242 368L239 368L244 372L243 362z"/>
<path style="fill:#366588; stroke:none;" d="M155 363L156 364L155 363z"/>
<path style="fill:#966e92; stroke:none;" d="M192 374L186 363C177.001 365.878 186.63 373.402 192 374z"/>
<path style="fill:#4a8fa9; stroke:none;" d="M226 363L231 375C233.766 370.439 230.175 365.352 226 363z"/>
<path style="fill:#303136; stroke:none;" d="M239.333 363.667L239.667 364.333L239.333 363.667M245 363L246 364L245 363z"/>
<path style="fill:#4a8fa9; stroke:none;" d="M306 363L307 364L306 363M240 364L242 368L240 364z"/>
<path style="fill:#366588; stroke:none;" d="M156 365L157 366L156 365M158 365L159 366L158 365z"/>
<path style="fill:#4a8fa9; stroke:none;" d="M165 365L165 368L166 368L165 365M177 365L177 368L178 368L177 365z"/>
<path style="fill:#303136; stroke:none;" d="M210 365L210 371L212 365L210 365z"/>
<path style="fill:#366588; stroke:none;" d="M276 365L277 366L276 365z"/>
<path style="fill:#4a8fa9; stroke:none;" d="M282 366L282 370L284 368L285 368L286 372L287 372L287 365L282 366z"/>
<path style="fill:#bb2e43; stroke:none;" d="M212 366L212 370L215 369L215 367L214 366L212 366z"/>
<path style="fill:#303136; stroke:none;" d="M248 366L249 367L248 366M254.333 366.667L254.667 367.333L254.333 366.667z"/>
<path style="fill:#4a8fa9; stroke:none;" d="M267 368L270 368L269 366L267 368M304 366L305 367L304 366z"/>
<path style="fill:#366588; stroke:none;" d="M157 367L157 371L158 371L157 367z"/>
<path style="fill:#303136; stroke:none;" d="M225 367L226 368L225 367z"/>
<path style="fill:#966e92; stroke:none;" d="M246 367L247 368L246 367z"/>
<path style="fill:#4a8fa9; stroke:none;" d="M251 367L252 368L251 367z"/>
<path style="fill:#303136; stroke:none;" d="M256 367L256 369L258 369L258 367L256 367M208 368L209 369L208 368z"/>
<path style="fill:#366588; stroke:none;" d="M240 368L241 369L240 368z"/>
<path style="fill:#4a8fa9; stroke:none;" d="M262 368L263 369L262 368M312 368L311 371L312 368z"/>
<path style="fill:#966e92; stroke:none;" d="M320.333 368.667L320.667 369.333L320.333 368.667z"/>
<path style="fill:#4a8fa9; stroke:none;" d="M161.333 369.667L161.667 370.333L161.333 369.667M166 369L168 372L166 369z"/>
<path style="fill:#303136; stroke:none;" d="M225 369L227 374L227 375L225 379L229 379L225 369M321 369L319 378L323 376L324 376L323 380L324 374L326 375L326 374L321 369M170 370L169 373L170 370z"/>
<path style="fill:#366588; stroke:none;" d="M196.333 370.667L196.667 371.333L196.333 370.667z"/>
<path style="fill:#303136; stroke:none;" d="M260 370L261 371L260 370M213 371L213 372L216 372L213 371M222 371L221 374L222 371M248 371L249 372L248 371M263 371L264 372L263 371z"/>
<path style="fill:#4a8fa9; stroke:none;" d="M162.333 372.667L162.667 373.333L162.333 372.667z"/>
<path style="fill:#bb2e43; stroke:none;" d="M191 372L192 373L191 372z"/>
<path style="fill:#303136; stroke:none;" d="M192 372L193 373L192 372M261 372L259 376L263 372L261 372z"/>
<path style="fill:#4a8fa9; stroke:none;" d="M168 373L169 374L168 373M238 373L243 379L238 373z"/>
<path style="fill:#966e92; stroke:none;" d="M240 373L240 375L242 373L240 373M246 373L245 377L250 379L250 374L246 373M259 373L260 374L259 373z"/>
<path style="fill:#303136; stroke:none;" d="M164 374L165 379L168 377L168 376L164 374M173 376L177 377L177 374L173 376z"/>
<path style="fill:#4a8fa9; stroke:none;" d="M178 374C178 377.767 176.587 383.054 181 384L179 380L183 382L184 378L181 380L178 374z"/>
<path style="fill:#966e92; stroke:none;" d="M199 374L196 384L199 383L198 381L201 380L199 374z"/>
<path style="fill:#4a8fa9; stroke:none;" d="M216 374L213 378L222 383L220 374L216 374M294 374L296 376L294 374M169 375L170 381L172 381L173 380L169 375M185 375L184 378L185 378L185 375z"/>
<path style="fill:#303136; stroke:none;" d="M222 375L222 377L224 377L222 375z"/>
<path style="fill:#4a8fa9; stroke:none;" d="M327 375L328 376L327 375z"/>
<path style="fill:#303136; stroke:none;" d="M162 376L163 377L162 376z"/>
<path style="fill:#4a8fa9; stroke:none;" d="M232 376L232 382L233 382L234 376L232 376z"/>
<path style="fill:#303136; stroke:none;" d="M251 376L252 377L251 376M251 379L250 383L250 384L264 384L262 381L266 376L257 380L259 376L251 379z"/>
<path style="fill:#966e92; stroke:none;" d="M260.667 376.333L261.333 376.667L260.667 376.333z"/>
<path style="fill:#303136; stroke:none;" d="M160 377C160 380.363 159.284 383.204 163 384L160 377z"/>
<path style="fill:#366588; stroke:none;" d="M217 377L218 378L217 377z"/>
<path style="fill:#4a8fa9; stroke:none;" d="M295 377L296 381L297 381L295 377M167.333 378.667L167.667 379.333L167.333 378.667z"/>
<path style="fill:#303136; stroke:none;" d="M174 378L177 381L174 378z"/>
<path style="fill:#966e92; stroke:none;" d="M258.667 378.333L259.333 378.667L258.667 378.333z"/>
<path style="fill:#303136; stroke:none;" d="M268 378L269 381L267 380L267 381L273 383L273 379L268 378z"/>
<path style="fill:#4a8fa9; stroke:none;" d="M327 378L328 379L327 378z"/>
<path style="fill:#303136; stroke:none;" d="M163.333 379.667L163.667 380.333L163.333 379.667M196 379L197 380L196 379z"/>
<path style="fill:#966e92; stroke:none;" d="M204 379L202 383L207 384L204 379z"/>
<path style="fill:#303136; stroke:none;" d="M246 379L247 382L251 380L246 379z"/>
<path style="fill:#366588; stroke:none;" d="M248 379L249 380L248 379M257.667 379.333L258.333 379.667L257.667 379.333z"/>
<path style="fill:#303136; stroke:none;" d="M319 379L317 384L321 384L319 379M166.333 380.667L166.667 381.333L166.333 380.667z"/>
<path style="fill:#966e92; stroke:none;" d="M210 380L211 381L210 380z"/>
<path style="fill:#4a8fa9; stroke:none;" d="M211 380L213 384L214 384L211 380z"/>
<path style="fill:#303136; stroke:none;" d="M225 380L229 382L229 381L225 380M244 380L241 381L246 384L244 380z"/>
<path style="fill:#366588; stroke:none;" d="M290 380L291 381L290 380z"/>
<path style="fill:#303136; stroke:none;" d="M314.667 380.333L315.333 380.667L314.667 380.333M195 381L196 382L195 381M208 381L209 382L208 381z"/>
<path style="fill:#4a8fa9; stroke:none;" d="M168 382L170 384L170 382L168 382z"/>
<path style="fill:#303136; stroke:none;" d="M207 382L207 384L209 384L207 382z"/>
<path style="fill:#966e92; stroke:none;" d="M248 382L249 383L248 382z"/>
<path style="fill:#366588; stroke:none;" d="M291 382L291 384L293 384L291 382z"/>
<path style="fill:#303136; stroke:none;" d="M171 383L172 384L171 383M230 383L231 384L230 383M235.667 383.333L236.333 383.667L235.667 383.333z"/>
<path style="fill:#4a8fa9; stroke:none;" d="M297 383L298 384L297 383z"/>
<path style="fill:#966e92; stroke:none;" d="M309 383L310 384L309 383z"/>
</svg>
