<?xml version="1.0" standalone="yes"?>
<svg xmlns="http://www.w3.org/2000/svg" width="480" height="360">
<path style="fill:#4b0c01; stroke:none;" d="M0 0L0 157L45 155L45 154L30 154L30 153C36.1069 152.205 52.3974 151.732 56 147L35 142L37 141L37 140L30 140C29.4461 135.5 22.8985 135.133 19 135L19 134L55 126.306L64 124L71 124L71 123L69 121C76.9076 115.274 63.5732 109.957 60 106L65 105L65 104L57 104L56 100C65.2751 96.4496 75.1876 95.7599 85 97L96 97C98.0217 93.7297 100.308 93.6475 104 94C104 92.0518 114.786 90.7828 118 89.6667C124.499 87.4101 136.436 79.6353 143 80C145.819 80.1566 147.461 82.785 150 83.6667C153.849 85.0031 159.251 82.6039 163 81.6667C181.554 77.0281 200.053 66.7287 218 59.5C249.752 46.7111 281.633 38.6342 315 34C323.604 32.8051 331.372 28.6811 340 28L340 27L336 27L336 26L342 24C362.209 27.2165 384.793 19.5706 404.83 17.402C416.301 16.1606 427.011 18.4522 438 18.4522C451.813 18.4522 465.856 13.961 480 14L480 0L0 0z"/>
<path style="fill:#a02702; stroke:none;" d="M342 24L336 26L336 27L340 27L340 28L314 33.9213L257 45.0185L163 81.3472L142 80.162L117 89.4954L104 94C100.306 93.185 97.1833 92.9549 96 97C93.1715 96.4569 85.5951 93.5047 85 97C75.9749 95.3246 64.135 95.542 56 100L57 104L65 104L65 105L60 106C63.4109 111.276 75.3717 114.017 69 121L71 123L71 124L64 124L19 134L19 135C24.2199 135 30.776 136.896 30 140L37 140L37 141L35 142L56 147L30 153L30 154L56 155L56 154L48 154L48 153L77 154L75 157L53 156L53 157L56 157L56 158L28 157L28 158L34 158L34 159L6 158L6 159L11 159L11 160L0 160C1.53922 165.262 11.1934 165.928 16 167.13C32.7412 171.315 49.6461 177 67 177C120.079 177 172.754 175.57 225 168.778C243.632 166.355 263.791 167.596 282 163L282 162L259 161L261 160L261 159C258.007 159.064 256.654 158.946 256 162L243.83 165.36L227 166.139L112 172L112 171C153.317 171 192.271 159.63 233 156.174C241.17 155.48 249.724 157.299 258 156.96C273.888 156.309 290.318 151.011 306.285 154.498C311.809 155.705 315.003 160.132 320 162L320 166C298.571 174.252 274.612 174.541 252 176.09C214.44 178.662 176.715 182 139 182L139 183L182 183L182 184L110 186L110 187L153 189L153 190L109 189L109 190C129.749 191.651 150.116 199.291 171 199.957C204.072 201.012 237.103 194 270.039 195.942C281.115 196.595 294.969 195.879 306 194.83C314.361 194.035 325.248 192.27 333 196C309.691 201.742 284.82 201.143 261.015 202.022C254.393 202.266 237.735 201.239 234 207C280.58 207 327.466 202.077 374 200.039C408.471 198.53 446.079 202.297 480 196C480 190.113 481.203 184.632 475 182C483.668 166.457 480 145.519 480 128L480 14L438 18.0108L405 17.1204L342 24z"/>
<path style="fill:#4b0c01; stroke:none;" d="M400 26L401 27L400 26M379 32L381 38L384 37L385 41L392 43L393 43L394 43C399.174 38.9417 405.124 42.4876 411 43L409 48L416 48C418.585 40.7162 419.838 34.721 418 27L379 32M377.333 32.6667L377.667 33.3333L377.333 32.6667z"/>
<path style="fill:#a02702; stroke:none;" d="M411 32L411 40L413 40L413 32L411 32z"/>
<path style="fill:#4b0c01; stroke:none;" d="M360 35L360 38L364 37L360 35M351 36L352 39L351 36M333 40C327.975 39.3637 323.456 36.9555 320 42C327.542 42.0256 349.003 53.2906 352 43L338 41L338 40L344 40L344 39L336 37L333 40M306 40L306 44C311.321 43.9994 315.383 44.343 319 40L306 40z"/>
<path style="fill:#a02702; stroke:none;" d="M413 43L413 46L416 45L416 44L413 43z"/>
<path style="fill:#4b0c01; stroke:none;" d="M416 92L417 96L418 96L416 92M61.6667 99.3333L62.3333 99.6667L61.6667 99.3333z"/>
<path style="fill:#a02702; stroke:none;" d="M67 123L68 124L67 123z"/>
<path style="fill:#d95509; stroke:none;" d="M211 133L231 138L233 136L234 136C236.733 139.542 241.876 138.392 246 139.215C256.158 141.24 270.748 141.669 278 150L306 150L312 146L319.308 142.397L323 134C295.063 121.809 267.788 125.455 238 129.7C229.337 130.934 218.454 127.453 211 133z"/>
<path style="fill:#4b0c01; stroke:none;" d="M55 127L56 128L55 127M25.6667 133.333L26.3333 133.667L25.6667 133.333z"/>
<path style="fill:#a02702; stroke:none;" d="M27 137L28 138L27 137M32.6667 140.333L33.3333 140.667L32.6667 140.333z"/>
<path style="fill:#4b0c01; stroke:none;" d="M40 141L40 143L42 143L40 141z"/>
<path style="fill:#d95509; stroke:none;" d="M304 151L305 152L304 151z"/>
<path style="fill:#4b0c01; stroke:none;" d="M48 153L48 154L66 154L48 153z"/>
<path style="fill:#d95509; stroke:none;" d="M73 153L73 154L77 155L77 154L73 153M112 171L112 172L227 166.406L243.92 165.672L256 162L261 159L261 160L259 161L282 162L282 163L211 171L211 172C246.535 171.267 284.732 160.543 320 165L320 162C315.445 159.432 312.326 155.726 307 154.357C290.739 150.178 273.256 156.6 257 156.946C248.739 157.122 240.215 155.388 232 156.17C191.643 160.01 152.933 171 112 171z"/>
<path style="fill:#a02702; stroke:none;" d="M15 154L16 155L15 154z"/>
<path style="fill:#d95509; stroke:none;" d="M56 154L56 155L61 155L56 154z"/>
<path style="fill:#fa9d25; stroke:none;" d="M61 154L61 155L65 155L61 154z"/>
<path style="fill:#fcc461; stroke:none;" d="M44 155L44 156L75 155L44 155z"/>
<path style="fill:#fa9d25; stroke:none;" d="M75 154L76 155L75 154z"/>
<path style="fill:#a02702; stroke:none;" d="M24 155L24 156L32 156L24 155z"/>
<path style="fill:#d95509; stroke:none;" d="M32 155L32 156L38 156L32 155z"/>
<path style="fill:#fa9d25; stroke:none;" d="M38 155L38 157L45 157L38 155M66 155L66 156L70 156L66 155z"/>
<path style="fill:#d95509; stroke:none;" d="M70 155L70 156L75 156L70 155z"/>
<path style="fill:#4b0c01; stroke:none;" d="M77 155L78 156L77 155z"/>
<path style="fill:#a02702; stroke:none;" d="M3 156L3 157L12 157L3 156z"/>
<path style="fill:#d95509; stroke:none;" d="M12 156L12 157L17 157L12 156z"/>
<path style="fill:#fa9d25; stroke:none;" d="M16 157L16 158L23 157L16 157z"/>
<path style="fill:#fcc461; stroke:none;" d="M23 156L23 157L38 157L23 156z"/>
<path style="fill:#d95509; stroke:none;" d="M45 156L45 157L53 157L45 156z"/>
<path style="fill:#4b0c01; stroke:none;" d="M64 156L64 157L72 157L64 156M74 156L75 157L74 156z"/>
<path style="fill:#fa9d25; stroke:none;" d="M0 157L0 158L4 158L0 157z"/>
<path style="fill:#fcc461; stroke:none;" d="M4 157L4 158L16 158L4 157z"/>
<path style="fill:#d95509; stroke:none;" d="M22 157L22 158L28 158L22 157z"/>
<path style="fill:#4b0c01; stroke:none;" d="M37 157L37 158L56 158L37 157z"/>
<path style="fill:#d95509; stroke:none;" d="M0 158L0 159L6 159L0 158z"/>
<path style="fill:#4b0c01; stroke:none;" d="M15 158L15 159L34 159L15 158M0 159L0 160L11 160L0 159z"/>
<path style="fill:#a02702; stroke:none;" d="M276.667 160.333L277.333 160.667L276.667 160.333z"/>
<path style="fill:#d95509; stroke:none;" d="M318 160L319 161L318 160z"/>
<path style="fill:#4b0c01; stroke:none;" d="M18 162L18 163L48 165C46.5775 158.362 23.6845 161.427 18 162z"/>
<path style="fill:#a02702; stroke:none;" d="M22.6667 162.333L23.3333 162.667L22.6667 162.333z"/>
<path style="fill:#fa9d25; stroke:none;" d="M238 162L238 163L243 163L238 162z"/>
<path style="fill:#fcc461; stroke:none;" d="M0 163L1 164L0 163z"/>
<path style="fill:#fa9d25; stroke:none;" d="M1 163L0 165L2 165L1 163z"/>
<path style="fill:#d95509; stroke:none;" d="M2 163L3 164L2 163z"/>
<path style="fill:#fa9d25; stroke:none;" d="M231 163L231 164L235 164L231 163z"/>
<path style="fill:#fcc461; stroke:none;" d="M2.66667 164.333L3.33333 164.667L2.66667 164.333z"/>
<path style="fill:#fa9d25; stroke:none;" d="M4.33333 164.667L4.66667 165.333L4.33333 164.667z"/>
<path style="fill:#d95509; stroke:none;" d="M5.66667 164.333L6.33333 164.667L5.66667 164.333z"/>
<path style="fill:#4b0c01; stroke:none;" d="M42.6667 164.333L43.3333 164.667L42.6667 164.333z"/>
<path style="fill:#fa9d25; stroke:none;" d="M305 164L305 165L311 165L305 164z"/>
<path style="fill:#fcc461; stroke:none;" d="M176 175L176 176L319 166C310.388 160.849 292.794 166.485 283 166.961C247.409 168.691 211.62 174.976 176 175z"/>
<path style="fill:#fa9d25; stroke:none;" d="M316 164L317 165L316 164z"/>
<path style="fill:#a02702; stroke:none;" d="M0 165L0 171L39 176C28.3032 170.186 12.0302 166.77 0 165z"/>
<path style="fill:#d95509; stroke:none;" d="M3 165L4 166L3 165z"/>
<path style="fill:#fcc461; stroke:none;" d="M5 165L5 166L8 166L5 165z"/>
<path style="fill:#fa9d25; stroke:none;" d="M8.33333 165.667L8.66667 166.333L8.33333 165.667z"/>
<path style="fill:#d95509; stroke:none;" d="M9 165L10 166L9 165z"/>
<path style="fill:#fa9d25; stroke:none;" d="M296 165L296 166L301 166L296 165M319 165L320 166L319 165z"/>
<path style="fill:#d95509; stroke:none;" d="M6.66667 166.333L7.33333 166.667L6.66667 166.333z"/>
<path style="fill:#fcc461; stroke:none;" d="M9.66667 166.333L10.3333 166.667L9.66667 166.333z"/>
<path style="fill:#fa9d25; stroke:none;" d="M11 166L11 168L13 168L13 166L11 166z"/>
<path style="fill:#d95509; stroke:none;" d="M13 166L14 167L13 166z"/>
<path style="fill:#fa9d25; stroke:none;" d="M283 166L283 167L288 167L283 166M309 166L309 167L314 167L309 166z"/>
<path style="fill:#d95509; stroke:none;" d="M248 171L248 172L269 171L269 172L197 176.791L64 179L64 180L93 180L93 181L85 181L85 182L93 182L93 183L83 183L83 184L98 186L98 185L95 185L95 184L122 185L122 184L117 184L117 183L164 184L164 183L139 183L139 182C163.132 182 187.115 179.201 211 178.04C246.806 176.3 284.436 177.957 319 167L301 167.961L248 171M10 167L11 168L10 167z"/>
<path style="fill:#fcc461; stroke:none;" d="M13.6667 167.333L14.3333 167.667L13.6667 167.333z"/>
<path style="fill:#fa9d25; stroke:none;" d="M15.3333 167.667L15.6667 168.333L15.3333 167.667z"/>
<path style="fill:#d95509; stroke:none;" d="M16.6667 167.333L17.3333 167.667L16.6667 167.333z"/>
<path style="fill:#fa9d25; stroke:none;" d="M269 167L269 168L276 168L269 167M297 167L297 168L306 168L297 167z"/>
<path style="fill:#d95509; stroke:none;" d="M14 168L15 169L14 168z"/>
<path style="fill:#fcc461; stroke:none;" d="M16 168L16 169L19 169L16 168z"/>
<path style="fill:#fa9d25; stroke:none;" d="M19 168L19 170L21 168L19 168z"/>
<path style="fill:#d95509; stroke:none;" d="M21 168L22 169L21 168z"/>
<path style="fill:#fa9d25; stroke:none;" d="M256 168L256 169L261 169L256 168M280 168L280 169L288 169L280 168z"/>
<path style="fill:#d95509; stroke:none;" d="M18 169L19 170L18 169z"/>
<path style="fill:#fcc461; stroke:none;" d="M20.6667 169.333L21.3333 169.667L20.6667 169.333z"/>
<path style="fill:#fa9d25; stroke:none;" d="M22 169L24 171L24 169L22 169z"/>
<path style="fill:#d95509; stroke:none;" d="M24.6667 169.333L25.3333 169.667L24.6667 169.333z"/>
<path style="fill:#fa9d25; stroke:none;" d="M242 169L242 170L248 170L242 169M266 169L266 170L275 170L266 169z"/>
<path style="fill:#d95509; stroke:none;" d="M21.6667 170.333L22.3333 170.667L21.6667 170.333z"/>
<path style="fill:#fcc461; stroke:none;" d="M24.6667 170.333L25.3333 170.667L24.6667 170.333z"/>
<path style="fill:#fa9d25; stroke:none;" d="M26 170L28 172L28 170L26 170z"/>
<path style="fill:#d95509; stroke:none;" d="M28.6667 170.333L29.3333 170.667L28.6667 170.333z"/>
<path style="fill:#fa9d25; stroke:none;" d="M226 170L226 171L233 171L226 170M251 170L251 171L259 171L251 170z"/>
<path style="fill:#4b0c01; stroke:none;" d="M399 176L426 183L431 172C423.368 169.219 402.461 166.587 399 176z"/>
<path style="fill:#fcc461; stroke:none;" d="M0 171L1 172L0 171z"/>
<path style="fill:#fa9d25; stroke:none;" d="M0 173L3 171L0 173z"/>
<path style="fill:#d95509; stroke:none;" d="M3.66667 171.333L4.33333 171.667L3.66667 171.333M25.6667 171.333L26.3333 171.667L25.6667 171.333z"/>
<path style="fill:#fcc461; stroke:none;" d="M28.6667 171.333L29.3333 171.667L28.6667 171.333z"/>
<path style="fill:#fa9d25; stroke:none;" d="M30 171L30 173L32 173L32 171L30 171z"/>
<path style="fill:#d95509; stroke:none;" d="M32.6667 171.333L33.3333 171.667L32.6667 171.333M180 173L180 174L210 173C202.712 168.021 188.593 173 180 173z"/>
<path style="fill:#fa9d25; stroke:none;" d="M217 171L217 172L222 172L217 171M240 171L240 172L269 172L240 171z"/>
<path style="fill:#fcc461; stroke:none;" d="M2 172L2 173L11 174L2 172z"/>
<path style="fill:#fa9d25; stroke:none;" d="M6.66667 172.333L7.33333 172.667L6.66667 172.333z"/>
<path style="fill:#d95509; stroke:none;" d="M8.66667 172.333L9.33333 172.667L8.66667 172.333M29 172L30 173L29 172z"/>
<path style="fill:#fcc461; stroke:none;" d="M32.6667 172.333L33.3333 172.667L32.6667 172.333z"/>
<path style="fill:#fa9d25; stroke:none;" d="M34 172L40 175L34 172z"/>
<path style="fill:#d95509; stroke:none;" d="M36.6667 172.333L37.3333 172.667L36.6667 172.333M99 172L99 173L104 173L99 172z"/>
<path style="fill:#fa9d25; stroke:none;" d="M210 172L210 173L213 173L210 172M228 172L228 173L237 173L228 172z"/>
<path style="fill:#a02702; stroke:none;" d="M0.666667 173.333L1.33333 173.667L0.666667 173.333z"/>
<path style="fill:#d95509; stroke:none;" d="M0 174L0 175L4 173L0 174z"/>
<path style="fill:#fa9d25; stroke:none;" d="M4.66667 173.333L5.33333 173.667L4.66667 173.333M10 175L13 173L10 175z"/>
<path style="fill:#d95509; stroke:none;" d="M13 173L13 174L16 174L13 173M32.6667 173.333L33.3333 173.667L32.6667 173.333M40.6667 173.333L41.3333 173.667L40.6667 173.333z"/>
<path style="fill:#fa9d25; stroke:none;" d="M195 173L195 174L203 174L195 173M219 173L219 174L228 174L219 173z"/>
<path style="fill:#a02702; stroke:none;" d="M0 175L0 178L68 183C58.1479 177.724 44.8428 178.654 34 177.91C22.6839 177.135 11.3741 174.051 0 175z"/>
<path style="fill:#d95509; stroke:none;" d="M5 174L5 175L10 175L5 174z"/>
<path style="fill:#fcc461; stroke:none;" d="M12 174L12 175L18 175L12 174z"/>
<path style="fill:#fa9d25; stroke:none;" d="M16 175L16 176L21 175L16 175z"/>
<path style="fill:#d95509; stroke:none;" d="M21 174L21 175L25 175L21 174M35 174L35 175L38 175L35 174z"/>
<path style="fill:#fcc461; stroke:none;" d="M40.6667 174.333L41.3333 174.667L40.6667 174.333z"/>
<path style="fill:#fa9d25; stroke:none;" d="M36 177L36 178L44 177L44 174L36 177z"/>
<path style="fill:#d95509; stroke:none;" d="M44 174L44 175L47 175L44 174M54.6667 174.333L55.3333 174.667L54.6667 174.333M165 174L165 175L176 175L165 174z"/>
<path style="fill:#fa9d25; stroke:none;" d="M176 174L176 175L186 175L176 174M190 175L190 176L218 175L190 175z"/>
<path style="fill:#d95509; stroke:none;" d="M13 175L13 176L16 176L13 175z"/>
<path style="fill:#fcc461; stroke:none;" d="M19 175L19 176L26 176L19 175z"/>
<path style="fill:#fa9d25; stroke:none;" d="M25 176L25 177L29 175L25 176z"/>
<path style="fill:#d95509; stroke:none;" d="M29 175L29 176L35 176L29 175M39.6667 175.333L40.3333 175.667L39.6667 175.333z"/>
<path style="fill:#fcc461; stroke:none;" d="M43 175L43 178L62 179L43 175z"/>
<path style="fill:#fa9d25; stroke:none;" d="M45 175L45 176L48 176L45 175z"/>
<path style="fill:#d95509; stroke:none;" d="M48.6667 175.333L49.3333 175.667L48.6667 175.333M152 175L152 176L162 176L152 175z"/>
<path style="fill:#fa9d25; stroke:none;" d="M102 177L102 178L188 177C178.89 173.177 166.579 175.541 157 175.961C138.661 176.765 120.396 177 102 177z"/>
<path style="fill:#4b0c01; stroke:none;" d="M478 175L475 182L480 184L480 175L478 175z"/>
<path style="fill:#d95509; stroke:none;" d="M21 176L21 177L25 177L21 176z"/>
<path style="fill:#fcc461; stroke:none;" d="M29 176L29 177L38 177L29 176z"/>
<path style="fill:#fa9d25; stroke:none;" d="M51.6667 176.333L52.3333 176.667L51.6667 176.333z"/>
<path style="fill:#d95509; stroke:none;" d="M53 176L53 177L56 177L53 176M133 176L133 177L147 177L133 176M30 177L30 178L36 178L30 177z"/>
<path style="fill:#fa9d25; stroke:none;" d="M59 177L59 178L62 178L62 181L68 178L59 177z"/>
<path style="fill:#d95509; stroke:none;" d="M68 177L68 178L102 178L68 177z"/>
<path style="fill:#fa9d25; stroke:none;" d="M0 178L0 179L4 179L0 178z"/>
<path style="fill:#d95509; stroke:none;" d="M3 179L3 180L9 179L3 179M44 178L44 179L52 179L44 178z"/>
<path style="fill:#fa9d25; stroke:none;" d="M52 178L52 179L55 179L52 178z"/>
<path style="fill:#fcc461; stroke:none;" d="M67 178L67 179L80 179L67 178z"/>
<path style="fill:#fa9d25; stroke:none;" d="M80 178L80 179L92 179L80 178z"/>
<path style="fill:#fcc461; stroke:none;" d="M92 178L92 179L127 179L92 178z"/>
<path style="fill:#a02702; stroke:none;" d="M0 179L0 185C21.8841 189.123 43.0345 186.061 65 186L65 185L13 184L13 183L31 183L0 179z"/>
<path style="fill:#fa9d25; stroke:none;" d="M6 179L6 180L13 180L6 179z"/>
<path style="fill:#d95509; stroke:none;" d="M11 180L11 181L18 180L11 180M55 179L55 180L58 180L55 179z"/>
<path style="fill:#fa9d25; stroke:none;" d="M58.6667 179.333L59.3333 179.667L58.6667 179.333M103 179L104 180L103 179M15 180L15 181L63 185L48 182.83L15 180z"/>
<path style="fill:#d95509; stroke:none;" d="M24 180L24 181L29 181L24 180M60.6667 180.333L61.3333 180.667L60.6667 180.333z"/>
<path style="fill:#fcc461; stroke:none;" d="M64 180L65 181L64 180z"/>
<path style="fill:#fa9d25; stroke:none;" d="M65 180L65 181L74 183L74 184L66 184L66 185L71 186L71 187L45 187L45 188L82 186L82 185L80 185L80 184L83 184L83 183L74 185L74 184L77 183L65 180z"/>
<path style="fill:#a02702; stroke:none;" d="M71 180L71 181L93 183L93 182L85 182L85 181L93 181L71 180z"/>
<path style="fill:#d95509; stroke:none;" d="M20 181L20 182L24 182L20 181M35 181L35 182L39 182L35 181M64.6667 181.333L65.3333 181.667L64.6667 181.333M72 181L72 182L76 182L72 181z"/>
<path style="fill:#a02702; stroke:none;" d="M96 181L97 182L96 181z"/>
<path style="fill:#d95509; stroke:none;" d="M175 181L176 182L175 181z"/>
<path style="fill:#a02702; stroke:none;" d="M477 181L478 182L477 181z"/>
<path style="fill:#d95509; stroke:none;" d="M13 183L13 184L56 185C43.984 179.958 25.8776 183 13 183M45 182L45 183L51 183L45 182M59 183L59 184L74 184L59 183M77 182L77 183L82 183L77 182z"/>
<path style="fill:#fcc461; stroke:none;" d="M76 183L76 184L80 184L76 183z"/>
<path style="fill:#a02702; stroke:none;" d="M117 183L117 184L138 184L117 183z"/>
<path style="fill:#fa9d25; stroke:none;" d="M164 183L164 184L179 184L164 183z"/>
<path style="fill:#d95509; stroke:none;" d="M179 183L179 184L182 184L179 183z"/>
<path style="fill:#fcc461; stroke:none;" d="M63 184L63 185L66 185L63 184z"/>
<path style="fill:#d95509; stroke:none;" d="M74 184L74 185L78 185L74 184z"/>
<path style="fill:#fcc461; stroke:none;" d="M80 184L80 185L82 185L82 186L77 186L77 187L101 187L80 184z"/>
<path style="fill:#fa9d25; stroke:none;" d="M84 184L84 185L87 185L84 184z"/>
<path style="fill:#a02702; stroke:none;" d="M95 184L95 185L109 185L95 184z"/>
<path style="fill:#fa9d25; stroke:none;" d="M120 185L120 186L134 185L120 185z"/>
<path style="fill:#fcc461; stroke:none;" d="M134 184L134 185L167 185L134 184z"/>
<path style="fill:#d95509; stroke:none;" d="M174 184L174 185L179 185L174 184z"/>
<path style="fill:#4b0c01; stroke:none;" d="M0 185L0 189L27 188L0 185z"/>
<path style="fill:#d95509; stroke:none;" d="M56 186L56 187L71 187L56 186z"/>
<path style="fill:#fa9d25; stroke:none;" d="M89 185L89 186L92 186L89 185M98 185L98 186L101 186L101 187L96 188L96 189L155 200L155 198L102 189L102 188L121 189L121 188L106 187L106 186L108 186L98 185z"/>
<path style="fill:#fcc461; stroke:none;" d="M108 185L108 186L120 186L108 185z"/>
<path style="fill:#d95509; stroke:none;" d="M131 185L131 186L144 186L131 185M106 186L106 187L110 187L106 186M36 187L36 188L53 189L36 187M72 187L72 188L82 188L72 187z"/>
<path style="fill:#a02702; stroke:none;" d="M37 190L37 192L57 194L56 196L59 199L142 199L118 193.551L85 187.259L37 190z"/>
<path style="fill:#d95509; stroke:none;" d="M87 187L87 188L91 188L87 187z"/>
<path style="fill:#fa9d25; stroke:none;" d="M91.6667 187.333L92.3333 187.667L91.6667 187.333z"/>
<path style="fill:#d95509; stroke:none;" d="M115 187L115 188L121 188L115 187z"/>
<path style="fill:#a02702; stroke:none;" d="M5 188L5 189L14 189L5 188z"/>
<path style="fill:#d95509; stroke:none;" d="M14 188L14 190L24 190L24 188L14 188z"/>
<path style="fill:#fa9d25; stroke:none;" d="M24 188L24 189L44 189L24 188z"/>
<path style="fill:#d95509; stroke:none;" d="M94.6667 188.333L95.3333 188.667L94.6667 188.333M102 188L102 189L112 189L102 188z"/>
<path style="fill:#fcc461; stroke:none;" d="M121 188L121 189L128 189L121 188z"/>
<path style="fill:#fa9d25; stroke:none;" d="M128 188L128 189L136 190L136 188L128 188z"/>
<path style="fill:#d95509; stroke:none;" d="M136 188L136 189L143 189L136 188z"/>
<path style="fill:#fa9d25; stroke:none;" d="M0 189L0 190L14 190L0 189z"/>
<path style="fill:#a02702; stroke:none;" d="M24 189L24 190L36 190L24 189z"/>
<path style="fill:#4b0c01; stroke:none;" d="M0 191L0 192C22.0115 198.768 42.0218 200 65 200L65 199L59 199L56 196L57 194L37 192L37 190L44 190L30 189.985L0 191z"/>
<path style="fill:#d95509; stroke:none;" d="M98 189L98 190L101 190L98 189M124 189L124 190L131 190L124 189z"/>
<path style="fill:#fcc461; stroke:none;" d="M136 189L136 190L146 190L136 189z"/>
<path style="fill:#fa9d25; stroke:none;" d="M146 189L146 190L150 190L146 189z"/>
<path style="fill:#d95509; stroke:none;" d="M150 189L150 190L153 190L150 189z"/>
<path style="fill:#a02702; stroke:none;" d="M0 190L0 191L4 191L0 190z"/>
<path style="fill:#d95509; stroke:none;" d="M103 190L103 191L106 191L103 190M112.667 190.333L113.333 190.667L112.667 190.333M146 190L146 191L150 191L146 190M108.667 191.333L109.333 191.667L108.667 191.333M116 191L116 192L119 192L116 191z"/>
<path style="fill:#a02702; stroke:none;" d="M0 192L1 193L0 192z"/>
<path style="fill:#d95509; stroke:none;" d="M113 192L113 193L116 193L113 192M121 192L121 193L124 193L121 192M0 193L0 196L4 195L2 197L2 198L8 196L6 198L6 199C9.23203 198.461 10.7246 197.102 10 200L24 200L24 199L0 193z"/>
<path style="fill:#a02702; stroke:none;" d="M2 193L2 194L8 195L2 193z"/>
<path style="fill:#d95509; stroke:none;" d="M117 193L117 194L120 194L117 193M126 193L126 194L130 194L126 193z"/>
<path style="fill:#a02702; stroke:none;" d="M0 194L1 195L0 194z"/>
<path style="fill:#d95509; stroke:none;" d="M123 194L123 195L126 195L123 194M132 194L132 195L136 195L132 194M245 194L245 195L254 195L254 196L235 197L235 198L244 198L244 199L238 199L238 200L304 196L304 195L259 194L259 195L264 197L245 194M308 194L308 195L315 195L308 194z"/>
<path style="fill:#fa9d25; stroke:none;" d="M315 194L315 195L331 196L315 194z"/>
<path style="fill:#d95509; stroke:none;" d="M319 194L320 195L319 194M321 194L321 195L331 195L321 194z"/>
<path style="fill:#a02702; stroke:none;" d="M2.66667 195.333L3.33333 195.667L2.66667 195.333M9.66667 195.333L10.3333 195.667L9.66667 195.333z"/>
<path style="fill:#d95509; stroke:none;" d="M127 195L127 196L131 196L127 195M138 195L138 196L142 196L138 195M235 195L235 196L243 196L235 195z"/>
<path style="fill:#fa9d25; stroke:none;" d="M166 202L166 201L169 201L169 200L157 202L157 203L177 202L177 203L175 203L175 204C176.586 204 182.799 203.652 179 202L179 201L254 196L226 196.83L166 202M256 195L256 196L264 196L256 195M304 195L304 196L310 196L304 195z"/>
<path style="fill:#fcc461; stroke:none;" d="M180 203L180 204L184 204L184 205C130.545 214.924 73.7592 207.11 20 206L20 207C80.9289 211.808 141.923 210.093 203 205.91C242.906 203.178 282.966 197.004 323 197C312.166 191.24 290.933 196.695 279 197.83C246.523 200.921 212.553 205.569 180 203z"/>
<path style="fill:#d95509; stroke:none;" d="M328 196L328 197L333 196L328 196z"/>
<path style="fill:#fa9d25; stroke:none;" d="M0 196L0 197L4 197L0 196z"/>
<path style="fill:#a02702; stroke:none;" d="M6.66667 196.333L7.33333 196.667L6.66667 196.333M12 196L12 197L15 197L12 196z"/>
<path style="fill:#d95509; stroke:none;" d="M132 196L132 197L136 197L132 196M144 196L144 197L148 197L144 196M219 196L219 197L229 197L219 196z"/>
<path style="fill:#a02702; stroke:none;" d="M261 196L261 197L264 197L261 196z"/>
<path style="fill:#fa9d25; stroke:none;" d="M284 196L284 197L296 197L284 196z"/>
<path style="fill:#d95509; stroke:none;" d="M452 197L452 198C457.571 198 478.706 202.038 480 196L452 197z"/>
<path style="fill:#a02702; stroke:none;" d="M0 197C0.945598 201.413 6.23254 200 10 200L10 199L0 197z"/>
<path style="fill:#fa9d25; stroke:none;" d="M4 197L4 198L8 198L4 197z"/>
<path style="fill:#a02702; stroke:none;" d="M16 197L16 198L20 198L16 197z"/>
<path style="fill:#d95509; stroke:none;" d="M137 197L137 198L141 198L137 197M149 197L149 198L153 198L149 197M204 197L204 198L216 198L204 197z"/>
<path style="fill:#fa9d25; stroke:none;" d="M271 197L271 198L282 198L271 197M312 197L312 198L319 198L312 197z"/>
<path style="fill:#d95509; stroke:none;" d="M319 197L319 198L326 198L319 197z"/>
<path style="fill:#4b0c01; stroke:none;" d="M2.66667 198.333L3.33333 198.667L2.66667 198.333z"/>
<path style="fill:#fa9d25; stroke:none;" d="M8 198L8 199L11 199L8 198z"/>
<path style="fill:#a02702; stroke:none;" d="M20 198L20 199L23 199L20 198M24 198L32 200L32 199L24 198z"/>
<path style="fill:#d95509; stroke:none;" d="M135 199L135 200L150 200L135 199M155 198L155 199L160 199L155 198M192 198L192 199L201 199L192 198M218 198L218 199L229 199L218 198z"/>
<path style="fill:#a02702; stroke:none;" d="M204 200L204 201L244 199C233.11 194.43 215.71 200 204 200z"/>
<path style="fill:#fa9d25; stroke:none;" d="M259 198L259 199L267 199L259 198M295 198L295 199L303 199L295 198z"/>
<path style="fill:#d95509; stroke:none;" d="M272 200L272 201L318 199C305.9 193.923 285.133 200 272 200M423 198L423 199L432 199L423 198z"/>
<path style="fill:#fa9d25; stroke:none;" d="M225 208L225 209L243 210L243 211L240 211L240 212L304 216L304 217L182 221L182 222L345 219.004L480 223L480 222L356 218L356 217L480 214L480 213L318 215.985L253 211L253 209L467 199L449 198L405 200L225 208M0 200L0 202L15 200L0 200z"/>
<path style="fill:#fcc461; stroke:none;" d="M116 200L116 201L163 201L148 199.996L116 200z"/>
<path style="fill:#fa9d25; stroke:none;" d="M159 199L159 200L162 200L159 199z"/>
<path style="fill:#d95509; stroke:none;" d="M162 199L162 200L167 200L162 199M169 200L169 201L189 200L169 200M204 199L204 200L216 200L204 199z"/>
<path style="fill:#fa9d25; stroke:none;" d="M249 199L249 200L255 200L249 199M280 199L280 200L287 200L280 199z"/>
<path style="fill:#d95509; stroke:none;" d="M404 199L404 200L422 200L404 199M446 199L446 200L459 200L446 199z"/>
<path style="fill:#a02702; stroke:none;" d="M355 204L355 205L424 203L424 204L354 206.985L306 210L306 211L320 211L320 212L296 213L296 214L341 215.996L480 212L480 199L355 204z"/>
<path style="fill:#fcc461; stroke:none;" d="M14 200L14 201L20 201L14 200z"/>
<path style="fill:#fa9d25; stroke:none;" d="M19 201L19 202L39 206L39 207L34 207L34 208L53 208L53 207L27 203L27 202L103 201L77 200L19 201z"/>
<path style="fill:#fcc461; stroke:none;" d="M21 200L21 201L28 201L21 200M103 200L104 201L103 200z"/>
<path style="fill:#fa9d25; stroke:none;" d="M104 200L104 201L110 201L104 200z"/>
<path style="fill:#fcc461; stroke:none;" d="M110.667 200.333L111.333 200.667L110.667 200.333z"/>
<path style="fill:#fa9d25; stroke:none;" d="M112 200L112 201L116 201L112 200z"/>
<path style="fill:#d95509; stroke:none;" d="M179 201L179 202C197.923 206.518 216.942 201.013 236 201L212 200.91L179 201z"/>
<path style="fill:#fa9d25; stroke:none;" d="M236 200L236 201L243 201L236 200M264 200L264 201L272 201L264 200z"/>
<path style="fill:#d95509; stroke:none;" d="M369 200L369 201L389 201L369 200M355 203L355 204L442 201L416 200.985L355 203M0 202L0 203L12 205L12 204L8 204L8 203L10 202L0 202z"/>
<path style="fill:#a02702; stroke:none;" d="M8 201L8 202L33 206L8 201z"/>
<path style="fill:#d95509; stroke:none;" d="M17.6667 201.333L18.3333 201.667L17.6667 201.333M25.6667 201.333L26.3333 201.667L25.6667 201.333M27 202L27 203L57 208C49.1883 203.84 35.7104 200.977 27 202z"/>
<path style="fill:#a02702; stroke:none;" d="M34 201L34 202C71.7702 212.618 108.562 203 147 203L147 202L44 203L45 201L34 201z"/>
<path style="fill:#d95509; stroke:none;" d="M37 201L38 202L37 201M45.6667 201.333L46.3333 201.667L45.6667 201.333z"/>
<path style="fill:#a02702; stroke:none;" d="M47 201L47 202L55 202L47 201z"/>
<path style="fill:#d95509; stroke:none;" d="M55 201L55 202L155 203L155 204L129 203L129 204L142 204L142 205L117 206L117 205L128 204L128 203L76 207L76 208L181 205L181 204L157 203L157 202L162 202L129 201L55 201z"/>
<path style="fill:#a02702; stroke:none;" d="M149 201L149 202L153 202L149 201z"/>
<path style="fill:#fcc461; stroke:none;" d="M166 201L166 202L173 202L166 201z"/>
<path style="fill:#a02702; stroke:none;" d="M192 201L192 202L200 202L192 201z"/>
<path style="fill:#fa9d25; stroke:none;" d="M226 201L226 202L232 202L226 201M252 201L252 202L258 202L252 201z"/>
<path style="fill:#d95509; stroke:none;" d="M258 201L258 202L268 202L258 201M349 201L349 202L364 202L349 201M22.6667 202.333L23.3333 202.667L22.6667 202.333z"/>
<path style="fill:#4b0c01; stroke:none;" d="M44 202L44 203L79 203L44 202z"/>
<path style="fill:#fcc461; stroke:none;" d="M174 202L174 203L177 203L174 202z"/>
<path style="fill:#fa9d25; stroke:none;" d="M215 202L215 203L221 203L215 202M239 202L239 203L246 203L239 202z"/>
<path style="fill:#d95509; stroke:none;" d="M246 202L246 203L255 203L246 202M256 202L257 203L256 202M322 202L322 203L340 203L322 202M438.667 202.333L439.333 202.667L438.667 202.333z"/>
<path style="fill:#fa9d25; stroke:none;" d="M0 203L0 204C6.82803 206.311 14.9317 207.678 22 206L22 205L8 203L8 204L12 204L12 205L0 203z"/>
<path style="fill:#d95509; stroke:none;" d="M13.6667 203.333L14.3333 203.667L13.6667 203.333M25.6667 203.333L26.3333 203.667L25.6667 203.333z"/>
<path style="fill:#fa9d25; stroke:none;" d="M144 203L144 204L155 204L144 203M184 203L184 204L189 204L184 203M202 203L202 204L210 204L202 203M229 203L229 204L236 204L229 203z"/>
<path style="fill:#d95509; stroke:none;" d="M236 203L236 204L244 204L236 203M303 203L303 204L317 204L303 203M253 209L253 211L290 213.957L320 212L320 211L306 211L306 210L356 206.961L424 204L402 203.83L371 204.961L338 204.039L253 209M0 204L1 205L0 204M17 204L17 205L20 205L17 204M29 204L29 205L32 205L29 204z"/>
<path style="fill:#fa9d25; stroke:none;" d="M117 205L117 206L142 205L117 205M174 205L174 206L184 205L174 205M217 204L217 205L224 205L217 204z"/>
<path style="fill:#d95509; stroke:none;" d="M211 206L211 207L246 208L246 207L234 207L235 204L211 206M283 204L283 205L299 205L283 204z"/>
<path style="fill:#a02702; stroke:none;" d="M0 205L0 207L22 209L0 205z"/>
<path style="fill:#d95509; stroke:none;" d="M4.66667 205.333L5.33333 205.667L4.66667 205.333M22 205L22 206L25 206L22 205M30 206L30 207L35 205L30 206z"/>
<path style="fill:#fa9d25; stroke:none;" d="M188 206L188 207L213 208L213 209L86 215L86 216L93 216L93 217L84 217L84 218L106 222L106 223L18 221L18 222L44 223.09L115 224L115 223L112 223L112 222L114 222L114 221L96 218L96 217L239 211L239 210L211 207L212 205L188 206z"/>
<path style="fill:#a02702; stroke:none;" d="M227 205L227 206L232 206L227 205z"/>
<path style="fill:#d95509; stroke:none;" d="M268 205L268 206L283 206L268 205M10 206L10 207L13 207L10 206z"/>
<path style="fill:#fa9d25; stroke:none;" d="M26 206L26 207L30 207L26 206z"/>
<path style="fill:#a02702; stroke:none;" d="M35.6667 206.333L36.3333 206.667L35.6667 206.333z"/>
<path style="fill:#d95509; stroke:none;" d="M37.6667 206.333L38.3333 206.667L37.6667 206.333z"/>
<path style="fill:#fa9d25; stroke:none;" d="M160 206L160 207L168 207L160 206z"/>
<path style="fill:#d95509; stroke:none;" d="M250 206L250 207L265 207L250 206M0 207L0 210L8 209C10.5191 211.823 13.7592 210.01 17 209L0 207M17 207L17 208L21 208L17 207z"/>
<path style="fill:#fa9d25; stroke:none;" d="M21 207L21 208L25 208L21 207M142 207L142 208L152 208L142 207M174 207L174 208L181 208L174 207z"/>
<path style="fill:#d95509; stroke:none;" d="M181 207L181 208L191 208L181 207z"/>
<path style="fill:#a02702; stroke:none;" d="M174 209L174 210L196 209C190.536 206.255 179.778 207.292 174 209z"/>
<path style="fill:#d95509; stroke:none;" d="M192 207L192 208L196 208L196 209L174 210L175 208L149 209L149 210L167 211L167 212L155 212L155 213L213 209L192 207z"/>
<path style="fill:#fa9d25; stroke:none;" d="M2 208L3 209L2 208z"/>
<path style="fill:#d95509; stroke:none;" d="M22 208L22 209L24 209L24 210L18 210L18 211L34 211L22 208z"/>
<path style="fill:#fa9d25; stroke:none;" d="M28 208L28 209L32 209L28 208M61 208L61 209L130 209L108 208L61 208M160 208L160 209L165 209L160 208z"/>
<path style="fill:#fcc461; stroke:none;" d="M220 208L220 209L243 211L220 208z"/>
<path style="fill:#fa9d25; stroke:none;" d="M6.66667 209.333L7.33333 209.667L6.66667 209.333M14 209L14 210L24 210L14 209M34 209L34 211L51 210L34 209M139 209L139 210L149 210L139 209z"/>
<path style="fill:#a02702; stroke:none;" d="M0 210L0 212L18 213L17 215L70 215L48 212.334L0 210z"/>
<path style="fill:#fa9d25; stroke:none;" d="M31 210L32 211L31 210z"/>
<path style="fill:#d95509; stroke:none;" d="M40 211L40 212L48 211L58 212L40 211z"/>
<path style="fill:#fa9d25; stroke:none;" d="M52 210L52 211L56 211L52 210M58 211L58 212L64 211L72 214L72 215L25 216L25 217L79 217L79 216L76 216L76 215L79 215L79 214L72 212L72 211L112 211L95 210L58 211z"/>
<path style="fill:#d95509; stroke:none;" d="M112 210L112 211L140 211L112 210z"/>
<path style="fill:#a02702; stroke:none;" d="M78 212L78 213L167 212C157.287 207.81 145.163 210.516 135 210.961C116.039 211.791 96.9846 212 78 212z"/>
<path style="fill:#fa9d25; stroke:none;" d="M46.6667 211.333L47.3333 211.667L46.6667 211.333z"/>
<path style="fill:#fcc461; stroke:none;" d="M63 211L64 212L63 211z"/>
<path style="fill:#d95509; stroke:none;" d="M72 211L72 212L86 215L86 214L78 213L78 212L107 212L72 211M118 216L118 217L199 215L239 217L239 218L234 218L234 219L256 219L256 217L234 216L234 215L264 214C250.217 208.214 229.578 211.322 215 211.961C182.632 213.378 150.466 216 118 216z"/>
<path style="fill:#4b0c01; stroke:none;" d="M0 212L0 213L18 214L0 212z"/>
<path style="fill:#d95509; stroke:none;" d="M61 212L61 213L64 213L61 212M70.6667 212.333L71.3333 212.667L70.6667 212.333M472 212L472 213L480 213L472 212z"/>
<path style="fill:#a02702; stroke:none;" d="M0 213L0 214L11 214L0 213z"/>
<path style="fill:#d95509; stroke:none;" d="M52 213L52 214L56 214L52 213M66 213L66 214L69 214L66 213M134 213L134 214L151 214L134 213M388 213L388 214L421 214L388 213M0 214L0 216L44 218L44 217L25 217L25 216L32 216C24.5909 211.779 8.6443 214 0 214M33 215L33 216L60 216L60 214L33 215M70.6667 214.333L71.3333 214.667L70.6667 214.333z"/>
<path style="fill:#fa9d25; stroke:none;" d="M80 214L81 215L80 214z"/>
<path style="fill:#d95509; stroke:none;" d="M102 214L102 215L128 215L102 214z"/>
<path style="fill:#a02702; stroke:none;" d="M234 215L234 216L289 217C274.115 210.74 249.782 213.288 234 215z"/>
<path style="fill:#d95509; stroke:none;" d="M268 214L268 215L279 215L268 214M299 214L299 215L310 215L299 214M368 214L368 215L386 215L368 214M456 214L456 215L480 215L456 214z"/>
<path style="fill:#fcc461; stroke:none;" d="M76 215L76 216L93 217L76 215z"/>
<path style="fill:#a02702; stroke:none;" d="M104 218L104 219C110.128 219.28 115.854 221.689 122 221.961C160.449 223.659 200.68 221.024 239 218C224.987 212.12 200.975 214.885 186 215.91C158.867 217.769 131.178 217.439 104 218z"/>
<path style="fill:#d95509; stroke:none;" d="M280 215L280 216L289 216L289 217L264 217L264 218L304 217L280 215M312 215L312 216L325 216L312 215M347 215L347 216L363 216L347 215M400 215L400 216L437 216C427.202 211.889 410.649 215 400 215z"/>
<path style="fill:#a02702; stroke:none;" d="M378 217L378 218L480 221L480 215L378 217z"/>
<path style="fill:#fa9d25; stroke:none;" d="M0 216L0 217L6 217L0 216z"/>
<path style="fill:#fcc461; stroke:none;" d="M62 216L62 217L73 217L62 216z"/>
<path style="fill:#d95509; stroke:none;" d="M356 217L356 218L384 219L384 218L378 218L378 217L397 217C385.845 212.319 367.986 217 356 217z"/>
<path style="fill:#a02702; stroke:none;" d="M0 217L0 220L59 222L59 221L53 220L53 219L86 222C74.5785 216.5 62.0765 218.82 50 218.545C33.3031 218.164 16.7274 217 0 217z"/>
<path style="fill:#d95509; stroke:none;" d="M48 217L48 219L70 218L48 217z"/>
<path style="fill:#fa9d25; stroke:none;" d="M70.6667 217.333L71.3333 217.667L70.6667 217.333z"/>
<path style="fill:#d95509; stroke:none;" d="M72 217L72 219L95 222L95 221L80 219L80 218L84 218L72 217M96 217L96 218L111 218L96 217z"/>
<path style="fill:#fcc461; stroke:none;" d="M316 217L316 218L344 218L316 217z"/>
<path style="fill:#a02702; stroke:none;" d="M80 218L80 219L101 222L80 218z"/>
<path style="fill:#d95509; stroke:none;" d="M87 218L87 219L91 219L87 218M53 219L53 220L79 222L53 219M91 219L91 220L95 220L91 219M104 219L104 220L113 221L104 219M218 219L218 220L227 220L218 219M242 220L242 221L276 221L276 222L246 223L246 224L364 224L364 223L352 223L352 222L468 225L442 223L398 221.985L242 220M389 219L389 220L480 222L455 220.91L389 219z"/>
<path style="fill:#fa9d25; stroke:none;" d="M0 220L1 221L0 220z"/>
<path style="fill:#d95509; stroke:none;" d="M1 220L1 221L18 221L1 220M96 220L96 221L101 221L96 220M189 220L189 221L206 221L189 220z"/>
<path style="fill:#fcc461; stroke:none;" d="M0 221L0 222L20 223L0 221z"/>
<path style="fill:#d95509; stroke:none;" d="M24 221L24 222L52 222L24 221M53 221L53 222L56 222L53 221M101 221L101 223L106 223L101 221M114 221L114 222L118 222L114 221M126 222L126 223L139 223L139 224L131 224L131 225L200 223L184 221.715L126 222M212 221L212 222L228 222L212 221z"/>
<path style="fill:#a02702; stroke:none;" d="M139 225L139 226L199 234.996L303 230.039L480 226L480 224L352 222L352 223L364 223L364 224L246 224L246 223L276 222L260 221L225 221.83L139 225z"/>
<path style="fill:#d95509; stroke:none;" d="M0 222L0 223L8 223L0 222z"/>
<path style="fill:#fa9d25; stroke:none;" d="M8 222L8 223L16 223L8 222z"/>
<path style="fill:#fcc461; stroke:none;" d="M112 222L112 223L123 224L112 222z"/>
<path style="fill:#fa9d25; stroke:none;" d="M117 222L117 223L123 223L123 224L119 224L119 225L192 236L192 237L179 236L179 237L214 239L214 240L160 244.09L5 248L5 249L124 247.961L229 242L229 241L219 240L219 239L222 239L222 238L197 237L198 235L131 225L131 224L139 224L117 222z"/>
<path style="fill:#a02702; stroke:none;" d="M0 223L0 225L16 225L16 226L0 226L0 228L124 231C116.089 227.588 105.516 228.015 97 226.586C65.7034 221.338 31.6891 223 0 223z"/>
<path style="fill:#d95509; stroke:none;" d="M19 223L19 224L48 224L19 223M472 223L472 224L480 224L472 223M80 224L80 225C101.795 225.014 124.283 230.839 146 233.166C154.907 234.12 165.508 237.575 174 234L174 233L135 231L135 230L137 230L137 229L99 226L99 225L131 229L131 228L128 228L128 227L131 227L131 226L116 226L116 225L119 225C108.726 220.689 91.1724 224 80 224z"/>
<path style="fill:#4b0c01; stroke:none;" d="M0 225L0 226L16 226L0 225z"/>
<path style="fill:#a02702; stroke:none;" d="M99 225L99 226L137 229L137 230L135 230L135 231L172 234L172 233L128 227L128 228L131 228L99 225M116 225L116 226L128 227L116 225z"/>
<path style="fill:#d95509; stroke:none;" d="M123 225L123 226L126 226L123 225M152 225L153 226L152 225M158.667 225.333L159.333 225.667L158.667 225.333M165 225L165 226L168 226L165 225M142 226L142 227L150 228L142 226M393 227L393 228C417.691 233.878 447.74 227 473 227L473 228L468 228L468 229L480 230L480 226L393 227M134 227L134 228L138 228L134 227z"/>
<path style="fill:#fa9d25; stroke:none;" d="M416 227L416 228L424 228L416 227M458 227L458 228L473 228L458 227z"/>
<path style="fill:#4b0c01; stroke:none;" d="M0 228L0 245L89 242.91L158 238L158 237L155 237L155 236L160 236C149.067 231.411 131.929 232.111 120 230.834C80.659 226.622 39.5466 228 0 228z"/>
<path style="fill:#d95509; stroke:none;" d="M140 228L140 229L144 229L140 228M152 228L152 229L155 229L152 228M198 235L198 236L217 238L217 237L215 237L215 236L392 230C384.162 225.833 372.491 228.022 364 228.83C352.386 229.936 340.641 228.722 329 229.83C313.535 231.302 297.532 230.359 282 231.039C254.021 232.265 226.04 235 198 235z"/>
<path style="fill:#fa9d25; stroke:none;" d="M388 228L388 229L395 229L388 228z"/>
<path style="fill:#a02702; stroke:none;" d="M215 236L215 237C228.263 240.158 242.575 238.009 256 237.09C273.986 235.858 292.018 235.321 310 234.09C363.07 230.455 416.897 230 470 230L451 228L404 229L215 236z"/>
<path style="fill:#d95509; stroke:none;" d="M146 229L146 230L149 230L146 229M157 229L157 230L160 230L157 229M153 230L153 231L156 231L153 230M163 230L163 231L167 231L163 230M378 231L378 232L405 232L416 230L378 231M417 230L417 231L438 231L417 230M453 230L453 231L462 231L453 230z"/>
<path style="fill:#fa9d25; stroke:none;" d="M232 239L232 240L480 231L457 230.961L410 231.985L232 239z"/>
<path style="fill:#a02702; stroke:none;" d="M126 231L126 232L132 232L126 231z"/>
<path style="fill:#d95509; stroke:none;" d="M159 231L159 232L162 232L159 231M170 231L170 232L173 232L170 231M464 231L464 232L480 232L464 231z"/>
<path style="fill:#a02702; stroke:none;" d="M134 232L134 233L140 233L134 232z"/>
<path style="fill:#d95509; stroke:none;" d="M165 232L165 233L168 233L165 232M176 232L176 233L179 233L176 232M358 232L358 233L374 233L358 232M431 232L431 233L450 233L431 232z"/>
<path style="fill:#a02702; stroke:none;" d="M253 240L253 241L480 245L480 240L464 237L480 235L480 232L253 240M140 233L140 234L149 234L140 233z"/>
<path style="fill:#d95509; stroke:none;" d="M182 233L182 234L186 234L182 233M332 233L332 234L352 234L332 233M388 233L388 234L416 234L388 233z"/>
<path style="fill:#a02702; stroke:none;" d="M150 234L150 235L157 235L150 234M172 234L172 235L178 235L172 234z"/>
<path style="fill:#d95509; stroke:none;" d="M176 239L184 238L184 237L179 237L179 236L181 234C177.603 234.707 175.936 235.405 176 239M190 234L190 235L193 235L190 234M306 234L306 235L325 235L306 234M360 234L360 235L379 235L360 234z"/>
<path style="fill:#a02702; stroke:none;" d="M155 236L155 237L158 237L158 238L37 245L37 246L83 247L83 246L63 246L63 245L115 243L115 244L96 245L96 246L204 241L204 240C195.529 237.982 184.445 236.504 176 239C172.701 234.428 166.938 236.664 162 237L162 236L166 236L155 236z"/>
<path style="fill:#fa9d25; stroke:none;" d="M171 235L171 236L176 236L171 235z"/>
<path style="fill:#a02702; stroke:none;" d="M181 235L181 236L184 236L181 235z"/>
<path style="fill:#d95509; stroke:none;" d="M184 235L184 236L192 237L184 235M285 235L285 236L300 236L285 235M341 235L341 236L352 236L341 235z"/>
<path style="fill:#4b0c01; stroke:none;" d="M464 237L480 240L480 235L464 237M162 236L162 237L167 237L162 236M168 236L169 237L168 236z"/>
<path style="fill:#fcc461; stroke:none;" d="M197 236L197 237L203 237L197 236z"/>
<path style="fill:#d95509; stroke:none;" d="M269 236L269 237L282 237L269 236M316 236L316 237L330 237L316 236z"/>
<path style="fill:#4b0c01; stroke:none;" d="M448 237L448 238L461 239L460 237L464 237L448 237z"/>
<path style="fill:#d95509; stroke:none;" d="M252 237L252 238L264 238L252 237M296 237L296 238L309 238L296 237z"/>
<path style="fill:#a02702; stroke:none;" d="M456.667 237.333L457.333 237.667L456.667 237.333z"/>
<path style="fill:#d95509; stroke:none;" d="M161 238L161 239L174 239L161 238M193 238L193 239L214 240L193 238z"/>
<path style="fill:#fcc461; stroke:none;" d="M214 238L214 239L217 239L214 238z"/>
<path style="fill:#d95509; stroke:none;" d="M222 238L222 239L228 239L222 238M233 238L233 239L245 239L233 238M277 238L277 239L288 239L277 238M151 239L152 240L151 239z"/>
<path style="fill:#fcc461; stroke:none;" d="M219 239L219 240L248 242L219 239z"/>
<path style="fill:#d95509; stroke:none;" d="M259 239L259 240L271 240L259 239z"/>
<path style="fill:#4b0c01; stroke:none;" d="M165 241L165 242L175 242L165 241z"/>
<path style="fill:#d95509; stroke:none;" d="M246 240L246 241L259 242L246 240z"/>
<path style="fill:#4b0c01; stroke:none;" d="M150 241L150 242L163 243L150 241z"/>
<path style="fill:#d95509; stroke:none;" d="M192 241L192 242L201 242L192 241M229 241L229 242L236 242L229 241z"/>
<path style="fill:#fa9d25; stroke:none;" d="M236 241L236 242L240 242L236 241M248 241L248 243L253 243L253 241L248 241z"/>
<path style="fill:#4b0c01; stroke:none;" d="M141 242L141 243L146 244L146 243L141 242z"/>
<path style="fill:#d95509; stroke:none;" d="M179 242L179 243L187 243L179 242M208 242L208 243L220 243L208 242z"/>
<path style="fill:#a02702; stroke:none;" d="M108 248L108 249L116 249L116 250L63 249L63 250L93 250L93 251L22 252L22 251L27 251L27 250L8 252L8 251L11 251L11 250L0 252L0 253L157 253L157 252L152 252L152 251L298 248L298 247L181 249L181 248L275 246L256 243.914L216 242.91L108 248z"/>
<path style="fill:#d95509; stroke:none;" d="M243 242L243 243L248 243L243 242z"/>
<path style="fill:#fcc461; stroke:none;" d="M253 242L253 243L260 243L253 242z"/>
<path style="fill:#fa9d25; stroke:none;" d="M259 243L259 244L266 243L259 243z"/>
<path style="fill:#d95509; stroke:none;" d="M266 242L266 243L271 243L266 242M272 242L273 243L272 242z"/>
<path style="fill:#4b0c01; stroke:none;" d="M63 245L63 246L115 244L98 243.91L63 245M127 243L128 244L127 243M152 243L153 244L152 243z"/>
<path style="fill:#d95509; stroke:none;" d="M165 243L165 244L174 244L165 243M194 243L194 244L204 244L194 243M252 243L252 244L259 244L252 243z"/>
<path style="fill:#fcc461; stroke:none;" d="M265 243L265 244L272 244L265 243z"/>
<path style="fill:#fa9d25; stroke:none;" d="M271 244L271 245L294 245L271 244z"/>
<path style="fill:#d95509; stroke:none;" d="M278 243L278 244L288 244L278 243M360 243L360 244L384 244L384 245L352 246L352 247L438 246L480 247C475.401 241.736 455.884 245 449 245C419.272 245 389.757 243 360 243M448 243L448 244L464 244L448 243M149 244L149 245L157 245L149 244M179 244L179 245L190 245L179 244M262 244L262 245L271 245L262 244M294 244L294 245L328 245L328 246L316 246L316 247L358 245L338 244L294 244z"/>
<path style="fill:#fa9d25; stroke:none;" d="M358 244L358 245L384 245L358 244M368 246L368 248L402 247.004L479 247L444 246L368 246z"/>
<path style="fill:#a02702; stroke:none;" d="M0 245L0 247L28 246L0 245z"/>
<path style="fill:#d95509; stroke:none;" d="M28 245L28 246L37 246L28 245M128 245L128 246L141 246L128 245M167 245L167 246L176 246L167 245z"/>
<path style="fill:#4b0c01; stroke:none;" d="M224 245L224 246L232 246L224 245M234 245L234 246L237 246L234 245z"/>
<path style="fill:#d95509; stroke:none;" d="M181 248L181 249L292 247C280.516 242.181 261.207 245.669 249 246.83C226.724 248.95 203.392 248 181 248z"/>
<path style="fill:#fcc461; stroke:none;" d="M288 245L288 246L296 246L288 245z"/>
<path style="fill:#fa9d25; stroke:none;" d="M292 246L292 247L304 247L304 248L122 254L53 254L19 255L19 256L342 248L342 249L332 249L332 250L402 253L402 252L357 250L357 249L361 249L361 248L347 248L347 247L352 247L352 246L316 247L316 246L328 246C318.598 242.055 301.976 244.739 292 246z"/>
<path style="fill:#a02702; stroke:none;" d="M348 245L348 246L368 246L348 245z"/>
<path style="fill:#4b0c01; stroke:none;" d="M17 246L17 247L56 247C45.726 242.689 28.1724 246 17 246z"/>
<path style="fill:#d95509; stroke:none;" d="M83 246L83 247L112 247L83 246M149 246L149 247L160 247L149 246M0 247L0 248L61 248L41 247L0 247M128 247L128 248L140 248L128 247M298 247L298 248L304 248L298 247z"/>
<path style="fill:#fcc461; stroke:none;" d="M347 247L347 248L368 248L347 247z"/>
<path style="fill:#d95509; stroke:none;" d="M373 250L373 251L433 249L446 251L480 251L480 250L441 250L441 249L468 249C460.859 244.826 449.028 246.997 441 247C418.142 247.007 395.671 249.532 373 250z"/>
<path style="fill:#a02702; stroke:none;" d="M463 247L464 248L463 247M465 247L465 248L468 248L468 249L441 249L441 250L480 250L480 247L465 247z"/>
<path style="fill:#d95509; stroke:none;" d="M469.667 247.333L470.333 247.667L469.667 247.333z"/>
<path style="fill:#fcc461; stroke:none;" d="M0 248L0 249L5 249L0 248z"/>
<path style="fill:#d95509; stroke:none;" d="M86 248L86 249L108 249L86 248M280 248L280 249L294 249L280 248z"/>
<path style="fill:#fcc461; stroke:none;" d="M318 248L318 249L342 249L318 248z"/>
<path style="fill:#d95509; stroke:none;" d="M357 249L357 250L372 249L357 249M0 249L0 250L30 250L0 249z"/>
<path style="fill:#a02702; stroke:none;" d="M30.6667 249.333L31.3333 249.667L30.6667 249.333z"/>
<path style="fill:#d95509; stroke:none;" d="M32 249L32 250L63 250L32 249z"/>
<path style="fill:#4b0c01; stroke:none;" d="M104 249L104 250L116 250L104 249z"/>
<path style="fill:#d95509; stroke:none;" d="M152 249L152 250L178 250L152 249M245 249L245 250L268 250L245 249M317 249L317 250L332 250L317 249z"/>
<path style="fill:#a02702; stroke:none;" d="M368 249L368 250L380 250L368 249M386 250L386 251L480 255L480 251L447 251L433 249L386 250z"/>
<path style="fill:#4b0c01; stroke:none;" d="M0 250L0 252L8 251L0 250M8 251L8 252L17 251L8 251M22 251L22 252L93 251L71 250L22 251z"/>
<path style="fill:#d95509; stroke:none;" d="M127 250L127 251L144 251L127 250z"/>
<path style="fill:#4b0c01; stroke:none;" d="M173 250L173 251L176 251L173 250M182.667 250.333L183.333 250.667L182.667 250.333z"/>
<path style="fill:#d95509; stroke:none;" d="M211 250L211 251L230 251L211 250M276 250L276 251L296 251L276 250z"/>
<path style="fill:#a02702; stroke:none;" d="M259 251L259 252L480 259L480 257L340 250.039L259 251z"/>
<path style="fill:#d95509; stroke:none;" d="M344 250L344 251L352 251L344 250z"/>
<path style="fill:#4b0c01; stroke:none;" d="M152 251L152 252L160 252L152 251z"/>
<path style="fill:#d95509; stroke:none;" d="M187 251L187 252L200 252L187 251M235 251L235 252L259 252L235 251M360 251L360 252L368 252L360 251M389 251L389 252L402 252L389 251z"/>
<path style="fill:#4b0c01; stroke:none;" d="M48 253L48 254L132 253L107 252L48 253z"/>
<path style="fill:#d95509; stroke:none;" d="M157 252L157 253L176 253L157 252M212 252L212 253L224 253L212 252z"/>
<path style="fill:#a02702; stroke:none;" d="M224 252L224 253L247 253L224 252z"/>
<path style="fill:#4b0c01; stroke:none;" d="M0 257L0 360L480 360L480 259L331 252.245L0 257z"/>
<path style="fill:#a02702; stroke:none;" d="M248 252L248 253L253 253L248 252z"/>
<path style="fill:#d95509; stroke:none;" d="M378 252L378 253L385 253L378 252M391 253L391 254L409 253L391 253z"/>
<path style="fill:#4b0c01; stroke:none;" d="M470.667 252.333L471.333 252.667L470.667 252.333z"/>
<path style="fill:#fa9d25; stroke:none;" d="M0 253L4 255L0 253z"/>
<path style="fill:#d95509; stroke:none;" d="M3 253L3 254L12 254L3 253z"/>
<path style="fill:#a02702; stroke:none;" d="M88 253L88 254L123 254L88 253z"/>
<path style="fill:#d95509; stroke:none;" d="M123 253L123 254L148 254L123 253M182 253L182 254L200 254L182 253z"/>
<path style="fill:#a02702; stroke:none;" d="M193 254L193 255L221 254L193 254z"/>
<path style="fill:#fa9d25; stroke:none;" d="M406 253L406 254L411 254L406 253z"/>
<path style="fill:#d95509; stroke:none;" d="M410 254L410 255L423 254L410 254z"/>
<path style="fill:#fcc461; stroke:none;" d="M4 254L4 255L20 255L4 254z"/>
<path style="fill:#d95509; stroke:none;" d="M80 254L81 255L80 254M88.6667 254.333L89.3333 254.667L88.6667 254.333M153 254L153 255L168 255L153 254z"/>
<path style="fill:#a02702; stroke:none;" d="M168 254L168 255L192 255L168 254z"/>
<path style="fill:#fa9d25; stroke:none;" d="M420 254L420 255L435 255L420 254z"/>
<path style="fill:#d95509; stroke:none;" d="M431 255L431 256L480 257L480 255L431 255z"/>
<path style="fill:#a02702; stroke:none;" d="M0 255L0 257L112 257L78 256L0 255z"/>
<path style="fill:#d95509; stroke:none;" d="M4 255L4 256L19 256L4 255M104 255L104 256L136 256L104 255z"/>
<path style="fill:#a02702; stroke:none;" d="M136 255L136 256L163 256L136 255z"/>
</svg>
