<?xml version="1.0" standalone="yes"?>
<svg xmlns="http://www.w3.org/2000/svg" width="480" height="360">
<path style="fill:#222120; stroke:none;" d="M0 0L0 48C0 57.0178 -2.09589 65.0845 9 66L9 67L0 66L3 69L3 70L0 70L0 262L0 319L0.317901 345.907L10 359L0 356L0 360L247 360L316.576 359.849C327.704 359.849 341.595 362.409 352 358C352 361.347 366.494 360 370 360L420 360C424.385 360 434.897 362.149 436 357L437 357L437 360C441.173 360 448.121 361.164 451.826 358.948C458.187 355.143 461.871 343.496 467.185 337.914C472.414 332.422 479.731 329.223 480 321L458 344L474 322L465 331L463 330L453 339L446 346L444 352C441.174 352 441.209 353.142 441 356L439 358L438 358L438 348L437 348L437 351L436 351L435 347L434 347L435 351L434 351L433 347L432 347L432 350L431 350L430 346L428 348L428 346L427 346L427 348L426 348L428 338L430 339L431 333L438 329C439.327 324.087 444.598 321.847 449 320L448 318L480 309L480 288C456.682 289.065 441.994 308.969 428 325L434 315L419 328L421 321L414 325L413 325L413 323L412 323L412 325L411 325L411 323L410 323L410 325L409 325L405 324C407.349 297.924 440.933 293.745 461 289.905C467.493 288.663 473.293 286.139 480 286L480 271C466.811 277.155 458.119 277.524 446 271L446 269L456 263C442.007 258.98 428.008 272.311 419.92 282C399.091 306.95 379.63 339.723 352 358C376.649 333.859 401.878 306.938 421 278L412 286L413 283L407 287C415.393 276.033 434.515 263.203 448 260L448 259L434 258L434 257L436 256C413.565 250.674 406.281 275.083 391 285C394.546 279.111 398.131 273.894 403.001 269C407.654 264.323 412.194 259.443 418 256.174C438.803 244.465 459.047 255.917 480 259L480 0L343 0.0146484L286.715 3.37036L231 0.00384521L0 0z"/>
<path style="fill:#69635f; stroke:none;" d="M237 0L237 1L286.715 3.6821L338 1L307 0L237 0M419 29L420 30L419 29M416.667 30.3333L417.333 30.6667L416.667 30.3333M407 34L410 33L407 34M404 34L405 35L404 34M399 36L400 37L399 36M390.667 38.3333L391.333 38.6667L390.667 38.3333M387.667 39.3333L388.333 39.6667L387.667 39.3333M384 40L385 41L384 40M376 42L376 43L382 42L376 42M371.667 43.3333L372.333 43.6667L371.667 43.3333M362 45L362 46L365 46L362 45M194 46L194 47C226.725 54.5923 258.845 64.0664 293.039 61.882C310.483 60.7676 330.857 54.2233 348 50L348 49C330.058 49.3723 312.176 55.54 294 55.9854C259.289 56.8359 228.004 50.3914 194 46M359 46L360 47L359 46M71 60L73 62L71 60M411 60L407 62L407 63L412 61L411 60M74 62L74 63L128 94L128 93C111.238 83.1132 92.6976 67.4999 74 62M423 62L424 63L423 62M175 84L175 85C201.051 103.257 236.011 108.545 267 107.995C274.979 107.854 283.19 106.169 291 104.602C293.868 104.026 297.539 104.085 298 101L313 99L324 93.6667L351 84.1667L359 81C363.484 81.6736 368.208 80.7948 371 77C381.921 77.6413 394.971 68.0939 405 64C397.605 62.4474 386.005 69.7287 379 72.3187C357.902 80.1192 336.711 89.1353 315 95.0795C265.875 108.53 222.029 102.142 175 84M420 63L421 64L420 63M0 64L9 67L9 66L0 64M345 95L340 97L337 96L333 100L327 100L328 103L419 65L401 70.5756L361 86.8002L345 95M10 67L10 68L21 71L21 70L10 67M0 69L0 70L3 70L0 69M440 69L441 70L440 69M3 70L3 71L6 71L3 70M434 71L434 72L438 71L434 71M9.66667 71.3333L10.3333 71.6667L9.66667 71.3333M22.6667 71.3333L23.3333 71.6667L22.6667 71.3333M413 71C390.001 83.2486 364.204 92.5179 340 102.2C315.415 112.034 290.807 123.073 264 124.91C243.923 126.287 225.247 120.453 206 116L206 117C226.804 123.769 246.925 128.458 269 126.91C293.573 125.188 317.683 113.95 340 104.427C364.642 93.9126 390.336 84.6155 414 72L413 71M423 71L424 72L423 71M25 72L26 73L25 72z"/>
<path style="fill:#222120; stroke:none;" d="M383 72L384 73L383 72z"/>
<path style="fill:#69635f; stroke:none;" d="M421 72L422 73L421 72M431.667 72.3333L432.333 72.6667L431.667 72.3333M27 73L28 74L27 73z"/>
<path style="fill:#222120; stroke:none;" d="M381 73L382 74L381 73z"/>
<path style="fill:#69635f; stroke:none;" d="M418.667 73.3333L419.333 73.6667L418.667 73.3333M376 97L371 98L389 91.8611L430 74C425.275 72.925 420.332 76.0531 416 77.7994C405.558 82.0094 382.255 87.5245 376 97M29 74L30 75L29 74M435 76L435 77L442 75L435 76M32 75L33 76L32 75z"/>
<path style="fill:#222120; stroke:none;" d="M375 75L376 76L375 75z"/>
<path style="fill:#69635f; stroke:none;" d="M34 76L35 77L34 76M106 76L108 78L106 76M411.667 76.3333L412.333 76.6667L411.667 76.3333M37 77L38 78L37 77M408.667 77.3333L409.333 77.6667L408.667 77.3333M401 91C397.079 90.54 394.2 91.6458 392 95L400 94C400 91.2046 401.48 91.7348 404 92L403 90L404 90L406 91L407 91C407 86.0506 429.049 79.5636 434 78C431.977 75.9774 427.858 78.809 425 80C417.951 82.937 401.974 86.1304 401 91M39 78L41 80L39 78M109 78L110 79L109 78z"/>
<path style="fill:#222120; stroke:none;" d="M367 78L368 79L367 78z"/>
<path style="fill:#69635f; stroke:none;" d="M406.667 78.3333L407.333 78.6667L406.667 78.3333M110.667 79.3333L111.333 79.6667L110.667 79.3333z"/>
<path style="fill:#222120; stroke:none;" d="M364.667 79.3333L365.333 79.6667L364.667 79.3333z"/>
<path style="fill:#69635f; stroke:none;" d="M401 80L401 81L406 80L401 80M43 80L44 81L43 80M112.667 80.3333L113.333 80.6667L112.667 80.3333z"/>
<path style="fill:#222120; stroke:none;" d="M362 80L363 81L362 80z"/>
<path style="fill:#69635f; stroke:none;" d="M114 81L114 82C151.691 106.861 196.638 133.93 243 135.961C264.224 136.89 282.549 129.928 303 128L303 127L300 126L300 125L305 122L300 125L297 124L300 126L300 127L290 129L290 128L296 125L290 128L281 128L281 129L286 130L286 131C274.967 131.878 264.142 134.882 253 134.996C230.111 135.232 206.768 128.32 186 119.138C169.06 111.648 153.142 102.264 137 93.2701C129.481 89.0809 122.328 83.399 114 81M168 81L169 82L168 81M380 91L376 93L401 82C395.46 80.8533 383.151 86.3809 380 91z"/>
<path style="fill:#9a7c6e; stroke:none;" d="M402 89L403 90L402 89z"/>
<path style="fill:#69635f; stroke:none;" d="M141 90L142 91L141 90z"/>
<path style="fill:#9a7c6e; stroke:none;" d="M379 90L380 91L379 90M400 90L401 91L400 90z"/>
<path style="fill:#69635f; stroke:none;" d="M143 91L145 93L143 91M373 92L375 94L375 92L373 92z"/>
<path style="fill:#9a7c6e; stroke:none;" d="M375 92L376 93L375 92z"/>
<path style="fill:#69635f; stroke:none;" d="M171 93L172 94L171 93M367 97L360 100L353 102L354 103L355 101C360.74 101.673 368.58 97.6485 373 94C369.586 92.8621 367.404 94.982 367 97z"/>
<path style="fill:#9a7c6e; stroke:none;" d="M372.667 93.3333L373.333 93.6667L372.667 93.3333z"/>
<path style="fill:#69635f; stroke:none;" d="M129 94L129 95L134 97L134 96L129 94M173 94L174 95L173 94z"/>
<path style="fill:#9a7c6e; stroke:none;" d="M344 94L345 95L344 94z"/>
<path style="fill:#69635f; stroke:none;" d="M389 94L391 96L391 94L389 94z"/>
<path style="fill:#9a7c6e; stroke:none;" d="M391 94L392 95L391 94z"/>
<path style="fill:#69635f; stroke:none;" d="M149.667 95.3333L150.333 95.6667L149.667 95.3333M175.667 95.3333L176.333 95.6667L175.667 95.3333z"/>
<path style="fill:#9a7c6e; stroke:none;" d="M342 95L343 96L342 95M368 95L369 96L368 95z"/>
<path style="fill:#69635f; stroke:none;" d="M387 95L390 98L387 95z"/>
<path style="fill:#9a7c6e; stroke:none;" d="M388.667 95.3333L389.333 95.6667L388.667 95.3333z"/>
<path style="fill:#69635f; stroke:none;" d="M151.667 96.3333L152.333 96.6667L151.667 96.3333M177 96L177 97C217.385 113.568 256.662 123.991 300 111.552C308.723 109.048 319.616 107.466 327 102L324 103L321 102L322 104L321 104L319 103L318 103L319 105L318 105L316 104L315 104L316 106L315 106L313 105L312 105L313 107L312 107C309.832 106.284 308.969 105.706 309 108L305 109L301 108L293 112L288 111L288 112L290 112L290 113L262 114L262 115L271 115L271 116C252.543 116 232.753 114.178 215 108.965C202.468 105.284 189.726 98.2615 177 96z"/>
<path style="fill:#9a7c6e; stroke:none;" d="M339 96L340 97L339 96M366 96L367 97L366 96M375 96L376 97L375 96z"/>
<path style="fill:#69635f; stroke:none;" d="M383 99L380 98L380 99L383 100L384 97L387 98C384.945 96.4446 383.378 96.2051 383 99z"/>
<path style="fill:#9a7c6e; stroke:none;" d="M386.667 96.3333L387.333 96.6667L386.667 96.3333z"/>
<path style="fill:#69635f; stroke:none;" d="M391 96L392 97L391 96M135 97L150 106L150 105L135 97M153.667 97.3333L154.333 97.6667L153.667 97.3333z"/>
<path style="fill:#9a7c6e; stroke:none;" d="M336 97L337 98L336 97M373 97L374 98L373 97M384 97L385 98L384 97z"/>
<path style="fill:#69635f; stroke:none;" d="M155.667 98.3333L156.333 98.6667L155.667 98.3333M369 98L371 100L369 98z"/>
<path style="fill:#9a7c6e; stroke:none;" d="M370.667 98.3333L371.333 98.6667L370.667 98.3333M381.667 98.3333L382.333 98.6667L381.667 98.3333z"/>
<path style="fill:#69635f; stroke:none;" d="M157.667 99.3333L158.333 99.6667L157.667 99.3333z"/>
<path style="fill:#222120; stroke:none;" d="M305 99L306 100L305 99z"/>
<path style="fill:#9a7c6e; stroke:none;" d="M331.667 99.3333L332.333 99.6667L331.667 99.3333M359 99L360 100L359 99z"/>
<path style="fill:#69635f; stroke:none;" d="M366 99L367 100L366 99z"/>
<path style="fill:#9a7c6e; stroke:none;" d="M358 104L358 105L370 100L358 104z"/>
<path style="fill:#69635f; stroke:none;" d="M378 99L380 101L378 99z"/>
<path style="fill:#9a7c6e; stroke:none;" d="M379.667 99.3333L380.333 99.6667L379.667 99.3333z"/>
<path style="fill:#69635f; stroke:none;" d="M384 99L385 100L384 99M159 100L162 102L159 100z"/>
<path style="fill:#9a7c6e; stroke:none;" d="M357 100L358 101L357 100z"/>
<path style="fill:#69635f; stroke:none;" d="M364 100L365 101L364 100M368 100L369 101L368 100M376 100L378 102L376 100z"/>
<path style="fill:#9a7c6e; stroke:none;" d="M377.667 100.333L378.333 100.667L377.667 100.333M231 101L232 102L231 101M326.667 101.333L327.333 101.667L326.667 101.333M355 101L356 102L355 101z"/>
<path style="fill:#69635f; stroke:none;" d="M362 101L363 102L362 101M366 101L367 102L366 101M373 101L376 103L373 101z"/>
<path style="fill:#9a7c6e; stroke:none;" d="M375.667 101.333L376.333 101.667L375.667 101.333z"/>
<path style="fill:#69635f; stroke:none;" d="M162.667 102.333L163.333 102.667L162.667 102.333z"/>
<path style="fill:#9a7c6e; stroke:none;" d="M323 102L324 103L323 102z"/>
<path style="fill:#69635f; stroke:none;" d="M347 106L344 105L344 106L353 104C350.778 100.297 347.306 104.468 347 106z"/>
<path style="fill:#9a7c6e; stroke:none;" d="M352.667 102.333L353.333 102.667L352.667 102.333z"/>
<path style="fill:#69635f; stroke:none;" d="M360 102L361 103L360 102M364 102L365 103L364 102M371 102L373 104L371 102z"/>
<path style="fill:#9a7c6e; stroke:none;" d="M372.667 102.333L373.333 102.667L372.667 102.333z"/>
<path style="fill:#69635f; stroke:none;" d="M164.667 103.333L165.333 103.667L164.667 103.333z"/>
<path style="fill:#9a7c6e; stroke:none;" d="M320.667 103.333L321.333 103.667L320.667 103.333M351 103L352 104L351 103z"/>
<path style="fill:#69635f; stroke:none;" d="M358 103L359 104L358 103M361.667 103.333L362.333 103.667L361.667 103.333M369 103L370 105L367 104L367 105C369.249 105.288 370.397 105.197 369 103z"/>
<path style="fill:#9a7c6e; stroke:none;" d="M370.667 103.333L371.333 103.667L370.667 103.333z"/>
<path style="fill:#69635f; stroke:none;" d="M166.667 104.333L167.333 104.667L166.667 104.333z"/>
<path style="fill:#9a7c6e; stroke:none;" d="M317.667 104.333L318.333 104.667L317.667 104.333M348 104L349 105L348 104z"/>
<path style="fill:#69635f; stroke:none;" d="M355 104L355 105L358 106L355 104z"/>
<path style="fill:#b4a49d; stroke:none;" d="M357 104L358 105L357 104z"/>
<path style="fill:#69635f; stroke:none;" d="M359 104L360 105L359 104z"/>
<path style="fill:#9a7c6e; stroke:none;" d="M368.667 104.333L369.333 104.667L368.667 104.333z"/>
<path style="fill:#69635f; stroke:none;" d="M168 105L168 106L172 107L172 106L168 105z"/>
<path style="fill:#9a7c6e; stroke:none;" d="M314.667 105.333L315.333 105.667L314.667 105.333M346 105L347 106L346 105z"/>
<path style="fill:#69635f; stroke:none;" d="M353 105L354 106L353 105z"/>
<path style="fill:#9a7c6e; stroke:none;" d="M354 107L357 106L354 107z"/>
<path style="fill:#69635f; stroke:none;" d="M364 105L367 107L364 105z"/>
<path style="fill:#9a7c6e; stroke:none;" d="M366.667 105.333L367.333 105.667L366.667 105.333z"/>
<path style="fill:#69635f; stroke:none;" d="M151 106L152 107L151 106z"/>
<path style="fill:#9a7c6e; stroke:none;" d="M311.667 106.333L312.333 106.667L311.667 106.333z"/>
<path style="fill:#69635f; stroke:none;" d="M342 106L344 108L342 106z"/>
<path style="fill:#9a7c6e; stroke:none;" d="M343.667 106.333L344.333 106.667L343.667 106.333z"/>
<path style="fill:#69635f; stroke:none;" d="M351 106L354 108L354 107L351 106z"/>
<path style="fill:#9a7c6e; stroke:none;" d="M352 106L353 107L352 106z"/>
<path style="fill:#b4a49d; stroke:none;" d="M353 106L354 107L353 106z"/>
<path style="fill:#69635f; stroke:none;" d="M355 106L356 107L355 106M362 106L364 108L362 106z"/>
<path style="fill:#9a7c6e; stroke:none;" d="M363.667 106.333L364.333 106.667L363.667 106.333z"/>
<path style="fill:#69635f; stroke:none;" d="M153 107L154 108L153 107M172 107L172 108L176 109L176 108L172 107z"/>
<path style="fill:#9a7c6e; stroke:none;" d="M307.667 107.333L308.333 107.667L307.667 107.333z"/>
<path style="fill:#69635f; stroke:none;" d="M340 107L337 108L336 110L336 111L342 108L340 107z"/>
<path style="fill:#9a7c6e; stroke:none;" d="M341.667 107.333L342.333 107.667L341.667 107.333z"/>
<path style="fill:#69635f; stroke:none;" d="M348 107L348 108L351 109L348 107z"/>
<path style="fill:#9a7c6e; stroke:none;" d="M350 107L351 108L350 107z"/>
<path style="fill:#b4a49d; stroke:none;" d="M351 107L352 108L351 107z"/>
<path style="fill:#69635f; stroke:none;" d="M360 107L358 108L358 109L358 110L362 108L360 107z"/>
<path style="fill:#9a7c6e; stroke:none;" d="M361.667 107.333L362.333 107.667L361.667 107.333z"/>
<path style="fill:#69635f; stroke:none;" d="M155 108L157 110L155 108z"/>
<path style="fill:#9a7c6e; stroke:none;" d="M303.667 108.333L304.333 108.667L303.667 108.333M338.667 108.333L339.333 108.667L338.667 108.333z"/>
<path style="fill:#69635f; stroke:none;" d="M346 108L347 109L346 108z"/>
<path style="fill:#9a7c6e; stroke:none;" d="M347.333 108.667L347.667 109.333L347.333 108.667z"/>
<path style="fill:#b4a49d; stroke:none;" d="M348.667 108.333L349.333 108.667L348.667 108.333z"/>
<path style="fill:#9a7c6e; stroke:none;" d="M359 108L360 109L359 108z"/>
<path style="fill:#69635f; stroke:none;" d="M176 109L176 110L199 119L204 121L209 123L212 124L228 130.196L275 132L275 130L247 130.83L218 127L206 121.189L176 109z"/>
<path style="fill:#9a7c6e; stroke:none;" d="M299 109L299 110L302 110L299 109M336.667 109.333L337.333 109.667L336.667 109.333z"/>
<path style="fill:#69635f; stroke:none;" d="M344 109L345 110L344 109z"/>
<path style="fill:#9a7c6e; stroke:none;" d="M345.333 109.667L345.667 110.333L345.333 109.667z"/>
<path style="fill:#b4a49d; stroke:none;" d="M346 109L347 110L346 109z"/>
<path style="fill:#69635f; stroke:none;" d="M348 109L349 110L348 109M355 109L357 111L357 109L355 109z"/>
<path style="fill:#9a7c6e; stroke:none;" d="M357 109L358 110L357 109z"/>
<path style="fill:#69635f; stroke:none;" d="M399 109L400 110L399 109M159 110L160 111L159 110M333 110L335 112L333 110z"/>
<path style="fill:#9a7c6e; stroke:none;" d="M334.667 110.333L335.333 110.667L334.667 110.333z"/>
<path style="fill:#69635f; stroke:none;" d="M342 110L345 112L345 111L342 110z"/>
<path style="fill:#9a7c6e; stroke:none;" d="M343 110L344 111L343 110z"/>
<path style="fill:#b4a49d; stroke:none;" d="M344 110L345 111L344 110z"/>
<path style="fill:#69635f; stroke:none;" d="M346 110L347 111L346 110M353 110L355 112L353 110z"/>
<path style="fill:#9a7c6e; stroke:none;" d="M354.667 110.333L355.333 110.667L354.667 110.333z"/>
<path style="fill:#69635f; stroke:none;" d="M161 111L162 112L161 111z"/>
<path style="fill:#9a7c6e; stroke:none;" d="M291.667 111.333L292.333 111.667L291.667 111.333z"/>
<path style="fill:#69635f; stroke:none;" d="M331 111L326 114L327 115L328 113L333 112L331 111z"/>
<path style="fill:#9a7c6e; stroke:none;" d="M332.667 111.333L333.333 111.667L332.667 111.333z"/>
<path style="fill:#69635f; stroke:none;" d="M340 111L342 113L340 111z"/>
<path style="fill:#b4a49d; stroke:none;" d="M341.667 111.333L342.333 111.667L341.667 111.333z"/>
<path style="fill:#69635f; stroke:none;" d="M348 113L353 112L348 113z"/>
<path style="fill:#9a7c6e; stroke:none;" d="M352.667 111.333L353.333 111.667L352.667 111.333z"/>
<path style="fill:#69635f; stroke:none;" d="M394 111L395 112L394 111M283.667 112.333L284.333 112.667L283.667 112.333z"/>
<path style="fill:#9a7c6e; stroke:none;" d="M282 113L282 114L290 113L282 113M330 112L331 113L330 112z"/>
<path style="fill:#69635f; stroke:none;" d="M337 112L338 113L337 112z"/>
<path style="fill:#9a7c6e; stroke:none;" d="M338.333 112.667L338.667 113.333L338.333 112.667z"/>
<path style="fill:#b4a49d; stroke:none;" d="M339 112L340 113L339 112z"/>
<path style="fill:#9a7c6e; stroke:none;" d="M340 112L341 113L340 112M350 112L351 113L350 112z"/>
<path style="fill:#69635f; stroke:none;" d="M392 112L393 113L392 112z"/>
<path style="fill:#9a7c6e; stroke:none;" d="M328 113L329 114L328 113z"/>
<path style="fill:#69635f; stroke:none;" d="M335 113L338 115L338 114L335 113z"/>
<path style="fill:#9a7c6e; stroke:none;" d="M336 113L337 114L336 113z"/>
<path style="fill:#b4a49d; stroke:none;" d="M337 113L338 114L337 113z"/>
<path style="fill:#69635f; stroke:none;" d="M339 113L340 114L339 113M346 113L341 116L342 117L343 115L348 114L346 113z"/>
<path style="fill:#9a7c6e; stroke:none;" d="M347.667 113.333L348.333 113.667L347.667 113.333z"/>
<path style="fill:#69635f; stroke:none;" d="M321 117L311 119L311 120L316 118L319 119L318 117L319 117C321.495 117.398 323 117.628 323 115L326 116C323.638 114.5 322.64 114.72 321 117z"/>
<path style="fill:#9a7c6e; stroke:none;" d="M325.667 114.333L326.333 114.667L325.667 114.333z"/>
<path style="fill:#69635f; stroke:none;" d="M333 114L335 116L333 114z"/>
<path style="fill:#9a7c6e; stroke:none;" d="M334 114L335 115L334 114z"/>
<path style="fill:#b4a49d; stroke:none;" d="M335 114L336 115L335 114z"/>
<path style="fill:#9a7c6e; stroke:none;" d="M344.667 114.333L345.333 114.667L344.667 114.333z"/>
<path style="fill:#69635f; stroke:none;" d="M387 114L388 115L387 114M427 114L428 115L427 114z"/>
<path style="fill:#9a7c6e; stroke:none;" d="M256 115L257 116L256 115M258 115L258 116L271 116L258 115M323.667 115.333L324.333 115.667L323.667 115.333z"/>
<path style="fill:#69635f; stroke:none;" d="M330 115L331 116L330 115z"/>
<path style="fill:#9a7c6e; stroke:none;" d="M331 117L334 116L331 117M343 115L344 116L343 115z"/>
<path style="fill:#69635f; stroke:none;" d="M384 115L382 116L382 117L384 115M424 115L425 116L424 115z"/>
<path style="fill:#9a7c6e; stroke:none;" d="M320 116L321 117L320 116z"/>
<path style="fill:#69635f; stroke:none;" d="M328 116L331 118L331 117L328 116z"/>
<path style="fill:#9a7c6e; stroke:none;" d="M329 116L330 117L329 116z"/>
<path style="fill:#b4a49d; stroke:none;" d="M330 116L331 117L330 116z"/>
<path style="fill:#69635f; stroke:none;" d="M332 116L333 117L332 116M336 119L333 118L333 119L338 117L341 118C338.638 116.5 337.64 116.72 336 119z"/>
<path style="fill:#9a7c6e; stroke:none;" d="M340.667 116.333L341.333 116.667L340.667 116.333z"/>
<path style="fill:#69635f; stroke:none;" d="M414 119L414 120L423 117L414 119z"/>
<path style="fill:#9a7c6e; stroke:none;" d="M318.667 117.333L319.333 117.667L318.667 117.333z"/>
<path style="fill:#69635f; stroke:none;" d="M325 117L326 118L325 117z"/>
<path style="fill:#9a7c6e; stroke:none;" d="M326 119L329 118L326 119M338 117L339 118L338 117z"/>
<path style="fill:#69635f; stroke:none;" d="M380 117L381 118L380 117z"/>
<path style="fill:#9a7c6e; stroke:none;" d="M316 118L317 119L316 118z"/>
<path style="fill:#69635f; stroke:none;" d="M323 118L326 120L326 119L323 118z"/>
<path style="fill:#9a7c6e; stroke:none;" d="M324 118L325 119L324 118z"/>
<path style="fill:#b4a49d; stroke:none;" d="M325 118L326 119L325 118z"/>
<path style="fill:#69635f; stroke:none;" d="M327 118L328 119L327 118z"/>
<path style="fill:#9a7c6e; stroke:none;" d="M335 118L336 119L335 118z"/>
<path style="fill:#69635f; stroke:none;" d="M378 118L379 119L378 118z"/>
<path style="fill:#9a7c6e; stroke:none;" d="M198 119L199 120L198 119M312.667 119.333L313.333 119.667L312.667 119.333z"/>
<path style="fill:#69635f; stroke:none;" d="M320 119L320 120L323 121L320 119z"/>
<path style="fill:#9a7c6e; stroke:none;" d="M322.667 119.333L323.333 119.667L322.667 119.333z"/>
<path style="fill:#69635f; stroke:none;" d="M297 131L297 132C307.626 131.073 324.461 126.455 333 120L297 131z"/>
<path style="fill:#9a7c6e; stroke:none;" d="M332.667 119.333L333.333 119.667L332.667 119.333z"/>
<path style="fill:#69635f; stroke:none;" d="M373 120L373 121L377 120L373 120M407 119L408 120L407 119M306 123L308 121L311 122C308.638 120.5 307.64 120.72 306 123z"/>
<path style="fill:#9a7c6e; stroke:none;" d="M310.667 120.333L311.333 120.667L310.667 120.333z"/>
<path style="fill:#69635f; stroke:none;" d="M318 120L321 122L321 121L318 120z"/>
<path style="fill:#9a7c6e; stroke:none;" d="M319 120L319 121L322 121L319 120z"/>
<path style="fill:#69635f; stroke:none;" d="M391 120L392 121L391 120M377 132L379 134L379 135L377 137L373 139C361.381 138.913 345.504 150.871 335 155.895C308.521 168.561 278.079 184.751 248 185L248 186C282.455 186 315.195 168.403 344 154C353.62 149.19 363.472 144.764 373 140C376.663 138.169 381.188 134.547 383 135L381 132L385 131L384 134L413 121L413 120L385 131L385 130L406 121C397.823 119.632 384.733 129 377 132z"/>
<path style="fill:#9a7c6e; stroke:none;" d="M203 121L204 122L203 121M308 121L309 122L308 121z"/>
<path style="fill:#69635f; stroke:none;" d="M315 121L318 123L318 122L315 121z"/>
<path style="fill:#9a7c6e; stroke:none;" d="M316 121L316 122L319 122L316 121z"/>
<path style="fill:#69635f; stroke:none;" d="M371 121L372 122L371 121M388.667 121.333L389.333 121.667L388.667 121.333z"/>
<path style="fill:#9a7c6e; stroke:none;" d="M305 122L306 123L305 122z"/>
<path style="fill:#69635f; stroke:none;" d="M312 122L313 123L312 122z"/>
<path style="fill:#9a7c6e; stroke:none;" d="M302 126L302 127L316 123L302 126z"/>
<path style="fill:#69635f; stroke:none;" d="M362 125L362 126L370 123L362 125M386 122L387 123L386 122M392 122L393 123L392 122z"/>
<path style="fill:#9a7c6e; stroke:none;" d="M208 123L209 124L208 123z"/>
<path style="fill:#69635f; stroke:none;" d="M309.667 123.333L310.333 123.667L309.667 123.333M314 123L315 124L314 123M384 123L383 125L384 123M390 123L391 124L390 123z"/>
<path style="fill:#9a7c6e; stroke:none;" d="M211 124L212 125L211 124M298.667 124.333L299.333 124.667L298.667 124.333z"/>
<path style="fill:#69635f; stroke:none;" d="M306.667 124.333L307.333 124.667L306.667 124.333M311 124L312 125L311 124z"/>
<path style="fill:#9a7c6e; stroke:none;" d="M296 125L297 126L296 125z"/>
<path style="fill:#69635f; stroke:none;" d="M303.667 125.333L304.333 125.667L303.667 125.333M308.667 125.333L309.333 125.667L308.667 125.333M378 126L378 127L382 126L378 126M386 125L387 126L386 125z"/>
<path style="fill:#9a7c6e; stroke:none;" d="M218.667 126.333L219.333 126.667L218.667 126.333z"/>
<path style="fill:#222120; stroke:none;" d="M290 128L290 129L300 127L290 128z"/>
<path style="fill:#69635f; stroke:none;" d="M305 126L306 127L305 126M357 127L357 128L361 127L357 127M383.667 126.333L384.333 126.667L383.667 126.333z"/>
<path style="fill:#9a7c6e; stroke:none;" d="M289 127L290 128L289 127M300.667 127.333L301.333 127.667L300.667 127.333z"/>
<path style="fill:#69635f; stroke:none;" d="M376 127L353 138L353 139L377 128L376 127M381.667 127.333L382.333 127.667L381.667 127.333M355 128L356 129L355 128M368 128L369 129L368 128M379.667 128.333L380.333 128.667L379.667 128.333M0 129L1 130L0 129M276 129L276 131L281 131L276 129z"/>
<path style="fill:#9a7c6e; stroke:none;" d="M280.667 129.333L281.333 129.667L280.667 129.333z"/>
<path style="fill:#222120; stroke:none;" d="M286 129L286 130L290 130L286 129z"/>
<path style="fill:#69635f; stroke:none;" d="M351 131L354 130L351 131M377.667 129.333L378.333 129.667L377.667 129.333z"/>
<path style="fill:#9a7c6e; stroke:none;" d="M275 130L276 131L275 130z"/>
<path style="fill:#69635f; stroke:none;" d="M375.667 130.333L376.333 130.667L375.667 130.333M362 131L363 132L362 131M373.667 131.333L374.333 131.667L373.667 131.333z"/>
<path style="fill:#222120; stroke:none;" d="M381 132L381 133L385 132L381 132z"/>
<path style="fill:#69635f; stroke:none;" d="M294.667 132.333L295.333 132.667L294.667 132.333M360 132L361 133L360 132M371.667 132.333L372.333 132.667L371.667 132.333M288 135L293 134L288 135M344 133L345 134L344 133M369.667 133.333L370.333 133.667L369.667 133.333M375.333 133.667L375.667 134.333L375.333 133.667z"/>
<path style="fill:#9a7c6e; stroke:none;" d="M376 133L377 134L376 133z"/>
<path style="fill:#222120; stroke:none;" d="M379.667 133.333L380.333 133.667L379.667 133.333z"/>
<path style="fill:#9a7c6e; stroke:none;" d="M383 133L384 134L383 133z"/>
<path style="fill:#69635f; stroke:none;" d="M282 135L282 136L287 135L282 135M367.667 134.333L368.333 134.667L367.667 134.333M373.333 134.667L373.667 135.333L373.333 134.667z"/>
<path style="fill:#9a7c6e; stroke:none;" d="M374 134L375 135L374 134M381 134L382 135L381 134z"/>
<path style="fill:#69635f; stroke:none;" d="M358 138L358 139L367 136L358 138M371.333 135.667L371.667 136.333L371.333 135.667z"/>
<path style="fill:#9a7c6e; stroke:none;" d="M372 135L373 136L372 135z"/>
<path style="fill:#69635f; stroke:none;" d="M369.333 136.667L369.667 137.333L369.333 136.667z"/>
<path style="fill:#9a7c6e; stroke:none;" d="M370 136L371 137L370 136M376 136L377 137L376 136z"/>
<path style="fill:#69635f; stroke:none;" d="M367 137L360 141L361 142L362 140C364.394 140.132 367.521 139.936 367 137z"/>
<path style="fill:#9a7c6e; stroke:none;" d="M368 137L369 138L368 137M372 138L373 139L372 138z"/>
<path style="fill:#69635f; stroke:none;" d="M351 139L345 142L345 143L352 140L351 139M344 145L344 146L358 140L344 145z"/>
<path style="fill:#9a7c6e; stroke:none;" d="M362 140L363 141L362 140z"/>
<path style="fill:#69635f; stroke:none;" d="M358 141L356 142L356 144L354 143L354 144L354 145L360 142L358 141z"/>
<path style="fill:#9a7c6e; stroke:none;" d="M359.667 141.333L360.333 141.667L359.667 141.333M357 142L358 143L357 142z"/>
<path style="fill:#69635f; stroke:none;" d="M343 143L334 148L334 149L344 144L343 143z"/>
<path style="fill:#9a7c6e; stroke:none;" d="M355 143L356 144L355 143z"/>
<path style="fill:#69635f; stroke:none;" d="M352.333 144.667L352.667 145.333L352.333 144.667z"/>
<path style="fill:#9a7c6e; stroke:none;" d="M353 144L354 145L353 144z"/>
<path style="fill:#69635f; stroke:none;" d="M350.333 145.667L350.667 146.333L350.333 145.667z"/>
<path style="fill:#9a7c6e; stroke:none;" d="M351 145L352 146L351 145z"/>
<path style="fill:#69635f; stroke:none;" d="M318 158L319 160L305 165L305 166C309.411 166.52 314.438 164.755 317 161L330 157L328 154L332 153L331 156L332 156L334 155L332 152L341 152L339 149L343 151L345 150L345 148L347 149L347 148L347 147L343 148L344 146L318 158M348.333 146.667L348.667 147.333L348.333 146.667z"/>
<path style="fill:#9a7c6e; stroke:none;" d="M349 146L350 147L349 146M347 147L348 148L347 147z"/>
<path style="fill:#222120; stroke:none;" d="M341.667 148.333L342.333 148.667L341.667 148.333z"/>
<path style="fill:#9a7c6e; stroke:none;" d="M345 148L346 149L345 148z"/>
<path style="fill:#69635f; stroke:none;" d="M325 152L325 153L333 150L325 152z"/>
<path style="fill:#222120; stroke:none;" d="M339.667 149.333L340.333 149.667L339.667 149.333z"/>
<path style="fill:#9a7c6e; stroke:none;" d="M343 149L344 150L343 149z"/>
<path style="fill:#222120; stroke:none;" d="M332 152L332 153L339 151L332 152z"/>
<path style="fill:#9a7c6e; stroke:none;" d="M340.667 150.333L341.333 150.667L340.667 150.333z"/>
<path style="fill:#69635f; stroke:none;" d="M337 151L339 153L337 151z"/>
<path style="fill:#9a7c6e; stroke:none;" d="M338.667 151.333L339.333 151.667L338.667 151.333z"/>
<path style="fill:#69635f; stroke:none;" d="M335 152L335 154L337 154L335 152z"/>
<path style="fill:#9a7c6e; stroke:none;" d="M336.667 152.333L337.333 152.667L336.667 152.333z"/>
<path style="fill:#69635f; stroke:none;" d="M323 153L324 154L323 153z"/>
<path style="fill:#222120; stroke:none;" d="M328 154L328 155L332 154L328 154z"/>
<path style="fill:#9a7c6e; stroke:none;" d="M334 153L335 154L334 153z"/>
<path style="fill:#69635f; stroke:none;" d="M321 154L322 155L321 154z"/>
<path style="fill:#9a7c6e; stroke:none;" d="M332 154L333 155L332 154z"/>
<path style="fill:#69635f; stroke:none;" d="M319 155L320 156L319 155z"/>
<path style="fill:#222120; stroke:none;" d="M322 157L322 158L328 156L322 157z"/>
<path style="fill:#9a7c6e; stroke:none;" d="M330 155L331 156L330 155z"/>
<path style="fill:#69635f; stroke:none;" d="M287 169L287 170L318 157C309.458 155.571 295.146 165.839 287 169z"/>
<path style="fill:#9a7c6e; stroke:none;" d="M328 156L329 157L328 156z"/>
<path style="fill:#222120; stroke:none;" d="M320 158L321 159L320 158z"/>
<path style="fill:#69635f; stroke:none;" d="M316 159L317 160L316 159M311 161L312 162L311 161z"/>
<path style="fill:#9a7c6e; stroke:none;" d="M317 161L318 162L317 161M307 165L308 166L307 165z"/>
<path style="fill:#69635f; stroke:none;" d="M288 174L285 173L285 174L290 172L293 173L292 171L293 171L300 168L303 169L302 167L305 168C300.438 165.193 290.786 169.783 288 174z"/>
<path style="fill:#9a7c6e; stroke:none;" d="M304.667 166.333L305.333 166.667L304.667 166.333M302.667 167.333L303.333 167.667L302.667 167.333M300 168L301 169L300 168z"/>
<path style="fill:#69635f; stroke:none;" d="M255 178L255 179L286 171L255 178M191.667 171.333L192.333 171.667L191.667 171.333z"/>
<path style="fill:#9a7c6e; stroke:none;" d="M292.667 171.333L293.333 171.667L292.667 171.333z"/>
<path style="fill:#69635f; stroke:none;" d="M194 172L195 173L194 172z"/>
<path style="fill:#9a7c6e; stroke:none;" d="M290 172L291 173L290 172z"/>
<path style="fill:#69635f; stroke:none;" d="M196.667 173.333L197.333 173.667L196.667 173.333z"/>
<path style="fill:#9a7c6e; stroke:none;" d="M287 173L288 174L287 173z"/>
<path style="fill:#69635f; stroke:none;" d="M198.667 174.333L199.333 174.667L198.667 174.333M276 177L279 176L285 175L276 177z"/>
<path style="fill:#9a7c6e; stroke:none;" d="M284.667 174.333L285.333 174.667L284.667 174.333z"/>
<path style="fill:#69635f; stroke:none;" d="M200 175L200 176L206 177L200 175z"/>
<path style="fill:#9a7c6e; stroke:none;" d="M279 176L280 177L279 176z"/>
<path style="fill:#69635f; stroke:none;" d="M206 177L206 178C220.212 182.545 233.118 184.173 248 183.996C252.848 183.938 260.777 183.985 264 180L268 179L272 180C266.73 176.333 256.183 181.232 250 181.83C234.449 183.335 221.063 178.23 206 177M272 177L275 179L272 177z"/>
<path style="fill:#9a7c6e; stroke:none;" d="M275.667 177.333L276.333 177.667L275.667 177.333M271.667 178.333L272.333 178.667L271.667 178.333z"/>
<path style="fill:#69635f; stroke:none;" d="M246.667 179.333L247.333 179.667L246.667 179.333z"/>
<path style="fill:#9a7c6e; stroke:none;" d="M268 179L269 180L268 179M264.667 180.333L265.333 180.667L264.667 180.333z"/>
<path style="fill:#69635f; stroke:none;" d="M296 184L297 185L296 184M293 185L294 186L293 185M284.667 188.333L285.333 188.667L284.667 188.333M391 244L393 243L393 244L392 248L383 261L384 261C391.051 250.548 397.066 238.839 408 232C401.48 230.94 394.398 239.19 391 244M373 236C360.855 244.37 356.77 265.189 353 279C359.157 273.705 361.229 262.726 363 255C366.755 254.246 367.87 251.526 369 248L365 250L373 236M389 237L390 238L389 237M388 238L365 276L368 276L362 286L360 289L358 292C344.901 295.779 332.307 314.164 321 322.529C316.694 325.714 311.253 328.194 311 334L308 336L304 338L309 334L315 330L320 325L322 327L323 324L329 318L330 318L329 321L330 321L332 317C340.017 315.975 354.582 300.99 356 293L358 290C362.104 287.903 364.615 284.613 365 280L370 274L371 274L371 277L374 275L373 280L374 280L380 267L377 269L382 257L379 255C383.163 254.452 389.014 241.985 388 238M352 240L352 242L354 242L354 240L352 240M413 240L411 245L417 241L413 240M350 241L351 242L350 241z"/>
<path style="fill:#955747; stroke:none;" d="M347 245L350 243L346 246L345 255C349.981 251.452 353.573 247.315 352 241L347 245z"/>
<path style="fill:#9a7c6e; stroke:none;" d="M349 243L347 247L350 246L349 243M392 243C389.437 246.404 383.946 251.749 386 256L392 248L392 243z"/>
<path style="fill:#69635f; stroke:none;" d="M333 244L332 247L333 244z"/>
<path style="fill:#b4a49d; stroke:none;" d="M349 244L350 245L349 244z"/>
<path style="fill:#69635f; stroke:none;" d="M346 245L347 246L346 245M389 246L390 247L389 246M345.333 247.667L345.667 248.333L345.333 247.667M388 247L389 248L388 247M387 248L386 251L387 248z"/>
<path style="fill:#9a7c6e; stroke:none;" d="M346 249L346 253L347 253L346 249z"/>
<path style="fill:#222120; stroke:none;" d="M364 250L365 251L364 250z"/>
<path style="fill:#b4a49d; stroke:none;" d="M387 250L388 251L387 250z"/>
<path style="fill:#69635f; stroke:none;" d="M329 251L330 275L331 275L332 251L329 251M344 251L338 289L339 289L349 256L345 261L344 261L344 251M385 251L386 252L385 251M422 256L418 255L416 260C422.743 256.471 428.377 254.606 436 256L434 257L434 258L448 259L448 260L445 260L445 261C457.95 259.328 467.877 257.806 480 264L480 259C464.985 255.7 451.695 250.431 436 251.019C432.096 251.165 422.608 251.584 422 256z"/>
<path style="fill:#9a7c6e; stroke:none;" d="M345 253L346 254L345 253M380 253L381 254L380 253z"/>
<path style="fill:#69635f; stroke:none;" d="M346 254L347 255L346 254M383 254L384 255L383 254z"/>
<path style="fill:#b4a49d; stroke:none;" d="M384 254L385 257L384 254z"/>
<path style="fill:#9a7c6e; stroke:none;" d="M423 254L424 255L423 254M379.333 255.667L379.667 256.333L379.333 255.667M420.667 255.333L421.333 255.667L420.667 255.333M382 256L380 260L385 257L382 256M418.667 256.333L419.333 256.667L418.667 256.333z"/>
<path style="fill:#69635f; stroke:none;" d="M433 256L434 257L433 256z"/>
<path style="fill:#9a7c6e; stroke:none;" d="M378 257L379 258L378 257z"/>
<path style="fill:#69635f; stroke:none;" d="M415 257L414 259L415 257z"/>
<path style="fill:#9a7c6e; stroke:none;" d="M415 260L418 257L415 260z"/>
<path style="fill:#222120; stroke:none;" d="M379 258L380 259L379 258z"/>
<path style="fill:#b4a49d; stroke:none;" d="M382 258L378 267L379 267L384 258L382 258M415 258L416 259L415 258z"/>
<path style="fill:#9a7c6e; stroke:none;" d="M377 259L378 260L377 259z"/>
<path style="fill:#69635f; stroke:none;" d="M412 259L410 262L412 259z"/>
<path style="fill:#b4a49d; stroke:none;" d="M403 270L415 260C410.012 259.895 405.676 266.201 403 270z"/>
<path style="fill:#9a7c6e; stroke:none;" d="M453 259L453 260L474 264L474 263L472 263L472 262L478 263C471.024 257.803 461.234 259 453 259M379 260L380 261L379 260z"/>
<path style="fill:#69635f; stroke:none;" d="M414 260L415 261L414 260z"/>
<path style="fill:#9a7c6e; stroke:none;" d="M448 260L452 262L452 261L448 260z"/>
<path style="fill:#b4a49d; stroke:none;" d="M450 260L450 261L454 261L450 260z"/>
<path style="fill:#9a7c6e; stroke:none;" d="M382 261L383 262L382 261M412 261L405 269L412 261z"/>
<path style="fill:#69635f; stroke:none;" d="M413 261L414 262L413 261M422.667 261.333L423.333 261.667L422.667 261.333M440 262L440 263L444 262L440 262z"/>
<path style="fill:#9a7c6e; stroke:none;" d="M444 261L446 263L444 261z"/>
<path style="fill:#b4a49d; stroke:none;" d="M445 261L445 262L448 262L445 261z"/>
<path style="fill:#69635f; stroke:none;" d="M452 261L452 262L456 263L452 265L452 266L459 264L459 262L452 261z"/>
<path style="fill:#955747; stroke:none;" d="M458 261L459 264L446 269L446 271C453.92 277.207 464.373 279.504 473.582 272.861C476.307 270.896 476.98 267.742 480 266L472 262L472 263L474 263L458 261z"/>
<path style="fill:#69635f; stroke:none;" d="M382 262L383 263L382 262z"/>
<path style="fill:#9a7c6e; stroke:none;" d="M409 262L410 263L409 262z"/>
<path style="fill:#69635f; stroke:none;" d="M412 262L413 263L412 262z"/>
<path style="fill:#9a7c6e; stroke:none;" d="M442.333 262.667L442.667 263.333L442.333 262.667z"/>
<path style="fill:#b4a49d; stroke:none;" d="M443.667 262.333L444.333 262.667L443.667 262.333z"/>
<path style="fill:#69635f; stroke:none;" d="M446 262L446 263L449 263L446 262z"/>
<path style="fill:#9a7c6e; stroke:none;" d="M381 263L380 265L381 263M408 263L409 264L408 263z"/>
<path style="fill:#69635f; stroke:none;" d="M411 263L412 264L411 263M438 263L439 264L438 263z"/>
<path style="fill:#9a7c6e; stroke:none;" d="M439 263L441 265L439 263z"/>
<path style="fill:#b4a49d; stroke:none;" d="M440.667 263.333L441.333 263.667L440.667 263.333z"/>
<path style="fill:#69635f; stroke:none;" d="M443.667 263.333L444.333 263.667L443.667 263.333M381 264L382 265L381 264z"/>
<path style="fill:#9a7c6e; stroke:none;" d="M407 264L408 265L407 264z"/>
<path style="fill:#69635f; stroke:none;" d="M410 264L411 265L410 264M436 264L437 265L436 264z"/>
<path style="fill:#9a7c6e; stroke:none;" d="M437 264L439 266L437 264z"/>
<path style="fill:#b4a49d; stroke:none;" d="M438.667 264.333L439.333 264.667L438.667 264.333z"/>
<path style="fill:#69635f; stroke:none;" d="M441 264L442 265L441 264z"/>
<path style="fill:#9a7c6e; stroke:none;" d="M375 265L374 267L375 265M378 265L379 266L378 265z"/>
<path style="fill:#69635f; stroke:none;" d="M380 265L381 266L380 265M406 265L407 266L406 265M409 265L410 266L409 265z"/>
<path style="fill:#9a7c6e; stroke:none;" d="M435 265L437 267L435 265z"/>
<path style="fill:#b4a49d; stroke:none;" d="M436.667 265.333L437.333 265.667L436.667 265.333z"/>
<path style="fill:#69635f; stroke:none;" d="M439 265L440 266L439 265z"/>
<path style="fill:#9a7c6e; stroke:none;" d="M379 266L380 267L379 266z"/>
<path style="fill:#69635f; stroke:none;" d="M405 266L406 267L405 266M408 266L409 267L408 266M433 266L434 267L433 266z"/>
<path style="fill:#b4a49d; stroke:none;" d="M423 277L436 267C430.65 266.729 425.717 272.846 423 277z"/>
<path style="fill:#69635f; stroke:none;" d="M437 266L438 267L437 266M477 266L475 273C478.882 271.822 479.699 269.952 480 266L477 266z"/>
<path style="fill:#9a7c6e; stroke:none;" d="M329 267L328 286L329 286L329 267z"/>
<path style="fill:#222120; stroke:none;" d="M372 267L367 275L368 275L372 267z"/>
<path style="fill:#9a7c6e; stroke:none;" d="M377 267L377 269L379 267L377 267z"/>
<path style="fill:#69635f; stroke:none;" d="M404 267L405 268L404 267M407 267L408 268L407 267z"/>
<path style="fill:#9a7c6e; stroke:none;" d="M432 267L433 268L432 267z"/>
<path style="fill:#69635f; stroke:none;" d="M435 267L436 268L435 267M372 268L373 269L372 268z"/>
<path style="fill:#9a7c6e; stroke:none;" d="M373 268L374 269L373 268z"/>
<path style="fill:#222120; stroke:none;" d="M374 268L375 269L374 268z"/>
<path style="fill:#69635f; stroke:none;" d="M403 268L404 269L403 268M406 268L407 269L406 268M430 268L431 269L430 268z"/>
<path style="fill:#9a7c6e; stroke:none;" d="M431 268L432 269L431 268M433 268L434 269L433 268M372 269L373 270L372 269z"/>
<path style="fill:#69635f; stroke:none;" d="M402 269L391 285C397.589 282.162 401.528 276.094 405 270L401 273L402 269M405 269L406 270L405 269M429 269L430 270L429 269M432 269L433 270L432 269M318 270L320 273L318 270M328 270L328 273L329 273L328 270z"/>
<path style="fill:#222120; stroke:none;" d="M373 270L374 271L373 270z"/>
<path style="fill:#9a7c6e; stroke:none;" d="M401 273L404 270L401 273z"/>
<path style="fill:#69635f; stroke:none;" d="M428 270L429 271L428 270M431 270L432 271L431 270M426 271L427 272L426 271z"/>
<path style="fill:#9a7c6e; stroke:none;" d="M427 271L428 272L427 271M429 271L430 272L429 271z"/>
<path style="fill:#69635f; stroke:none;" d="M430 271L431 272L430 271z"/>
<path style="fill:#9a7c6e; stroke:none;" d="M370 272L371 273L370 272z"/>
<path style="fill:#69635f; stroke:none;" d="M407 287L413 283L412 286L426 272C419.244 274.599 410.315 280.457 407 287z"/>
<path style="fill:#9a7c6e; stroke:none;" d="M428 272L429 273L428 272M318 273L318 275L320 275L318 273z"/>
<path style="fill:#955747; stroke:none;" d="M319 273L320 274L319 273M328 273L328 277L329 277L328 273z"/>
<path style="fill:#9a7c6e; stroke:none;" d="M400.333 273.667L400.667 274.333L400.333 273.667M425 273L426 274L425 273z"/>
<path style="fill:#69635f; stroke:none;" d="M427 273L428 274L427 273M473.667 273.333L474.333 273.667L473.667 273.333z"/>
<path style="fill:#9a7c6e; stroke:none;" d="M424 274L425 275L424 274M426 274L427 275L426 274z"/>
<path style="fill:#955747; stroke:none;" d="M318 275L318 283L319 283L318 275z"/>
<path style="fill:#b4a49d; stroke:none;" d="M319 275L319 279L320 279L319 275z"/>
<path style="fill:#69635f; stroke:none;" d="M320 275L321 276L320 275z"/>
<path style="fill:#9a7c6e; stroke:none;" d="M368 275L369 276L368 275M421 275L422 276L421 275z"/>
<path style="fill:#69635f; stroke:none;" d="M425 275L426 276L425 275z"/>
<path style="fill:#955747; stroke:none;" d="M320 276L321 277L320 276z"/>
<path style="fill:#69635f; stroke:none;" d="M364 276L365 277L364 276z"/>
<path style="fill:#9a7c6e; stroke:none;" d="M367 276L368 277L367 276M424 276L425 277L424 276M320 277L319 285L320 285L320 277z"/>
<path style="fill:#69635f; stroke:none;" d="M363.333 277.667L363.667 278.333L363.333 277.667z"/>
<path style="fill:#9a7c6e; stroke:none;" d="M422 277L419 282L424 277L422 277M366 278L367 279L366 278z"/>
<path style="fill:#69635f; stroke:none;" d="M362 279L363 280L362 279M420 279L421 280L420 279z"/>
<path style="fill:#955747; stroke:none;" d="M320 280L319 287L320 280z"/>
<path style="fill:#9a7c6e; stroke:none;" d="M365 280L366 281L365 280z"/>
<path style="fill:#69635f; stroke:none;" d="M372 280L373 281L372 280M419 280L420 281L419 280M421 280L422 281L421 280M361 281L362 282L361 281z"/>
<path style="fill:#9a7c6e; stroke:none;" d="M364 281L365 282L364 281z"/>
<path style="fill:#69635f; stroke:none;" d="M418 281L398 308C406.63 304.306 415.019 289.972 420 282L418 281M420 281L421 282L420 281M329 282L329 285L330 285L329 282M327 283L326 295L327 295L327 283M351 283L352 284L351 283M359 284L360 285L359 284z"/>
<path style="fill:#9a7c6e; stroke:none;" d="M362 284L363 285L362 284M361 285L362 286L361 285z"/>
<path style="fill:#69635f; stroke:none;" d="M390 285C365.609 309.976 348.277 340.007 317 358L317 359C324.662 356.554 330.818 350.395 337 345.449C351.743 333.655 364.268 320.047 375.626 305C379.686 299.62 389.577 291.813 390 285M473.667 286.333L474.333 286.667L473.667 286.333z"/>
<path style="fill:#9a7c6e; stroke:none;" d="M475 286L475 287L479 288L479 287L475 286z"/>
<path style="fill:#b4a49d; stroke:none;" d="M477 286L477 287L480 287L477 286z"/>
<path style="fill:#69635f; stroke:none;" d="M319 287L320 292L321 292L321 287L319 287z"/>
<path style="fill:#9a7c6e; stroke:none;" d="M360 287L361 288L360 287z"/>
<path style="fill:#69635f; stroke:none;" d="M406 287L407 288L406 287M469.667 287.333L470.333 287.667L469.667 287.333z"/>
<path style="fill:#9a7c6e; stroke:none;" d="M471 287L474 289L474 288L471 287z"/>
<path style="fill:#b4a49d; stroke:none;" d="M472 287L472 288L477 288L472 287z"/>
<path style="fill:#69635f; stroke:none;" d="M479 287L480 288L479 287z"/>
<path style="fill:#9a7c6e; stroke:none;" d="M359 288L360 289L359 288z"/>
<path style="fill:#69635f; stroke:none;" d="M466 288L467 289L466 288z"/>
<path style="fill:#9a7c6e; stroke:none;" d="M467 288L468 289L467 288z"/>
<path style="fill:#b4a49d; stroke:none;" d="M414 315L415 315L421 315L422 315L429 310L428 316L433 313L432 311L451 297L435 315C447.981 305.856 455.821 293.425 472 289C467.295 287.331 460.801 290.366 456 291.424C442.564 294.388 416.581 297.98 414 315z"/>
<path style="fill:#69635f; stroke:none;" d="M474 288L475 289L474 288M463 289L464 290L463 289z"/>
<path style="fill:#9a7c6e; stroke:none;" d="M464 289L465 290L464 289M469 289L470 290L469 289z"/>
<path style="fill:#69635f; stroke:none;" d="M470.667 289.333L471.333 289.667L470.667 289.333M355 290L354 292L355 290z"/>
<path style="fill:#9a7c6e; stroke:none;" d="M358 290L359 291L358 290z"/>
<path style="fill:#955747; stroke:none;" d="M457.667 290.333L458.333 290.667L457.667 290.333z"/>
<path style="fill:#9a7c6e; stroke:none;" d="M459.667 290.333L460.333 290.667L459.667 290.333z"/>
<path style="fill:#955747; stroke:none;" d="M467 290L468 291L467 290z"/>
<path style="fill:#9a7c6e; stroke:none;" d="M357 291L358 292L357 291z"/>
<path style="fill:#69635f; stroke:none;" d="M452 291L453 292L452 291z"/>
<path style="fill:#955747; stroke:none;" d="M453 291L454 292L453 291z"/>
<path style="fill:#9a7c6e; stroke:none;" d="M454.667 291.333L455.333 291.667L454.667 291.333z"/>
<path style="fill:#955747; stroke:none;" d="M464 291L465 292L464 291z"/>
<path style="fill:#69635f; stroke:none;" d="M465 291L466 292L465 291M402 292L403 293L402 292z"/>
<path style="fill:#955747; stroke:none;" d="M448.667 292.333L449.333 292.667L448.667 292.333z"/>
<path style="fill:#9a7c6e; stroke:none;" d="M450.667 292.333L451.333 292.667L450.667 292.333z"/>
<path style="fill:#955747; stroke:none;" d="M462 292L463 293L462 292z"/>
<path style="fill:#9a7c6e; stroke:none;" d="M356 293L357 294L356 293z"/>
<path style="fill:#69635f; stroke:none;" d="M443 293L444 294L443 293z"/>
<path style="fill:#955747; stroke:none;" d="M444 293L445 294L444 293z"/>
<path style="fill:#9a7c6e; stroke:none;" d="M445 293L446 294L445 293M460 293L461 294L460 293z"/>
<path style="fill:#69635f; stroke:none;" d="M461 293L462 294L461 293M466 293L467 294L466 293M470.667 293.333L471.333 293.667L470.667 293.333z"/>
<path style="fill:#222120; stroke:none;" d="M353 294L345 304L353 294z"/>
<path style="fill:#9a7c6e; stroke:none;" d="M355 294L356 295L355 294z"/>
<path style="fill:#955747; stroke:none;" d="M439.667 294.333L440.333 294.667L439.667 294.333z"/>
<path style="fill:#9a7c6e; stroke:none;" d="M441 294L442 295L441 294M455 294L456 295L455 294M458 294L459 295L458 294z"/>
<path style="fill:#69635f; stroke:none;" d="M459 294L460 295L459 294M353 295L354 296L353 295z"/>
<path style="fill:#b4a49d; stroke:none;" d="M354 295L355 296L354 295z"/>
<path style="fill:#955747; stroke:none;" d="M416 306L438 296C430.401 293.752 420.211 300.089 416 306z"/>
<path style="fill:#9a7c6e; stroke:none;" d="M451 297L454 295L451 297z"/>
<path style="fill:#955747; stroke:none;" d="M457 295L458 296L457 295z"/>
<path style="fill:#9a7c6e; stroke:none;" d="M353 296L354 297L353 296M435 296L436 297L435 296M455 296L456 297L455 296M432.667 297.333L433.333 297.667L432.667 297.333M444 302L451 298L444 302z"/>
<path style="fill:#955747; stroke:none;" d="M454 297L455 298L454 297z"/>
<path style="fill:#9a7c6e; stroke:none;" d="M352 298L353 299L352 298M430 298L431 299L430 298M452 298L453 299L452 298M351 299L352 300L351 299M428 299L429 300L428 299z"/>
<path style="fill:#955747; stroke:none;" d="M448 299L449 300L448 299z"/>
<path style="fill:#9a7c6e; stroke:none;" d="M451 299L452 300L451 299M350 300L351 301L350 300z"/>
<path style="fill:#69635f; stroke:none;" d="M406 300L407 301L406 300z"/>
<path style="fill:#9a7c6e; stroke:none;" d="M425.667 300.333L426.333 300.667L425.667 300.333z"/>
<path style="fill:#955747; stroke:none;" d="M446 300L447 301L446 300z"/>
<path style="fill:#69635f; stroke:none;" d="M450 300L451 301L450 300M348 301L346 304L348 301z"/>
<path style="fill:#9a7c6e; stroke:none;" d="M349 301L350 302L349 301M424 301L425 302L424 301z"/>
<path style="fill:#69635f; stroke:none;" d="M449 301L450 302L449 301z"/>
<path style="fill:#9a7c6e; stroke:none;" d="M348 302L349 303L348 302z"/>
<path style="fill:#222120; stroke:none;" d="M403 302L401 305L403 302z"/>
<path style="fill:#9a7c6e; stroke:none;" d="M422.667 302.333L423.333 302.667L422.667 302.333z"/>
<path style="fill:#955747; stroke:none;" d="M444.333 302.667L444.667 303.333L444.333 302.667z"/>
<path style="fill:#69635f; stroke:none;" d="M448 302L449 303L448 302z"/>
<path style="fill:#9a7c6e; stroke:none;" d="M347 303L348 304L347 303M401 303L402 304L401 303z"/>
<path style="fill:#69635f; stroke:none;" d="M417 303L418 304L417 303z"/>
<path style="fill:#9a7c6e; stroke:none;" d="M421 303L422 304L421 303M442 303L441 307L444 303L442 303M346 304L347 305L346 304M400 304L401 305L400 304z"/>
<path style="fill:#69635f; stroke:none;" d="M416 304L417 305L416 304z"/>
<path style="fill:#9a7c6e; stroke:none;" d="M419 304L418 306L420 306L419 304z"/>
<path style="fill:#955747; stroke:none;" d="M442 304L443 305L442 304z"/>
<path style="fill:#69635f; stroke:none;" d="M446 304L447 305L446 304M336 305L337 306L336 305z"/>
<path style="fill:#9a7c6e; stroke:none;" d="M345 305L346 306L345 305M399 305L400 306L399 305z"/>
<path style="fill:#69635f; stroke:none;" d="M415 305C409.573 310.557 405.37 316.018 405 324L409 325L410 325L410 323L411 323L411 325L412 325L412 323L413 323L413 325L414 325L421 321L419 328L438 310L437 310L435 314L426 319L425 314L424 314L422 315L422 317L420 318L419 318L419 316L418 316L418 318L417 318L417 316L416 316L411 318L410 314L417 306L415 305z"/>
<path style="fill:#955747; stroke:none;" d="M441 305L442 306L441 305z"/>
<path style="fill:#69635f; stroke:none;" d="M445 305L446 306L445 305M323 306L324 307L323 306z"/>
<path style="fill:#9a7c6e; stroke:none;" d="M344 306L345 307L344 306M417 306L410 314L411 318L416 316L417 316L417 318L418 318L418 316L419 316L419 318L420 318L422 317C420.37 314.163 417.714 312.445 415 315L414 315L417 306z"/>
<path style="fill:#955747; stroke:none;" d="M440 306L437 309L437 310L440 306z"/>
<path style="fill:#69635f; stroke:none;" d="M444 306L445 307L444 306M321 307L311 321L321 308L322 310L323 310L321 307z"/>
<path style="fill:#9a7c6e; stroke:none;" d="M397 307L389 318L397 307z"/>
<path style="fill:#69635f; stroke:none;" d="M400 307L398 311L399 311L400 307z"/>
<path style="fill:#9a7c6e; stroke:none;" d="M438.333 307.667L438.667 308.333L438.333 307.667z"/>
<path style="fill:#69635f; stroke:none;" d="M443 307L444 308L443 307z"/>
<path style="fill:#222120; stroke:none;" d="M340 308L341 309L340 308z"/>
<path style="fill:#9a7c6e; stroke:none;" d="M342 308L343 309L342 308z"/>
<path style="fill:#69635f; stroke:none;" d="M396 308L397 309L396 308M442 308L443 309L442 308M333 309L334 310L333 309z"/>
<path style="fill:#9a7c6e; stroke:none;" d="M341 309L342 310L341 309z"/>
<path style="fill:#69635f; stroke:none;" d="M395 309L396 310L395 309M397 309L398 310L397 309M441 309L442 310L441 309M476.667 309.333L477.333 309.667L476.667 309.333z"/>
<path style="fill:#9a7c6e; stroke:none;" d="M478.667 309.333L479.333 309.667L478.667 309.333z"/>
<path style="fill:#222120; stroke:none;" d="M338 310L337 312L338 310z"/>
<path style="fill:#9a7c6e; stroke:none;" d="M340 310L341 311L340 310z"/>
<path style="fill:#69635f; stroke:none;" d="M394 310L395 311L394 310M396 310L397 311L396 310z"/>
<path style="fill:#9a7c6e; stroke:none;" d="M428 310L424 314L425 314L426 319L429 316L426 315L426 314L428 310M432 312L435 313L437 311L432 312M438 310L439 311L438 310z"/>
<path style="fill:#69635f; stroke:none;" d="M440 310L441 311L440 310M472 310L473 311L472 310z"/>
<path style="fill:#9a7c6e; stroke:none;" d="M473 310L474 311L473 310z"/>
<path style="fill:#b4a49d; stroke:none;" d="M441 331L439 330L437 332L438 335L441 334L441 332L443 333L443 331L445 332L445 330L447 328L448 328L448 330L449 330L449 327L450 327L450 329L451 329L451 326L452 326L451 331L461 323L458 328L471 321L471 319L473 320L480 310C467.996 310.249 443.762 317.37 441 331z"/>
<path style="fill:#69635f; stroke:none;" d="M321 311L322 312L321 311M331 311L324 318L332 312L331 311M338 311L339 312L338 311z"/>
<path style="fill:#9a7c6e; stroke:none;" d="M339 311L340 312L339 311z"/>
<path style="fill:#69635f; stroke:none;" d="M393 311L394 312L393 311M395 311L396 312L395 311z"/>
<path style="fill:#955747; stroke:none;" d="M435 311L436 312L435 311z"/>
<path style="fill:#9a7c6e; stroke:none;" d="M437 311L438 312L437 311z"/>
<path style="fill:#69635f; stroke:none;" d="M439 311L440 312L439 311M467 311L467 312L470 312L467 311z"/>
<path style="fill:#222120; stroke:none;" d="M336 312L335 314L336 312z"/>
<path style="fill:#9a7c6e; stroke:none;" d="M338 312L339 313L338 312z"/>
<path style="fill:#69635f; stroke:none;" d="M394 312L395 313L394 312z"/>
<path style="fill:#222120; stroke:none;" d="M435 312L436 313L435 312z"/>
<path style="fill:#69635f; stroke:none;" d="M438 312L439 313L438 312M448 318L449 320C444.175 321.397 438.875 323.68 438 329L431 333L430 339L428 338L426 348L427 348L428 346L428 348L429 348L430 346L431 350L432 350L432 347L433 347L434 351L435 351L434 347L435 347L436 351L437 351L437 348L438 348L438 358L439 358L441 356L444 352L446 346C449.9 345.576 451.764 342.54 453 339C457.461 338.517 461.128 333.902 463 330L465 331L474 322L458 344C464.668 338.854 479.404 324.471 480 316L465 326L463 325L454 333L455 329L449 336L448 336L447 333L446 336L445 336L445 334L444 334L444 337L443 337L443 335L442 335L442 338L441 338L441 336L440 336L440 339L439 339L438 335L437 335L438 340L437 340L435 333L466 313L448 318z"/>
<path style="fill:#9a7c6e; stroke:none;" d="M466 312L467 313L466 312M336 313L337 314L336 313z"/>
<path style="fill:#69635f; stroke:none;" d="M393 313L394 314L393 313z"/>
<path style="fill:#9a7c6e; stroke:none;" d="M431.667 313.333L432.333 313.667L431.667 313.333z"/>
<path style="fill:#222120; stroke:none;" d="M434 313L435 314L434 313z"/>
<path style="fill:#69635f; stroke:none;" d="M437 313L438 314L437 313z"/>
<path style="fill:#9a7c6e; stroke:none;" d="M463 313L464 314L463 313M335 314L336 315L335 314z"/>
<path style="fill:#69635f; stroke:none;" d="M391 314L392 315L391 314M426 314L427 315L426 314z"/>
<path style="fill:#9a7c6e; stroke:none;" d="M429.667 314.333L430.333 314.667L429.667 314.333M436 314L437 315L436 314M460 314L461 315L460 314z"/>
<path style="fill:#222120; stroke:none;" d="M332 315L333 316L332 315z"/>
<path style="fill:#9a7c6e; stroke:none;" d="M334 315L335 316L334 315z"/>
<path style="fill:#69635f; stroke:none;" d="M390 315L391 316L390 315z"/>
<path style="fill:#9a7c6e; stroke:none;" d="M434 315L431 320L436 315L434 315M458 315L459 316L458 315M471 315L468 318L471 315M479 315L480 316L479 315z"/>
<path style="fill:#222120; stroke:none;" d="M331 316L332 317L331 316z"/>
<path style="fill:#9a7c6e; stroke:none;" d="M333 316L334 317L333 316z"/>
<path style="fill:#69635f; stroke:none;" d="M389 316L390 317L389 316M391 316L392 317L391 316M433 316L434 317L433 316M435 316L436 317L435 316z"/>
<path style="fill:#9a7c6e; stroke:none;" d="M455 316L456 317L455 316M475 317L475 318L479 317L475 317M332 317L333 318L332 317z"/>
<path style="fill:#69635f; stroke:none;" d="M390 317L391 318L390 317z"/>
<path style="fill:#b4a49d; stroke:none;" d="M426 317L427 318L426 317z"/>
<path style="fill:#69635f; stroke:none;" d="M432 317L433 318L432 317M434 317L435 318L434 317z"/>
<path style="fill:#9a7c6e; stroke:none;" d="M453 317L452 319L454 319L453 317M463 317L463 318L465 320L466 320L463 317z"/>
<path style="fill:#69635f; stroke:none;" d="M466 317L466 319L468 319L468 317L466 317z"/>
<path style="fill:#222120; stroke:none;" d="M329 318L328 320L329 318z"/>
<path style="fill:#9a7c6e; stroke:none;" d="M331 318L332 319L331 318z"/>
<path style="fill:#69635f; stroke:none;" d="M375 335L390 319C384.155 318.873 377.989 330.477 375 335M433 318L434 319L433 318z"/>
<path style="fill:#9a7c6e; stroke:none;" d="M473.667 318.333L474.333 318.667L473.667 318.333z"/>
<path style="fill:#69635f; stroke:none;" d="M322 319L323 320L322 319z"/>
<path style="fill:#9a7c6e; stroke:none;" d="M329 319L330 320L329 319M388 319L389 320L388 319z"/>
<path style="fill:#69635f; stroke:none;" d="M432 319L433 320L432 319z"/>
<path style="fill:#9a7c6e; stroke:none;" d="M451 319L452 320L451 319M471 319L471 321L473 321L471 319z"/>
<path style="fill:#69635f; stroke:none;" d="M320 320L321 321L320 320z"/>
<path style="fill:#9a7c6e; stroke:none;" d="M328 320L329 321L328 320M387 320L386 322L387 320z"/>
<path style="fill:#69635f; stroke:none;" d="M430 320L428 325L432 320L430 320z"/>
<path style="fill:#9a7c6e; stroke:none;" d="M449 320L450 321L449 320M461 323L465 320L461 323M469 320L469 322L471 322L469 320M327 321L328 322L327 321M423 321L424 322L423 321M447 321L448 322L447 321z"/>
<path style="fill:#222120; stroke:none;" d="M475 321L476 322L475 321z"/>
<path style="fill:#9a7c6e; stroke:none;" d="M326 322L327 323L326 322M458 328L461 323C456.423 325.161 454.458 327.994 454 333L463 325L465 326L469 323C464.579 321.792 461.142 325.182 458 328z"/>
<path style="fill:#222120; stroke:none;" d="M322 323L321 325L322 323z"/>
<path style="fill:#9a7c6e; stroke:none;" d="M324 323L325 324L324 323M445 323L446 324L445 323z"/>
<path style="fill:#69635f; stroke:none;" d="M315 324L314 326L315 324z"/>
<path style="fill:#9a7c6e; stroke:none;" d="M323 324L324 325L323 324M384 324L383 326L384 324z"/>
<path style="fill:#222120; stroke:none;" d="M320 325L321 326L320 325z"/>
<path style="fill:#69635f; stroke:none;" d="M427 325L428 326L427 325z"/>
<path style="fill:#9a7c6e; stroke:none;" d="M442.667 325.333L443.333 325.667L442.667 325.333M320 326L321 327L320 326M451 326L451 329L450 329L450 327L449 327L449 330L448 330L448 328L447 328L445 330L445 332L443 331L443 333L441 332L441 334L439 333L439 339L440 339L440 336L441 336L441 338L442 338L442 335L443 335L443 337L444 337L444 334L445 334L445 336L446 336L447 333L448 336L449 336L452 333L451 326M453.333 326.667L453.667 327.333L453.333 326.667z"/>
<path style="fill:#69635f; stroke:none;" d="M311 327L310 329L311 327z"/>
<path style="fill:#222120; stroke:none;" d="M311 332L318 328L311 332z"/>
<path style="fill:#9a7c6e; stroke:none;" d="M319 327L320 328L319 327M440 327L440 331L442 327L440 327z"/>
<path style="fill:#69635f; stroke:none;" d="M456 327L457 328L456 327M479 327L480 328L479 327M316 328L317 329L316 328z"/>
<path style="fill:#9a7c6e; stroke:none;" d="M317 328L318 329L317 328z"/>
<path style="fill:#69635f; stroke:none;" d="M418 328L419 329L418 328M477 328C466.427 337.739 458.719 347.23 452 360L457 360C457.618 345.842 474.146 339.772 477 328z"/>
<path style="fill:#9a7c6e; stroke:none;" d="M478 328L475 332L478 328z"/>
<path style="fill:#b4a49d; stroke:none;" d="M479 328C472.743 333.779 465.671 339.634 463 348C469.711 345.049 482.579 336.63 479 328z"/>
<path style="fill:#9a7c6e; stroke:none;" d="M316 329L317 330L316 329M453 329L454 330L453 329z"/>
<path style="fill:#b4a49d; stroke:none;" d="M456 329L457 330L456 329z"/>
<path style="fill:#69635f; stroke:none;" d="M307 330L306 332L307 330z"/>
<path style="fill:#9a7c6e; stroke:none;" d="M315 330L316 331L315 330z"/>
<path style="fill:#69635f; stroke:none;" d="M417 330L418 331L417 330z"/>
<path style="fill:#9a7c6e; stroke:none;" d="M437 330L439 333L439 330L437 330M452 330L453 331L452 330z"/>
<path style="fill:#69635f; stroke:none;" d="M448 332L449 333L448 332z"/>
<path style="fill:#9a7c6e; stroke:none;" d="M310 333L311 334L310 333M435 333L437 340L438 340L438 333L435 333M452 333L450 336L451 337L454 333L452 333M309 334L310 335L309 334M307 335L308 336L307 335M375 335L374 337L375 335M434 335L435 341L436 341L434 335M479 335C475.378 338.208 466.548 349.411 462 346L457 358C463.898 353.539 477.495 343.293 479 335z"/>
<path style="fill:#69635f; stroke:none;" d="M373 336L352 358C357.67 355.473 375.385 342.642 373 336M375 336L376 337L375 336M419 336L403 355L406 355L407 354L406 352C409.971 350.063 412.434 347.426 413 343L419 336z"/>
<path style="fill:#9a7c6e; stroke:none;" d="M446.333 336.667L446.667 337.333L446.333 336.667M470 336L471 337L470 336z"/>
<path style="fill:#69635f; stroke:none;" d="M479 336L458 360C465.589 359.149 481.573 344.129 479 336M299 337L290 343L290 344L300 338L299 337z"/>
<path style="fill:#9a7c6e; stroke:none;" d="M432 337L433 341L434 341L432 337M469 337L470 338L469 337z"/>
<path style="fill:#69635f; stroke:none;" d="M302.667 338.333L303.333 338.667L302.667 338.333z"/>
<path style="fill:#9a7c6e; stroke:none;" d="M372 338L373 339L372 338M468 338L469 339L468 338z"/>
<path style="fill:#69635f; stroke:none;" d="M299 341L302 339L299 341z"/>
<path style="fill:#9a7c6e; stroke:none;" d="M371 339L372 340L371 339M467 339L468 340L467 339z"/>
<path style="fill:#955747; stroke:none;" d="M312 340C303.92 342.577 293.126 343.921 292 354L313 341L312 340z"/>
<path style="fill:#9a7c6e; stroke:none;" d="M370 340L371 341L370 340M466 340L467 341L466 340z"/>
<path style="fill:#222120; stroke:none;" d="M479 340L462 359L462 360C475.838 359.828 480 360.009 480 345L479 345L472 354L479 340z"/>
<path style="fill:#69635f; stroke:none;" d="M298 341L299 342L298 341z"/>
<path style="fill:#9a7c6e; stroke:none;" d="M369 341L370 342L369 341M465.333 341.667L465.667 342.333L465.333 341.667z"/>
<path style="fill:#69635f; stroke:none;" d="M296 342L295 344L296 342M479 342L472 354C475.554 351.257 480.107 346.796 479 342M2 343L3 344L2 343M409 343L396 359L409 343z"/>
<path style="fill:#9a7c6e; stroke:none;" d="M413 343L414 344L413 343z"/>
<path style="fill:#69635f; stroke:none;" d="M425.333 343.667L425.667 344.333L425.333 343.667z"/>
<path style="fill:#9a7c6e; stroke:none;" d="M464 343L465 344L464 343z"/>
<path style="fill:#69635f; stroke:none;" d="M288 344L287 346L288 344M293 344L269 358L269 359C275.161 357.888 291.226 350.277 293 344z"/>
<path style="fill:#9a7c6e; stroke:none;" d="M412 344L413 345L412 344z"/>
<path style="fill:#69635f; stroke:none;" d="M457 344L449 357L450 357L457 344z"/>
<path style="fill:#9a7c6e; stroke:none;" d="M463.333 344.667L463.667 345.333L463.333 344.667M300 345L297 350L302 346L300 345M365 345L366 346L365 345M297 346L298 347L297 346z"/>
<path style="fill:#b4a49d; stroke:none;" d="M298 346L295 350L298 346M300 346L301 347L300 346z"/>
<path style="fill:#222120; stroke:none;" d="M436 346L437 347L436 346z"/>
<path style="fill:#9a7c6e; stroke:none;" d="M295 347L296 348L295 347M363 347L364 348L363 347z"/>
<path style="fill:#69635f; stroke:none;" d="M424 347L425 348L424 347M0 348C0.0264201 355.459 2.55931 357.885 10 359C8.03936 353.669 5.11813 350.457 0 348M427 348L427 351L428 351L427 348M429 348L430 354L431 354L429 348z"/>
<path style="fill:#222120; stroke:none;" d="M439 348L440 349L439 348z"/>
<path style="fill:#9a7c6e; stroke:none;" d="M361 349L362 350L361 349z"/>
<path style="fill:#b4a49d; stroke:none;" d="M462 349L463 350L462 349z"/>
<path style="fill:#9a7c6e; stroke:none;" d="M1 350L4 353L1 350M360 350L361 351L360 350z"/>
<path style="fill:#69635f; stroke:none;" d="M425 350L427 353L425 350M432 350L432 353L433 353L432 350z"/>
<path style="fill:#9a7c6e; stroke:none;" d="M359 351L360 352L359 351z"/>
<path style="fill:#69635f; stroke:none;" d="M437 351L437 354L438 354L437 351z"/>
<path style="fill:#9a7c6e; stroke:none;" d="M406 352L407 353L406 352M405 353L406 354L405 353z"/>
<path style="fill:#955747; stroke:none;" d="M462.667 353.333L463.333 353.667L462.667 353.333z"/>
<path style="fill:#9a7c6e; stroke:none;" d="M404 354L403 357L404 354z"/>
<path style="fill:#69635f; stroke:none;" d="M471 354L469 358L471 354M12 355L12 356L16 357L16 356L12 355z"/>
<path style="fill:#955747; stroke:none;" d="M460.667 355.333L461.333 355.667L460.667 355.333z"/>
<path style="fill:#69635f; stroke:none;" d="M23 356L24 357L23 356z"/>
<path style="fill:#955747; stroke:none;" d="M361 356L360 359L361 356z"/>
<path style="fill:#69635f; stroke:none;" d="M402 356L402 359L404 358L404 357L402 356M404 356L405 357L404 356z"/>
<path style="fill:#955747; stroke:none;" d="M459 356L456 359L459 356z"/>
<path style="fill:#69635f; stroke:none;" d="M436 357L436 360L437 360L436 357M20 358L21 359L20 358M349 360L352 358L349 360M479 358L478 360L480 360L479 358M29.6667 359.333L30.3333 359.667L29.6667 359.333M258.667 359.333L259.333 359.667L258.667 359.333M267.667 359.333L268.333 359.667L267.667 359.333M316 359L317 360L316 359M359 359L360 360L359 359M401 359L402 360L401 359M447 359L448 360L447 359M468 359L469 360L468 359z"/>
</svg>
