<?xml version="1.0" standalone="yes"?>
<svg xmlns="http://www.w3.org/2000/svg" width="480" height="320">
<path style="fill:#13213d; stroke:none;" d="M0 0L0 19L4 20L1 20L0 28L1 28L3 23L5 24L6 24L6 23L4 22L7 21C7.72231 24.9405 10.2087 35.6506 15 29L20 34L16 36L13 33L12 39L16 40L15 43L24 48L23 52L28 55L27 63L27 64L30 64L30 65C24.2325 65.4456 22.1948 68.8647 25 74L26 74L28 72L28 82C25.0844 82.1371 23.3695 82.0174 23 85L28 85L25 84L24 88L20 88L21 95L16 95L18 93L18 92L16 96L8 96L8 97L9 101L7 99L0 102L1 135L5 133L8 139L5 139L5 140L6 143L2 143L4 149L0 147L3 153L6 150C9.88533 154.175 5.71526 154.419 3 157L1 157L1 155L0 155L2 164L8 169L7 164L8 164L10 169L4 170L8 176C3.36102 176.994 5.02182 182.362 6 186L13 182C12.4056 185.616 11.8926 188.624 15 191L15 192L15 197L13 197C13.774 201.247 14.0614 203.745 11 207L12 210L10 211L8 209L6 213L10 214C12.3881 210.242 14.595 212.097 14 216L16 216L15 221L24 217L22 209L27 205L32 207L25 215L27 220C32.0638 219.211 33.3493 216.531 35 212L36 212L35 219C38.149 219 38.3523 223.27 38 226L35 225L35 235L36 235L42 224L43 224L49 236L63 229L63 234L64 234L64 231L66 236L73 231L73 232L70 233L70 234L76 235L82 235L81 238L90 238L88 242L91 243L92 251L108 244L106 242L112 241L120 233L125 239L123 233L127 234L139 221L160 213.167L168 211L169 214L174 214L172 219L173 219L175 216L174 219L189 221.612L201 220L202 225L203 225L202 221L203 228L210 232L211 232C211.122 225.893 215.3 224.071 221 224L225 220L219 229L219 230L222 235L223 232L237 232L239 239L248 234L248 229L258 231L257 228L262 227L261 232L263 232L264 241C259.365 240.353 255.52 240.719 255 246L256 243L267 243C267.93 239.837 270.147 236.893 266 236L269 231L265 231L269 228L270 234L276 236L271 238L279 236C280.004 240.603 282.965 241.226 287 243L287 244L280 246L280 247L283 247L281 255L276 253L278 249L275 248L276 251L272 250L274 252L274 253L269 254L264 248L260 252L262 248L258 247C258 250.928 257.617 254.654 255 254L255 258L258 254L261 254L262 254L261 264C264.538 262.757 264.803 260.569 265 257L270 259C267.011 262.611 268.122 266.119 273 264C271.856 269.17 271.718 273.307 266 275L266 276L273 281L272 276L283 288L286 287L286 289L290 290L291 290L297 287L296 289L299 288L300 292C307.014 291.877 309.115 294.451 307 301L327 308L331 315L339 315C341.634 310.519 349.468 316.541 351 320L480 320L480 115L480 67C480 60.587 482.01 52.9062 474 52L474 56L473 56L470 52L470 56L468 54C461.875 57.8565 458.385 47.5955 463 47L463 46L459 50L458 47L455 48C454.765 40.851 450.337 40.5009 444 40C444.547 36.0844 444.566 33.2083 449 33L451 30L451 33L454 32L452 36L458 36L455 28L448 28L442 23L444 13L438 15L436 11L435 14L438 17C433.343 15.5582 433.37 12.4111 434 8L441 12L441 8L435 8L435 2L427 0L426 4L425 4L425 0L399 4L400 7L392 7L398 3C393.941 -2.74457 379.444 0 373 0L300 0L0 0z"/>
<path style="fill:#0e4269; stroke:none;" d="M396 0L396 1L398 3L392 7L400 7L399 4L408 1L396 0M425 0L425 4L426 4L427 0L425 0M432 0L435 2L435 8L441 8L441 12L434 8C432.765 12.5653 432.74 16.136 438 17L436 11L438 15L444 13L442 23L448 28L455 28L458 36L452 36L454 32L451 33C451.077 30.0498 449.59 30.251 449 33C443.982 32.2278 444.24 35.8974 444 40C449.946 40.7561 454.482 41.2125 455 48L459 50L459 47L463 46L463 47L460 47C461.162 51.4195 462.491 57.5043 468 54L470 56L470 52L473 56L474 56L474 52L480 53L480 23L479 23L478 25L473 22L471 16L480 17L480 0L469 2C457.632 -1.97168 443.911 0 432 0z"/>
<path style="fill:#074a7b; stroke:none;" d="M463 0L464 1L463 0M465 0L465 1L469 2L465 0M470 0L471 1L470 0z"/>
<path style="fill:#0e4269; stroke:none;" d="M422 4L424 6L424 4L422 4z"/>
<path style="fill:#074a7b; stroke:none;" d="M463 4L464 5L463 4z"/>
<path style="fill:#0e4269; stroke:none;" d="M428 8L427 11L428 8z"/>
<path style="fill:#074a7b; stroke:none;" d="M474 8L474 10L476 10L476 8L474 8z"/>
<path style="fill:#0e4269; stroke:none;" d="M103 10L104 11L103 10z"/>
<path style="fill:#13213d; stroke:none;" d="M442 11L443 12L442 11z"/>
<path style="fill:#0e4269; stroke:none;" d="M78.3333 12.6667L78.6667 13.3333L78.3333 12.6667z"/>
<path style="fill:#677a8d; stroke:none;" d="M79.3333 12.6667L79.6667 13.3333L79.3333 12.6667z"/>
<path style="fill:#074a7b; stroke:none;" d="M471 12L472 13L471 12z"/>
<path style="fill:#0e4269; stroke:none;" d="M162.667 13.3333L163.333 13.6667L162.667 13.3333M11.3333 14.6667L11.6667 15.3333L11.3333 14.6667M165.333 14.6667L165.667 15.3333L165.333 14.6667M384 14L383 16L385 16L384 14M429 14L430 15L429 14z"/>
<path style="fill:#074a7b; stroke:none;" d="M470.333 14.6667L470.667 15.3333L470.333 14.6667M471 16L473 22L478 25C482.555 18.3284 477.126 16.0555 471 16z"/>
<path style="fill:#0e4269; stroke:none;" d="M1 18L0 24L1 24L1 20L4 20L1 18M77 18L80 21L77 18z"/>
<path style="fill:#677a8d; stroke:none;" d="M424.667 19.3333L425.333 19.6667L424.667 19.3333z"/>
<path style="fill:#0e4269; stroke:none;" d="M426 19L427 20L426 19M347.667 20.3333L348.333 20.6667L347.667 20.3333M424.667 20.3333L425.333 20.6667L424.667 20.3333M6 23L6 24L3 23C-1.56696 32.1178 -0.463449 43.9724 0.0401235 54C0.253125 58.2415 4.39904 63.8731 1 67L1 63L0 63L3 70L0 70L0 75L3 74L0 77L0 102L9 101L8 97L8 96L16 96L18 92L18 93L16 95L21 95C22.7998 91.4004 22.2451 89.7961 20 88L24 88L25 84L28 85L23 85L28 82L28 72L26 74L25 74C23.1894 68.9968 24.5541 65.8629 30 65L30 64L27 64L27 63L29 62L28 55L23 52L24 48L15 43L16 40L12 39L13 33L16 36L20 34L15 29C9.77818 33.5742 8.28077 25.2396 7 21C5.08965 21.5789 3.66633 21.9854 6 23M436 23L437 24L436 23z"/>
<path style="fill:#13213d; stroke:none;" d="M448 23L451 26L448 23z"/>
<path style="fill:#074a7b; stroke:none;" d="M473 23L477 28L478 25L473 23z"/>
<path style="fill:#0e4269; stroke:none;" d="M432 24L431 26L432 24z"/>
<path style="fill:#074a7b; stroke:none;" d="M470.333 24.6667L470.667 25.3333L470.333 24.6667z"/>
<path style="fill:#0e4269; stroke:none;" d="M440.333 25.6667L440.667 26.3333L440.333 25.6667z"/>
<path style="fill:#13213d; stroke:none;" d="M453 25L454 26L453 25z"/>
<path style="fill:#677a8d; stroke:none;" d="M475 25L476 26L475 25z"/>
<path style="fill:#0e4269; stroke:none;" d="M415 26L416 27L415 26z"/>
<path style="fill:#677a8d; stroke:none;" d="M476 26L477 27L476 26z"/>
<path style="fill:#074a7b; stroke:none;" d="M479.333 26.6667L479.667 27.3333L479.333 26.6667z"/>
<path style="fill:#0e4269; stroke:none;" d="M312.333 27.6667L312.667 28.3333L312.333 27.6667M10 28L11 29L10 28z"/>
<path style="fill:#13213d; stroke:none;" d="M456 28L457 29L456 28M4 29L7 32L4 29z"/>
<path style="fill:#0e4269; stroke:none;" d="M447 29L448 30L447 29z"/>
<path style="fill:#13213d; stroke:none;" d="M8.33333 32.6667L8.66667 33.3333L8.33333 32.6667z"/>
<path style="fill:#0e4269; stroke:none;" d="M334.333 34.6667L334.667 35.3333L334.333 34.6667M58 35L59 36L58 35z"/>
<path style="fill:#13213d; stroke:none;" d="M447 35L447 37L449 35L447 35z"/>
<path style="fill:#0e4269; stroke:none;" d="M21 36L22 37L21 36M16 39C18.8914 40.2262 20.1583 40.6682 22 38L21 38L20 40L19 37L16 39M74 38L75 39L74 38z"/>
<path style="fill:#13213d; stroke:none;" d="M448 38L449 39L448 38M450 38L451 39L450 38z"/>
<path style="fill:#0e4269; stroke:none;" d="M24 40L24 42L26 42L26 40L24 40M437.667 40.3333L438.333 40.6667L437.667 40.3333M37 44L40 42L37 44M145 42L144 44L146 44L145 42M450.333 42.6667L450.667 43.3333L450.333 42.6667M273.333 43.6667L273.667 44.3333L273.333 43.6667M423.333 43.6667L423.667 44.3333L423.333 43.6667M255.333 44.6667L255.667 45.3333L255.333 44.6667M430 44L430 46L432 46L432 44L430 44z"/>
<path style="fill:#13213d; stroke:none;" d="M456 44L457 45L456 44M459 44L460 45L459 44z"/>
<path style="fill:#0e4269; stroke:none;" d="M292 45L292 48L294 48L294 45L292 45M426 45L427 46L426 45M28 46L28 48L30 48L30 46L28 46M436.667 46.3333L437.333 46.6667L436.667 46.3333M425 48L426 49L425 48z"/>
<path style="fill:#13213d; stroke:none;" d="M477 48L475 51L477 48z"/>
<path style="fill:#0e4269; stroke:none;" d="M105 50L105 52L107 52L107 50L105 50z"/>
<path style="fill:#13213d; stroke:none;" d="M472 50L473 51L472 50z"/>
<path style="fill:#0e4269; stroke:none;" d="M133 52L134 57L135 57L133 52M441 52L441 54L443 54L443 52L441 52M445.333 52.6667L445.667 53.3333L445.333 52.6667z"/>
<path style="fill:#13213d; stroke:none;" d="M23 53L23 56L24 56L23 53z"/>
<path style="fill:#0e4269; stroke:none;" d="M204.667 53.3333L205.333 53.6667L204.667 53.3333M31 54L30 56L32 56L31 54M452.333 54.6667L452.667 55.3333L452.333 54.6667M139 56L140 57L139 56M146 56L147 57L146 56M460 56L462 58L462 56L460 56M468 56L469 57L468 56M136 57L137 58L136 57M464 57L467 63L465 64L465 65L470 64L470 60L470 59L467 60L464 57z"/>
<path style="fill:#074a7b; stroke:none;" d="M0 58L1 67L4 66L0 58z"/>
<path style="fill:#0e4269; stroke:none;" d="M28 58L28 59L32 59L28 58M138 58L140 61L140 58L138 58M461.333 59.6667L461.667 60.3333L461.333 59.6667z"/>
<path style="fill:#13213d; stroke:none;" d="M465 60L466 61L465 60z"/>
<path style="fill:#0e4269; stroke:none;" d="M142 61L143 62L142 61M434.667 61.3333L435.333 61.6667L434.667 61.3333M35.6667 63.3333L36.3333 63.6667L35.6667 63.3333M120 64L122 66L122 64L120 64z"/>
<path style="fill:#677a8d; stroke:none;" d="M8.33333 65.6667L8.66667 66.3333L8.33333 65.6667z"/>
<path style="fill:#074a7b; stroke:none;" d="M7 66L8 67L7 66z"/>
<path style="fill:#0e4269; stroke:none;" d="M104 66L105 67L104 66M121 67L122 68L121 67z"/>
<path style="fill:#074a7b; stroke:none;" d="M0 68L2 71L3 70L2 68L0 68M4 68L5 69L4 68z"/>
<path style="fill:#0e4269; stroke:none;" d="M74 68L74 70L76 70L76 68L74 68M127 68L128 69L127 68M456.333 70.6667L456.667 71.3333L456.333 70.6667M40 71L41 72L40 71M385 71L386 72L385 71M86.6667 72.3333L87.3333 72.6667L86.6667 72.3333z"/>
<path style="fill:#13213d; stroke:none;" d="M22 73L21 79L22 80L26 81L22 73z"/>
<path style="fill:#074a7b; stroke:none;" d="M0 77L3 74L0 77z"/>
<path style="fill:#0e4269; stroke:none;" d="M423.333 75.6667L423.667 76.3333L423.333 75.6667M199 77L200 78L199 77M461 77L462 78L461 77M85 78L86 79L85 78M95 78L94 79L94 80L95 81L96 81L97 80L97 79L95 78z"/>
<path style="fill:#026cb0; stroke:none;" d="M0 79L1 80L0 79z"/>
<path style="fill:#13213d; stroke:none;" d="M18 79L21 81L21 80L18 79z"/>
<path style="fill:#0e4269; stroke:none;" d="M63.6667 79.3333L64.3333 79.6667L63.6667 79.3333z"/>
<path style="fill:#677a8d; stroke:none;" d="M95 79L96 80L95 79z"/>
<path style="fill:#0e4269; stroke:none;" d="M117.667 79.3333L118.333 79.6667L117.667 79.3333z"/>
<path style="fill:#074a7b; stroke:none;" d="M0 80L1 81L0 80z"/>
<path style="fill:#677a8d; stroke:none;" d="M311.333 80.6667L311.667 81.3333L311.333 80.6667z"/>
<path style="fill:#0e4269; stroke:none;" d="M43 84L44 85L43 84M438 84L429.998 93.0432L433.608 106L434 120L435 120L440 121L442 110L441 109L438 110C440.444 106.613 445.908 102.314 441 99L441 103L440 103L436 101L437 95L434 89C436.559 88.2591 438.554 85.6545 439 89L440 89L441 85L440 84L438 84M29 87L32 85L29 87M432 87L433 88L432 87M243 88L244 89L243 88M207 89L209 91L209 89L207 89M218.333 91.6667L218.667 92.3333L218.333 91.6667M439 92L438 94L440 94L439 92M201 93L201 95L203 95L203 93L201 93M211 93L214 96L211 93z"/>
<path style="fill:#677a8d; stroke:none;" d="M302.333 93.6667L302.667 94.3333L302.333 93.6667z"/>
<path style="fill:#0e4269; stroke:none;" d="M303.333 93.6667L303.667 94.3333L303.333 93.6667M45 95L46 96L45 95M22 96L22 98L24 98L24 96L22 96M139 96L140 97L139 96M215 96L216 97L215 96M422 103L428 96C424.034 97.1496 422.633 98.939 422 103M53 98L53 99L56 99L53 98M400 98L401 99L400 98M403.667 99.3333L404.333 99.6667L403.667 99.3333M40 100L40 103L42 102L42 101L40 100M45 102L43 106L47 107L45 102M418 103L417 105L419 105L418 103M0 104L1 105L0 104M11 104L12 105L11 104M25 108L29 105L25 108M17 106L17 109L20 109L20 106L17 106M21.6667 106.333L22.3333 106.667L21.6667 106.333M412 106L413 107L412 106M30 107L31 108L30 107M200 107L203 110L200 107M381 107L381 109L383 109L383 107L381 107M23 108L22 111L23 108M34.6667 108.333L35.3333 108.667L34.6667 108.333M38 108L41 111L38 108M414.333 108.667L414.667 109.333L414.333 108.667M417 108L420 110L417 108M31 109L30 110L30 111L31 112L32 112L33 111L33 110L31 109M443.667 109.333L444.333 109.667L443.667 109.333M26.6667 110.333L27.3333 110.667L26.6667 110.333M12 111L13 112L12 111M34 111L34 112L37 112L34 111M10 112L11 113L10 112M7 113L8 114L7 113M27 115L28 117L29 117L30 115L27 115M409.667 115.333L410.333 115.667L409.667 115.333M425 120L426 120L429 115L425 120M447 115L447 117L449 117L449 115L447 115M9 116L9 117L13 117L13 118L10 119L10 120C13.7901 120.497 15.3278 119.865 16 116L9 116M355.333 116.667L355.667 117.333L355.333 116.667M428 118L431 120L428 118M0.333333 119.667L0.666667 120.333L0.333333 119.667M68.6667 119.333L69.3333 119.667L68.6667 119.333M202.667 119.333L203.333 119.667L202.667 119.333M409.667 119.333L410.333 119.667L409.667 119.333M8 120L9 121L8 120M31.6667 120.333L32.3333 120.667L31.6667 120.333M34 123L37 120L34 123M5.66667 121.333L6.33333 121.667L5.66667 121.333M39 121L39 123L41 121L39 121M163.333 121.667L163.667 122.333L163.333 121.667M384.667 121.333L385.333 121.667L384.667 121.333M10 122L10 124L12 124L10 122M415 123L411 124L411 127L412 127L415 123M418 123L418 129L421 123L418 123M5 124L5 126L7 124L5 124M174 124L174 126L176 126L176 124L174 124M218.667 124.333L219.333 124.667L218.667 124.333M122.667 125.333L123.333 125.667L122.667 125.333M7 129L6 133L6 134L15 136L11 139L11 140L14 140L15 143L17 143L16 136L22 137L21 133L18 134L16 126L7 129M213.667 126.333L214.333 126.667L213.667 126.333M353.333 126.667L353.667 127.333L353.333 126.667z"/>
<path style="fill:#677a8d; stroke:none;" d="M354.333 126.667L354.667 127.333L354.333 126.667z"/>
<path style="fill:#0e4269; stroke:none;" d="M355.333 126.667L355.667 127.333L355.333 126.667M3 127L4 128L3 127z"/>
<path style="fill:#677a8d; stroke:none;" d="M213.667 127.333L214.333 127.667L213.667 127.333z"/>
<path style="fill:#0e4269; stroke:none;" d="M361.667 128.333L362.333 128.667L361.667 128.333z"/>
<path style="fill:#13213d; stroke:none;" d="M10 129L8 134L13 134L13 133L10 131L15 131L10 129z"/>
<path style="fill:#0e4269; stroke:none;" d="M26 132C25.1456 134.697 25.1492 135.386 28 136L26 132M389 132L389 136L393 132L389 132M4 133L0 134C0 139.606 -1.3385 145.725 4 149L2 143L6 143L5 139L8 139L8 138L4 133M32 133C27.7135 136.988 25.9701 149.972 33 143C29.4726 143.705 30.616 139.404 33 140L32 133M23.3333 134.667L23.6667 135.333L23.3333 134.667M401.667 135.333L402.333 135.667L401.667 135.333M429 135L430 136L429 135M23 137L24 138L23 137M284 137L284 139L286 137L284 137M386 137L387 140L391 137L386 137M247 138L248 139L247 138z"/>
<path style="fill:#074a7b; stroke:none;" d="M16 139L17 140L16 139z"/>
<path style="fill:#0e4269; stroke:none;" d="M8 141L10 143L8 141M36 142L34 145L38 143L36 142M366 148L368 146C372.306 147.712 375.153 150.8 379 147L374 147C371.684 141.537 366.17 141.501 366 148M40 144L40 147L42 146L42 145L40 144M392 144L393 145L392 144M6 145L10 149L6 145M0 149L1 157L3 155C7.40574 156.003 10.4866 152.935 6 150L3 153L0 149M397 149L398 150L397 149z"/>
<path style="fill:#13213d; stroke:none;" d="M0 151L1 152L0 151z"/>
<path style="fill:#0e4269; stroke:none;" d="M14.6667 151.333L15.3333 151.667L14.6667 151.333M381 151L382 152L381 151M214 152L215 153L214 152M291 152L292 153L291 152M329 157L335 159L332 157L336 154C332.595 152.155 330.938 154.046 329 157M358 153L358 156L360 156L360 153L358 153M364 154L365 155L364 154M90.6667 156.333L91.3333 156.667L90.6667 156.333M0 157L0 193L4 193L6 200L0 195L2 197L2 198L0 201L6 201L4 209L1 203L0 203L0 222L4 221L4 229L0 229C0 245.067 -8.263 286.686 16 286L14 292L17 291L18 285L22 284C24.2054 288.176 30.0535 286.736 32 283L36 283L35 285L40 282L39 279C45.0716 276.063 43.1858 271.208 46 266L50 273L46 282L47 280L46 280L42 286C40.812 292.329 39.8479 294.429 44 300L45 300L45 293L47 296L50 295L51 285L52 285L57 291L57 287L60 289L61 289L64 282L70 284C64.7609 289.612 60.7031 291.461 60 300L70 302L70 298L72 301L73 301L75 297C75.3042 299.935 74.7771 302.017 78 302L79 303L78 305L80 304L80 305L76 306C76.614 308.851 77.3027 308.854 80 308L72 316L88 315L88 313L85 312L86 301L104 297C104.902 290.096 117.874 288.781 123 287L124 292L127 292L127 289L131 291L129 286L124 288L130 275C134.001 273.329 135.077 271.142 136 267L137 267L137 271L139 272L143 269L139 270L139 265L148 260L146 255L158 246L154 247L150 243C151.359 239.937 155.406 238.948 156 243L161 242C162.417 249.976 168.079 270.841 178 268L177 271L183 272C186.272 269.797 192.152 269.269 195 272L197 272L204 264L208 265C208 261.531 211.234 261.913 213 264L220 263L219 266L237 269L235 266L239 266L239 270L240 270L241 267L242 273L246 274L243 276L243 277C250.308 277.232 266.18 281.213 268 289C272.856 291.892 277.261 298.364 278 304C283.09 306.378 286.871 308.212 288 301L297 306C298.657 311.459 303.242 310.584 308 312L307 310L308 310C320.833 322.348 334.253 320 351 320C350.279 315.999 340.189 309.347 339 315L331 315L327 308L307 301C310.41 294.057 307.351 291.333 300 292L296 289L297 287L296 287L291 290L290 290L286 289L286 287L283 288L272 276L273 281L270 280L266 276L266 275C272.114 274.005 272.587 269.437 273 264L271 266C268.372 263.524 268.222 262.149 270 259L265 257L261 264L262 254L261 254L260 256L259 254L258 254L255 258L255 254C258.193 253.523 257.907 249.914 258 247L262 248L260 252C263.039 251.856 263.494 250.974 264 248L269 254L274 253L274 252L272 250L276 251L275 248L278 249L276 253L281 255C280.63 251.483 284.024 247.488 280 247L280 246L287 244L287 243L279 236L277 238L271 238L276 236C274.268 233.331 273.058 233.29 270 234L269 228L265 231L269 231L266 236L267 243C262.539 243.019 257.644 242.004 255 246C255.921 241.167 259.642 240.844 264 241L263 232L261 232L262 227L260 229L257 228L258 231L248 229L248 234L239 239L237 232L223 232L222 235L219 230L219 229L223 224C216.655 223.55 210.117 224.3 211 232L210 232L203 228C204.33 224.926 204.856 223.087 202 221L203 225L202 225L201 220L189 221.285L174 219L175 216L173 219L172 219L174 214L168 211L167 214C155.622 209.675 149.172 220.167 139 221L127 234L123 233L125 239L120 233L112 241C109.326 239.253 108.173 239.721 106 242L108 244L92 251L91 243L88 242L90 238L81 238L82 235L76 235L70 234L70 233L73 232L73 231L66 236L67 233L66 231L64 234L63 234L63 229L49 236L43 224L42 224L36 235L35 235L35 225L38 226L37 218L34 219L34 222L33 222L33 219L27 220L25 215L32 207L27 205L22 209L24 217C19.8761 216.38 17.8399 218.087 15 221L16 216L14 216C16.3292 211.059 11.4419 208.874 10 214L6 213L8 209L10 211L12 210L11 207C14.6507 204.367 13.9656 201.066 13 197L15 197L15 192L15 191L13 182L6 186C5.25907 181.993 4.22904 178.447 8 176L4 170L10 169L8 164L7 164L8 169L2 164L0 157M358 157C357.557 162.767 361.995 164.043 363 158L360 161L359 161L358 157M377 157L377 160L380 160L380 157L377 157M7 160L10 158L7 160M381 159L382 160L381 159M115 160L117 162L115 160M368 160L369 161L368 160z"/>
<path style="fill:#677a8d; stroke:none;" d="M115 161L116 162L115 161z"/>
<path style="fill:#0e4269; stroke:none;" d="M354 161L356 164L354 161M368.333 164.667L368.667 165.333L368.333 164.667M347.667 165.333L348.333 165.667L347.667 165.333M400 165L401 166L400 165M21 166L22 167L21 166z"/>
<path style="fill:#677a8d; stroke:none;" d="M22 166L21 169L24 167L22 166z"/>
<path style="fill:#0e4269; stroke:none;" d="M347 176C357.038 167.955 336.33 162 347 176M32 168L33 169L32 168M78 168L79 169L78 168M356 168L355 169L355 170L355 171L358 168L356 168M385 169L380 176L380 177L387 175L385 169M370 171L370 173L372 173L372 171L370 171M389 171L388 174L391 172L389 171M343 173L344 174L343 173M27 175L28 176L27 175M39.6667 175.333L40.3333 175.667L39.6667 175.333M87 175L89 177L89 175L87 175M352 175L353 176L352 175M10 176L11 177L10 176z"/>
<path style="fill:#677a8d; stroke:none;" d="M87 176L88 177L87 176z"/>
<path style="fill:#0e4269; stroke:none;" d="M386 176L387 179L388 179L388 176L386 176M35 178L35 181L37 181L37 178L35 178M383 179L384 180L383 179M20 181L20 182L24 182L20 181M354 181L354 183L356 181L354 181M8.33333 182.667L8.66667 183.333L8.33333 182.667M37 182L40 184L37 182M19 183L19 185L21 185L21 183L19 183M24 183L25 184L24 183M28.6667 184.333L29.3333 184.667L28.6667 184.333M230.667 184.333L231.333 184.667L230.667 184.333M38 185L39 186L38 185M384 185L384 188L386 187L386 186L384 185M23.3333 186.667L23.6667 187.333L23.3333 186.667M33 187L34 188L33 187z"/>
<path style="fill:#13213d; stroke:none;" d="M5 188L6 189L5 188z"/>
<path style="fill:#0e4269; stroke:none;" d="M14 188L14 190L16 188L14 188M35 190L34 193L38 195L35 190z"/>
<path style="fill:#13213d; stroke:none;" d="M1 191L2 192L1 191M10 191L11 192L10 191z"/>
<path style="fill:#0e4269; stroke:none;" d="M22 191L24 196L26 192L22 191M15 192L16 193L15 192M48 192L49 193L48 192M226 192L227 193L226 192z"/>
<path style="fill:#13213d; stroke:none;" d="M0 193L6 200L4 193L0 193z"/>
<path style="fill:#0e4269; stroke:none;" d="M168 193L169 194L168 193M320 194L320 196L322 196L320 194M40.3333 195.667L40.6667 196.333L40.3333 195.667M238 196L238 198L240 198L240 196L238 196z"/>
<path style="fill:#13213d; stroke:none;" d="M0 197L0 200L1 200L2 197L0 197z"/>
<path style="fill:#0e4269; stroke:none;" d="M34 199L35 200L34 199M40 199L41 203L42 203L42 199L40 199M308 200L309 201L308 200z"/>
<path style="fill:#13213d; stroke:none;" d="M0 201L4 209L6 201L0 201z"/>
<path style="fill:#0e4269; stroke:none;" d="M69 202L69 204L71 202L69 202M20 206L23 203L20 206M204 205L205 206L204 205M201.333 206.667L201.667 207.333L201.333 206.667M42 207L43 208L42 207M222 207L224 210L224 207L222 207M242 207L243 208L242 207M19.6667 208.333L20.3333 208.667L19.6667 208.333M304 208L305 209L304 208M191 209L191 211L194 211L194 209L191 209M152 210L153 211L152 210M186 210L187 211L186 210M197.333 210.667L197.667 211.333L197.333 210.667M304 210L306 212L306 210L304 210M8 211L9 212L8 211M200 211L200 213L202 213L200 211z"/>
<path style="fill:#13213d; stroke:none;" d="M13 212L12 215L13 212z"/>
<path style="fill:#0e4269; stroke:none;" d="M35 212L33 218C35.9458 216.366 36.9487 214.939 35 212M44 212L44 214L46 214L44 212M291.667 212.333L292.333 212.667L291.667 212.333M22 213L23 214L22 213M248 213C248.907 215.638 249.601 216.887 252 215L248 213M256 213L257 214L256 213M266 218C270.588 219.019 275.557 220.838 274 214L266 218z"/>
<path style="fill:#13213d; stroke:none;" d="M7.66667 215.333L8.33333 215.667L7.66667 215.333z"/>
<path style="fill:#0e4269; stroke:none;" d="M16 215L17 216L16 215M27 215L33 217L33 216L27 215M147 215L148 216L147 215z"/>
<path style="fill:#13213d; stroke:none;" d="M158 216L158 217L159 218L160 218L163 216L158 216z"/>
<path style="fill:#0e4269; stroke:none;" d="M215 215L216 216L215 215M305 215L306 216L305 215M246 216L246 218L248 216L246 216M142 217L141 220L142 217z"/>
<path style="fill:#074a7b; stroke:none;" d="M32 218L33 219L32 218z"/>
<path style="fill:#677a8d; stroke:none;" d="M33.3333 218.667L33.6667 219.333L33.3333 218.667z"/>
<path style="fill:#074a7b; stroke:none;" d="M34 218L35 219L34 218z"/>
<path style="fill:#0e4269; stroke:none;" d="M38 218L38 221L40 221L40 218L38 218M280 218L280 219L283 219L280 218z"/>
<path style="fill:#13213d; stroke:none;" d="M148 219L149 222L148 219M155 219L156 220L155 219M32 220L33 222L34 222L35 220L32 220z"/>
<path style="fill:#0e4269; stroke:none;" d="M205 220L205 223L208 222C209.417 224.523 210.483 223.458 211 221L205 220M223 220L221 222L221 223L225 220L223 220z"/>
<path style="fill:#13213d; stroke:none;" d="M0 222L0 229L4 229L4 221L0 222M11 221L10 225L13 221L11 221M171 221L172 222L171 221z"/>
<path style="fill:#677a8d; stroke:none;" d="M206 221L207 222L206 221z"/>
<path style="fill:#0e4269; stroke:none;" d="M356 221L357 222L356 221z"/>
<path style="fill:#13213d; stroke:none;" d="M35 222L37 224L37 222L35 222z"/>
<path style="fill:#0e4269; stroke:none;" d="M400 222L400 224L402 224L400 222z"/>
<path style="fill:#13213d; stroke:none;" d="M174 223L174 225L176 225L176 223L174 223z"/>
<path style="fill:#074a7b; stroke:none;" d="M221 223L222 224L221 223z"/>
<path style="fill:#677a8d; stroke:none;" d="M222 223L223 224L222 223z"/>
<path style="fill:#0e4269; stroke:none;" d="M245 223L246 224L245 223M0 224L1 225L0 224z"/>
<path style="fill:#13213d; stroke:none;" d="M5 224L4 225L5 231L7 230L7 231L5 234L6 235L8 235L7 230L7 229L9 226L5 224M32 224L32 226L34 224L32 224z"/>
<path style="fill:#0e4269; stroke:none;" d="M56 224L57 225L56 224z"/>
<path style="fill:#13213d; stroke:none;" d="M181 224L182 225L181 224z"/>
<path style="fill:#0e4269; stroke:none;" d="M254 225L254 226L258 226L254 225M278.667 224.333L279.333 224.667L278.667 224.333M388 224L393 230L395 225L391 224L392 226L391 226L388 224M405 224L406 226L407 226L408 224L405 224M103.333 225.667L103.667 226.333L103.333 225.667M129 225L131 229L131 225L129 225M263 225L264 226L263 225M1.33333 226.667L1.66667 227.333L1.33333 226.667z"/>
<path style="fill:#13213d; stroke:none;" d="M10 226L11 231L12 231L10 226z"/>
<path style="fill:#0e4269; stroke:none;" d="M57 226L58 229L59 229L60 226L57 226M376 226L376 229L377 229L376 226M385 226L388 229L387 226L385 226M401 226L400 231C392.277 229.625 395.839 238.273 394 243L396 242L396 243L392 249L400 245L399 248L409 240L405 237L409 236L411 232L411 231L407 232L408 229L411 230C408.971 227.679 407.387 228.337 405 230L404 226L401 226z"/>
<path style="fill:#074a7b; stroke:none;" d="M167.333 227.667L167.667 228.333L167.333 227.667z"/>
<path style="fill:#0e4269; stroke:none;" d="M242 227L242 230L244 230L244 227L242 227M71 228L70 230L72 230L71 228M253 228L254 229L253 228M272 228L273 229L272 228z"/>
<path style="fill:#13213d; stroke:none;" d="M391 228L392 229L391 228M402.333 228.667L402.667 229.333L402.333 228.667z"/>
<path style="fill:#677a8d; stroke:none;" d="M469 228L469 230L471 230L471 228L469 228z"/>
<path style="fill:#0e4269; stroke:none;" d="M471 228L472 229L471 228z"/>
<path style="fill:#13213d; stroke:none;" d="M24.3333 229.667L24.6667 230.333L24.3333 229.667z"/>
<path style="fill:#0e4269; stroke:none;" d="M263 229L264 230L263 229M283 229L285 234L286 234L283 229M382 243L384 238L384 241L380 229C374.955 231.494 376.847 241.493 382 243M289 230L291 232L291 230L289 230M384 230L385 231L384 230M469.667 230.333L470.333 230.667L469.667 230.333M119 231L120 232L119 231z"/>
<path style="fill:#13213d; stroke:none;" d="M218 231C215.333 234.351 205.94 241.533 211 245L212 241L218 243L219 242L216 236L219 236L218 231z"/>
<path style="fill:#0e4269; stroke:none;" d="M242 231L243 232L242 231M280 231L281 232L280 231M389 231L390 232L389 231M7 232L8 233L7 232z"/>
<path style="fill:#13213d; stroke:none;" d="M12 232L13 233L12 232z"/>
<path style="fill:#677a8d; stroke:none;" d="M65.6667 232.333L66.3333 232.667L65.6667 232.333z"/>
<path style="fill:#0e4269; stroke:none;" d="M121.333 232.667L121.667 233.333L121.333 232.667M245 232L246 233L245 232z"/>
<path style="fill:#13213d; stroke:none;" d="M258 232C257.425 234.396 257.525 234.487 260 235L258 232z"/>
<path style="fill:#0e4269; stroke:none;" d="M372.667 232.333L373.333 232.667L372.667 232.333M414 232L415 233L414 232M264 233L264 235L266 235L266 233L264 233z"/>
<path style="fill:#13213d; stroke:none;" d="M226 234L227 235L226 234z"/>
<path style="fill:#0e4269; stroke:none;" d="M369 234L368 235L367 237L366 237L373 251L377 250L377 244L376 244C372.42 244.757 370.944 242.205 370 239L377 240L377 239L371 234L369 234M83 235L84 237L85 237L86 235L83 235M90 235L90 238L92 238L92 235L90 235M96.6667 235.333L97.3333 235.667L96.6667 235.333z"/>
<path style="fill:#074a7b; stroke:none;" d="M200.333 235.667L200.667 236.333L200.333 235.667z"/>
<path style="fill:#13213d; stroke:none;" d="M380 235L380 240L381 240L380 235z"/>
<path style="fill:#074a7b; stroke:none;" d="M161 236L161 238L163 238L163 236L161 236z"/>
<path style="fill:#0e4269; stroke:none;" d="M264 236L265 237L264 236M280 237L281 238L280 237M285.667 237.333L286.333 237.667L285.667 237.333M361 237L361 239L363 239L363 237L361 237z"/>
<path style="fill:#13213d; stroke:none;" d="M401 237L402 238L401 237z"/>
<path style="fill:#074a7b; stroke:none;" d="M403 237L403 239L405 239L405 237L403 237z"/>
<path style="fill:#13213d; stroke:none;" d="M45 238L44 241L45 241L45 238M67 238L69 241L67 238z"/>
<path style="fill:#0e4269; stroke:none;" d="M265 238L265 240L267 240L267 238L265 238z"/>
<path style="fill:#13213d; stroke:none;" d="M270.667 239.333L271.333 239.667L270.667 239.333z"/>
<path style="fill:#0e4269; stroke:none;" d="M289 240L289 241L292 242L292 239L289 240M326 239L327 240L326 239z"/>
<path style="fill:#13213d; stroke:none;" d="M402.667 239.333L403.333 239.667L402.667 239.333z"/>
<path style="fill:#074a7b; stroke:none;" d="M150 243L154 247L158 246L146 255L148 260L145 259L139 265L139 270L143 269L139 272L137 271L137 267L136 267L130 275L124 288L129 286L131 291L127 289L124 292L123 287C117.227 287.689 104.854 290.063 104 297L86 301L85 312L88 313L88 315L72 316L80 308L76 306L80 304L78 305L78 302L75 297L73 301L72 301L70 298L70 302L60 300L70 284L64 282L61 289L60 289L57 287L57 291L52 285L51 285L47 296L47 293L45 293L45 300L44 300L42 286L46 280L47 280L46 282L47 282L50 273L46 266L39 279L40 282L35 285L36 283L35 283L32 283C29.0235 285.724 25.1897 287.138 22 284L18 285L14 292L16 286C8.6486 285.736 3.46494 283.029 1 276L0 276L0 312L3 320L58 320C62.9015 320 74.6627 321.827 78 318L112 320L177 320L179 311L178 308L193 299C191.852 290.132 201.151 283.94 208 280L211 284L211 280L213 282L214 282L215 280L216 280L227 286L228 283L229 283L230 285L234 282C234 278.075 237.798 280.231 239.667 282.167C244.186 286.848 246.462 294.68 253 297L252 299L256 301C256.331 308.439 265.522 309.885 271 313L272 313C279.25 310.669 288.982 316.986 296 318.961C303.836 321.166 312.92 320 321 320L321 319L307 310L308 312L297 306L294 307C292.723 303.461 291.824 301.661 288 301C286.077 307.913 283.224 305.527 278 304C277.615 298.278 273.448 291.129 268 289C268.123 280.931 249.782 277.08 243 277L243 276L246 274L242 273L244 271L241 267L240 270L239 270L239 266L235 266L237 269C230.817 265.234 225.986 265.449 219 266L220 263L211 264L211 263L213 263L213 262L208 265L204 264L197 272L195 272C192.749 268.52 185.902 269.44 183 272L177 271L178 268C168.116 270.051 163.23 249.816 161 242L156 243C156 238.946 150.831 239.124 150 243M162.333 240.667L162.667 241.333L162.333 240.667z"/>
<path style="fill:#13213d; stroke:none;" d="M238 240L238 241L241 241L238 240z"/>
<path style="fill:#0e4269; stroke:none;" d="M412 240L413 241L412 240M91 241L91 242L96 243L96 242L91 241M327.333 241.667L327.667 242.333L327.333 241.667z"/>
<path style="fill:#13213d; stroke:none;" d="M398 241L397 243L399 243L398 241M277 242L280 244L277 242z"/>
<path style="fill:#0e4269; stroke:none;" d="M288.333 242.667L288.667 243.333L288.333 242.667M338.667 242.333L339.333 242.667L338.667 242.333M408.333 242.667L408.667 243.333L408.333 242.667z"/>
<path style="fill:#074a7b; stroke:none;" d="M46.6667 244.333L47.3333 244.667L46.6667 244.333z"/>
<path style="fill:#0e4269; stroke:none;" d="M94.6667 244.333L95.3333 244.667L94.6667 244.333z"/>
<path style="fill:#074a7b; stroke:none;" d="M186 245L186 247L188 247L188 245L186 245z"/>
<path style="fill:#13213d; stroke:none;" d="M277 245L278 246L277 245z"/>
<path style="fill:#0e4269; stroke:none;" d="M391 245L392 246L391 245M92 246L92 247L96 247L92 246z"/>
<path style="fill:#13213d; stroke:none;" d="M268 247L269 250L274 249L273 246L268 247z"/>
<path style="fill:#026cb0; stroke:none;" d="M160 247L161 248L160 247z"/>
<path style="fill:#13213d; stroke:none;" d="M255 247L251 251L256 251L255 247z"/>
<path style="fill:#0e4269; stroke:none;" d="M281 251L281 252L286 252L287 250L294 253L295 252L295 250C288.99 247.336 286.137 246.571 281 251M379 247L379 248L382 249L379 247z"/>
<path style="fill:#13213d; stroke:none;" d="M15 248L16 249L15 248z"/>
<path style="fill:#0e4269; stroke:none;" d="M260 248L261 249L260 248M324 248L325 249L324 248M341 248L345 250L341 248M366 248L366 250L368 248L366 248z"/>
<path style="fill:#074a7b; stroke:none;" d="M24 249L25 250L24 249z"/>
<path style="fill:#13213d; stroke:none;" d="M279 249L280 250L279 249z"/>
<path style="fill:#0e4269; stroke:none;" d="M297 249L298 250L297 249z"/>
<path style="fill:#677a8d; stroke:none;" d="M24 250L25 251L24 250z"/>
<path style="fill:#13213d; stroke:none;" d="M26 250L27 251L26 250z"/>
<path style="fill:#0e4269; stroke:none;" d="M339 251L340 252L339 251M264 252L265 253L264 252M287 253L285 255L285 256L290 256L290 255L287 253M265 254L268 256L265 254M360 254L361 255L360 254M272 255L275 257L275 256L272 255z"/>
<path style="fill:#074a7b; stroke:none;" d="M234 256L235 257L234 256z"/>
<path style="fill:#0e4269; stroke:none;" d="M293 256L294 257L293 256M366 256L368 258L368 256L366 256M336.333 257.667L336.667 258.333L336.333 257.667M270 258L271 259L270 258M272 259L272 260L276 258L272 259M280 258L281 259L280 258M312 259L308 265L315 259L312 259M283 260L282 262L284 262L283 260M326 260L325 262L327 262L326 260z"/>
<path style="fill:#074a7b; stroke:none;" d="M35 261L34 263L36 263L35 261z"/>
<path style="fill:#0e4269; stroke:none;" d="M411 261L410 263L412 263L411 261z"/>
<path style="fill:#074a7b; stroke:none;" d="M239 262L240 263L239 262M136.667 263.333L137.333 263.667L136.667 263.333z"/>
<path style="fill:#026cb0; stroke:none;" d="M211.667 263.333L212.333 263.667L211.667 263.333z"/>
<path style="fill:#074a7b; stroke:none;" d="M222 263L223 264L222 263z"/>
<path style="fill:#13213d; stroke:none;" d="M257.667 263.333L258.333 263.667L257.667 263.333z"/>
<path style="fill:#074a7b; stroke:none;" d="M232 264L233 265L232 264z"/>
<path style="fill:#0e4269; stroke:none;" d="M294 264L294 272L297 272L294 264M314.667 264.333L315.333 264.667L314.667 264.333z"/>
<path style="fill:#074a7b; stroke:none;" d="M186.333 265.667L186.667 266.333L186.333 265.667z"/>
<path style="fill:#0e4269; stroke:none;" d="M213 265L214 266L213 265z"/>
<path style="fill:#13213d; stroke:none;" d="M253 265L254 266L253 265z"/>
<path style="fill:#0e4269; stroke:none;" d="M288.333 265.667L288.667 266.333L288.333 265.667z"/>
<path style="fill:#677a8d; stroke:none;" d="M289.333 266.667L289.667 267.333L289.333 266.667z"/>
<path style="fill:#074a7b; stroke:none;" d="M290 266L291 267L290 266z"/>
<path style="fill:#0e4269; stroke:none;" d="M358 266L358 268L360 268L358 266z"/>
<path style="fill:#074a7b; stroke:none;" d="M181 267L182 268L181 267z"/>
<path style="fill:#0e4269; stroke:none;" d="M290 267L291 268L290 267z"/>
<path style="fill:#13213d; stroke:none;" d="M294 267L295 268L294 267z"/>
<path style="fill:#074a7b; stroke:none;" d="M189 268L190 269L189 268z"/>
<path style="fill:#0e4269; stroke:none;" d="M301 269L301 271L305 274L306 273L304 272L304 271L308 270L301 269M311 268C313.754 275.026 322.945 276.697 329 273L311 268M419 268L419 270L421 268L419 268z"/>
<path style="fill:#074a7b; stroke:none;" d="M100.667 269.333L101.333 269.667L100.667 269.333z"/>
<path style="fill:#0e4269; stroke:none;" d="M147 270L147 273L152 271L147 270z"/>
<path style="fill:#074a7b; stroke:none;" d="M37 273L32 273C31.1921 269.249 27.7351 270.357 28.1389 273.972C28.8671 280.492 35.5693 276.832 37 273z"/>
<path style="fill:#0e4269; stroke:none;" d="M175 270L173 273L176 274L175 270M362 270L363 271L362 270M366.667 271.333L367.333 271.667L366.667 271.333M427 271L428 272L427 271M136 272L137 273L136 272M184 272L182 273L187 274L184 272M191 272L192 273L191 272M272.667 272.333L273.333 272.667L272.667 272.333z"/>
<path style="fill:#13213d; stroke:none;" d="M256 274L257 275L256 274M259 274L260 275L259 274M263 274L264 275L263 274z"/>
<path style="fill:#074a7b; stroke:none;" d="M107 276L108 277L107 276z"/>
<path style="fill:#0e4269; stroke:none;" d="M137 276L131 281L138 280L137 276M282 276L280 281L285 280L282 276z"/>
<path style="fill:#074a7b; stroke:none;" d="M49 277L50 278L49 277z"/>
<path style="fill:#0e4269; stroke:none;" d="M360 277L360 280L361 280L360 277M289 278L292 280L289 278M302 278L302 279L310 281L302 278z"/>
<path style="fill:#074a7b; stroke:none;" d="M49 279L50 280L49 279M56 279L57 280L56 279M108.667 279.333L109.333 279.667L108.667 279.333z"/>
<path style="fill:#026cb0; stroke:none;" d="M208 279L209 280L208 279M234 282L230 285L229 283L228 283L227 286L226 283L214 282L213 282L211 280L211 284L208 280C200.642 282.846 190.878 290.211 193 299L178 308L179 311C175.738 313.334 176.568 316.322 177 320L298 320L298 319C292.187 317.667 276.761 308.712 272 313L271 313C266.159 309.093 256.872 308.279 256 301L252 299L253 297C247.619 292.912 244.911 287.031 240.333 282.324C238.333 280.267 234.531 278.352 234 282z"/>
<path style="fill:#0e4269; stroke:none;" d="M294.667 279.333L295.333 279.667L294.667 279.333M389 279L390 280L389 279z"/>
<path style="fill:#074a7b; stroke:none;" d="M82 280L83 281L82 280z"/>
<path style="fill:#026cb0; stroke:none;" d="M227 280L228 281L227 280z"/>
<path style="fill:#074a7b; stroke:none;" d="M37.6667 281.333L38.3333 281.667L37.6667 281.333M103 288C108.119 281.978 99.7736 279.852 103 288z"/>
<path style="fill:#0e4269; stroke:none;" d="M135 281L136 282L135 281M41 282L42 283L41 282z"/>
<path style="fill:#074a7b; stroke:none;" d="M59 282L60 283L59 282z"/>
<path style="fill:#0e4269; stroke:none;" d="M133 282L131 288L132 288L133 282z"/>
<path style="fill:#074a7b; stroke:none;" d="M54.6667 283.333L55.3333 283.667L54.6667 283.333M86 283L86 285L88 285L86 283z"/>
<path style="fill:#0e4269; stroke:none;" d="M129 283L130 284L129 283z"/>
<path style="fill:#026cb0; stroke:none;" d="M37 284L37 286L39 284L37 284z"/>
<path style="fill:#0e4269; stroke:none;" d="M39.3333 284.667L39.6667 285.333L39.3333 284.667z"/>
<path style="fill:#074a7b; stroke:none;" d="M93 284L95 287L95 288L91 288L94 293L95 293L100 291L100 285L93 284M16 285L17 286L16 285z"/>
<path style="fill:#0e4269; stroke:none;" d="M103 285L104 286L103 285M144 285L145 286L144 285z"/>
<path style="fill:#026cb0; stroke:none;" d="M146 286L147 287L146 286z"/>
<path style="fill:#0e4269; stroke:none;" d="M22 287L23 288L22 287M144 287L145 288L144 287M289 287L290 288L289 287M20 288L20 293L21 293L20 288z"/>
<path style="fill:#074a7b; stroke:none;" d="M54 288L55 289L54 288z"/>
<path style="fill:#0e4269; stroke:none;" d="M133.667 288.333L134.333 288.667L133.667 288.333z"/>
<path style="fill:#074a7b; stroke:none;" d="M270 288L271 289L270 288z"/>
<path style="fill:#0e4269; stroke:none;" d="M351 289C344.096 291.278 351.694 296.865 351 289M117.333 290.667L117.667 291.333L117.333 290.667z"/>
<path style="fill:#074a7b; stroke:none;" d="M348 290L349 291L348 290z"/>
<path style="fill:#0e4269; stroke:none;" d="M344.333 291.667L344.667 292.333L344.333 291.667z"/>
<path style="fill:#677a8d; stroke:none;" d="M348 291L349 292L348 291z"/>
<path style="fill:#0e4269; stroke:none;" d="M57 292C56.4999 294.913 55.8768 296.317 59 297L59 296L57 295L59 292L57 292z"/>
<path style="fill:#026cb0; stroke:none;" d="M256 292L257 293L256 292z"/>
<path style="fill:#074a7b; stroke:none;" d="M348 292L349 293L348 292z"/>
<path style="fill:#0e4269; stroke:none;" d="M52 293L53 294L52 293M117 293L117 296L118 296L119 293L117 293M120.333 293.667L120.667 294.333L120.333 293.667M145 293L146 294L145 293z"/>
<path style="fill:#026cb0; stroke:none;" d="M125 295L126 296L125 295z"/>
<path style="fill:#0e4269; stroke:none;" d="M149 295L150 296L149 295M114 296L117 298L114 296M112 298L113 299L112 298M118 298L119 299L118 298z"/>
<path style="fill:#074a7b; stroke:none;" d="M288 298L289 299L288 298z"/>
<path style="fill:#0e4269; stroke:none;" d="M54 299L53 302L54 302L54 299M112 300L114 304L115 304L114 301L115 300L118 301L112 300z"/>
<path style="fill:#074a7b; stroke:none;" d="M87 300L88 301L87 300M114 303L115 303L117 301L114 303z"/>
<path style="fill:#0e4269; stroke:none;" d="M119 300L120 301L119 300z"/>
<path style="fill:#13213d; stroke:none;" d="M303 300L304 301L303 300z"/>
<path style="fill:#677a8d; stroke:none;" d="M115 301L115 303L117 301L115 301z"/>
<path style="fill:#026cb0; stroke:none;" d="M116 302L117 303L116 302z"/>
<path style="fill:#0e4269; stroke:none;" d="M117.667 302.333L118.333 302.667L117.667 302.333M318 304L321 302L318 304M116 303L117 304L116 303M63 304L64 305L63 304z"/>
<path style="fill:#026cb0; stroke:none;" d="M177 304L178 305L177 304z"/>
<path style="fill:#13213d; stroke:none;" d="M306 304L307 305L306 304M311 304L312 305L311 304z"/>
<path style="fill:#0e4269; stroke:none;" d="M87 305L87 308L88 308L87 305z"/>
<path style="fill:#074a7b; stroke:none;" d="M80 306L81 307L80 306z"/>
<path style="fill:#026cb0; stroke:none;" d="M169 306L171 308L171 306L169 306M0 307L0 310L1 310L0 307z"/>
<path style="fill:#13213d; stroke:none;" d="M322.333 309.667L322.667 310.333L322.333 309.667z"/>
<path style="fill:#026cb0; stroke:none;" d="M8 311L9 312L8 311z"/>
<path style="fill:#074a7b; stroke:none;" d="M82 311L83 312L82 311M182 311L179 312L179 313L183 312L182 311z"/>
<path style="fill:#026cb0; stroke:none;" d="M0 312L0 320C3.9871 319.146 3 315.511 3 312L0 312z"/>
<path style="fill:#0e4269; stroke:none;" d="M105 312L106 313L105 312M111 312L112 313L111 312M332 312L333 313L332 312M44 313L45 314L44 313z"/>
<path style="fill:#074a7b; stroke:none;" d="M82 313L83 314L82 313z"/>
<path style="fill:#0e4269; stroke:none;" d="M107 313L108 314L107 313M109.333 313.667L109.667 314.333L109.333 313.667z"/>
<path style="fill:#677a8d; stroke:none;" d="M111.333 313.667L111.667 314.333L111.333 313.667z"/>
<path style="fill:#026cb0; stroke:none;" d="M112.333 313.667L112.667 314.333L112.333 313.667z"/>
<path style="fill:#0e4269; stroke:none;" d="M114 313L115 314L114 313z"/>
<path style="fill:#074a7b; stroke:none;" d="M0 314L2 318L0 314z"/>
<path style="fill:#0e4269; stroke:none;" d="M68 315L69 316L68 315z"/>
<path style="fill:#026cb0; stroke:none;" d="M133 315L132 317L134 317L133 315M45 316L46 317L45 316z"/>
<path style="fill:#0e4269; stroke:none;" d="M105 316L106 317L105 316M69 318L69 319L73 319L69 318M135 317L136 318L135 317M78 318L82 320L82 319L78 318M68 319L69 320L68 319z"/>
<path style="fill:#026cb0; stroke:none;" d="M71 319L72 320L71 319z"/>
</svg>
